<svg width="18" height="9" viewBox="0 0 18 9" fill="none" xmlns="http://www.w3.org/2000/svg">
<g clip-path="url(#clip0_42_1329)">
<path d="M17.0938 5.267C17.153 5.19908 17.2128 5.12222 17.2465 5.03459C17.285 4.94279 17.3063 4.84083 17.3055 4.73289C17.3047 4.62494 17.2813 4.51996 17.2392 4.42271C17.1971 4.32546 17.1365 4.23594 17.0614 4.15893L13.9674 1.08149C13.6498 0.763296 13.1328 0.759781 12.8211 1.07135C12.5095 1.38293 12.5154 1.8958 12.833 2.21399L14.5222 3.89271L9.05664 3.83754L9.06966 1.83796C9.0721 1.39307 8.71384 1.01819 8.26496 1.00579C7.81609 0.9934 7.45215 1.3419 7.45385 1.79156L7.43878 3.81796L1.2813 3.75194C0.831748 3.74849 0.476077 4.10653 0.482591 4.55202C0.483441 4.77684 0.575838 4.9809 0.72671 5.12597C0.872767 5.27521 1.0773 5.36547 1.30174 5.37167L7.43237 5.43589L7.41542 7.72291C7.41145 7.95191 7.50798 8.16073 7.65817 8.31475C7.80009 8.45921 7.99981 8.55365 8.22012 8.55507C8.66899 8.56746 9.02879 8.21419 9.03122 7.76931L9.05022 5.45545L14.5468 5.51722L12.9397 7.12572C12.6281 7.43729 12.634 7.95017 12.9516 8.26836C13.2692 8.58655 13.7862 8.59007 14.0978 8.27849L17.0684 5.30574C17.0684 5.30574 17.0787 5.28846 17.0842 5.27534L17.0938 5.267Z" fill="white"/>
</g>
<defs>
<clipPath id="clip0_42_1329">
<rect width="18" height="8" fill="white" transform="translate(0 0.5)"/>
</clipPath>
</defs>
</svg>
