<svg width="20" height="20" viewBox="0 0 20 20" fill="none" xmlns="http://www.w3.org/2000/svg">
<path d="M13.5714 0.714233C13.9659 0.714233 14.2857 1.03403 14.2857 1.42852L14.2862 2.25696C14.8861 2.3524 15.2745 2.50657 15.6647 2.71523C16.3631 3.08875 16.9112 3.63687 17.2847 4.33528C17.6241 4.96979 17.8193 5.59964 17.8522 7.14214L17.8571 7.14281V12.3631L17.8533 12.7988C17.8242 14.3843 17.6283 15.0221 17.2847 15.6646C16.9112 16.363 16.3631 16.9111 15.6647 17.2847C14.9663 17.6582 14.2735 17.8571 12.3631 17.8571H7.63689L7.20115 17.8533C5.61562 17.8242 4.97787 17.6283 4.33533 17.2847C3.63691 16.9111 3.0888 16.363 2.71528 15.6646C2.35671 14.9941 2.15905 14.3289 2.14381 12.5865L2.14285 7.63685V7.14281C2.18071 5.59964 2.37594 4.96979 2.71528 4.33528C3.0888 3.63687 3.63691 3.08875 4.33533 2.71523C4.72564 2.50649 5.11419 2.35228 5.7145 2.25684L5.71428 1.42852C5.71428 1.03403 6.03408 0.714233 6.42857 0.714233C6.82306 0.714233 7.14285 1.03403 7.14285 1.42852L7.14219 2.14778C7.29752 2.14447 7.46211 2.1428 7.63689 2.1428H12.3631C12.5382 2.1428 12.703 2.14448 12.8585 2.1478L12.8571 1.42852C12.8571 1.03403 13.1769 0.714233 13.5714 0.714233ZM16.4279 8.57138H3.57142L3.57208 12.5652L3.5784 12.9715C3.60617 14.048 3.71993 14.5139 3.97501 14.9909C4.21539 15.4404 4.55958 15.7846 5.00904 16.0249C5.54212 16.31 6.06138 16.4186 7.43479 16.4279H12.5652L12.9715 16.4215C14.0481 16.3938 14.514 16.28 14.991 16.0249C15.4404 15.7846 15.7846 15.4404 16.025 14.9909C16.3101 14.4578 16.4186 13.9386 16.4279 12.5652L16.4279 8.57138ZM13.6043 12.1428C13.9134 12.1428 14.1568 12.2008 14.3605 12.3098C14.5642 12.4187 14.7241 12.5786 14.833 12.7823C14.942 12.986 15 13.2294 15 13.5385V13.6042C15 13.9134 14.942 14.1568 14.833 14.3605C14.7241 14.5642 14.5642 14.724 14.3605 14.833C14.1568 14.9419 13.9134 14.9999 13.6043 14.9999H13.5386C13.2294 14.9999 12.986 14.9419 12.7823 14.833C12.5786 14.724 12.4188 14.5642 12.3098 14.3605C12.2009 14.1568 12.1429 13.9134 12.1429 13.6042V13.5385C12.1429 13.2294 12.2009 12.986 12.3098 12.7823C12.4188 12.5786 12.5786 12.4187 12.7823 12.3098C12.986 12.2008 13.2294 12.1428 13.5386 12.1428H13.6043ZM12.5652 3.57204H7.43479L7.14285 3.57566V4.28566C7.14285 4.68015 6.82306 4.99995 6.42857 4.99995C6.03408 4.99995 5.71428 4.68015 5.71428 4.28566L5.71375 3.70889C5.44182 3.77168 5.22658 3.85862 5.00904 3.97497C4.55958 4.21534 4.21539 4.55953 3.97501 5.00899C3.71114 5.50239 3.5985 5.98394 3.57584 7.14184L16.4236 7.14281L16.4216 7.02841C16.3938 5.95187 16.2801 5.48596 16.025 5.00899C15.7846 4.55953 15.4404 4.21534 14.991 3.97497C14.7735 3.85865 14.5583 3.77172 14.2864 3.70893L14.2857 4.28566C14.2857 4.68015 13.9659 4.99995 13.5714 4.99995C13.1769 4.99995 12.8571 4.68015 12.8571 4.28566L12.8588 3.5758C12.7655 3.57397 12.6677 3.57273 12.5652 3.57204Z" fill="#323232"/>
</svg>
