<svg width="18" height="18" viewBox="0 0 18 18" fill="none" xmlns="http://www.w3.org/2000/svg">
<path d="M9 0.428589C13.7327 0.428589 17.5714 4.26595 17.5714 9.00002C17.5714 13.7341 13.7327 17.5714 9 17.5714C4.26593 17.5714 0.42857 13.7341 0.42857 9.00002C0.42857 4.26595 4.26593 0.428589 9 0.428589ZM9 1.85716C5.05491 1.85716 1.85714 5.05493 1.85714 9.00002C1.85714 12.9451 5.05491 16.1429 9 16.1429C12.9443 16.1429 16.1429 12.9446 16.1429 9.00002C16.1429 5.05542 12.9443 1.85716 9 1.85716ZM8.64286 4.71436C9.03734 4.71436 9.35714 5.03416 9.35714 5.42865V9.07408L12.839 10.4806C13.2047 10.6284 13.3815 11.0447 13.2337 11.4105C13.086 11.7763 12.6697 11.953 12.3039 11.8052L8.37531 10.2182C8.10532 10.1091 7.92857 9.84707 7.92857 9.55589V5.42865C7.92857 5.03416 8.24837 4.71436 8.64286 4.71436Z" fill="#323232"/>
</svg>
