<svg width="20" height="20" viewBox="0 0 20 20" fill="none" xmlns="http://www.w3.org/2000/svg">
<path d="M14.5799 2.75333L14.6672 2.80946C14.692 2.82558 14.7167 2.84183 14.7413 2.85821L14.6675 2.80953C14.726 2.84762 14.7841 2.8864 14.8416 2.92587L14.7413 2.85821C14.8038 2.89981 14.8658 2.94221 14.9271 2.9854L14.8416 2.92587C14.9013 2.96682 14.9605 3.00851 15.0191 3.05092L15.019 3.05096C15.1079 3.11515 15.1954 3.18104 15.2815 3.24854C15.387 3.33124 15.4906 3.41641 15.5922 3.50392C15.7594 3.64795 15.9211 3.79852 16.0769 3.95507L16.0128 3.89133C16.059 3.93687 16.1048 3.98293 16.15 4.02951L16.0769 3.95507C16.1332 4.01168 16.1887 4.06908 16.2434 4.12724L16.15 4.02951C16.2023 4.08332 16.2538 4.13782 16.3046 4.19298L16.2434 4.12724C16.2899 4.17664 16.3358 4.2266 16.3811 4.27709L16.3046 4.19298C16.3545 4.24705 16.4036 4.30175 16.452 4.35708L16.3811 4.27709C16.4296 4.33108 16.4774 4.38568 16.5244 4.44088L16.452 4.35708C16.5006 4.41261 16.5485 4.46878 16.5957 4.52556L16.5244 4.44088C16.5724 4.49716 16.6197 4.55408 16.6663 4.61161L16.6661 4.61143C16.866 4.85834 17.0522 5.11639 17.224 5.38463L17.1617 5.28873C17.2101 5.3622 17.2574 5.43646 17.3036 5.51149L17.224 5.38463C17.2611 5.44269 17.2976 5.50122 17.3334 5.56022L17.3036 5.51149C17.3344 5.5614 17.3646 5.61165 17.3944 5.66223L17.3334 5.56022C17.3745 5.62785 17.4146 5.6961 17.4538 5.76494L17.4539 5.76509C17.514 5.87071 17.5721 5.9779 17.6279 6.08643C17.6484 6.12649 17.6686 6.16647 17.6885 6.20663C17.7422 6.31539 17.7938 6.42553 17.843 6.53692C18.0068 6.90726 18.1453 7.2918 18.256 7.68793L18.3012 7.85649L18.363 8.11295C18.3702 8.1448 18.3772 8.17671 18.384 8.20868L18.4319 8.45158L18.4756 8.71432C18.491 8.8167 18.5046 8.91967 18.5164 9.02319L18.4905 8.81734C18.503 8.90794 18.5141 8.99899 18.5237 9.09047L18.5237 9.09039C18.5457 9.29878 18.5602 9.50932 18.567 9.72182L18.567 9.72151L18.5714 10L18.5677 10.255C18.5665 10.2978 18.5649 10.3405 18.563 10.3832C18.5543 10.5808 18.5389 10.7767 18.5171 10.9707L18.5234 10.9125C18.5136 11.0054 18.5023 11.0979 18.4895 11.19L18.5171 10.9707C18.5061 11.0681 18.4935 11.165 18.4793 11.2614L18.4793 11.2614C18.4485 11.47 18.4102 11.6762 18.3647 11.8797L18.3646 11.88L18.3014 12.1428L18.256 12.3121C18.1258 12.7779 17.9573 13.2276 17.754 13.6577C17.6494 13.8792 17.5353 14.0959 17.4124 14.3069L17.4526 14.2371C17.4189 14.2963 17.3845 14.3551 17.3494 14.4134L17.4124 14.3069C17.3735 14.3737 17.3337 14.44 17.293 14.5057L17.3494 14.4134C17.3112 14.4768 17.2722 14.5397 17.2325 14.6021L17.293 14.5057C17.2506 14.5742 17.2073 14.6421 17.163 14.7093L17.2325 14.6021C17.2052 14.6449 17.1775 14.6875 17.1495 14.7298L17.163 14.7093C17.131 14.7579 17.0984 14.8063 17.0654 14.8542L17.1495 14.7298C17.0912 14.8176 17.0314 14.9044 16.97 14.9899L17.0654 14.8542C17.0226 14.9163 16.9791 14.9779 16.9347 15.0388L16.9347 15.0389C16.7475 15.296 16.5464 15.5424 16.3324 15.7768L16.3773 15.7272C16.3271 15.783 16.2762 15.8383 16.2245 15.8928L16.3324 15.7768C16.2785 15.8358 16.2239 15.894 16.1685 15.9515L16.2245 15.8928C16.1786 15.9413 16.1322 15.9892 16.0852 16.0365L16.1685 15.9515C16.1165 16.0053 16.0639 16.0584 16.0106 16.1109L16.0852 16.0365C16.0496 16.0724 16.0138 16.1079 15.9776 16.1431L15.9779 16.1429C15.8931 16.2253 15.807 16.3058 15.7192 16.3844C15.5295 16.5545 15.3321 16.7163 15.1277 16.8692L15.1818 16.8284C15.1201 16.8752 15.0578 16.9213 14.9949 16.9665L15.1277 16.8692C15.0731 16.9099 15.0181 16.9501 14.9626 16.9896L14.9949 16.9665C14.9402 17.0057 14.8851 17.0444 14.8295 17.0824L14.9626 16.9896C14.891 17.0405 14.8187 17.0903 14.7455 17.139L14.8295 17.0824C14.7833 17.1139 14.7368 17.145 14.69 17.1757L14.7455 17.139C14.6874 17.1777 14.6287 17.2158 14.5696 17.2531L14.5697 17.253C14.2985 17.4242 14.0172 17.5806 13.7268 17.721L13.8175 17.6765C13.7475 17.7114 13.6769 17.7454 13.6058 17.7784L13.7268 17.721C13.6655 17.7507 13.6038 17.7796 13.5417 17.8078L13.6058 17.7784C13.5405 17.8087 13.4748 17.8382 13.4086 17.8669L13.5417 17.8078C13.4672 17.8417 13.392 17.8745 13.3163 17.9063L13.4086 17.8669C13.3336 17.8995 13.2581 17.931 13.1819 17.9614L13.3163 17.9063C13.2574 17.931 13.1982 17.9551 13.1386 17.9786L13.1819 17.9614C13.1145 17.9884 13.0467 18.0145 12.9784 18.0398L13.1386 17.9786C13.0614 18.009 12.9836 18.0383 12.9053 18.0665L12.9784 18.0398C12.8877 18.0734 12.7963 18.1055 12.7042 18.1361L12.7041 18.1362C12.5656 18.1822 12.4253 18.2248 12.2836 18.2639L12.3735 18.2386C12.3098 18.2569 12.2458 18.2745 12.1815 18.2914L12.2836 18.2639C12.2097 18.2843 12.1354 18.3037 12.0607 18.3221L12.1815 18.2914C12.1051 18.3114 12.0283 18.3304 11.9511 18.3484L12.0607 18.3221C11.9941 18.3386 11.9272 18.3542 11.86 18.3691L11.9511 18.3484C11.8799 18.365 11.8085 18.3806 11.7367 18.3954L11.86 18.3691C11.7772 18.3874 11.6941 18.4045 11.6105 18.4204L11.7367 18.3954C11.6664 18.4099 11.5957 18.4235 11.5248 18.4362L11.6105 18.4204C11.5448 18.4329 11.4789 18.4446 11.4128 18.4556L11.413 18.4555C11.327 18.4698 11.2408 18.4827 11.1541 18.4944L11.0688 18.5055L10.8631 18.5285C10.5792 18.5569 10.2913 18.5714 10 18.5714C9.4799 18.5714 8.97062 18.5251 8.47606 18.4364L8.57874 18.4547C8.50026 18.4415 8.42214 18.4274 8.34439 18.4121L8.47606 18.4364C8.41346 18.4251 8.3511 18.4132 8.28898 18.4006L8.28882 18.4011C8.14295 18.3711 7.99827 18.3378 7.85504 18.3009L7.9067 18.3144C7.84001 18.2977 7.77363 18.2801 7.70758 18.2618L7.85504 18.3009C7.78226 18.2821 7.70985 18.2624 7.63783 18.2418L7.63814 18.2423C7.45415 18.1893 7.27301 18.1308 7.0946 18.0665L7.29588 18.1365C7.18776 18.1006 7.08061 18.0625 6.97445 18.0225L7.0946 18.0665C7.02666 18.042 6.95911 18.0167 6.89197 17.9906L6.97445 18.0225C6.8943 17.9922 6.81472 17.9608 6.73573 17.9282L6.89197 17.9906C6.82501 17.9645 6.75846 17.9376 6.69232 17.9099L6.73573 17.9282C6.67923 17.9049 6.62303 17.881 6.56714 17.8566L6.69232 17.9099C6.62394 17.8813 6.55601 17.8518 6.48854 17.8215L6.56714 17.8566C6.49818 17.8264 6.4297 17.7953 6.3617 17.7634L6.48854 17.8215C6.42216 17.7916 6.35624 17.761 6.29077 17.7295L6.3617 17.7634C6.30156 17.7352 6.2418 17.7062 6.18244 17.6767L6.18246 17.6765C6.07845 17.6248 5.97567 17.571 5.87414 17.5151C5.82978 17.4905 5.78547 17.4656 5.74142 17.4404C5.59476 17.3564 5.45098 17.2681 5.31008 17.1758L5.43027 17.253C5.37116 17.2157 5.31253 17.1777 5.2544 17.139L5.31008 17.1758C5.25969 17.1428 5.20968 17.1093 5.16004 17.0753L5.2544 17.139C5.19065 17.0965 5.12751 17.0532 5.06498 17.0091L5.16004 17.0753C5.09704 17.0321 5.03464 16.9881 4.97287 16.9433L5.06498 17.0091C5.00184 16.9646 4.93933 16.9192 4.87746 16.873L4.97287 16.9433C4.92085 16.9056 4.86926 16.8673 4.81812 16.8284L4.81821 16.8284C4.6332 16.6878 4.45416 16.5399 4.28144 16.3851C4.18199 16.2959 4.08461 16.2045 3.9894 16.1108L4.02212 16.1429C3.98611 16.1078 3.9504 16.0725 3.91501 16.0368L3.9894 16.1108C3.93606 16.0584 3.8834 16.0052 3.83145 15.9514L3.91501 16.0368C3.86794 15.9893 3.82142 15.9414 3.77546 15.8928L3.83145 15.9514C3.77616 15.8941 3.72166 15.836 3.66798 15.7772L3.77546 15.8928C3.72373 15.8382 3.67271 15.7829 3.62242 15.7269L3.62266 15.7272C3.41184 15.4926 3.214 15.2465 3.02997 14.99L3.06533 15.0389C3.02102 14.978 2.97749 14.9165 2.93475 14.8544L3.02997 14.99C2.96868 14.9045 2.90893 14.8179 2.85074 14.7301L2.93475 14.8544C2.90166 14.8064 2.86905 14.7579 2.83692 14.7092L2.85074 14.7301C2.82263 14.6877 2.79488 14.645 2.76751 14.6021L2.83692 14.7092C2.79266 14.642 2.74932 14.5741 2.70692 14.5056L2.76751 14.6021C2.72778 14.5398 2.68884 14.4769 2.65069 14.4135L2.70692 14.5056C2.66632 14.4401 2.62659 14.3739 2.58773 14.3072L2.65069 14.4135C2.61549 14.355 2.58097 14.2961 2.54713 14.2367L2.54736 14.2371C2.42244 14.0178 2.30712 13.7929 2.2017 13.5626L2.24595 13.6577C2.21424 13.5906 2.18338 13.523 2.15337 13.455L2.15316 13.4545C1.99106 13.0869 1.85388 12.7052 1.74403 12.3121L1.69859 12.1428L1.63537 11.88C1.62931 11.8529 1.62337 11.8257 1.61757 11.7985C1.57477 11.5981 1.53902 11.3952 1.51053 11.1901L1.52074 11.2614C1.50651 11.165 1.49388 11.0679 1.48289 10.9704L1.51053 11.1901C1.49775 11.0981 1.48643 11.0057 1.47659 10.9127L1.47657 10.9125C1.45423 10.7015 1.43954 10.4879 1.43281 10.2723L1.43283 10.2728L1.42857 10L1.43301 9.72151C1.43412 9.68656 1.43545 9.65167 1.43698 9.61683C1.44577 9.41708 1.46139 9.21917 1.48361 9.02327L1.47627 9.09039C1.48592 8.9989 1.49701 8.90784 1.50951 8.81723L1.5095 8.81734L1.52435 8.71432L1.56807 8.45158C1.58879 8.338 1.61176 8.2252 1.63691 8.11323L1.63697 8.11295L1.69878 7.85649L1.74403 7.68793C1.85473 7.2918 1.99318 6.90725 2.15714 6.53651L2.14212 6.57069C2.19583 6.44778 2.25235 6.32638 2.31158 6.20656C2.33139 6.16647 2.35155 6.12649 2.37201 6.08669C2.44613 5.94253 2.52406 5.80099 2.6058 5.66196L2.54613 5.76509C2.58538 5.69615 2.62556 5.62782 2.66664 5.5601L2.6058 5.66196C2.63545 5.61153 2.6656 5.56144 2.69624 5.51168L2.66664 5.5601C2.70248 5.50104 2.73901 5.44244 2.77622 5.38433L2.69624 5.51168C2.74247 5.43661 2.78982 5.36231 2.83828 5.2888L2.83833 5.28873C3.01298 5.02377 3.20199 4.76901 3.40422 4.52562L3.3356 4.60928C3.38155 4.55254 3.4282 4.49641 3.47556 4.44089L3.40422 4.52562C3.45144 4.4688 3.49938 4.4126 3.54802 4.35703L3.47556 4.44089C3.52262 4.38571 3.57037 4.33113 3.61879 4.27718L3.54802 4.35703C3.59649 4.30165 3.64566 4.2469 3.69553 4.1928L3.61879 4.27718C3.6641 4.22669 3.71001 4.17673 3.75649 4.12733L3.69553 4.1928C3.74632 4.13769 3.79782 4.08324 3.85002 4.02948L3.75649 4.12733C3.81131 4.06907 3.86694 4.01158 3.92335 3.95487L3.85002 4.02948C3.89515 3.98301 3.94079 3.93705 3.98695 3.89161L3.98724 3.89133C4.12314 3.75753 4.2638 3.62797 4.40867 3.50317C4.50986 3.41601 4.61326 3.33104 4.71864 3.24849C4.83204 3.15966 4.94788 3.07351 5.06592 2.99027L4.98096 3.05096C5.05402 2.9981 5.12794 2.94637 5.20271 2.89578L5.06592 2.99027C5.12035 2.95189 5.17526 2.91412 5.23062 2.87698L5.20271 2.89578C5.25871 2.85789 5.31519 2.82064 5.37213 2.78405L5.23062 2.87698C5.29274 2.8353 5.35544 2.79441 5.4187 2.75433L5.41876 2.75429C5.52476 2.68713 5.63239 2.6222 5.74154 2.55959C5.78547 2.53439 5.82978 2.5095 5.87432 2.485C6.0003 2.41569 6.12811 2.34951 6.25775 2.2865L6.19737 2.31614C6.25783 2.28616 6.3187 2.25687 6.37996 2.22829L6.25775 2.2865C6.33006 2.25135 6.40294 2.21719 6.47637 2.18403L6.37996 2.22829C6.44757 2.19674 6.51566 2.16605 6.58422 2.13623L6.47637 2.18403C6.54407 2.15346 6.61224 2.12375 6.68087 2.0949L6.68083 2.09491C6.79608 2.04647 6.91257 2.00048 7.03028 1.957C7.11803 1.92459 7.20656 1.89354 7.29575 1.86391L7.18588 1.90124C7.24577 1.88044 7.30595 1.86028 7.36643 1.84077L7.29575 1.86391C7.36359 1.84137 7.4318 1.81966 7.50038 1.79879L7.36643 1.84077C7.44749 1.81462 7.52908 1.78965 7.61118 1.76588L7.50038 1.79879C7.57246 1.77684 7.64494 1.75583 7.71781 1.73575L7.61118 1.76588C7.68303 1.74507 7.75527 1.72518 7.82788 1.70621L7.71781 1.73575C7.79125 1.71551 7.86508 1.69623 7.93929 1.67792L7.82788 1.70621C7.89997 1.68738 7.97244 1.66947 8.04526 1.65248L7.93929 1.67792C8.00944 1.6606 8.07993 1.64416 8.15075 1.62858L8.04526 1.65248C8.1153 1.63615 8.18567 1.62067 8.25636 1.60606L8.15075 1.62858C8.23159 1.61081 8.31285 1.59417 8.39453 1.5787L8.25636 1.60606C8.32898 1.59105 8.40195 1.57696 8.47523 1.56381L8.39453 1.5787C8.45851 1.56657 8.52275 1.55516 8.58722 1.54447L8.58706 1.54449C8.67301 1.53024 8.75923 1.51728 8.84586 1.50563L8.93122 1.49457L9.13692 1.4715C9.42076 1.44312 9.70868 1.42859 10 1.42859C10.5201 1.42859 11.0294 1.47491 11.5239 1.56366L11.4212 1.54537C11.4997 1.55848 11.5778 1.57265 11.6556 1.58788L11.5239 1.56366C11.5865 1.57489 11.6489 1.5868 11.711 1.59939L11.7111 1.59895C11.8614 1.62986 12.0104 1.66427 12.1579 1.7025L12.0906 1.68495C12.1552 1.70116 12.2196 1.7181 12.2836 1.73577L12.1579 1.7025C12.2301 1.72125 12.3021 1.74092 12.3736 1.76149L12.3735 1.7611C12.5222 1.80423 12.6692 1.85088 12.8144 1.90132L12.8142 1.90096C12.9162 1.93673 13.0173 1.974 13.1174 2.0131L13.0006 1.96821C13.0786 1.99738 13.1561 2.02764 13.233 2.059L13.1174 2.0131C13.1824 2.0385 13.247 2.06467 13.3113 2.0916L13.233 2.059C13.2943 2.08397 13.3552 2.10963 13.4157 2.13597L13.3113 2.0916C13.3826 2.12148 13.4533 2.1523 13.5236 2.18404L13.4157 2.13597C13.4843 2.16583 13.5525 2.19655 13.6202 2.22814L13.5236 2.18404C13.597 2.21717 13.6698 2.2513 13.7421 2.28642L13.6202 2.22814C13.6815 2.25675 13.7424 2.28606 13.8029 2.31607L13.8026 2.31614C13.9118 2.37009 14.0194 2.42635 14.1256 2.4848C14.28 2.5699 14.4314 2.65943 14.5798 2.75338L14.5799 2.75333ZM11.725 13.4281L8.27515 13.4286C8.64406 14.8888 9.24084 16.1919 9.99971 17.2598C10.7591 16.1921 11.356 14.8886 11.725 13.4281ZM3.5698 13.4286C4.55047 15.264 6.29397 16.6304 8.37683 17.1043C7.74952 16.0174 7.26307 14.7757 6.95396 13.4287L3.5698 13.4286ZM16.4302 13.4286L13.0462 13.4279C12.7372 14.775 12.2508 16.0167 11.6239 17.1035C13.706 16.6304 15.4495 15.264 16.4302 13.4286ZM6.71817 7.85675L3.03461 7.85684C2.82637 8.53444 2.71428 9.25414 2.71428 10C2.71428 10.7456 2.82629 11.4651 3.03439 12.1425L6.71813 12.143C6.6218 11.4486 6.57143 10.7322 6.57143 10C6.57143 9.26772 6.62182 8.5513 6.71817 7.85675ZM11.9832 7.85632H8.01678C7.91231 8.54628 7.85714 9.26318 7.85714 10C7.85714 10.7365 7.91227 11.4532 8.01665 12.1429L11.9833 12.143C12.0877 11.4533 12.1429 10.7366 12.1429 10C12.1429 9.26318 12.0877 8.54628 11.9832 7.85632ZM16.9654 7.85684L13.2818 7.85675C13.3782 8.5513 13.4286 9.26772 13.4286 10C13.4286 10.7321 13.3782 11.4482 13.2819 12.1426L16.9656 12.1425C17.1737 11.4651 17.2857 10.7456 17.2857 10C17.2857 9.25414 17.1736 8.53444 16.9654 7.85684ZM8.3761 2.89651L8.24916 2.92605C6.22307 3.42584 4.53081 4.77333 3.57018 6.57073L6.95394 6.57137C7.26299 5.22463 7.74932 3.9831 8.3761 2.89651ZM10 2.73984L9.96853 2.78436C9.22452 3.8439 8.63904 5.1312 8.27519 6.57124H11.7248C11.3558 5.11097 10.759 3.80776 10 2.73984ZM11.6232 2.89578L11.6694 2.97609C12.2742 4.04357 12.7445 5.25739 13.0461 6.57137L16.4298 6.57073C15.4491 4.73571 13.7058 3.36962 11.6232 2.89578Z" fill="#323232"/>
</svg>
