<svg width="20" height="20" viewBox="0 0 20 20" fill="none" xmlns="http://www.w3.org/2000/svg">
<path d="M8.80401 11.4858L3.74407 10.9587C3.063 10.8878 2.48247 10.4336 2.2497 9.78964C1.91446 8.86215 2.39458 7.8385 3.32208 7.50326L13.8472 3.69901C14.3179 3.52888 14.8333 3.52888 15.304 3.69901C16.417 4.1013 16.9931 5.32968 16.5908 6.44267L12.7866 16.9678C12.5538 17.6117 11.9733 18.0659 11.2922 18.1369C10.3113 18.239 9.43327 17.5267 9.33109 16.5458L8.80401 11.4858ZM3.74926 8.87399C3.60286 8.95907 3.53361 9.13915 3.59321 9.30404C3.63976 9.43284 3.75587 9.52367 3.89208 9.53786L9.52842 10.125C9.86435 10.16 10.1299 10.4255 10.1649 10.7614L10.752 16.3978C10.7724 16.5939 10.948 16.7364 11.1442 16.716C11.2804 16.7018 11.3965 16.6109 11.4431 16.4822L15.2473 5.95707C15.3814 5.58607 15.1894 5.17661 14.8184 5.04252C14.6615 4.9858 14.4897 4.9858 14.3328 5.04252L3.80768 8.84676L3.74926 8.87399Z" fill="#323232"/>
</svg>
