<svg width="20" height="20" viewBox="0 0 20 20" fill="none" xmlns="http://www.w3.org/2000/svg">
<path d="M16.4286 8.582C16.4286 5.02604 13.5507 2.14282 10 2.14282C6.44931 2.14282 3.57144 5.02604 3.57144 8.582C3.57144 11.1161 5.128 14.1748 8.20027 17.8073C9.04094 18.8013 10.5282 18.9255 11.5222 18.0848C11.6223 18.0002 11.7151 17.9074 11.7998 17.8073C14.872 14.1748 16.4286 11.1161 16.4286 8.582ZM10.5997 16.9941C10.2081 17.3253 9.6222 17.2763 9.29102 16.8848C6.41673 13.4864 5.00001 10.7024 5.00001 8.582C5.00001 5.81442 7.23889 3.57139 10 3.57139C12.7611 3.57139 15 5.81442 15 8.582C15 10.7024 13.5833 13.4864 10.709 16.8848C10.6757 16.9242 10.6391 16.9607 10.5997 16.9941ZM7.14287 8.57139C7.14287 6.99384 8.42246 5.71425 10 5.71425C11.5776 5.71425 12.8572 6.99384 12.8572 8.57139C12.8572 10.1489 11.5776 11.4285 10 11.4285C8.42246 11.4285 7.14287 10.1489 7.14287 8.57139ZM8.57144 8.57139C8.57144 9.35997 9.21144 9.99997 10 9.99997C10.7886 9.99997 11.4286 9.35997 11.4286 8.57139C11.4286 7.78282 10.7886 7.14282 10 7.14282C9.21144 7.14282 8.57144 7.78282 8.57144 8.57139Z" fill="#323232"/>
</svg>
