<svg width="24" height="24" viewBox="0 0 24 24" fill="none" xmlns="http://www.w3.org/2000/svg">
<path d="M7.81326 12.8572C8.72644 12.8572 9.20486 12.9496 9.70319 13.2161C10.1668 13.4641 10.5359 13.8331 10.7838 14.2968C11.0503 14.7951 11.1427 15.2735 11.1427 16.1867V18.0992C11.1427 19.0124 11.0503 19.4908 10.7838 19.9891C10.5359 20.4528 10.1668 20.8218 9.70319 21.0698C9.20486 21.3363 8.72644 21.4287 7.81326 21.4287H5.90075C4.98756 21.4287 4.50914 21.3363 4.01082 21.0698C3.54716 20.8218 3.17815 20.4528 2.93018 19.9891C2.66368 19.4908 2.57129 19.0124 2.57129 18.0992V16.1867C2.57129 15.2735 2.66368 14.7951 2.93018 14.2968C3.17815 13.8331 3.54716 13.4641 4.01082 13.2161C4.50914 12.9496 4.98756 12.8572 5.90075 12.8572H7.81326ZM18.099 12.8572C19.0122 12.8572 19.4906 12.9496 19.9889 13.2161C20.4526 13.4641 20.8216 13.8331 21.0695 14.2968C21.336 14.7951 21.4284 15.2735 21.4284 16.1867V18.0992C21.4284 19.0124 21.336 19.4908 21.0695 19.9891C20.8216 20.4528 20.4526 20.8218 19.9889 21.0698C19.4906 21.3363 19.0122 21.4287 18.099 21.4287H16.1865C15.2733 21.4287 14.7949 21.3363 14.2965 21.0698C13.8329 20.8218 13.4639 20.4528 13.2159 19.9891C12.9494 19.4908 12.857 19.0124 12.857 18.0992V16.1867C12.857 15.2735 12.9494 14.7951 13.2159 14.2968C13.4639 13.8331 13.8329 13.4641 14.2965 13.2161C14.7949 12.9496 15.2733 12.8572 16.1865 12.8572H18.099ZM7.81326 14.5715H5.90075C5.24636 14.5715 5.0353 14.6123 4.81927 14.7278C4.65436 14.816 4.53006 14.9403 4.44186 15.1052C4.32633 15.3212 4.28557 15.5323 4.28557 16.1867V18.0992C4.28557 18.7536 4.32633 18.9647 4.44186 19.1807C4.53006 19.3456 4.65436 19.4699 4.81927 19.5581C5.0353 19.6736 5.24636 19.7144 5.90075 19.7144H7.81326C8.46765 19.7144 8.67871 19.6736 8.89473 19.5581C9.05965 19.4699 9.18395 19.3456 9.27214 19.1807C9.38767 18.9647 9.42843 18.7536 9.42843 18.0992V16.1867C9.42843 15.5323 9.38767 15.3212 9.27214 15.1052C9.18395 14.9403 9.05965 14.816 8.89473 14.7278C8.67871 14.6123 8.46765 14.5715 7.81326 14.5715ZM18.099 14.5715H16.1865C15.5321 14.5715 15.321 14.6123 15.105 14.7278C14.9401 14.816 14.8158 14.9403 14.7276 15.1052C14.612 15.3212 14.5713 15.5323 14.5713 16.1867V18.0992C14.5713 18.7536 14.612 18.9647 14.7276 19.1807C14.8158 19.3456 14.9401 19.4699 15.105 19.5581C15.321 19.6736 15.5321 19.7144 16.1865 19.7144H18.099C18.7534 19.7144 18.9644 19.6736 19.1804 19.5581C19.3454 19.4699 19.4697 19.3456 19.5579 19.1807C19.6734 18.9647 19.7141 18.7536 19.7141 18.0992V16.1867C19.7141 15.5323 19.6734 15.3212 19.5579 15.1052C19.4697 14.9403 19.3454 14.816 19.1804 14.7278C18.9644 14.6123 18.7534 14.5715 18.099 14.5715ZM17.9068 2.068C18.4477 2.23192 18.8513 2.50489 19.497 3.15061L20.8493 4.50295C21.4951 5.14867 21.768 5.5523 21.932 6.09312C22.0845 6.59631 22.0845 7.11817 21.932 7.62136C21.768 8.16218 21.4951 8.5658 20.8493 9.21152L19.497 10.5639C18.8513 11.2096 18.4477 11.4826 17.9068 11.6465C17.4036 11.799 16.8818 11.799 16.3786 11.6465C15.8378 11.4826 15.4342 11.2096 14.7884 10.5639L13.4361 9.21152C12.7904 8.5658 12.5174 8.16218 12.3535 7.62136C12.201 7.11817 12.201 6.59631 12.3535 6.09312C12.5174 5.5523 12.7904 5.14867 13.4361 4.50295L14.7884 3.15061C15.4342 2.50489 15.8378 2.23192 16.3786 2.068C16.8818 1.91548 17.4036 1.91548 17.9068 2.068ZM7.81326 2.57152C8.72644 2.57152 9.20486 2.66391 9.70319 2.93042C10.1668 3.17839 10.5359 3.54739 10.7838 4.01105C11.0503 4.50938 11.1427 4.9878 11.1427 5.90099V7.81349C11.1427 8.72668 11.0503 9.2051 10.7838 9.70342C10.5359 10.1671 10.1668 10.5361 9.70319 10.7841C9.20486 11.0506 8.72644 11.143 7.81326 11.143H5.90075C4.98756 11.143 4.50914 11.0506 4.01082 10.7841C3.54716 10.5361 3.17815 10.1671 2.93018 9.70342C2.66368 9.2051 2.57129 8.72668 2.57129 7.81349V5.90099C2.57129 4.9878 2.66368 4.50938 2.93018 4.01105C3.17815 3.54739 3.54716 3.17839 4.01082 2.93042C4.50914 2.66391 4.98756 2.57152 5.90075 2.57152H7.81326ZM16.8758 3.70858C16.6414 3.77964 16.4633 3.90007 16.0006 4.36279L14.6483 5.71514C14.1855 6.17786 14.0651 6.35593 13.9941 6.59037C13.9398 6.76935 13.9398 6.94513 13.9941 7.12411C14.0651 7.35855 14.1855 7.53662 14.6483 7.99934L16.0006 9.35169C16.4633 9.81441 16.6414 9.93483 16.8758 10.0059C17.0548 10.0601 17.2306 10.0601 17.4096 10.0059C17.644 9.93483 17.8221 9.81441 18.2848 9.35169L19.6372 7.99934C20.0999 7.53662 20.2203 7.35855 20.2914 7.12411C20.3456 6.94513 20.3456 6.76935 20.2914 6.59037C20.2203 6.35593 20.0999 6.17786 19.6372 5.71514L18.2848 4.36279C17.8221 3.90007 17.644 3.77964 17.4096 3.70858C17.2306 3.65434 17.0548 3.65434 16.8758 3.70858ZM7.81326 4.28581H5.90075C5.24636 4.28581 5.0353 4.32657 4.81927 4.4421C4.65436 4.5303 4.53006 4.6546 4.44186 4.81951C4.32633 5.03553 4.28557 5.2466 4.28557 5.90099V7.81349C4.28557 8.46788 4.32633 8.67895 4.44186 8.89497C4.53006 9.05988 4.65436 9.18418 4.81927 9.27238C5.0353 9.38791 5.24636 9.42867 5.90075 9.42867H7.81326C8.46765 9.42867 8.67871 9.38791 8.89473 9.27238C9.05965 9.18418 9.18395 9.05988 9.27214 8.89497C9.38767 8.67895 9.42843 8.46788 9.42843 7.81349V5.90099C9.42843 5.2466 9.38767 5.03553 9.27214 4.81951C9.18395 4.6546 9.05965 4.5303 8.89473 4.4421C8.67871 4.32657 8.46765 4.28581 7.81326 4.28581Z" fill="#7533B6"/>
</svg>
