<svg width="16" height="20" viewBox="0 0 16 20" fill="none" xmlns="http://www.w3.org/2000/svg">
<path d="M10.9953 14.7284L10.9783 5.6249C12.2754 5.33137 13.2835 4.82888 13.9959 4.10616C14.9798 3.10993 15.0102 2.07606 15.0121 1.88539C15.0022 1.29981 14.5365 0.85373 13.9501 0.835043C13.3636 0.816358 12.8686 1.28977 12.8202 1.87932C12.778 2.51829 11.7091 3.73135 8.03484 3.74124C4.28441 3.75044 3.05883 2.4855 2.93127 1.8024C2.85423 1.21846 2.33681 0.787635 1.73836 0.851843C1.13331 0.904778 0.698092 1.44153 0.750282 2.04768C0.767011 2.16673 1.03359 4.40566 4.24988 5.42361L4.26888 14.7761C0.694623 15.7582 0.413269 18.1605 0.398543 18.2905C0.34121 18.8777 0.763873 19.3795 1.34527 19.4542C1.92667 19.529 2.46367 19.1143 2.568 18.5297C2.68667 17.8533 3.90853 16.5653 7.67021 16.5495C11.3445 16.5396 12.414 17.7448 12.4596 18.3396C12.4535 18.9498 12.9367 19.4386 13.5457 19.4441C14.157 19.4405 14.6431 18.9648 14.6468 18.3636C14.6487 18.173 14.603 17.1384 13.621 16.1471C12.987 15.5043 12.0983 15.0343 10.9817 14.7439L10.9953 14.7284ZM6.45566 14.3985L6.43996 5.84022C6.93203 5.89171 7.44895 5.92099 8.04004 5.92177C8.29752 5.92182 8.54841 5.91058 8.79035 5.89704L8.81341 14.3904C8.44873 14.3624 8.07047 14.3501 7.67861 14.3533C7.24869 14.3562 6.84558 14.3661 6.4646 14.4008L6.45566 14.3985Z" fill="white"/>
</svg>
