<svg width="14" height="15" viewBox="0 0 14 15" fill="none" xmlns="http://www.w3.org/2000/svg">
<path d="M9.49998 4.07139C9.49998 2.68999 8.38139 1.57139 6.99998 1.57139C5.61858 1.57139 4.49998 2.68999 4.49998 4.07139C4.49998 5.4528 5.61858 6.57139 6.99998 6.57139C8.38139 6.57139 9.49998 5.4528 9.49998 4.07139ZM10.9286 4.07139C10.9286 6.24178 9.17037 7.99997 6.99998 7.99997C4.8296 7.99997 3.07141 6.24178 3.07141 4.07139C3.07141 1.90101 4.8296 0.142822 6.99998 0.142822C9.17037 0.142822 10.9286 1.90101 10.9286 4.07139ZM1.99998 12.7449C1.99998 13.4187 1.94275 13.3571 2.32561 13.3571H12.0315C12.4144 13.3571 12.3571 13.4187 12.3571 12.7449C12.3571 11.1105 9.99711 10.1428 7.17855 10.1428C4.36 10.1428 1.99998 11.1105 1.99998 12.7449ZM0.571411 12.7449C0.571411 9.97328 3.64207 8.71425 7.17855 8.71425C10.715 8.71425 13.7857 9.97328 13.7857 12.7449C13.7857 14.1852 13.2278 14.7857 12.0315 14.7857H2.32561C1.12935 14.7857 0.571411 14.1852 0.571411 12.7449Z" fill="#323232"/>
</svg>
