<svg width="59" height="59" viewBox="0 0 59 59" fill="none" xmlns="http://www.w3.org/2000/svg">
<mask id="mask0_74_58122" style="mask-type:luminance" maskUnits="userSpaceOnUse" x="7" y="7" width="46" height="46">
<path d="M50.5126 37.8257C55.0028 26.2996 49.2991 13.3159 37.773 8.8257C26.247 4.33551 13.2632 10.0392 8.77303 21.5653C4.28284 33.0913 9.98655 46.0751 21.5126 50.5653C33.0387 55.0555 46.0224 49.3518 50.5126 37.8257Z" fill="white"/>
</mask>
<g mask="url(#mask0_74_58122)">
<path d="M51.9801 29.7277C51.9801 26.6621 51.3545 23.7842 50.2284 21.094C49.4776 22.9083 48.2264 24.4724 46.5372 25.4734C44.9105 26.4118 42.9711 26.9124 41.5947 28.2262C40.2809 29.4774 39.6553 31.2918 38.404 32.6056C34.7128 36.547 27.7057 34.2948 23.1387 37.1101C21.3869 38.1737 20.1356 39.988 18.3839 41.0516C16.3193 42.3654 13.7542 42.6782 11.2517 42.4905C15.3183 48.3088 22.0125 52.1252 29.6452 52.1252C41.9701 52.0626 51.9801 42.0526 51.9801 29.7277Z" fill="#F19B3A"/>
</g>
<mask id="mask1_74_58122" style="mask-type:luminance" maskUnits="userSpaceOnUse" x="7" y="7" width="46" height="46">
<path d="M50.5126 37.8257C55.0028 26.2996 49.2991 13.3159 37.773 8.8257C26.247 4.33551 13.2632 10.0392 8.77303 21.5653C4.28284 33.0913 9.98655 46.0751 21.5126 50.5653C33.0387 55.0555 46.0224 49.3518 50.5126 37.8257Z" fill="white"/>
</mask>
<g mask="url(#mask1_74_58122)">
<path d="M30.7713 34.1068C32.398 34.5447 35.7763 34.1068 37.6532 31.9796C39.5301 29.8525 38.404 28.4135 36.5897 29.352C34.7753 30.2904 29.0196 33.6688 30.7713 34.1068Z" fill="#F19B3A"/>
</g>
<mask id="mask2_74_58122" style="mask-type:luminance" maskUnits="userSpaceOnUse" x="7" y="7" width="46" height="46">
<path d="M50.5126 37.8257C55.0028 26.2996 49.2991 13.3159 37.773 8.8257C26.247 4.33551 13.2632 10.0392 8.77303 21.5653C4.28284 33.0913 9.98655 46.0751 21.5126 50.5653C33.0387 55.0555 46.0224 49.3518 50.5126 37.8257Z" fill="white"/>
</mask>
<g mask="url(#mask2_74_58122)">
<path d="M2.68062 29.9777C1.92987 31.229 2.99343 32.5428 3.86931 33.2936C5.2457 34.4197 6.99746 34.8576 8.68665 34.6074C12.6907 34.1695 15.506 30.6034 18.947 28.8516C20.8239 27.9132 22.5756 27.788 24.6402 27.9757C27.0801 28.1634 29.2698 28.1009 31.5847 27.2876C33.4615 26.5994 35.2133 25.5983 37.2153 25.1604C39.2799 24.6599 41.2819 24.4722 43.0962 23.2835C46.4746 21.0312 48.2264 17.2775 48.6018 13.336C48.7895 11.5217 49.0397 8.58125 46.7874 7.89306C44.5977 7.20487 43.9095 9.70737 43.9095 11.3966C43.9721 15.1503 42.408 19.2169 38.4666 20.1554C36.5271 20.5933 34.7128 20.9687 32.8359 21.782C30.7088 22.7205 28.8319 23.6589 26.5171 23.5963C24.0771 23.5963 21.6997 23.2835 19.3223 24.0343C17.0075 24.8476 15.0055 26.224 13.0661 27.7255C11.502 28.9142 9.81279 30.4782 7.74821 30.7911C6.99746 30.9162 6.12158 30.8536 5.43339 30.6034C4.68263 30.2906 4.24469 29.6649 3.36881 29.6024C3.11856 29.4772 2.86831 29.7275 2.68062 29.9777Z" fill="#F18913"/>
</g>
<mask id="mask3_74_58122" style="mask-type:luminance" maskUnits="userSpaceOnUse" x="7" y="7" width="46" height="46">
<path d="M50.5126 37.8257C55.0028 26.2996 49.2991 13.3159 37.773 8.8257C26.247 4.33551 13.2632 10.0392 8.77303 21.5653C4.28284 33.0913 9.98655 46.0751 21.5126 50.5653C33.0387 55.0555 46.0224 49.3518 50.5126 37.8257Z" fill="white"/>
</mask>
<g mask="url(#mask3_74_58122)">
<path d="M43.2839 21.3442C40.4686 21.0939 36.9025 23.221 34.8379 24.9728C33.4615 26.1615 32.2728 27.7255 30.6462 28.6014C28.8944 29.5399 26.7673 29.3522 24.8904 29.9153C21.1992 31.0414 18.7593 33.5439 16.5696 36.5469C15.5685 37.9859 14.505 39.3622 12.9409 40.2381C11.3143 41.1766 9.31226 41.5519 7.49794 41.8022C5.62105 42.0525 3.74417 42.2401 1.86728 42.115C0.553459 41.9899 -1.94905 41.3017 -2.51212 43.116C-3.07519 44.8678 -0.822923 45.9314 0.490897 46.1816C2.61803 46.6195 4.8703 46.3693 7.06 46.119C10.7512 45.6811 14.4424 44.9303 17.3203 42.3653C20.0731 39.8627 21.3869 36.1715 24.7027 34.2947C26.5796 33.2311 28.7067 33.1685 30.7088 32.4178C32.6482 31.667 34.1497 30.2906 35.5261 28.7891C36.9025 27.2876 38.1537 26.0364 39.9055 24.9728C41.3445 24.0969 42.846 23.4087 43.7844 22.0323C43.847 21.7195 43.5967 21.4067 43.2839 21.3442Z" fill="#F18913"/>
</g>
<mask id="mask4_74_58122" style="mask-type:luminance" maskUnits="userSpaceOnUse" x="7" y="7" width="46" height="46">
<path d="M50.5126 37.8257C55.0028 26.2996 49.2991 13.3159 37.773 8.8257C26.247 4.33551 13.2632 10.0392 8.77303 21.5653C4.28284 33.0913 9.98655 46.0751 21.5126 50.5653C33.0387 55.0555 46.0224 49.3518 50.5126 37.8257Z" fill="white"/>
</mask>
<g mask="url(#mask4_74_58122)">
<path d="M5.93386 16.4015C3.43135 18.9666 3.6816 25.4731 8.43638 24.8475C10.8138 24.5347 13.0035 22.7204 15.1932 21.7193C16.3819 21.1563 17.7582 20.6558 19.0721 20.6558C20.3233 20.6558 21.5746 21.0937 22.8258 21.2814C27.518 22.0322 33.1487 20.0302 37.2153 17.7153C39.2173 16.5892 41.0942 14.9626 42.0326 12.7729C43.0336 10.5206 42.846 7.3299 40.9691 5.57814C40.3434 5.01507 39.405 4.63969 38.5917 4.95251C36.7774 5.57814 36.5897 7.32989 37.1527 8.95653C37.7784 10.7708 37.4655 11.9596 35.8389 13.1482C32.8985 15.2754 28.5191 17.1523 24.8278 17.4651C22.8884 17.6528 21.0741 16.902 19.1346 16.9646C17.3203 17.0271 15.5685 17.5902 13.9419 18.341C13.0035 18.7789 12.1276 19.2794 11.2517 19.7799C10.3758 20.2804 9.31226 21.1563 8.24869 21.4065C7.05999 21.6568 7.05999 20.6558 7.05999 19.6548C7.05999 18.7163 7.24768 17.7779 7.24768 16.8395C7.24768 16.2764 6.3718 15.9636 5.93386 16.4015Z" fill="#F19B3A"/>
</g>
<mask id="mask5_74_58122" style="mask-type:luminance" maskUnits="userSpaceOnUse" x="7" y="7" width="46" height="46">
<path d="M50.5126 37.8257C55.0028 26.2996 49.2991 13.3159 37.773 8.8257C26.247 4.33551 13.2632 10.0392 8.77303 21.5653C4.28284 33.0913 9.98655 46.0751 21.5126 50.5653C33.0387 55.0555 46.0224 49.3518 50.5126 37.8257Z" fill="white"/>
</mask>
<g mask="url(#mask5_74_58122)">
<path d="M33.0236 4.45208C31.522 5.2654 31.4595 7.39253 30.959 8.83148C30.2708 10.7709 29.0195 12.5852 27.5806 14.0242C26.1416 15.5257 24.2022 16.7144 22.2002 17.2775C20.2607 17.8405 18.0085 17.7154 16.2567 18.6538C15.506 19.0292 15.7562 20.0928 16.507 20.343C18.5715 20.9687 21.1992 20.2179 23.2012 19.78C25.6411 19.2795 27.956 18.6539 30.0205 17.2775C33.962 14.7124 36.402 9.95761 35.0256 5.32796C34.7128 4.45208 33.7743 4.01414 33.0236 4.45208Z" fill="#F19B3A"/>
</g>
<mask id="mask6_74_58122" style="mask-type:luminance" maskUnits="userSpaceOnUse" x="7" y="7" width="46" height="46">
<path d="M50.5126 37.8257C55.0028 26.2996 49.2991 13.3159 37.773 8.8257C26.247 4.33551 13.2632 10.0392 8.77303 21.5653C4.28284 33.0913 9.98655 46.0751 21.5126 50.5653C33.0387 55.0555 46.0224 49.3518 50.5126 37.8257Z" fill="white"/>
</mask>
<g mask="url(#mask6_74_58122)">
<path d="M54.4827 17.1524C50.7289 27.9758 42.408 36.8597 30.959 39.3622C28.0186 39.9879 24.8904 40.0504 21.95 40.8012C19.2598 41.4894 16.8824 42.8658 14.3799 43.9919C11.6897 45.1806 9.1246 45.6811 6.2467 44.8052C3.43137 43.9293 1.17911 41.9899 -1.57365 40.9889C-2.26184 40.7386 -2.76235 41.6145 -2.44953 42.1776C-0.19727 46.1816 4.99545 48.9344 9.56254 48.8718C14.6301 48.7467 18.6967 45.2432 23.5141 44.1796C26.0791 43.6165 28.7693 43.554 31.397 42.9909C33.7744 42.4904 36.1518 41.6771 38.3415 40.6761C42.7834 38.6741 46.85 35.671 49.9156 31.8547C53.3565 27.6004 55.4837 22.7831 56.2344 17.3401C56.3596 16.3391 54.7329 16.2765 54.4827 17.1524Z" fill="#F18913"/>
</g>
<mask id="mask7_74_58122" style="mask-type:luminance" maskUnits="userSpaceOnUse" x="7" y="7" width="46" height="46">
<path d="M50.5126 37.8257C55.0028 26.2996 49.2991 13.3159 37.773 8.8257C26.247 4.33551 13.2632 10.0392 8.77303 21.5653C4.28284 33.0913 9.98655 46.0751 21.5126 50.5653C33.0387 55.0555 46.0224 49.3518 50.5126 37.8257Z" fill="white"/>
</mask>
<g mask="url(#mask7_74_58122)">
<path d="M44.7854 27.663C44.3475 27.3502 43.6593 27.7882 43.2839 28.101C42.8459 28.4138 42.1578 28.9143 42.4706 29.4774C42.7208 29.9779 43.3464 29.8527 43.7218 29.6025C44.3475 29.2271 44.9105 28.8517 45.4736 28.4138C45.7864 28.1635 45.5987 27.663 45.2859 27.6005C44.2849 27.3502 42.7208 27.7882 42.6583 29.0394C42.6583 29.4774 43.1588 29.665 43.4716 29.3522C43.9095 28.9769 44.2849 28.3512 44.9731 28.5389C44.9105 28.2887 44.848 27.9758 44.7854 27.663C44.4726 27.9758 44.0972 28.1635 43.7844 28.4138C43.5967 28.5389 43.409 28.664 43.2213 28.7892C43.1588 28.7892 43.0962 28.8517 43.0336 28.9143C43.1588 29.2897 43.2839 29.4148 43.409 29.2271C43.5341 29.1645 43.6593 28.9769 43.7844 28.8517C43.9095 28.7266 44.0972 28.664 44.2223 28.5389C44.4726 28.3512 44.7228 28.2887 44.848 27.9758C44.9731 27.8507 44.9105 27.7256 44.7854 27.663Z" fill="#F1AC5E"/>
</g>
<mask id="mask8_74_58122" style="mask-type:luminance" maskUnits="userSpaceOnUse" x="7" y="7" width="46" height="46">
<path d="M50.5126 37.8257C55.0028 26.2996 49.2991 13.3159 37.773 8.8257C26.247 4.33551 13.2632 10.0392 8.77303 21.5653C4.28284 33.0913 9.98655 46.0751 21.5126 50.5653C33.0387 55.0555 46.0224 49.3518 50.5126 37.8257Z" fill="white"/>
</mask>
<g mask="url(#mask8_74_58122)">
<path d="M42.408 30.4783C42.0952 30.4783 41.8449 30.5409 41.6572 30.7911C41.407 31.104 41.5947 31.5419 41.97 31.5419C42.408 31.5419 42.6582 31.2291 42.7208 30.8537C42.7208 30.666 42.5957 30.4783 42.408 30.4158C41.9075 30.2907 41.2193 30.7286 41.407 31.2917C41.4695 31.4793 41.5947 31.6045 41.7824 31.6045C41.9701 31.6045 42.0952 31.5419 42.2829 31.4168C42.408 31.2916 42.2203 31.4794 42.3454 31.3542C42.408 31.3542 42.408 31.3542 42.3454 31.3542C42.408 31.3542 42.4706 31.2917 42.4706 31.2917C42.2203 31.1665 42.0326 31.0414 41.7824 30.9163C41.7824 30.8537 41.8449 30.7912 41.97 30.7286C42.0952 30.9163 42.2203 31.104 42.408 31.2917C42.408 31.2291 42.5331 31.0414 42.5331 31.0414C42.7834 30.7912 42.7208 30.4783 42.408 30.4783Z" fill="#F1AC5E"/>
</g>
<mask id="mask9_74_58122" style="mask-type:luminance" maskUnits="userSpaceOnUse" x="7" y="7" width="46" height="46">
<path d="M50.5126 37.8257C55.0028 26.2996 49.2991 13.3159 37.773 8.8257C26.247 4.33551 13.2632 10.0392 8.77303 21.5653C4.28284 33.0913 9.98655 46.0751 21.5126 50.5653C33.0387 55.0555 46.0224 49.3518 50.5126 37.8257Z" fill="white"/>
</mask>
<g mask="url(#mask9_74_58122)">
<path d="M44.4726 14.8374C44.0972 15.2128 44.1598 15.5256 44.0347 16.0887C43.847 16.902 43.5342 17.7153 43.0962 18.4035C42.2829 19.7174 41.0317 20.7809 39.843 21.7819C39.6553 21.9071 39.9055 22.1573 40.0932 22.0947C41.6573 21.2814 43.0337 20.1553 43.9721 18.6538C44.5352 17.7153 45.5362 15.7759 44.6603 14.8374C44.5977 14.7749 44.5352 14.7749 44.4726 14.8374Z" fill="#F1AC5E"/>
</g>
<mask id="mask10_74_58122" style="mask-type:luminance" maskUnits="userSpaceOnUse" x="7" y="7" width="46" height="46">
<path d="M50.5126 37.8257C55.0028 26.2996 49.2991 13.3159 37.773 8.8257C26.247 4.33551 13.2632 10.0392 8.77303 21.5653C4.28284 33.0913 9.98655 46.0751 21.5126 50.5653C33.0387 55.0555 46.0224 49.3518 50.5126 37.8257Z" fill="white"/>
</mask>
<g mask="url(#mask10_74_58122)">
<path d="M37.7784 24.5348C35.8389 25.2856 34.7128 26.7245 33.3364 28.226C31.3969 30.228 28.957 30.9162 26.517 32.1049C26.2668 32.23 26.4545 32.6054 26.7047 32.5429C28.8319 32.0424 31.0841 31.1665 32.7733 29.7901C34.6502 28.2886 35.9015 26.0989 37.966 24.9728C38.1537 24.8476 38.0286 24.4722 37.7784 24.5348Z" fill="#F1AC5E"/>
</g>
<mask id="mask11_74_58122" style="mask-type:luminance" maskUnits="userSpaceOnUse" x="7" y="7" width="46" height="46">
<path d="M50.5126 37.8257C55.0028 26.2996 49.2991 13.3159 37.773 8.8257C26.247 4.33551 13.2632 10.0392 8.77303 21.5653C4.28284 33.0913 9.98655 46.0751 21.5126 50.5653C33.0387 55.0555 46.0224 49.3518 50.5126 37.8257Z" fill="white"/>
</mask>
<g mask="url(#mask11_74_58122)">
<path d="M16.0065 45.4934C17.8208 44.9929 19.4475 43.9919 21.3869 43.6165C23.3264 43.1786 25.3284 43.0535 27.2678 42.9284C30.7088 42.6781 34.7754 42.4904 37.4656 40.1756C37.841 39.8628 37.4656 39.2371 37.0276 39.3623C35.0882 39.9253 33.2113 40.6135 31.2093 40.9263C29.0822 41.2392 26.955 41.3017 24.8279 41.552C21.8874 41.8648 17.3829 42.2401 15.506 44.8678C15.2558 45.1806 15.6311 45.6185 16.0065 45.4934Z" fill="#F1AC5E"/>
</g>
<mask id="mask12_74_58122" style="mask-type:luminance" maskUnits="userSpaceOnUse" x="7" y="7" width="46" height="46">
<path d="M50.5126 37.8257C55.0028 26.2996 49.2991 13.3159 37.773 8.8257C26.247 4.33551 13.2632 10.0392 8.77303 21.5653C4.28284 33.0913 9.98655 46.0751 21.5126 50.5653C33.0387 55.0555 46.0224 49.3518 50.5126 37.8257Z" fill="white"/>
</mask>
<g mask="url(#mask12_74_58122)">
<path d="M44.5352 34.0443C43.4716 34.5448 42.7834 35.4833 41.9075 36.234C41.0942 36.9222 39.7178 37.4853 39.2173 38.4237C39.0922 38.7365 39.2799 38.9868 39.5301 39.0493C40.5937 39.1745 41.6573 38.1735 42.408 37.5478C43.409 36.7345 44.0972 35.671 44.9105 34.6699C45.2234 34.2946 44.9105 33.9192 44.5352 34.0443Z" fill="#F1AC5E"/>
</g>
<mask id="mask13_74_58122" style="mask-type:luminance" maskUnits="userSpaceOnUse" x="7" y="7" width="46" height="46">
<path d="M50.5126 37.8257C55.0028 26.2996 49.2991 13.3159 37.773 8.8257C26.247 4.33551 13.2632 10.0392 8.77303 21.5653C4.28284 33.0913 9.98655 46.0751 21.5126 50.5653C33.0387 55.0555 46.0224 49.3518 50.5126 37.8257Z" fill="white"/>
</mask>
<g mask="url(#mask13_74_58122)">
<path d="M9.18714 22.9708C10.5635 23.7842 11.8148 22.658 12.9409 21.8447C14.8178 20.5309 16.7572 19.3422 19.0721 19.2796C21.2618 19.2171 23.4515 19.7176 25.6412 19.5924C27.5806 19.4673 29.5201 19.1545 31.2093 18.2161C31.5221 18.0284 31.397 17.4028 31.0216 17.4653C29.0196 17.7156 27.0801 18.1535 25.0155 18.2161C23.0135 18.2786 21.0115 17.8407 19.0095 17.9033C17.4454 17.9658 15.9439 18.4663 14.6301 19.2796C13.0035 20.2181 11.1266 22.5329 9.2497 22.5329C9.12458 22.4703 8.99945 22.8457 9.18714 22.9708Z" fill="#F1AC5E"/>
</g>
<mask id="mask14_74_58122" style="mask-type:luminance" maskUnits="userSpaceOnUse" x="7" y="7" width="46" height="46">
<path d="M50.5126 37.8257C55.0028 26.2996 49.2991 13.3159 37.773 8.8257C26.247 4.33551 13.2632 10.0392 8.77303 21.5653C4.28284 33.0913 9.98655 46.0751 21.5126 50.5653C33.0387 55.0555 46.0224 49.3518 50.5126 37.8257Z" fill="white"/>
</mask>
<g mask="url(#mask14_74_58122)">
<path d="M40.3435 8.58136C39.9055 8.33111 39.4676 8.45625 39.2174 8.83163C38.5917 9.83264 38.5292 11.2716 37.9661 12.3351C37.3405 13.649 36.4646 14.5874 35.4636 15.651C35.1508 15.9638 35.4636 16.4643 35.9015 16.4017C37.7158 16.0889 39.3425 14.5874 40.1558 12.9608C40.5937 12.0849 41.5947 9.26955 40.3435 8.58136Z" fill="#F18913"/>
</g>
<mask id="mask15_74_58122" style="mask-type:luminance" maskUnits="userSpaceOnUse" x="7" y="7" width="46" height="46">
<path d="M50.5126 37.8257C55.0028 26.2996 49.2991 13.3159 37.773 8.8257C26.247 4.33551 13.2632 10.0392 8.77303 21.5653C4.28284 33.0913 9.98655 46.0751 21.5126 50.5653C33.0387 55.0555 46.0224 49.3518 50.5126 37.8257Z" fill="white"/>
</mask>
<g mask="url(#mask15_74_58122)">
<path d="M8.81178 28.2261C8.87434 28.5389 9.06203 28.7266 9.31228 28.664C10.5635 28.4763 11.6271 27.4128 12.503 26.5994C13.1286 26.0364 13.8168 25.5359 14.5676 25.1605C15.3809 24.7225 16.2568 24.5349 16.9449 23.9718C17.508 23.5338 17.0075 22.7205 16.3819 22.658C14.5676 22.5328 12.6281 24.0344 11.502 25.2856C10.8763 25.9738 10.4384 26.7871 9.75022 27.4127C9.75022 27.4127 8.74921 27.9758 8.81178 28.2261Z" fill="#F18913"/>
</g>
<mask id="mask16_74_58122" style="mask-type:luminance" maskUnits="userSpaceOnUse" x="7" y="7" width="46" height="46">
<path d="M50.5126 37.8257C55.0028 26.2996 49.2991 13.3159 37.773 8.8257C26.247 4.33551 13.2632 10.0392 8.77303 21.5653C4.28284 33.0913 9.98655 46.0751 21.5126 50.5653C33.0387 55.0555 46.0224 49.3518 50.5126 37.8257Z" fill="white"/>
</mask>
<g mask="url(#mask16_74_58122)">
<path d="M49.9155 16.4642C48.6643 17.5278 48.0387 19.3421 47.1628 20.7185C46.2243 22.1574 45.0356 23.5338 43.9095 24.8476C43.6593 25.1604 43.9095 25.5984 44.2849 25.4733C46.0992 25.0353 47.413 23.9092 48.4766 22.4077C49.5402 20.9062 50.9166 18.7165 50.9166 16.8396C50.9166 16.3391 50.2909 16.1514 49.9155 16.4642Z" fill="#F18913"/>
</g>
<mask id="mask17_74_58122" style="mask-type:luminance" maskUnits="userSpaceOnUse" x="7" y="7" width="46" height="46">
<path d="M50.5126 37.8257C55.0028 26.2996 49.2991 13.3159 37.773 8.8257C26.247 4.33551 13.2632 10.0392 8.77303 21.5653C4.28284 33.0913 9.98655 46.0751 21.5126 50.5653C33.0387 55.0555 46.0224 49.3518 50.5126 37.8257Z" fill="white"/>
</mask>
<g mask="url(#mask17_74_58122)">
<path d="M22.1376 52.8132C23.3263 52.0625 25.0781 52.0625 26.4545 51.8122C28.0186 51.5619 29.5826 51.3117 31.0841 50.9989C33.7743 50.4358 36.4645 49.4348 38.404 47.3702C38.6542 47.12 38.404 46.6195 38.0286 46.7446C35.0882 47.6205 32.0851 48.3087 29.0821 48.8718C26.3294 49.4348 23.3889 49.6225 21.3869 51.8122C20.949 52.3753 21.512 53.2512 22.1376 52.8132Z" fill="#F18913"/>
</g>
<mask id="mask18_74_58122" style="mask-type:luminance" maskUnits="userSpaceOnUse" x="7" y="7" width="46" height="46">
<path d="M50.5126 37.8257C55.0028 26.2996 49.2991 13.3159 37.773 8.8257C26.247 4.33551 13.2632 10.0392 8.77303 21.5653C4.28284 33.0913 9.98655 46.0751 21.5126 50.5653C33.0387 55.0555 46.0224 49.3518 50.5126 37.8257Z" fill="white"/>
</mask>
<g mask="url(#mask18_74_58122)">
<path d="M6.12157 38.8617C8.18614 39.8627 10.2507 39.2371 12.1276 38.1109C14.0045 37.0474 16.4444 35.2331 17.1952 33.1059C17.4454 32.3552 16.5696 31.9798 16.0065 32.23C14.3173 32.9808 13.1912 34.7951 11.6897 35.8587C10.1882 36.9222 8.18614 37.7981 6.37182 37.8607C5.93388 37.8607 5.62107 38.6115 6.12157 38.8617Z" fill="#F19B3A"/>
</g>
<mask id="mask19_74_58122" style="mask-type:luminance" maskUnits="userSpaceOnUse" x="7" y="7" width="46" height="46">
<path d="M50.5126 37.8257C55.0028 26.2996 49.2991 13.3159 37.773 8.8257C26.247 4.33551 13.2632 10.0392 8.77303 21.5653C4.28284 33.0913 9.98655 46.0751 21.5126 50.5653C33.0387 55.0555 46.0224 49.3518 50.5126 37.8257Z" fill="white"/>
</mask>
<g mask="url(#mask19_74_58122)">
<path d="M18.7593 31.4794C19.2598 31.3543 19.7603 31.2291 20.3233 31.0415C20.8238 30.8538 21.3869 30.7286 21.6997 30.2907C21.8874 30.0404 21.7623 29.6651 21.512 29.4774C21.0115 29.1646 20.1982 29.4774 19.6977 29.7276C19.1346 30.0404 18.8218 30.4784 18.4465 30.9789C18.2588 31.2291 18.509 31.542 18.7593 31.4794Z" fill="#F19B3A"/>
</g>
<mask id="mask20_74_58122" style="mask-type:luminance" maskUnits="userSpaceOnUse" x="7" y="7" width="46" height="46">
<path d="M50.5126 37.8257C55.0028 26.2996 49.2991 13.3159 37.773 8.8257C26.247 4.33551 13.2632 10.0392 8.77303 21.5653C4.28284 33.0913 9.98655 46.0751 21.5126 50.5653C33.0387 55.0555 46.0224 49.3518 50.5126 37.8257Z" fill="white"/>
</mask>
<g mask="url(#mask20_74_58122)">
<path d="M28.1437 6.39149C26.2668 8.20581 25.4535 11.0212 22.7633 11.9596C20.6362 12.7104 18.2588 12.5227 16.0691 13.2109C15.1306 13.5237 13.0035 14.7124 12.0025 13.9616C11.3769 13.4611 11.502 12.4601 10.7512 12.0221C8.99948 10.896 8.1236 13.6488 8.62411 14.9C9.43742 16.9021 11.5646 17.5902 13.504 17.34C14.8804 17.1523 16.0691 16.5267 17.3829 16.0887C18.509 15.7134 19.7603 15.5257 20.949 15.338C23.1387 14.9626 25.0781 14.2744 26.6422 12.5852C27.956 11.1463 29.7704 8.76888 29.0196 6.70431C28.957 6.2038 28.4565 6.07868 28.1437 6.39149Z" fill="#F19B3A"/>
</g>
<mask id="mask21_74_58122" style="mask-type:luminance" maskUnits="userSpaceOnUse" x="7" y="7" width="46" height="46">
<path d="M50.5126 37.8257C55.0028 26.2996 49.2991 13.3159 37.773 8.8257C26.247 4.33551 13.2632 10.0392 8.77303 21.5653C4.28284 33.0913 9.98655 46.0751 21.5126 50.5653C33.0387 55.0555 46.0224 49.3518 50.5126 37.8257Z" fill="white"/>
</mask>
<g mask="url(#mask21_74_58122)">
<path d="M13.1286 12.3975C11.8148 13.7739 12.6906 14.7123 14.3798 14.5872C16.1316 14.4621 17.8208 14.1493 19.5725 13.9616C20.8238 13.7739 22.1376 13.7113 23.3263 13.2734C25.2658 12.5852 27.6432 10.7709 27.8308 8.58118C28.0185 6.76685 26.2042 4.45204 24.3273 5.7033C23.7017 6.14124 23.7643 7.07967 24.515 7.32992C24.953 7.39248 25.2032 7.64274 25.2658 8.08068C25.8288 8.58119 25.7663 9.14425 25.0781 9.64475C24.7027 10.0827 24.1396 10.5832 23.6391 10.896C22.7633 11.4591 21.7622 11.7093 20.7612 11.8345C19.6351 12.0221 18.4464 12.1473 17.2577 12.3349C17.0075 12.3975 13.3788 12.9606 13.4414 12.5852C13.5665 12.3975 13.3163 12.2098 13.1286 12.3975Z" fill="#F18913"/>
</g>
<mask id="mask22_74_58122" style="mask-type:luminance" maskUnits="userSpaceOnUse" x="7" y="7" width="46" height="46">
<path d="M50.5126 37.8257C55.0028 26.2996 49.2991 13.3159 37.773 8.8257C26.247 4.33551 13.2632 10.0392 8.77303 21.5653C4.28284 33.0913 9.98655 46.0751 21.5126 50.5653C33.0387 55.0555 46.0224 49.3518 50.5126 37.8257Z" fill="white"/>
</mask>
<g mask="url(#mask22_74_58122)">
<path d="M22.513 7.89327C22.2628 8.0184 22.1376 8.20607 21.8874 8.3312C21.3869 8.70658 20.8238 8.70659 20.1982 8.83171C19.2597 8.95684 18.3213 9.39477 17.3829 9.26964C17.508 10.0204 17.5705 10.8337 17.6957 11.5845C18.8218 11.2091 25.516 9.58245 22.7633 7.33019C21.6371 6.39175 20.3859 7.51788 19.3849 8.08095C18.6341 8.45633 17.8208 8.83171 17.0075 9.08196C16.1942 9.33221 15.6311 9.3322 15.1932 10.1455C15.068 10.4583 15.0055 10.8963 15.3183 11.1465C16.3193 11.9598 17.3829 11.5219 18.5715 11.084C19.1346 10.8963 19.6977 10.646 20.1982 10.3958C20.5736 10.2081 21.5746 9.26964 21.9499 9.33221C21.6997 9.20708 21.3869 9.08196 21.1366 9.01939C21.1992 9.08196 21.2618 9.14453 21.3243 9.14453C21.1992 8.89428 21.0741 8.58145 21.0115 8.3312C21.0741 8.20607 21.1992 8.08094 21.2618 7.95582C21.0741 8.01838 20.8238 8.14352 20.6361 8.20608C20.2607 8.33121 19.8854 8.51889 19.4474 8.64401C18.6341 8.95683 17.8834 9.14452 17.07 9.33221C15.6937 9.64502 16.1316 11.5219 17.3829 11.647C18.2587 11.7722 18.9469 11.4593 19.7602 11.2091C20.5736 10.9588 21.4494 10.9588 22.2002 10.5835C23.0761 10.1455 24.1396 8.89426 23.1386 8.01838C22.9509 7.8307 22.7633 7.83071 22.513 7.89327Z" fill="#F18913"/>
</g>
<mask id="mask23_74_58122" style="mask-type:luminance" maskUnits="userSpaceOnUse" x="7" y="7" width="46" height="46">
<path d="M50.5126 37.8257C55.0028 26.2996 49.2991 13.3159 37.773 8.8257C26.247 4.33551 13.2632 10.0392 8.77303 21.5653C4.28284 33.0913 9.98655 46.0751 21.5126 50.5653C33.0387 55.0555 46.0224 49.3518 50.5126 37.8257Z" fill="white"/>
</mask>
<g mask="url(#mask23_74_58122)">
<path d="M32.0852 8.08075C31.8349 9.33201 31.0842 10.5833 31.2719 11.8345C31.3344 12.0848 31.6472 12.3976 31.96 12.335C33.9621 12.0848 34.4 9.70739 34.1497 8.08075C33.8995 7.07975 32.2729 7.14231 32.0852 8.08075Z" fill="#F18913"/>
</g>
<mask id="mask24_74_58122" style="mask-type:luminance" maskUnits="userSpaceOnUse" x="7" y="7" width="46" height="46">
<path d="M50.5126 37.8257C55.0028 26.2996 49.2991 13.3159 37.773 8.8257C26.247 4.33551 13.2632 10.0392 8.77303 21.5653C4.28284 33.0913 9.98655 46.0751 21.5126 50.5653C33.0387 55.0555 46.0224 49.3518 50.5126 37.8257Z" fill="white"/>
</mask>
<g mask="url(#mask24_74_58122)">
<path d="M30.5837 12.6478C30.4585 12.7104 30.3334 12.773 30.2083 12.8355C30.0832 12.8981 29.958 13.0858 29.8329 13.2109C29.6452 13.3986 29.395 13.8365 29.395 14.1494C29.395 14.3996 29.5826 14.5247 29.7703 14.5247C29.958 14.5247 30.0832 14.4622 30.2708 14.3996C30.5211 14.2745 30.6462 14.1493 30.7713 13.9617C30.8965 13.8365 31.0216 13.6489 31.0216 13.5237C31.0842 13.336 31.0842 13.2109 31.0842 13.0232C31.2718 12.7104 30.8339 12.5227 30.5837 12.6478Z" fill="#F18913"/>
</g>
<mask id="mask25_74_58122" style="mask-type:luminance" maskUnits="userSpaceOnUse" x="7" y="7" width="46" height="46">
<path d="M50.5126 37.8257C55.0028 26.2996 49.2991 13.3159 37.773 8.8257C26.247 4.33551 13.2632 10.0392 8.77303 21.5653C4.28284 33.0913 9.98655 46.0751 21.5126 50.5653C33.0387 55.0555 46.0224 49.3518 50.5126 37.8257Z" fill="white"/>
</mask>
<g mask="url(#mask25_74_58122)">
<path d="M28.5816 15.0253C28.2688 15.2755 27.8934 15.4632 27.518 15.7135C27.3304 15.8386 27.2052 15.9637 27.0801 16.0888C26.8924 16.2139 26.7047 16.2765 26.6422 16.5268C26.517 16.777 26.6422 16.9647 26.8924 17.0898C27.2678 17.2775 28.0186 16.9647 28.3314 16.7144C28.7067 16.4016 29.0196 16.0263 29.3324 15.6509C29.5826 15.1504 28.957 14.7124 28.5816 15.0253Z" fill="#F18913"/>
</g>
<mask id="mask26_74_58122" style="mask-type:luminance" maskUnits="userSpaceOnUse" x="7" y="7" width="46" height="46">
<path d="M50.5126 37.8257C55.0028 26.2996 49.2991 13.3159 37.773 8.8257C26.247 4.33551 13.2632 10.0392 8.77303 21.5653C4.28284 33.0913 9.98655 46.0751 21.5126 50.5653C33.0387 55.0555 46.0224 49.3518 50.5126 37.8257Z" fill="white"/>
</mask>
<g mask="url(#mask26_74_58122)">
<path d="M18.071 23.2835C18.3213 23.346 18.509 23.2835 18.7592 23.2835C18.8844 23.2835 19.0095 23.2835 19.1346 23.2209C19.2597 23.2209 19.3849 23.0958 19.51 23.0958C20.1982 22.8456 20.0731 21.9697 19.3223 21.9071C19.0095 21.8446 18.7592 21.9071 18.4464 22.0322C18.1962 22.1574 17.9459 22.2825 17.7582 22.5327C17.5705 22.8456 17.7582 23.2209 18.071 23.2835Z" fill="#F18913"/>
</g>
<mask id="mask27_74_58122" style="mask-type:luminance" maskUnits="userSpaceOnUse" x="7" y="7" width="46" height="46">
<path d="M50.5126 37.8257C55.0028 26.2996 49.2991 13.3159 37.773 8.8257C26.247 4.33551 13.2632 10.0392 8.77303 21.5653C4.28284 33.0913 9.98655 46.0751 21.5126 50.5653C33.0387 55.0555 46.0224 49.3518 50.5126 37.8257Z" fill="white"/>
</mask>
<g mask="url(#mask27_74_58122)">
<path d="M20.949 22.658C21.1366 22.658 21.2618 22.5955 21.4495 22.5329C21.5746 22.4704 21.6371 22.3452 21.6371 22.1576C21.5746 21.7822 21.1366 21.7822 20.8864 21.8447C20.3859 21.9699 20.4485 22.7206 20.949 22.658Z" fill="#F18913"/>
</g>
<mask id="mask28_74_58122" style="mask-type:luminance" maskUnits="userSpaceOnUse" x="7" y="7" width="46" height="46">
<path d="M50.5126 37.8257C55.0028 26.2996 49.2991 13.3159 37.773 8.8257C26.247 4.33551 13.2632 10.0392 8.77303 21.5653C4.28284 33.0913 9.98655 46.0751 21.5126 50.5653C33.0387 55.0555 46.0224 49.3518 50.5126 37.8257Z" fill="white"/>
</mask>
<g mask="url(#mask28_74_58122)">
<path d="M41.6573 15.8386C41.4696 15.8386 41.2819 15.9012 41.1568 16.0889C41.0316 16.214 40.9691 16.2766 40.9065 16.4017C40.7188 16.5894 40.5937 16.7771 40.5937 17.0273C40.5937 17.2776 40.7188 17.4653 40.9065 17.5904C41.0942 17.7155 41.407 17.7155 41.5947 17.5904C41.7824 17.4653 41.9075 17.2776 41.9701 17.1524C42.0326 17.0273 42.0952 16.9022 42.2203 16.7771C42.3454 16.5268 42.3454 16.3391 42.2829 16.1514C42.1578 15.9012 41.9075 15.8386 41.6573 15.8386Z" fill="#F18913"/>
</g>
<mask id="mask29_74_58122" style="mask-type:luminance" maskUnits="userSpaceOnUse" x="7" y="7" width="46" height="46">
<path d="M50.5126 37.8257C55.0028 26.2996 49.2991 13.3159 37.773 8.8257C26.247 4.33551 13.2632 10.0392 8.77303 21.5653C4.28284 33.0913 9.98655 46.0751 21.5126 50.5653C33.0387 55.0555 46.0224 49.3518 50.5126 37.8257Z" fill="white"/>
</mask>
<g mask="url(#mask29_74_58122)">
<path d="M39.5926 17.7155C39.405 17.778 39.2173 17.8406 39.0921 17.9657C39.0296 18.0908 38.967 18.2785 38.9045 18.4037C38.8419 18.5288 38.967 18.7165 39.0921 18.6539C39.2173 18.6539 39.405 18.6539 39.5301 18.5914C39.7178 18.5288 39.7803 18.3411 39.9055 18.1534C40.1557 18.0283 39.8429 17.6529 39.5926 17.7155Z" fill="#F18913"/>
</g>
<mask id="mask30_74_58122" style="mask-type:luminance" maskUnits="userSpaceOnUse" x="7" y="7" width="46" height="46">
<path d="M50.5126 37.8257C55.0028 26.2996 49.2991 13.3159 37.773 8.8257C26.247 4.33551 13.2632 10.0392 8.77303 21.5653C4.28284 33.0913 9.98655 46.0751 21.5126 50.5653C33.0387 55.0555 46.0224 49.3518 50.5126 37.8257Z" fill="white"/>
</mask>
<g mask="url(#mask30_74_58122)">
<path d="M39.7178 27.9758C39.6553 27.9758 39.9055 27.9132 39.7178 27.9758C39.6553 27.9758 39.9055 27.9758 39.9681 27.9758C40.2183 27.9758 40.3435 27.8507 40.5312 27.7255C40.5312 27.7255 40.6563 27.663 40.5937 27.7255C40.6563 27.663 40.7814 27.663 40.844 27.6004C41.0942 27.4753 41.3445 27.2876 41.407 26.9748C41.2819 27.0999 41.1568 27.2876 41.0942 27.4127C41.1568 27.3502 41.2194 27.2876 41.2819 27.2876C41.7824 26.9122 41.5947 26.0989 40.9691 26.0989C40.9065 26.0989 40.7814 26.0989 40.7189 26.0989C40.844 26.1615 40.9691 26.1615 41.0942 26.224C40.5937 25.8487 40.0307 26.2866 39.6553 26.5994C39.4676 26.7871 39.2799 26.9748 39.2799 27.2876C39.2799 27.3502 39.2799 27.6004 39.2799 27.4753C39.2799 27.4127 39.2799 27.6004 39.2799 27.663C39.3425 27.8507 39.5302 28.0383 39.7178 27.9758Z" fill="#F19B3A"/>
</g>
<mask id="mask31_74_58122" style="mask-type:luminance" maskUnits="userSpaceOnUse" x="7" y="7" width="46" height="46">
<path d="M50.5126 37.8257C55.0028 26.2996 49.2991 13.3159 37.773 8.8257C26.247 4.33551 13.2632 10.0392 8.77303 21.5653C4.28284 33.0913 9.98655 46.0751 21.5126 50.5653C33.0387 55.0555 46.0224 49.3518 50.5126 37.8257Z" fill="white"/>
</mask>
<g mask="url(#mask31_74_58122)">
<path d="M28.8318 33.7317C28.2062 33.7317 27.7683 33.8568 27.1427 34.0445C26.8924 34.1071 26.6422 34.2322 26.3919 34.3573C26.0791 34.545 26.0165 34.6076 25.7663 34.9204C25.5786 35.1081 25.7037 35.3583 25.954 35.3583C26.2668 35.4209 26.3293 35.4835 26.7047 35.3583C26.955 35.2958 27.2678 35.1706 27.518 35.1081C28.0185 34.9204 28.519 34.7327 28.957 34.4199C29.2698 34.1696 29.1447 33.7317 28.8318 33.7317Z" fill="#F19B3A"/>
</g>
<path opacity="0.61" d="M47.3864 13C47.9318 14.9751 48.2045 17.0864 48.2045 19.2658C48.2045 32.6827 37.2955 43.6479 23.7955 43.6479C16.7727 43.6479 10.4318 40.6512 6 35.9518C8.79545 46.3721 18.2727 54 29.5909 54C43.0227 54 54 43.103 54 29.6179C53.9318 23.1478 51.4773 17.3588 47.3864 13Z" fill="#F1AC5E"/>
<path opacity="0.82" d="M45.7675 11C47.981 14.7212 49.2261 18.9936 49.2261 23.6106C49.2261 37.1859 38.1587 48.2805 24.4628 48.2805C18.1682 48.2805 12.3578 45.9375 8 42.0096C12.2886 49.1763 20.2433 54 29.2356 54C42.8623 54 53.9989 42.9744 53.9989 29.3301C54.0681 22.0946 50.8862 15.4792 45.7675 11Z" fill="#F1AC5E"/>
<path opacity="0.25" d="M49.0518 14C51.6624 17.9652 53.1738 22.6956 53.1738 27.8435C53.1738 41.5478 42.1818 52.7478 28.5793 52.7478C20.6102 52.7478 13.4655 48.8522 9 42.9391C13.3968 49.6174 20.885 54 29.4037 54C42.9375 54 53.9982 42.8696 53.9982 29.0957C54.0669 23.3913 52.212 18.1739 49.0518 14Z" fill="#F1AC5E"/>
<path opacity="0.58" d="M47 12.4992C42.5465 7.88962 36.3116 5 29.3915 5C28.5693 5 27.6786 5.06881 26.8564 5.13761C26.4453 5.20641 25.9657 5.27522 25.5547 5.27522C25.4176 5.27522 25.2806 5.344 25.2121 5.344C24.938 5.4128 24.5954 5.48161 24.3214 5.55041C24.1843 5.55041 24.0473 5.61922 23.9103 5.61922C23.6362 5.68802 23.3622 5.75681 23.0881 5.82561C22.9511 5.89441 22.814 5.89442 22.6085 5.96322C22.3344 6.03202 22.0604 6.10081 21.8548 6.23841C21.7178 6.30721 21.5807 6.3072 21.3752 6.376C21.1011 6.4448 20.8271 6.58242 20.6215 6.65122C20.4845 6.72002 20.3475 6.7888 20.2104 6.7888C19.9364 6.9264 19.6623 6.9952 19.4568 7.1328C19.3197 7.2016 19.1827 7.27042 19.0457 7.33922C18.7716 7.47682 18.4976 7.6144 18.2235 7.752C18.155 7.8208 18.0179 7.82081 17.9494 7.88961C17.1958 8.30241 16.4421 8.7152 15.7569 9.1968C15.6884 9.1968 15.6884 9.26561 15.6199 9.26561C15.3458 9.47201 15.0033 9.6784 14.7292 9.8848C14.6607 9.9536 14.5237 10.0224 14.4551 10.0912C14.1811 10.2976 13.9755 10.504 13.7015 10.7104C13.633 10.7792 13.4959 10.848 13.4274 10.9856C13.2219 11.192 13.0163 11.3984 12.7423 11.6048C12.6737 11.6736 12.5367 11.8112 12.4682 11.88C12.2626 12.0864 12.0571 12.2928 11.8515 12.4992C11.783 12.568 11.646 12.7056 11.5775 12.7744C11.3719 12.9808 11.1664 13.256 10.9608 13.4624C10.8923 13.5312 10.8238 13.6688 10.7553 13.7376C10.5498 14.0128 10.3442 14.2192 10.1387 14.4944C10.0701 14.5632 10.0016 14.632 10.0016 14.7008C9.72757 15.0448 9.52202 15.3888 9.24796 15.7328C6.57586 19.6544 5 24.4016 5 29.5616C5 36.9232 8.22023 43.4592 13.2904 48C9.04242 43.5968 6.37031 37.5424 6.37031 30.8688C6.37031 25.8464 7.87765 21.168 10.4812 17.2464C12.3312 19.104 14.9347 20.2736 17.8124 20.2736C23.4992 20.2736 28.1582 15.5952 28.1582 9.8848C28.1582 8.7152 27.9527 7.5456 27.6101 6.4448C28.7064 6.3072 29.8026 6.23841 30.8989 6.23841C37.0653 6.37601 42.6835 8.64642 47 12.4992Z" fill="#F1AC5E"/>
<path opacity="0.25" d="M27.545 5C15.395 5.76617 5.675 15.8657 5 28.4726C7.9025 31.2587 11.75 33 16.0025 33C24.845 33 32 25.6169 32 16.4925C32 12.0348 30.3125 7.99502 27.545 5Z" fill="#F1AC5E"/>
<path opacity="0.5" d="M30 11C30 12.125 30.875 13 32 13C33.125 13 34 12.125 34 11C34 9.87499 33.125 9 32 9C30.875 9 30 9.93749 30 11Z" fill="#F1AC5E"/>
<path opacity="0.5" d="M29 16.5C29 17.325 29.45 18 30 18C30.55 18 31 17.325 31 16.5C31 15.675 30.55 15 30 15C29.45 15 29 15.6 29 16.5Z" fill="#F1AC5E"/>
<path opacity="0.51" d="M29.5 54C43.031 54 54 43.031 54 29.5C54 15.969 43.031 5 29.5 5C15.969 5 5 15.969 5 29.5C5 43.031 15.969 54 29.5 54Z" fill="url(#paint0_linear_74_58122)"/>
<path opacity="0.32" d="M51.8876 20C51.9556 22.8713 51.5471 25.7427 50.5259 28.614C46.1006 41.1933 32.3479 47.7563 19.8888 43.3126C13.421 40.9882 8.58713 36.271 6 30.4599C6.20425 40.1678 12.3317 49.192 21.9994 52.6103C34.5265 57.054 48.2111 50.491 52.6365 37.9117C54.747 31.8272 54.3385 25.4692 51.8876 20Z" fill="url(#paint1_linear_74_58122)"/>
<path opacity="0.32" d="M39.5809 8C41.5805 10.0445 43.1664 12.498 44.3385 15.2922C49.441 27.5595 43.5801 41.5987 31.1687 46.71C24.7561 49.2998 17.8609 49.0272 12 46.4374C18.6884 53.457 29.3759 56.1149 38.9603 52.1621C51.3717 47.1189 57.3015 33.0116 52.1301 20.7443C49.7168 14.8833 45.097 10.4535 39.5809 8Z" fill="url(#paint2_linear_74_58122)"/>
<defs>
<linearGradient id="paint0_linear_74_58122" x1="12.173" y1="12.1868" x2="46.7763" y2="46.79" gradientUnits="userSpaceOnUse">
<stop stop-color="#FFF100"/>
<stop offset="0.9972" stop-color="#EC8D66"/>
</linearGradient>
<linearGradient id="paint1_linear_74_58122" x1="27.7184" y1="20.3697" x2="35.6692" y2="53.3962" gradientUnits="userSpaceOnUse">
<stop offset="0.2422" stop-color="white"/>
<stop offset="0.9199" stop-color="white"/>
<stop offset="1" stop-color="white"/>
</linearGradient>
<linearGradient id="paint2_linear_74_58122" x1="21.6271" y1="24.4776" x2="49.641" y2="43.9884" gradientUnits="userSpaceOnUse">
<stop offset="0.2422" stop-color="white"/>
<stop offset="0.3912" stop-color="#FFFEFC"/>
<stop offset="0.5032" stop-color="#FFFAF2"/>
<stop offset="0.6031" stop-color="#FFF4E2"/>
<stop offset="0.696" stop-color="#FFECCB"/>
<stop offset="0.784" stop-color="#FFE1AE"/>
<stop offset="0.8685" stop-color="#FFD48A"/>
<stop offset="0.9485" stop-color="#FFC55F"/>
<stop offset="1" stop-color="#FFB940"/>
</linearGradient>
</defs>
</svg>
