<svg width="73" height="48" viewBox="0 0 73 48" fill="none" xmlns="http://www.w3.org/2000/svg">
<path d="M37.301 47.9315C50.5369 47.9315 61.2667 37.2017 61.2667 23.9658C61.2667 10.7298 50.5369 0 37.301 0C24.065 0 13.3352 10.7298 13.3352 23.9658C13.3352 37.2017 24.065 47.9315 37.301 47.9315Z" fill="#005DC6"/>
<path opacity="0.63" d="M37.3011 0C36.5479 0 35.7947 0.0684611 35.0414 0.136935C34.6991 0.205408 33.7404 3.35521 33.6035 3.76605C32.9188 5.82026 32.4395 7.94293 32.4395 10.0656C32.4395 12.1883 33.3296 14.174 35.1099 15.4066C36.7533 16.5021 38.5336 16.3652 40.4509 16.3652C42.9844 16.3652 45.5864 15.8859 48.1199 16.2967C50.1056 16.6391 52.0229 17.1869 53.8032 18.1455C55.9259 19.2411 57.7747 20.9529 58.9387 23.0756C59.6235 24.3766 59.8974 25.8145 60.0343 27.2525C60.1028 28.0057 60.1028 28.6904 60.1713 29.4437C60.1713 29.786 60.5136 30.7446 60.3767 31.087C61.0614 28.8274 61.4038 26.4993 61.4038 24.0342C61.3353 10.7504 50.5849 0 37.3011 0Z" fill="#247EE2"/>
<path opacity="0.63" d="M13.8146 28.9643C16.0742 39.5777 24.9758 47.0414 35.2468 47.863C36.4794 48 34.3567 40.7418 34.0143 40.0571C31.8916 36.0856 28.2625 33.2782 25.5236 29.786C24.7019 28.7589 24.0857 27.5949 24.0857 26.2939C24.2226 20.8844 34.0828 23.6234 33.7404 17.9401C33.672 16.7076 32.9872 15.612 32.0971 14.7903C30.1798 13.1469 27.7147 12.4622 25.3866 11.6405C24.2911 11.2297 23.264 10.8188 22.3053 10.1341C22.0314 9.92867 19.4979 7.80599 19.7718 7.46362C14.6363 13.0785 12.1712 20.9529 13.8146 28.9643Z" fill="#247EE2"/>
<path opacity="0.47" d="M26.9615 26.8417C27.03 28.4166 28.8788 29.5806 30.2483 29.9915C30.7276 30.1284 31.2069 30.1284 31.6177 29.8546C32.371 29.3752 32.0971 28.5535 32.1655 27.8688C32.234 27.1156 32.5079 26.0885 32.0286 25.4722C31.07 24.0343 27.5778 24.3767 27.03 26.0885C26.9615 26.2939 26.9615 26.5678 26.9615 26.8417Z" fill="#154B86"/>
<path opacity="0.63" d="M21.2782 6.16267C21.9629 6.98435 23.127 7.46365 24.0171 7.66907C24.9758 7.87449 26.1398 7.8745 26.7561 7.05282C27.3039 6.29961 27.03 5.20403 27.3723 4.38235C27.7147 3.62914 28.6049 3.14982 29.4266 2.9444C30.2482 2.67051 31.1384 2.53357 31.8916 2.12273C32.5079 1.71189 32.9872 1.09562 33.2611 0.410889C28.6733 1.1641 24.5649 3.2183 21.2782 6.16267Z" fill="#247EE2"/>
<path opacity="0.25" d="M50.1056 19.7205C49.6263 19.7205 49.2154 19.7889 48.7361 19.8574C47.2982 20.1998 45.244 21.3638 46.4765 23.1441C46.9558 23.8289 47.709 24.1028 48.4622 24.4451C49.2154 24.719 50.0371 24.9929 50.5849 25.6092C51.5435 26.6363 51.4066 28.3481 50.7903 29.6491C50.1741 30.9501 49.147 32.0457 48.4622 33.2782C47.7775 34.5108 47.5721 36.2226 48.4622 37.3867C49.2839 38.4138 50.9273 38.6192 52.1598 38.0714C53.3923 37.5236 54.3509 36.428 55.1041 35.3325C56.5421 33.1413 57.5692 30.4708 57.4323 27.8004C57.3638 25.1299 56.1313 22.4594 53.9401 20.953C52.913 20.1313 51.5435 19.7205 50.1056 19.7205Z" fill="#154B86"/>
<path opacity="0.47" d="M24.8388 31.9771C23.8117 31.1554 22.7846 30.3337 21.9629 29.3066C21.1412 28.2795 20.5934 26.91 20.8673 25.6775C21.2781 23.6918 23.4008 22.6647 25.1127 21.5691C25.8659 21.0898 26.6191 20.542 27.0984 19.7888C27.5777 19.0356 27.7147 18.0085 27.2354 17.2552C26.6191 16.2281 25.3181 16.0227 24.154 15.6804C21.689 14.9271 19.6348 13.0784 18.5392 10.8187C18.3338 10.4764 18.2653 10.0655 18.1284 9.72314C15.1155 13.7631 13.3352 18.6932 13.3352 24.1026C13.3352 34.9899 20.5934 44.1654 30.4536 47.1097C30.8644 46.3565 31.2068 45.6718 31.4123 44.8501C31.6861 43.6861 31.5492 42.3851 31.2068 41.221C30.1797 37.455 27.7147 34.3736 24.8388 31.9771Z" fill="#368BEA"/>
<path opacity="0.47" d="M37.7803 0C37.301 0.95863 36.8902 1.98573 36.6848 2.60199C35.8631 4.6562 35.2468 6.84735 34.9729 9.0385C34.836 9.86019 34.7675 10.7504 35.1099 11.572C35.5207 12.5307 36.4793 13.2154 37.5749 13.4893C38.602 13.7632 39.6976 13.6947 40.7932 13.6262C43.1213 13.4208 45.5179 13.0785 47.846 13.0785C50.2425 13.0785 52.6391 13.4893 54.6933 14.6533C56.4736 15.6805 57.9116 17.2554 59.0756 18.8987C59.9658 20.1997 60.719 21.5007 61.3353 22.9387C60.7875 10.3395 50.5164 0.273894 37.7803 0Z" fill="#368BEA"/>
<path opacity="0.47" d="M50.8587 24.2395C52.4336 25.5405 52.8445 27.8686 52.2967 29.8543C51.8858 31.4977 51.0641 33.0041 51.0641 34.6475C51.0641 34.8529 51.0641 34.9898 51.2011 35.1952C51.475 35.6061 52.0912 35.5376 52.5021 35.3322C54.6932 34.3051 55.7888 31.7716 55.8573 29.375C55.9258 27.5262 55.4465 25.6089 54.3509 24.171C53.4607 22.9385 51.8174 21.8429 50.2425 21.7059C49.5577 21.6375 49.0784 21.9114 49.2838 22.6646C49.4892 23.4178 50.3109 23.8286 50.8587 24.2395Z" fill="#368BEA"/>
<g opacity="0.32">
<path d="M47.5721 27.2526C47.5036 28.896 45.8603 29.3753 45.244 30.6763C44.9701 31.361 45.244 32.3881 46.1342 32.2512C48.3938 32.0458 50.3795 29.1014 49.5578 26.9787C49.2155 25.8831 47.6406 26.0201 47.5721 27.2526Z" fill="#368BEA"/>
</g>
<g opacity="0.32">
<path d="M45.1071 33.8944C43.6007 35.2639 43.6007 37.8659 44.6962 39.5777C45.5864 41.0157 47.7091 42.5906 49.284 41.2211C49.6948 40.8787 49.6263 40.194 49.284 39.8516C48.5307 39.0299 47.3667 39.03 46.8189 37.9344C46.2027 36.7703 46.4765 35.4693 46.2711 34.2368C46.0657 33.6205 45.4494 33.5521 45.1071 33.8944Z" fill="#368BEA"/>
</g>
<g opacity="0.32">
<path d="M41.4779 36.0174C41.2725 36.1543 41.1356 36.4282 41.0671 36.7021C40.8617 37.5923 40.9302 39.0987 41.9573 39.4411C42.2312 39.5095 42.5051 39.3726 42.642 39.1671C43.0529 38.4824 42.7105 37.7292 42.642 37.0445C42.5735 36.5652 42.5735 35.7435 41.8203 35.8804C41.6834 35.8804 41.6149 35.9489 41.4779 36.0174Z" fill="#368BEA"/>
</g>
<g opacity="0.47">
<path d="M29.6321 5.06698C29.2212 5.40935 28.8788 6.09409 28.8104 6.50493C28.6049 8.21677 28.3995 8.83302 26.6192 9.03844C26.2769 9.10691 26.0029 9.58624 26.1399 9.92861C26.6877 11.3666 28.8104 10.6133 29.7005 9.86013C30.6592 9.10692 30.7961 8.01135 30.7961 6.8473C30.7276 6.29951 30.6592 4.10835 29.6321 5.06698Z" fill="#154B86"/>
</g>
<path opacity="0.47" d="M31.1385 26.7731C31.0016 26.2253 30.7277 25.6775 30.3168 25.4036C29.7691 24.9928 28.9474 25.1982 28.4681 25.6775C26.3454 27.9372 31.8917 30.2653 31.1385 26.7731Z" fill="#368BEA"/>
<g opacity="0.47">
<path d="M25.592 19.3096C24.428 18.7618 22.9215 19.378 21.9629 20.0628C21.0043 20.7475 19.7717 21.9116 20.1826 23.2126C20.2511 23.5549 20.6619 23.7604 21.0043 23.6919C21.9629 23.555 22.5792 22.5963 23.3324 22.0485C24.6334 21.1584 24.9757 21.3638 25.7974 20.6106C26.1398 20.1997 26.1398 19.5835 25.592 19.3096Z" fill="#154B86"/>
</g>
<g opacity="0.47">
<path d="M18.1284 25.883C16.9644 28.4165 18.4708 31.2239 20.525 32.8673C22.0314 34.0313 23.4694 34.853 24.4965 36.4964C25.5236 38.1397 25.6605 40.1255 26.8246 41.7004C27.1669 42.1797 27.7832 42.1797 28.1256 41.7004C29.7689 39.2353 27.9202 35.8116 26.1398 33.8944C25.0443 32.7303 23.6748 32.0456 22.3053 31.2239C20.1826 29.9229 19.7718 28.2795 19.0871 26.0199C18.8816 25.6775 18.2654 25.4721 18.1284 25.883Z" fill="#154B86"/>
</g>
<g opacity="0.47">
<path d="M21.4152 37.455C21.6891 38.0028 21.9629 38.6191 22.2368 39.1668C22.5107 39.8516 22.5792 40.5363 23.2639 41.0156C23.6063 41.2895 24.2911 41.1526 24.565 40.8787C25.3182 40.057 24.9758 38.9614 24.428 38.1397C23.8802 37.3865 23.264 36.9757 22.3738 36.5649C21.6891 36.2225 21.1413 36.8387 21.4152 37.455Z" fill="#154B86"/>
</g>
<g opacity="0.47">
<path d="M39.6976 2.46508C39.0814 2.73897 38.4651 3.62912 38.1227 4.03996C36.9587 5.61486 36.3424 7.66907 36.8902 9.58633C37.575 12.0514 40.7932 13.147 42.8474 11.5721C43.3952 11.1612 43.1898 10.408 42.5735 10.1341C42.1627 9.92869 41.6834 9.86022 41.204 9.86022C40.7247 9.86022 40.2454 9.79175 39.8346 9.51785C39.4237 9.24396 39.2183 8.69617 39.1498 8.14838C39.0129 6.50501 39.9715 4.86164 40.7932 3.56064C41.1356 3.01285 40.5878 2.32813 39.9715 2.3966C39.8346 2.3966 39.7661 2.39661 39.6976 2.46508Z" fill="#005DC6"/>
</g>
<g opacity="0.47">
<path d="M42.368 5.06698C41.8887 5.13545 41.4094 5.47783 41.204 5.88867C40.8616 6.43646 40.9986 7.39509 41.4779 7.8744C42.0941 8.42219 43.3951 8.1483 43.3951 7.25814C43.3951 7.39509 43.3267 7.46356 43.3267 7.60051C43.6006 6.77883 43.6006 4.79308 42.368 5.06698Z" fill="#005DC6"/>
</g>
<g opacity="0.38">
<path d="M45.3124 27.5262C47.0927 27.5262 47.0927 24.7188 45.3124 24.7188C43.5321 24.7188 43.5321 27.5262 45.3124 27.5262Z" fill="#59A7FF"/>
<path d="M42.5049 29.6491C43.5321 29.6491 43.5321 28.0742 42.5049 28.0742C41.4778 28.0742 41.4778 29.6491 42.5049 29.6491Z" fill="#59A7FF"/>
<path d="M41.0671 33.1409C42.0257 33.1409 42.0257 31.6345 41.0671 31.6345C40.1085 31.703 40.1085 33.1409 41.0671 33.1409Z" fill="#59A7FF"/>
<path d="M38.0543 34.9899C38.4652 34.9899 38.4652 34.3052 38.0543 34.3052C37.6435 34.3736 37.6435 34.9899 38.0543 34.9899Z" fill="#59A7FF"/>
<path d="M45.0386 44.7817C46.3396 44.7817 46.3396 42.7275 45.0386 42.7275C43.7376 42.7275 43.7376 44.7817 45.0386 44.7817Z" fill="#59A7FF"/>
<path d="M47.7776 44.7132C48.6678 44.7132 48.6678 43.3438 47.7776 43.3438C46.8874 43.3438 46.8874 44.7132 47.7776 44.7132Z" fill="#59A7FF"/>
<path d="M41.9572 46.0142C42.2996 46.0142 42.2996 45.5349 41.9572 45.5349C41.6148 45.5349 41.6148 46.0142 41.9572 46.0142Z" fill="#59A7FF"/>
<path d="M47.9146 18.5563C48.5309 18.5563 48.5309 17.5977 47.9146 17.5977C47.2983 17.5977 47.2983 18.5563 47.9146 18.5563Z" fill="#59A7FF"/>
<path d="M50.174 18.7617C50.9272 18.7617 50.9272 17.5977 50.174 17.5977C49.4208 17.5977 49.4208 18.7617 50.174 18.7617Z" fill="#59A7FF"/>
<path d="M33.8774 8.90149C34.5622 8.90149 34.5622 7.80591 33.8774 7.80591C33.1927 7.87438 33.1927 8.90149 33.8774 8.90149Z" fill="#59A7FF"/>
<path d="M33.4664 11.0239C34.2196 11.0239 34.2196 9.85986 33.4664 9.85986C32.7817 9.85986 32.7817 11.0239 33.4664 11.0239Z" fill="#59A7FF"/>
<path d="M34.2196 13.4893C34.6305 13.4893 34.9728 13.147 34.9728 12.7361C34.9728 12.3253 34.6305 11.9829 34.2196 11.9829C33.8088 11.9829 33.4664 12.3253 33.4664 12.7361C33.4664 13.147 33.7403 13.4893 34.2196 13.4893Z" fill="#59A7FF"/>
<path d="M36.3423 13.3524C36.0684 13.0785 35.5891 13.0785 35.3837 13.2839C35.3837 13.2839 35.3837 13.2839 35.3837 13.3524C34.9729 13.8317 35.2468 14.5849 35.863 14.5849C36.4793 14.5849 36.7532 13.8317 36.3423 13.3524Z" fill="#59A7FF"/>
</g>
<path opacity="0.51" d="M37.301 47.9315C50.5369 47.9315 61.2667 37.2017 61.2667 23.9658C61.2667 10.7298 50.5369 0 37.301 0C24.065 0 13.3352 10.7298 13.3352 23.9658C13.3352 37.2017 24.065 47.9315 37.301 47.9315Z" fill="url(#paint0_linear_74_58498)"/>
<path opacity="0.07" d="M37.301 48.0001C50.5848 48.0001 61.2667 37.2498 61.2667 24.0344C61.2667 10.7505 50.5164 0.0686035 37.301 0.0686035C35.6576 0.0686035 34.0142 0.205538 32.4394 0.547906C33.3295 0.684853 34.2881 0.821809 35.1783 1.02723C38.5335 1.78044 41.7518 3.21839 44.4907 5.20412C46.0656 6.36818 47.5035 7.66916 48.8045 9.17558C50.8588 11.6406 52.4336 14.585 52.7075 17.7348C52.9814 20.953 51.7489 24.3082 49.1469 26.157C45.8602 28.4851 40.8616 28.2112 38.7389 31.6349C37.4379 33.6891 37.8488 36.4281 36.6847 38.6192C35.3152 41.2897 32.097 42.3168 29.1526 42.8646C27.0984 43.207 25.0442 43.4124 22.9215 43.3439C27.0299 46.2198 31.96 48.0001 37.301 48.0001Z" fill="#005DC6"/>
<path opacity="0.21" d="M37.3011 48C50.585 48 61.2669 37.2496 61.2669 24.0342C61.2669 12.5991 53.2555 3.08126 42.5736 0.616211C42.7105 0.753158 42.8475 0.821632 43.1214 0.958579C47.8461 3.21821 51.8175 7.05273 54.2141 11.6405C55.5836 14.174 56.4737 16.9814 56.8161 19.9258C57.0215 21.5007 57.0215 23.0755 56.3368 24.5135C54.8989 27.5948 51.1328 28.485 48.2569 30.3337C47.7091 30.6761 47.1613 31.087 46.819 31.6347C46.2027 32.7303 46.5451 34.0998 46.4081 35.3323C46.2027 37.5235 44.4909 39.3723 42.6421 40.5363C36.8218 44.3708 28.9473 44.0969 22.5793 41.221C21.0044 40.4678 19.498 39.5777 18.0601 38.6191C22.6478 44.3024 29.5636 48 37.3011 48Z" fill="#005DC6"/>
<path opacity="0.28" d="M37.301 0C28.4679 0 19.7718 5.27246 15.8688 13.2154C14.2939 16.3652 13.4722 19.7889 13.3353 23.3495C13.1983 28.485 14.7732 33.6205 17.6491 37.7974C16.8274 34.3053 16.0742 30.6077 16.5535 27.0471C17.0329 23.4864 18.9501 19.8573 22.2368 18.2824C26.2768 16.2967 31.2069 17.8031 35.5892 16.5706C38.0542 15.8859 40.3824 14.311 42.9159 14.6533C43.6006 14.7218 44.2853 14.9957 44.9701 14.9957C45.6548 14.9957 46.4765 14.6534 46.6819 14.0371C47.0243 13.0785 46.1341 12.1883 46.0657 11.1612C45.9972 9.72324 47.7775 8.90156 49.2155 8.76461C52.0229 8.49072 54.8988 9.17545 57.2269 10.7503C53.05 4.45077 45.7918 0.273894 38.2597 0C37.9858 0 37.6434 0 37.301 0Z" fill="#70B2FF"/>
<path opacity="0.58" d="M37.301 0C24.0171 0 13.3352 10.7504 13.3352 23.9658C13.3352 30.1969 15.7318 35.8802 19.6348 40.1255C16.3481 36.0171 14.4308 30.8131 14.4308 25.1983C14.4308 19.8573 16.2111 14.8588 19.1555 10.8873C20.7304 13.4208 23.5378 15.1327 26.756 15.1327C31.7546 15.1327 35.7261 11.0927 35.7261 6.16262C35.7261 4.45078 35.2468 2.87588 34.4251 1.57488C35.7261 1.36946 37.0271 1.23252 38.3281 1.23252C45.3124 1.23252 51.6804 4.24535 56.0627 9.0385C51.6804 3.56061 44.9015 0 37.301 0Z" fill="#005DC6"/>
<path opacity="0.32" d="M59.0756 13.9001C59.1441 16.776 58.7333 19.6519 57.7062 22.5278C53.2554 35.127 39.4237 41.7004 26.893 37.2496C20.3881 34.9215 15.5264 30.1969 12.9244 24.3766C13.1299 34.0999 19.2925 43.1384 29.0157 46.5621C41.6149 51.0128 55.3781 44.4394 59.8289 31.8402C61.9515 25.7461 61.5407 19.378 59.0756 13.9001Z" fill="url(#paint1_linear_74_58498)"/>
<path opacity="0.32" d="M46.8874 1.78027C48.8731 3.83448 50.448 6.29952 51.6121 9.10694C56.6791 21.4322 50.8588 35.5378 38.5336 40.6733C32.1656 43.2753 25.3182 43.0014 19.4979 40.3994C26.1399 47.4522 36.7533 50.1226 46.2711 46.1512C58.5964 41.0841 64.4851 26.9101 59.3496 14.5848C56.953 8.62762 52.3653 4.17685 46.8874 1.78027Z" fill="url(#paint2_linear_74_58498)"/>
<path opacity="0.43" d="M31.2069 22.8018C36.9929 22.8018 41.6834 18.1113 41.6834 12.3254C41.6834 6.53936 36.9929 1.84888 31.2069 1.84888C25.4209 1.84888 20.7305 6.53936 20.7305 12.3254C20.7305 18.1113 25.4209 22.8018 31.2069 22.8018Z" fill="url(#paint3_radial_74_58498)"/>
<path opacity="0.78" d="M15.1155 32.5248C14.9786 32.2509 14.8417 31.977 14.7732 31.7716C4.91298 37.8657 0.599144 41.8372 0.0513552 43.5491C-0.0171184 43.686 -0.0171184 43.823 0.0513552 43.8914V43.9599C0.119829 44.0284 0.256772 44.0968 0.325245 44.0968C1.55777 44.5077 7.99429 44.5762 38.3966 28.6903C56.679 19.104 69.1412 9.86004 72.4964 6.094C72.9073 5.61468 72.4964 4.92994 71.8802 4.99842C69.3466 5.40926 64.4165 6.91568 57.2953 9.86004C57.4322 10.0655 57.5007 10.2024 57.6377 10.4078C63.5264 8.01125 67.4294 6.98415 67.8402 7.80584C68.7304 9.51768 55.515 18.2138 38.2596 27.2523C21.0728 36.2908 6.35092 42.2481 5.46077 40.6047C5.04992 39.6461 8.81598 36.5648 15.1155 32.5248Z" fill="url(#paint4_linear_74_58498)"/>
<defs>
<linearGradient id="paint0_linear_74_58498" x1="20.3501" y1="7.0193" x2="54.2841" y2="40.9534" gradientUnits="userSpaceOnUse">
<stop stop-color="white"/>
<stop offset="0.0907307" stop-color="#EBEBF6"/>
<stop offset="0.5386" stop-color="#8B8FCE"/>
<stop offset="0.8514" stop-color="#4F55B4"/>
<stop offset="1" stop-color="#383EAA"/>
</linearGradient>
<linearGradient id="paint1_linear_74_58498" x1="34.7827" y1="14.2993" x2="42.7167" y2="47.393" gradientUnits="userSpaceOnUse">
<stop offset="0.2422" stop-color="white"/>
<stop offset="0.9199" stop-color="white"/>
<stop offset="1" stop-color="white"/>
</linearGradient>
<linearGradient id="paint2_linear_74_58498" x1="29.0733" y1="18.2962" x2="57.1042" y2="37.5921" gradientUnits="userSpaceOnUse">
<stop offset="0.2422" stop-color="white"/>
<stop offset="0.3912" stop-color="#FCFFFF"/>
<stop offset="0.5032" stop-color="#F2FFFF"/>
<stop offset="0.6031" stop-color="#E2FEFF"/>
<stop offset="0.696" stop-color="#CBFDFF"/>
<stop offset="0.784" stop-color="#AEFCFF"/>
<stop offset="0.8685" stop-color="#8AFBFF"/>
<stop offset="0.9485" stop-color="#5FF9FF"/>
<stop offset="1" stop-color="#40F8FF"/>
</linearGradient>
<radialGradient id="paint3_radial_74_58498" cx="0" cy="0" r="1" gradientUnits="userSpaceOnUse" gradientTransform="translate(31.2345 12.316) scale(10.4562)">
<stop stop-color="#ECECEC"/>
<stop offset="0.4693" stop-color="#F1F1F1"/>
<stop offset="1" stop-color="white"/>
</radialGradient>
<linearGradient id="paint4_linear_74_58498" x1="-0.433218" y1="42.8312" x2="73.4204" y2="6.93082" gradientUnits="userSpaceOnUse">
<stop stop-color="#77EDF6"/>
<stop offset="0.1562" stop-color="#6BE1F0"/>
<stop offset="0.4408" stop-color="#4CC0E1"/>
<stop offset="0.8189" stop-color="#1A8CC8"/>
<stop offset="0.9943" stop-color="#0071BB"/>
</linearGradient>
</defs>
</svg>
