<svg width="52" height="50" viewBox="0 0 52 50" fill="none" xmlns="http://www.w3.org/2000/svg">
<path d="M26.0128 49.4915C39.5391 49.4915 50.5042 38.5264 50.5042 25.0002C50.5042 11.4739 39.5391 0.508789 26.0128 0.508789C12.4866 0.508789 1.52148 11.4739 1.52148 25.0002C1.52148 38.5264 12.4866 49.4915 26.0128 49.4915Z" fill="#D8C34E"/>
<path opacity="0.13" d="M30.3521 0C30.9384 1.10227 31.3047 2.35149 31.378 3.7477C31.4513 8.00979 27.6409 11.3901 24.49 13.6681C20.7529 16.387 16.6495 18.0772 12.1796 19.1059C9.90804 19.6203 7.5632 20.1347 5.21835 19.9143C3.45972 19.7673 2.36058 19.0325 1.33471 18.0037C0.821779 19.7673 0.455391 21.6779 0.308838 23.5885C3.02006 25.3521 6.83043 26.087 9.61493 26.087C16.5762 26.0135 23.684 23.4415 29.3996 19.3999C34.822 15.5787 39.5117 10.2878 39.4384 3.38028C36.6539 1.76362 33.6496 0.587875 30.3521 0Z" fill="#D83F3F"/>
<path opacity="0.13" d="M45.8338 13.4861C45.4004 15.6645 44.5336 17.9882 43.3056 20.3119C40.8496 24.8866 37.0934 29.1709 32.7593 32.7291C28.4253 36.2146 23.3689 38.8287 17.7346 40.0632C13.9061 40.9346 9.78878 41.0798 5.74365 40.4989C6.39376 41.4429 7.18835 42.3143 7.98292 43.113C11.2335 44.057 14.7007 44.5653 18.2402 44.5653C24.7413 44.5653 31.3147 42.8952 37.3823 39.918C40.344 38.393 43.2333 36.6503 45.906 34.6171C47.6396 33.31 49.301 31.9303 50.8902 30.4054C51.2514 28.7352 51.3958 27.0651 51.3958 25.2497C51.3958 19.4405 49.4455 14.067 46.1949 9.78271C46.1227 11.0172 46.0505 12.2516 45.8338 13.4861Z" fill="#D83F3F"/>
<g opacity="0.25">
<path d="M27.1713 7.1233C26.6666 7.48378 26.3062 7.77216 25.9457 8.27684C25.5852 8.70943 25.2968 9.21411 25.0084 9.64669C24.72 10.0793 25.2968 10.4398 25.6573 10.1514C26.0899 9.79089 26.5224 9.4304 26.8829 8.99781C27.2434 8.56523 27.5318 8.13266 27.8202 7.70008C27.8923 7.33959 27.5318 6.83491 27.1713 7.1233Z" fill="#D83F3F"/>
</g>
<g opacity="0.25">
<path d="M33.4436 18.6589C33.5878 18.731 33.8041 18.8031 34.1645 18.8031C35.3902 18.731 36.0391 17.5054 36.76 16.7123C38.202 15.1983 39.4997 13.3958 39.8602 11.305C39.9323 10.9445 39.4997 10.8003 39.3555 11.0887C38.3462 12.4586 37.6973 14.0447 36.6879 15.4145C35.967 16.4239 34.6692 16.7844 33.8041 17.6495C33.2994 18.1542 33.2273 18.5147 33.4436 18.6589Z" fill="#D83F3F"/>
</g>
<path opacity="0.25" d="M17.8166 11.9592C15.8196 12.1864 5.12162 15.9733 3.83786 12.7166C3.33862 13.7012 2.91071 14.6858 2.48279 15.6704C2.98203 16.2006 3.6239 16.655 4.3371 16.8822C8.54497 18.3213 14.7498 16.5035 18.3158 14.0041C19.1003 13.4739 18.8864 11.8834 17.8166 11.9592Z" fill="#D83F3F"/>
<path opacity="0.25" d="M27.8855 2.18593C27.9651 3.5257 27.6467 4.72443 27.4875 5.99368C27.4079 6.55779 28.3631 6.69882 28.6815 6.27574C29.796 4.72444 29.9552 2.11541 29.1592 0.141026C28.6019 0.0705117 28.0447 0 27.4875 0C27.6467 0.705139 27.8059 1.41028 27.8855 2.18593Z" fill="#D83F3F"/>
<path opacity="0.25" d="M44.3628 7.60864C44.1449 8.8395 43.927 10.0704 43.6364 11.3012C42.9826 13.6905 42.0382 16.0074 40.9486 18.252C38.6966 22.5962 35.4276 25.9267 32.0133 29.4021C31.5048 29.9089 32.1586 30.7054 32.7398 30.3433C37.2437 27.8816 40.658 23.465 42.91 18.976C44.2902 16.2971 45.5978 12.8217 45.961 9.49113C45.5251 8.8395 44.944 8.18787 44.3628 7.60864Z" fill="#D83F3F"/>
<path opacity="0.25" d="M31.4878 20.6818C26.2181 22.6708 21.168 24.9806 15.4592 25.8147C10.4091 26.5847 5.13938 26.2638 0.308838 24.6598C0.308838 24.724 0.308838 24.7881 0.308838 24.7881C0.308838 25.0448 0.308838 25.3014 0.308838 25.4939C10.4091 29.2153 22.9978 26.328 31.7074 21.0026C32.0002 20.8743 31.7074 20.5535 31.4878 20.6818Z" fill="#D83F3F"/>
<path opacity="0.25" d="M37.8883 42.4112C33.153 44.1361 28.3438 45.723 23.1645 46.1369C19.2431 46.4819 15.1737 46.2059 11.1783 45.585C12.2142 46.2749 13.324 46.8269 14.4338 47.3788C22.5726 48.6207 31.4513 47.3098 38.1103 43.0322C38.5542 42.8942 38.3322 42.2732 37.8883 42.4112Z" fill="#D83F3F"/>
<path opacity="0.13" d="M24.8133 27.1765C17.2184 27.2517 9.13128 32.9644 1.39575 30.2584C1.81769 32.2879 2.4506 34.3174 3.22415 36.1213C5.40416 36.873 7.79515 37.0985 10.2564 36.873C13.21 36.5723 16.0933 35.971 18.9062 34.9187C22.0707 33.716 24.1804 32.5134 26.1494 29.657C26.8527 28.6047 25.9385 27.1014 24.8133 27.1765Z" fill="#D83F3F"/>
<path opacity="0.13" d="M14.1758 7.08219C11.7778 8.11501 9.52519 8.26255 7.12724 8.18878C6.18259 9.14783 5.38327 10.2544 4.65662 11.361C10.9785 16.7464 25.9475 8.18879 24.0582 0C23.3316 0.0737729 22.6049 0.147537 21.9509 0.22131C21.8056 3.83618 17.0824 5.90182 14.1758 7.08219Z" fill="#D83F3F"/>
<g opacity="0.85">
<g opacity="0.25">
<path d="M21.5476 19.2356C23.0617 19.2356 23.0617 16.9285 21.5476 16.9285C20.1057 16.9285 20.1057 19.2356 21.5476 19.2356Z" fill="#E5B55E"/>
</g>
<g opacity="0.25">
<path d="M23.999 18.5867C25.7294 18.5867 25.7294 15.9191 23.999 15.9191C22.2687 15.847 22.2687 18.5867 23.999 18.5867Z" fill="#E5B55E"/>
</g>
<g opacity="0.25">
<path d="M25.7293 16.7841C26.234 16.7841 26.234 15.9189 25.7293 15.9189C25.1526 15.991 25.1526 16.7841 25.7293 16.7841Z" fill="#E5B55E"/>
</g>
<g opacity="0.25">
<path d="M26.9549 16.2073C27.9643 16.2073 27.9643 14.6212 26.9549 14.6212C25.9455 14.5491 25.9455 16.2073 26.9549 16.2073Z" fill="#E5B55E"/>
</g>
<g opacity="0.25">
<path d="M29.4783 14.5497C29.5504 14.5497 29.5504 14.4776 29.6225 14.4776C29.9109 14.2613 30.1272 13.9008 30.0551 13.4682C29.9109 13.1077 29.6225 12.8193 29.1899 12.8193C29.1178 12.8193 29.1178 12.8193 29.0457 12.8193C28.4689 12.8914 28.0363 13.3961 28.1805 13.9729C28.3247 14.5497 28.9736 14.9102 29.4783 14.5497Z" fill="#E5B55E"/>
</g>
<g opacity="0.25">
<path d="M32.0017 12.0257C32.0737 12.0257 32.0737 12.0257 32.0017 12.0257C32.2179 11.3768 31.7854 10.7279 31.2086 10.5837H31.1365C30.1992 10.2954 29.262 11.4489 29.8387 12.3141C30.055 12.6746 30.4155 12.8908 30.8481 12.8908C31.497 12.8908 31.8575 12.5304 32.0017 12.0257Z" fill="#E5B55E"/>
</g>
<g opacity="0.25">
<path d="M32.218 10.584C32.6506 10.584 32.939 10.2235 32.939 9.86306C32.939 9.43048 32.5785 9.14209 32.218 9.14209C31.7855 9.14209 31.4971 9.50258 31.4971 9.86306C31.4971 10.2235 31.8576 10.584 32.218 10.584Z" fill="#E5B55E"/>
</g>
<g opacity="0.25">
<path d="M33.0832 8.20483C33.8042 8.20483 33.8042 7.05127 33.0832 7.05127C32.2901 7.12337 32.2901 8.20483 33.0832 8.20483Z" fill="#E5B55E"/>
</g>
<g opacity="0.25">
<path d="M19.8894 19.3078C19.8894 19.2357 19.8894 19.2357 19.8894 19.3078C20.1057 18.731 19.601 18.2263 19.1685 18.2263C18.6638 18.2263 18.2312 18.731 18.3754 19.2357V19.3078C18.6638 20.0287 19.601 20.0287 19.8894 19.3078Z" fill="#E5B55E"/>
</g>
<g opacity="0.25">
<path d="M5.47006 33.3666C5.97474 33.3666 5.97474 32.5015 5.47006 32.5015C4.89328 32.5736 4.89328 33.3666 5.47006 33.3666Z" fill="#E5B55E"/>
</g>
<g opacity="0.25">
<path d="M7.48884 33.7995C8.354 33.7995 8.354 32.4297 7.48884 32.4297C6.62367 32.4297 6.62367 33.7995 7.48884 33.7995Z" fill="#E5B55E"/>
</g>
<g opacity="0.25">
<path d="M10.0843 34.3762C10.8053 34.3762 11.5263 33.7273 11.4542 33.0063C11.4542 32.2853 10.8053 31.6365 10.0843 31.6365C9.36335 31.6365 8.64237 32.2853 8.71447 33.0063C8.71447 33.7273 9.29125 34.3762 10.0843 34.3762Z" fill="#E5B55E"/>
</g>
<g opacity="0.25">
<path d="M12.6075 34.2317C13.4727 34.2317 14.3378 33.4387 14.2657 32.5735C14.1936 31.6363 13.5448 30.9153 12.6075 30.9153C11.7424 30.9153 10.8772 31.7084 10.9493 32.5735C11.0214 33.4387 11.6703 34.2317 12.6075 34.2317Z" fill="#E5B55E"/>
</g>
<g opacity="0.25">
<path d="M15.6357 32.5735C15.9962 32.213 15.9962 31.6362 15.6357 31.2757C15.6357 31.2757 15.6357 31.2757 15.6357 31.2036C15.1311 30.6268 13.9775 31.0594 14.0496 31.8525C14.0496 32.1409 14.1938 32.5014 14.4822 32.6456C14.8427 32.9339 15.3474 32.934 15.6357 32.5735Z" fill="#E5B55E"/>
</g>
<g opacity="0.25">
<path d="M17.1498 32.069C17.5823 32.069 17.9428 31.7086 17.9428 31.276C17.9428 30.8434 17.5823 30.4829 17.1498 30.4829C16.7172 30.4829 16.3567 30.8434 16.3567 31.276C16.3567 31.7086 16.7172 32.069 17.1498 32.069Z" fill="#E5B55E"/>
</g>
<g opacity="0.25">
<path d="M19.1685 31.6364C20.4662 31.6364 20.4662 29.6177 19.1685 29.6177C17.8708 29.6177 17.8708 31.6364 19.1685 31.6364Z" fill="#E5B55E"/>
</g>
<g opacity="0.25">
<path d="M48.0795 19.6683C50.2424 19.6683 50.2424 16.3518 48.0795 16.3518C45.9165 16.3518 45.9165 19.6683 48.0795 19.6683Z" fill="#E5B55E"/>
</g>
<g opacity="0.25">
<path d="M47.2864 21.9031C47.8631 21.9031 48.4399 21.3984 48.4399 20.7495C48.4399 20.1006 47.9352 19.5959 47.2864 19.5959C46.7096 19.5959 46.1328 20.1006 46.1328 20.7495C46.1328 21.3984 46.6375 21.9031 47.2864 21.9031Z" fill="#E5B55E"/>
</g>
<g opacity="0.25">
<path d="M46.0607 23.6336C47.2864 23.6336 47.2864 21.759 46.0607 21.759C44.8351 21.759 44.8351 23.6336 46.0607 23.6336Z" fill="#E5B55E"/>
</g>
<g opacity="0.25">
<path d="M44.4746 25.2197C45.3397 25.2197 45.3397 23.9219 44.4746 23.9219C43.6094 23.8498 43.6094 25.2197 44.4746 25.2197Z" fill="#E5B55E"/>
</g>
<g opacity="0.25">
<path d="M42.4558 28.7524C44.4024 28.7524 44.4024 25.7964 42.4558 25.7964C40.5092 25.7964 40.5092 28.7524 42.4558 28.7524Z" fill="#E5B55E"/>
</g>
<g opacity="0.25">
<path d="M40.7976 31.2761C42.3838 31.2761 42.3838 28.7527 40.7976 28.7527C39.2115 28.7527 39.2115 31.2761 40.7976 31.2761Z" fill="#E5B55E"/>
</g>
<g opacity="0.25">
<path d="M39.0674 32.3574C39.4999 32.3574 39.8604 31.9969 39.8604 31.5643C39.8604 31.1317 39.4999 30.7712 39.0674 30.7712C38.6348 30.7712 38.2743 31.1317 38.2743 31.5643C38.2743 31.9969 38.6348 32.3574 39.0674 32.3574Z" fill="#E5B55E"/>
</g>
<g opacity="0.25">
<path d="M36.8321 33.7274C37.6252 33.7274 37.6252 32.4297 36.8321 32.4297C35.9669 32.5018 35.9669 33.7274 36.8321 33.7274Z" fill="#E5B55E"/>
</g>
<g opacity="0.25">
<path d="M39.6441 42.9556C41.1581 42.9556 41.1581 40.5764 39.6441 40.5764C38.13 40.5764 38.13 42.9556 39.6441 42.9556Z" fill="#E5B55E"/>
</g>
<g opacity="0.25">
<path d="M41.8791 41.3695C42.9605 41.3695 42.9605 39.6392 41.8791 39.6392C40.7255 39.6392 40.7255 41.3695 41.8791 41.3695Z" fill="#E5B55E"/>
</g>
<g opacity="0.25">
<path d="M43.8977 37.332H43.8256C43.1046 37.332 42.3837 37.9809 42.3837 38.774C42.3837 39.567 43.0325 40.2159 43.8256 40.2159H43.8977C44.6187 40.2159 45.3397 39.567 45.3397 38.774C45.3397 37.9809 44.6908 37.332 43.8977 37.332Z" fill="#E5B55E"/>
</g>
<g opacity="0.25">
<path d="M46.1328 38.2691C46.7096 38.2691 47.2143 37.7644 47.2143 37.1877C47.2143 36.6109 46.7817 36.1062 46.1328 36.1062C45.5561 36.1062 45.0514 36.6109 45.0514 37.1877C45.1235 37.7644 45.5561 38.2691 46.1328 38.2691Z" fill="#E5B55E"/>
</g>
<g opacity="0.25">
<path d="M47.5027 35.8181C47.9352 35.8181 47.9352 35.1692 47.5027 35.1692C47.0701 35.1692 47.0701 35.8181 47.5027 35.8181Z" fill="#E5B55E"/>
</g>
<g opacity="0.25">
<path d="M48.2957 34.8809C49.0167 34.8809 49.0167 33.7273 48.2957 33.7273C47.5748 33.7273 47.5748 34.8809 48.2957 34.8809Z" fill="#E5B55E"/>
</g>
<g opacity="0.25">
<path d="M13.5449 39.4228C14.0496 39.4228 14.0496 38.5576 13.5449 38.5576C12.9681 38.5576 12.9681 39.4228 13.5449 39.4228Z" fill="#E5B55E"/>
</g>
<g opacity="0.25">
<path d="M15.2752 39.4949C16.2125 39.4949 16.2125 38.053 15.2752 38.053C14.338 38.053 14.338 39.4949 15.2752 39.4949Z" fill="#E5B55E"/>
</g>
<g opacity="0.25">
<path d="M17.366 39.3508C17.8707 39.3508 18.3754 38.9182 18.3754 38.3414C18.3754 37.8367 17.9428 37.332 17.366 37.332C16.8614 37.332 16.3567 37.7646 16.3567 38.3414C16.4288 38.9182 16.7893 39.3508 17.366 39.3508Z" fill="#E5B55E"/>
</g>
<g opacity="0.25">
<path d="M19.8173 38.4854C20.7546 38.4854 20.7546 37.0435 19.8173 37.0435C18.8801 37.0435 18.8801 38.4854 19.8173 38.4854Z" fill="#E5B55E"/>
</g>
<g opacity="0.25">
<path d="M21.4035 37.9806C22.4129 37.9806 22.4129 36.4666 21.4035 36.4666C20.4662 36.4666 20.4662 37.9806 21.4035 37.9806Z" fill="#E5B55E"/>
</g>
<g opacity="0.25">
<path d="M22.9177 36.8275C23.4224 36.8275 23.4224 36.0344 22.9177 36.0344C22.413 36.0344 22.413 36.8275 22.9177 36.8275Z" fill="#E5B55E"/>
</g>
<g opacity="0.25">
<path d="M8.9307 11.2326C10.3726 11.2326 10.3726 8.99756 8.9307 8.99756C7.48876 8.99756 7.48876 11.2326 8.9307 11.2326Z" fill="#E5B55E"/>
</g>
<g opacity="0.25">
<path d="M11.4541 10.7279C12.175 10.7279 12.2471 9.57435 11.4541 9.57435C10.661 9.50225 10.661 10.7279 11.4541 10.7279Z" fill="#E5B55E"/>
</g>
<g opacity="0.25">
<path d="M13.6891 10.8002C15.1311 10.8002 15.1311 8.56519 13.6891 8.56519C12.2472 8.56519 12.2472 10.8002 13.6891 10.8002Z" fill="#E5B55E"/>
</g>
<g opacity="0.25">
<path d="M16.3567 9.35801C17.4382 9.35801 17.4382 7.62769 16.3567 7.62769C15.2032 7.62769 15.2032 9.35801 16.3567 9.35801Z" fill="#E5B55E"/>
</g>
<g opacity="0.25">
<path d="M17.8708 8.13273C18.5918 8.13273 18.5918 7.05127 17.8708 7.05127C17.1498 7.05127 17.1498 8.13273 17.8708 8.13273Z" fill="#E5B55E"/>
</g>
<g opacity="0.25">
<path d="M19.3126 7.05123C19.601 7.05123 19.601 6.61865 19.3126 6.61865C19.0242 6.61865 19.0242 7.05123 19.3126 7.05123Z" fill="#E5B55E"/>
</g>
<g opacity="0.25">
<path d="M20.322 6.61845C21.2592 6.61845 21.2592 5.17651 20.322 5.17651C19.3847 5.17651 19.3847 6.61845 20.322 6.61845Z" fill="#E5B55E"/>
</g>
<g opacity="0.25">
<path d="M2.80239 29.9781C4.53272 29.9781 4.53272 27.3105 2.80239 27.3105C1.07206 27.2384 1.07206 29.9781 2.80239 29.9781Z" fill="#E5B55E"/>
</g>
<g opacity="0.25">
<path d="M5.54218 28.6081C5.32589 28.3918 4.89331 28.3918 4.74911 28.536C4.74911 28.536 4.74911 28.536 4.74911 28.6081C4.38863 28.9686 4.60492 29.6175 5.1817 29.6175C5.68638 29.6175 5.90267 29.0407 5.54218 28.6081Z" fill="#E5B55E"/>
</g>
<g opacity="0.25">
<path d="M7.05634 29.7616C7.92151 29.7616 7.92151 28.4639 7.05634 28.4639C6.19118 28.4639 6.19118 29.7616 7.05634 29.7616Z" fill="#E5B55E"/>
</g>
<g opacity="0.25">
<path d="M41.2302 8.92573C41.9512 8.92573 42.6 8.27685 42.6 7.55587C42.6 6.8349 42.0233 6.18604 41.2302 6.18604C40.5092 6.18604 39.8604 6.8349 39.8604 7.55587C39.9324 8.27685 40.5092 8.92573 41.2302 8.92573Z" fill="#E5B55E"/>
</g>
<g opacity="0.25">
<path d="M41.6629 11.1604C42.8164 11.1604 42.8164 9.43009 41.6629 9.43009C40.5093 9.35799 40.5093 11.1604 41.6629 11.1604Z" fill="#E5B55E"/>
</g>
<g opacity="0.25">
<path d="M41.3745 12.6747C42.1675 12.6747 42.1675 11.377 41.3745 11.377C40.5814 11.377 40.5814 12.6747 41.3745 12.6747Z" fill="#E5B55E"/>
</g>
<g opacity="0.25">
<path d="M40.9419 13.7565C41.1582 13.7565 41.2303 13.396 40.9419 13.396C40.7256 13.396 40.7256 13.7565 40.9419 13.7565Z" fill="#E5B55E"/>
</g>
<g opacity="0.25">
<path d="M30.7041 28.1034C31.425 28.1034 32.0739 27.4546 32.0739 26.7336C32.0739 26.0126 31.4971 25.3638 30.7041 25.3638C29.9831 25.3638 29.3342 26.0126 29.3342 26.7336C29.3342 27.5267 29.911 28.1034 30.7041 28.1034Z" fill="#E5B55E"/>
</g>
<g opacity="0.25">
<path d="M33.0833 25.9404C34.8857 25.9404 34.8857 23.1287 33.0833 23.1287C31.2808 23.1287 31.2808 25.9404 33.0833 25.9404Z" fill="#E5B55E"/>
</g>
<g opacity="0.25">
<path d="M35.102 23.6336C36.0393 23.6336 36.0393 22.1917 35.102 22.1917C34.2368 22.1917 34.2368 23.6336 35.102 23.6336Z" fill="#E5B55E"/>
</g>
<g opacity="0.25">
<path d="M36.3275 22.0476C36.9043 22.0476 36.9043 21.1824 36.3275 21.1824C35.7507 21.1103 35.7507 22.0476 36.3275 22.0476Z" fill="#E5B55E"/>
</g>
<g opacity="0.25">
<path d="M29.6228 29.7615C30.3437 29.7615 30.4158 28.6079 29.6228 28.6079C28.9018 28.6079 28.9018 29.7615 29.6228 29.7615Z" fill="#E5B55E"/>
</g>
<g opacity="0.25">
<path d="M28.469 31.1317C29.1899 31.1317 29.1899 30.0503 28.469 30.0503C27.748 30.0503 27.748 31.1317 28.469 31.1317Z" fill="#E5B55E"/>
</g>
</g>
<path opacity="0.17" d="M30.0596 0C29.9124 0.142163 29.8389 0.355399 29.7653 0.568644C28.5881 2.84326 27.7788 5.33112 27.5581 7.89005C27.3374 9.80926 27.5581 11.9417 28.8088 13.4344C29.9124 14.7139 31.6046 15.2825 33.2232 15.5669C36.0926 16.1355 39.0355 16.2777 41.9049 16.8463C44.7742 17.415 47.6436 18.5523 49.4093 20.8269C50.5865 22.3196 51.1751 24.1678 51.3223 26.087C51.3223 25.5894 51.3958 25.0918 51.3958 24.6653C51.3958 12.226 42.1992 2.06137 30.0596 0Z" fill="#CE9C5F"/>
<path opacity="0.17" d="M50.3088 30.1487C48.7521 31.7067 47.1246 33.2648 45.2849 34.4688C43.4452 35.6727 41.2517 36.4517 39.0581 36.3101C36.8646 36.1685 34.6711 34.9645 33.6805 32.9815C32.5483 30.7152 33.1144 27.6699 31.487 25.687C30.4963 24.483 28.8689 23.9164 27.3122 23.9164C24.8356 23.8456 22.4298 24.9079 20.3071 26.1827C18.1843 27.4575 16.2738 29.0864 14.0803 30.3611C11.9575 31.6359 9.48096 32.5566 7.00441 32.2733C5.94302 32.2025 4.88165 31.7776 3.96179 31.211C2.9004 30.5736 2.54661 29.5821 1.76826 28.8031C1.27295 28.3781 1.41447 28.5198 1.41447 29.1572C1.41447 29.7237 1.62674 30.3611 1.76826 30.9277C2.05129 32.0608 2.40509 33.1232 2.82964 34.1855C4.52785 38.4347 7.3582 42.2591 10.9669 45.0211C11.816 45.6585 12.7359 46.2959 13.7265 46.8624C20.5193 50.6868 29.1519 51.0409 36.2986 47.7831C43.3744 44.5962 48.7521 37.7973 50.3088 30.1487Z" fill="#CE9C5F"/>
<path opacity="0.19" d="M43.6402 6.52173C45.22 9.83848 46.0818 13.5157 46.0818 17.4093C46.0818 31.3973 34.8075 42.6454 20.9479 42.6454C14.1977 42.6454 8.09379 39.9776 3.5697 35.6514C7.66293 44.1596 16.2802 50 26.262 50C40.1933 50 51.3958 38.6798 51.3958 24.7639C51.3958 17.6256 48.4515 11.1363 43.6402 6.52173Z" fill="#CE5F5F"/>
<path opacity="0.17" d="M38.0431 3.26099C38.551 5.24687 38.8413 7.30367 38.8413 9.50233C38.8413 23.2616 27.448 34.3258 13.4422 34.3258C9.08805 34.3258 4.95163 33.262 1.39575 31.347C4.22594 42.0566 14.1679 50.0001 25.9966 50.0001C40.075 50.0001 51.3958 38.865 51.3958 25.1766C51.3958 15.7437 46.0256 7.51645 38.0431 3.26099Z" fill="#CE9C5F"/>
<path opacity="0.44" d="M44.8741 7.9246C40.1675 3.06989 33.4754 0 26.0478 0C25.386 0 24.6506 -6.53728e-06 23.9887 0.0713863C19.2086 0.428351 14.8698 2.07039 11.1928 4.56914C9.79549 5.49725 8.54532 6.56814 7.36868 7.78182C5.45664 9.78082 3.83875 12.0654 2.66211 14.5641C1.19132 17.7054 0.308838 21.2751 0.308838 24.9875C0.308838 32.341 3.5446 38.9091 8.76593 43.4783C4.50062 38.9805 1.85318 32.9835 1.85318 26.4154C1.85318 22.7029 2.73566 19.1333 4.20646 15.9206C6.4862 17.7054 9.35425 18.7763 12.4429 18.7763C19.7234 18.7763 25.6066 13.0649 25.6066 5.997C25.6066 4.42635 25.3124 2.9271 24.7976 1.49924C25.7537 1.42785 26.7097 1.35646 27.6657 1.35646C34.2108 1.42785 40.3146 3.85521 44.8741 7.9246Z" fill="#CEC35F"/>
<path opacity="0.32" d="M26.3958 9.7826C26.3958 11.6168 27.8224 13.0435 29.6566 13.0435C31.4909 13.0435 32.9175 11.6168 32.9175 9.7826C32.9175 7.94836 31.4909 6.52173 29.6566 6.52173C27.8903 6.52173 26.3958 8.0163 26.3958 9.7826Z" fill="#CEC35F"/>
<path opacity="0.32" d="M25.8524 16.3043C26.7528 16.3043 27.4828 15.5744 27.4828 14.6739C27.4828 13.7734 26.7528 13.0435 25.8524 13.0435C24.9519 13.0435 24.2219 13.7734 24.2219 14.6739C24.2219 15.5744 24.9519 16.3043 25.8524 16.3043Z" fill="#CEC35F"/>
<path opacity="0.44" d="M4.65662 10.9577C6.30959 12.9318 8.93933 14.1304 11.7945 14.1304C16.9037 14.1304 20.961 10.2526 20.961 5.52875C20.961 3.90713 20.435 2.35601 19.6085 1.08691C13.4474 2.56753 8.18797 6.16329 4.65662 10.9577Z" fill="#CEC35F"/>
<path opacity="0.45" d="M25.8523 50C39.9596 50 51.3958 38.8071 51.3958 25C51.3958 11.1929 39.9596 0 25.8523 0C11.745 0 0.308838 11.1929 0.308838 25C0.308838 38.8071 11.745 50 25.8523 50Z" fill="url(#paint0_linear_74_56533)"/>
<path opacity="0.32" d="M49.1475 14.1304C49.22 17.1596 48.7852 20.1888 47.6983 23.2181C42.9883 36.489 28.3512 43.413 15.0909 38.7249C8.20708 36.2726 3.06235 31.296 0.308838 25.1654C0.526221 35.4071 7.0477 44.9276 17.3372 48.5338C30.67 53.2219 45.2346 46.298 49.9446 33.027C52.1909 26.6079 51.7561 19.9003 49.1475 14.1304Z" fill="url(#paint1_linear_74_56533)"/>
<path opacity="0.13" d="M36.4691 1.08691C38.5391 3.26093 40.1808 5.86975 41.3942 8.84091C46.6763 21.885 40.6091 36.8133 27.7608 42.2483C21.1226 45.0021 13.9847 44.7122 7.91748 41.9585C14.8412 49.4226 25.905 52.2488 35.8267 48.0457C48.6749 42.6831 54.8135 27.6824 49.4601 14.6383C46.9618 8.40611 42.1794 3.69574 36.4691 1.08691Z" fill="url(#paint2_linear_74_56533)"/>
<defs>
<linearGradient id="paint0_linear_74_56533" x1="7.76097" y1="7.307" x2="43.1513" y2="43.4667" gradientUnits="userSpaceOnUse">
<stop stop-color="#FF0000"/>
<stop offset="1" stop-color="#930000"/>
</linearGradient>
<linearGradient id="paint1_linear_74_56533" x1="23.4028" y1="14.5354" x2="31.7251" y2="49.4112" gradientUnits="userSpaceOnUse">
<stop offset="0.2422" stop-color="white"/>
<stop offset="0.9199" stop-color="white"/>
<stop offset="1" stop-color="white"/>
</linearGradient>
<linearGradient id="paint2_linear_74_56533" x1="17.8625" y1="18.623" x2="47.3656" y2="38.6273" gradientUnits="userSpaceOnUse">
<stop offset="0.2422" stop-color="white"/>
<stop offset="0.3632" stop-color="#FEFBFB"/>
<stop offset="0.4705" stop-color="#FBF1F1"/>
<stop offset="0.5727" stop-color="#F6DEDE"/>
<stop offset="0.6718" stop-color="#EFC5C5"/>
<stop offset="0.7685" stop-color="#E6A4A4"/>
<stop offset="0.8635" stop-color="#DC7C7C"/>
<stop offset="0.9554" stop-color="#CF4D4D"/>
<stop offset="1" stop-color="#C83333"/>
</linearGradient>
</defs>
</svg>
