<svg width="180" height="176" viewBox="0 0 180 176" fill="none" xmlns="http://www.w3.org/2000/svg">
<mask id="mask0_2001_58" style="mask-type:alpha" maskUnits="userSpaceOnUse" x="0" y="0" width="180" height="176">
<rect width="180" height="176" fill="#D9D9D9"/>
</mask>
<g mask="url(#mask0_2001_58)">
<path d="M144.659 113.279L144.7 113.252L144.735 113.217L144.775 113.177C149.077 110.311 154.916 111.514 157.809 115.897C160.638 120.221 159.505 126.102 155.125 129.007C155.124 129.007 155.123 129.008 155.122 129.008L155.069 129.043C153.754 129.891 143.494 136.513 128.432 142.209C113.112 148.002 92.8632 152.823 72.0256 149.67L72.0254 149.67C61.2236 148.039 50.201 144.184 39.6947 137.288L39.6407 137.253L39.5795 137.232C24.6932 132.235 15.0887 117.169 17.5082 101.151L17.5082 101.151C20.2215 83.1448 37.0144 70.7263 54.9781 73.4451C72.9422 76.164 85.3357 92.9926 82.6224 110.998L82.6221 111C81.5233 118.489 77.8601 124.882 72.8676 129.738L72.1655 130.421L73.1305 130.589C90.8239 133.67 108.601 129.404 121.984 124.354C135.372 119.301 144.413 113.443 144.659 113.279ZM36.1717 104.06C35.0137 111.72 40.3388 118.912 47.9804 120.072C55.626 121.233 62.8015 115.894 63.959 108.238C65.117 100.578 59.7918 93.3865 52.1503 92.2262C44.5046 91.0652 37.3292 96.404 36.1717 104.06Z" fill="#7533B6" stroke="white"/>
<path d="M112.944 45.7053L113.646 45.0226L112.681 44.8543C95.0248 41.7736 77.2472 46.0394 63.8558 51.0897C51.2326 55.8503 42.4599 61.3258 41.2825 62.0801H41.203L41.0764 62.1654C36.7706 65.0658 30.9041 63.8676 28.0021 59.4706C25.174 55.1472 26.3066 49.2669 30.6866 46.3621C30.7029 46.3516 30.7215 46.3395 30.7424 46.3261C32.057 45.4776 42.3172 38.8559 57.3791 33.1599C72.6993 27.3662 92.9483 22.5454 113.786 25.6983L113.786 25.6983C124.587 27.3294 135.536 31.1844 146.118 38.0816L146.17 38.1156L146.229 38.1358C161.045 43.2078 170.723 58.2761 168.303 74.2926C165.59 92.2985 148.797 104.717 130.834 101.998C112.869 99.2796 100.476 82.4507 103.189 64.445L103.189 64.4431C104.288 56.9545 107.951 50.5615 112.944 45.7053ZM149.565 71.458C150.715 63.8571 145.551 56.7098 137.995 55.4718L137.919 55.3962L137.757 55.3716C130.111 54.2106 122.936 59.5494 121.778 67.2054C120.62 74.865 125.945 82.057 133.587 83.2174C141.228 84.3777 148.407 79.118 149.565 71.458Z" fill="#7533B6" stroke="white"/>
</g>
</svg>
