<svg width="112" height="111" viewBox="0 0 112 111" fill="none" xmlns="http://www.w3.org/2000/svg">
<path d="M84.3069 47.7243L84.3963 47.7248L84.4316 47.712C95.8999 47.8545 105.141 57.3015 105.063 68.8038C104.985 80.3335 95.548 89.6225 84.0383 89.5291C79.2389 89.4577 74.8489 87.7507 71.36 84.9905L70.9637 84.6769L70.6544 85.0766C65.8264 91.3152 55.8444 100.934 40.0184 101.101L39.9333 101.102L39.8677 101.126C37.6198 101.061 35.7964 99.2522 35.7688 96.9753L35.7687 96.9728C35.7289 94.6339 37.5757 92.7487 39.918 92.7118C54.1635 92.5413 62.453 82.4492 65.3737 78.0225L65.5295 77.7863L65.4072 77.531C64.091 74.7844 63.2948 71.6959 63.316 68.4368C63.3175 68.3101 63.3354 68.18 63.3592 68.0125L63.3609 68.0005C63.3831 67.8452 63.4103 67.6547 63.4124 67.4562L63.4141 67.2991L63.3255 67.1693C60.8927 63.6007 54.412 52.7731 54.4923 39.3046L54.4923 39.2991C54.489 38.6682 54.3813 38.1141 54.1212 37.6218C53.8608 37.1289 53.4685 36.7371 52.959 36.3972C51.6995 35.5409 49.7432 35.0897 47.6306 35.055L47.6306 35.055L47.6248 35.0549C45.3113 35.0434 43.1579 35.5538 41.5665 36.2916C40.7719 36.66 40.0984 37.0939 39.6141 37.565C39.1388 38.0273 38.7898 38.5822 38.7834 39.1872L38.7834 39.1893L38.5381 77.6584L38.5381 77.6606C38.5337 79.9762 36.6424 81.8409 34.3255 81.8351C31.9953 81.793 30.1312 79.8895 30.135 77.5686C30.135 77.5682 30.135 77.5678 30.135 77.5674L30.3802 39.1006L30.3807 39.0234L30.3579 38.9497C30.265 38.6494 30.0539 38.3555 29.8039 38.0861C29.546 37.8081 29.2109 37.5182 28.8184 37.2285C28.0327 36.6486 26.9847 36.0458 25.7819 35.5216C23.384 34.4765 20.3008 33.7139 17.3829 34.1255C15.741 34.353 14.6428 34.9133 13.9739 35.8063C13.3151 36.6856 13.1433 37.797 13.1426 38.965C13.1378 41.2802 11.2467 43.1446 8.93004 43.1388C6.59993 43.0967 4.73593 41.1936 4.73943 38.8728C4.79478 33.3045 7.33166 30.1432 9.44449 28.5144L9.4467 28.5127C11.9031 26.5972 15.2299 25.5791 19.1029 25.6257L19.1042 25.6257C23.9959 25.6713 29.9866 27.5091 34.0717 30.6969L34.3842 30.9408L34.6929 30.6921C38.0188 28.0125 42.9207 26.5874 47.6991 26.6361L47.6998 26.6361C52.3293 26.6763 56.1407 28.0054 58.7808 30.2396C61.4131 32.4671 62.9133 35.6197 62.8954 39.393C62.8313 45.8964 64.7341 51.716 66.698 55.9936L67.0482 56.7563L67.5522 56.0853C71.3722 50.9998 77.4324 47.6813 84.3069 47.7243ZM71.6829 68.5387C71.6477 75.4134 77.2064 81.0785 84.0747 81.1234C90.9405 81.1683 96.5881 75.6061 96.6233 68.7278C96.6585 61.8531 91.0998 56.188 84.2315 56.1431C77.3657 56.0982 71.7181 61.6604 71.6829 68.5387ZM53.9923 39.3016L53.9924 39.3016L53.9923 39.3016Z" fill="#7533B6" stroke="white"/>
</svg>
