<svg width="52" height="58" viewBox="0 0 52 58" fill="none" xmlns="http://www.w3.org/2000/svg">
<g clip-path="url(#clip0_42_1423)">
<path d="M41.7826 45.4901C42.5569 44.2364 42.1438 42.5785 40.8869 41.8039L41.7826 45.4901ZM8.78872 29.5557L8.74325 29.4966L8.49375 29.4992C7.28761 29.5119 6.29195 28.5374 6.27702 27.3339C6.26869 26.1117 7.23619 25.1377 8.44365 25.1249C8.4437 25.1249 8.44375 25.1249 8.44379 25.1249L17.7929 25.0345L18.3545 25.0291L18.2841 24.4718C17.7858 20.5301 16.3304 18.1678 14.931 16.7774C14.2345 16.0853 13.5597 15.6418 13.0394 15.3651C12.7794 15.2268 12.5581 15.1302 12.3923 15.0651C12.3094 15.0326 12.2406 15.008 12.1884 14.9902C12.1623 14.9812 12.1406 14.9741 12.1241 14.9687L12.1041 14.9623C12.1 14.9609 12.0982 14.9603 12.0977 14.9602C12.0975 14.9601 12.0975 14.9601 12.0976 14.9601L12.081 14.9545L12.064 14.95C10.9076 14.6449 10.198 13.4631 10.4831 12.3152C10.7279 11.3358 11.5956 10.6651 12.56 10.6614L12.572 10.6613L12.5839 10.6607C12.7435 10.6524 12.9004 10.6712 13.0658 10.7091C13.0698 10.7101 13.0742 10.7113 13.079 10.7126C13.3774 10.7934 15.4181 11.3455 17.5596 13.2398C19.7749 15.1993 22.1325 18.6259 22.7324 24.5516L22.7784 25.0053L23.2344 25.0012L29.3135 24.9463L29.7708 24.9422L29.8074 24.4864C30.2837 18.5555 32.5655 15.0907 34.7363 13.0948C36.8402 11.1604 38.8726 10.5761 39.1565 10.4971C39.3475 10.4635 39.5304 10.441 39.6731 10.442L39.6758 10.4421C40.6687 10.4437 41.5591 11.0998 41.8197 12.1075C42.109 13.2866 41.4007 14.4707 40.2299 14.757L40.2174 14.76L40.2051 14.7637C40.0651 14.8057 38.7837 15.2146 37.4271 16.622C36.0646 18.0353 34.6573 20.4239 34.2277 24.3717L34.167 24.9302L34.7287 24.9258L42.6338 24.8642C42.634 24.8642 42.6342 24.8642 42.6343 24.8642C43.8616 24.8572 44.8385 25.8266 44.8528 27.0307C44.8671 28.2325 43.8937 29.2258 42.6861 29.2385L34.7735 29.3195L34.2204 29.3251L34.2817 29.8749C35.2688 38.7232 40.3031 42.0306 40.6237 42.229L40.6246 42.2296C41.6523 42.863 41.9826 44.2149 41.3572 45.2273L41.3572 45.2273L41.3537 45.2332C40.7444 46.2505 39.4188 46.5814 38.3788 45.982C38.0541 45.7842 30.957 41.4033 29.8931 29.8269L29.8509 29.368L29.3901 29.3727L23.3305 29.4342L22.8704 29.4389L22.8369 29.8977C21.9857 41.5446 14.9039 46.0482 14.6649 46.1892L14.6649 46.1891L14.6597 46.1923C13.6288 46.8174 12.2804 46.5121 11.6428 45.4863C11.0022 44.4556 11.3106 43.1352 12.3258 42.4921L12.3378 42.4845L12.3493 42.4762C12.3539 42.4729 12.3593 42.4691 12.3655 42.4647C12.8277 42.1357 17.6197 38.7244 18.4111 30.0194L18.4611 29.4692L17.9087 29.4742L8.78872 29.5557Z" fill="#7533B6" stroke="white"/>
</g>
<defs>
<clipPath id="clip0_42_1423">
<rect width="51.3949" height="57.263" fill="white" transform="translate(0 0.515869)"/>
</clipPath>
</defs>
</svg>
