<svg width="52" height="58" viewBox="0 0 52 58" fill="none" xmlns="http://www.w3.org/2000/svg">
<path d="M43.5211 11.3194L43.5668 11.4115L44.495 24.246C44.495 24.246 44.4951 24.2462 44.4951 24.2462C44.5719 25.3171 43.7367 26.281 42.624 26.3601C41.5075 26.4394 40.5504 25.6151 40.4736 24.5471L40.4736 24.5468L39.9678 17.5622L39.8821 16.3779L39.0948 17.2668L27.8705 29.9411L27.538 30.3166L27.9145 30.648L33.264 35.3567L33.265 35.3576C34.087 36.0771 34.1627 37.3051 33.4201 38.1165L33.42 38.1164L33.413 38.1243C33.0599 38.5269 32.5654 38.7473 32.0659 38.779C31.5209 38.8111 30.9763 38.6487 30.5628 38.278L30.5628 38.2779L30.5591 38.2747L25.2679 33.6248L24.8935 33.2957L24.5633 33.6692L12.0581 47.8115C11.6766 48.2268 11.1755 48.4597 10.6678 48.4907L10.6602 48.4912L10.6526 48.4919C10.1427 48.5387 9.61601 48.3832 9.19555 48.022L9.19557 48.0219L9.19142 48.0185C8.35715 47.3173 8.26213 46.0895 8.9921 45.259C8.99218 45.2589 8.99227 45.2588 8.99235 45.2587L21.5579 31.0552L21.8903 30.6795L21.5135 30.3483L16.8253 26.2282L16.8254 26.2282L16.8211 26.2245C15.9889 25.5095 15.9227 24.2847 16.6696 23.4686C17.4184 22.6505 18.7031 22.5864 19.531 23.3108C19.5311 23.3109 19.5312 23.311 19.5313 23.3111L24.1607 27.372L24.5352 27.7006L24.8651 27.3272L36.0116 14.7118L36.8261 13.79L35.5995 13.8821L28.2872 14.4313C28.2869 14.4313 28.2865 14.4313 28.2862 14.4314C27.1702 14.5101 26.2136 13.686 26.1368 12.6183C26.0599 11.5474 26.8951 10.5833 28.0079 10.5042L28.0097 10.5041L41.4087 9.50382C41.6796 9.48818 41.9479 9.52071 42.1979 9.59949C42.4486 9.67854 42.6804 9.80388 42.8795 9.97382C43.0803 10.1452 43.2332 10.3462 43.3397 10.5611L43.3431 10.5679L43.3466 10.5745C43.4353 10.7406 43.4843 10.95 43.5211 11.199L43.5211 11.2023L43.5211 11.3194Z" fill="#7533B6" stroke="white"/>
</svg>
