<svg width="52" height="58" viewBox="0 0 52 58" fill="none" xmlns="http://www.w3.org/2000/svg">
<g clip-path="url(#clip0_42_1389)">
<path d="M45.5684 30.3175L45.8585 30.316L45.8608 30.3201C46.856 30.1801 47.614 29.3295 47.6076 28.302L47.6077 28.2973C47.6112 27.2025 46.7048 26.2944 45.5745 26.3001L45.5742 26.3001L38.1951 26.3338L37.7163 26.3359L37.6934 25.8578C37.5605 23.0947 36.9365 19.2383 34.1982 16.4982C32.132 14.439 29.2276 13.3677 25.524 13.3821C22.141 13.3976 19.7172 14.3153 17.9717 15.5826C16.2219 16.8528 15.1226 18.497 14.4301 20.0099C13.5018 22.0921 13.1533 24.2879 13.0327 26.003L13.0002 26.4654L12.5367 26.4679L5.25184 26.5077L5.25163 26.5077C4.11989 26.5134 3.21972 27.4265 3.2304 28.5262L3.23044 28.5262L3.23042 28.5327C3.22685 29.6275 4.13325 30.5356 5.26358 30.5299L5.26416 30.5299L14.9837 30.492C14.9841 30.492 14.9845 30.492 14.9848 30.492C16.0975 30.4818 16.9995 29.5699 16.9888 28.4686L16.9888 28.4656C16.9887 28.4421 16.9886 28.418 16.9885 28.3934C16.983 27.0332 16.9712 24.1438 18.0848 21.6832L18.085 21.6826C18.731 20.26 19.658 19.1835 20.9113 18.4679C22.1578 17.7562 23.6893 17.4229 25.5136 17.4174C28.0333 17.401 29.9631 18.0121 31.3028 19.3445L31.3044 19.3461C32.5265 20.5727 33.109 22.2495 33.3909 23.8168C33.6734 25.388 33.664 26.9109 33.655 27.8756L33.6559 28.371L33.6558 28.3735C33.6523 29.4676 34.5755 30.3802 35.6873 30.3707L35.6889 30.3707L45.5684 30.3175Z" fill="#7533B6" stroke="white"/>
<path d="M5.26127 35.2818L5.19428 35.2821L5.17995 35.2782C4.07809 35.3165 3.21607 36.1996 3.22236 37.2964C3.23359 38.402 4.16219 39.3135 5.27172 39.304L5.27372 39.304L45.6097 39.1191L45.6097 39.1191L45.6158 39.1191C46.7332 39.1277 47.6376 38.2222 47.6307 37.0988L47.6307 37.0941C47.6342 35.9992 46.7278 35.0912 45.5975 35.0969L45.5973 35.0969L5.26127 35.2818Z" fill="#7533B6" stroke="white"/>
</g>
<defs>
<clipPath id="clip0_42_1389">
<rect width="51.3949" height="57.263" fill="white" transform="translate(0 0.515869)"/>
</clipPath>
</defs>
</svg>
