<svg width="52" height="58" viewBox="0 0 52 58" fill="none" xmlns="http://www.w3.org/2000/svg">
<g clip-path="url(#clip0_42_1435)">
<path d="M49.3323 36.963L49.5061 37.0866C49.7376 37.3352 49.8776 37.6578 49.8967 37.9954L50.372 37.9686L49.8967 37.9954C49.9208 38.4215 49.745 38.8426 49.4229 39.1111L49.4228 39.111L49.4132 39.1194L42.8157 44.9108L42.8157 44.9108L42.8119 44.9142C42.5419 45.1561 42.2187 45.2751 41.8968 45.2723L41.8968 45.2723L41.892 45.2723C41.6989 45.2726 41.4937 45.2283 41.3071 45.1477C40.7894 44.9073 40.4712 44.4195 40.4681 43.8657C40.4681 43.8653 40.4681 43.865 40.4681 43.8646L40.4659 41.0965L40.4656 40.6606L40.0338 40.6015C38.5404 40.3969 36.7035 39.8595 35.2527 38.8492C33.8174 37.8497 32.7791 36.4061 32.7736 34.3421C32.7736 34.342 32.7736 34.3419 32.7736 34.3417L32.7539 18.0648C32.7539 18.0643 32.7539 18.0638 32.7539 18.0633C32.7594 16.8986 32.3932 16.047 31.8048 15.4885C31.2248 14.9378 30.4815 14.7221 29.8186 14.7204L29.8186 14.7202L29.8066 14.7205C29.4939 14.7272 28.7882 14.7846 28.1554 15.26C27.4948 15.7563 27.0098 16.6328 27.0168 18.0787C27.0168 18.0791 27.0168 18.0795 27.0168 18.0798L27.0397 38.4469C27.0397 38.4469 27.0397 38.447 27.0397 38.447C27.0406 39.4893 26.2149 40.3185 25.1722 40.3216C24.1297 40.3248 23.3035 39.5022 23.3026 38.4611L23.3026 38.4611L23.2831 19.2515L23.2831 19.2513C23.283 19.1886 23.2859 19.1055 23.2895 19.0061C23.3074 18.5003 23.3403 17.571 23.0638 16.7452C22.8916 16.231 22.5918 15.719 22.0755 15.3405C21.5584 14.9614 20.8712 14.7508 19.9869 14.7554C19.6693 14.756 18.9648 14.8151 18.3315 15.291C17.6701 15.7881 17.181 16.6668 17.1881 18.1142C17.1881 18.1144 17.1881 18.1147 17.1881 18.1149L17.2111 38.4819C17.2111 38.482 17.2111 38.482 17.2111 38.4821C17.2119 39.5244 16.3862 40.3535 15.3435 40.3567C14.301 40.3598 13.4748 39.5372 13.4739 38.4962L13.4739 38.4959L13.4463 18.4437C13.4463 18.4437 13.4463 18.4437 13.4463 18.4437C13.4448 17.2852 13.0786 16.4343 12.4905 15.8761C11.9104 15.3253 11.1662 15.1089 10.4938 15.1135C10.1782 15.1142 9.47663 15.17 8.84615 15.6435C8.1868 16.1386 7.70192 17.0156 7.70914 18.462L7.70917 18.4649C7.72041 19.4892 6.88747 20.3315 5.84154 20.3346C4.79941 20.3377 3.97342 19.5157 3.97204 18.4751C3.9786 15.7597 5.07504 14.1076 5.97479 13.2136C7.16829 12.0323 8.77887 11.3715 10.5059 11.3672C11.9983 11.3654 13.54 11.9109 14.7666 12.9311L15.0868 13.1973L15.4066 12.9307L15.433 12.9086L15.4494 12.895L15.4645 12.88C16.658 11.6985 18.2687 11.0377 19.9958 11.0334C21.6391 11.0335 23.3198 11.672 24.5959 12.8773L24.9474 13.2092L25.291 12.8691C26.4845 11.6877 28.0952 11.0269 29.8224 11.0225L29.8226 11.0225C31.1081 11.0188 32.8017 11.476 34.1647 12.4353C35.5144 13.3852 36.5087 14.8005 36.5141 16.7327L36.5438 34.3638C36.5438 34.3646 36.5438 34.3654 36.5437 34.3662C36.5391 35.1724 37.1993 35.7104 37.7965 36.0423C38.433 36.396 39.2213 36.6426 39.8712 36.8011L40.4901 36.952L40.4896 36.315L40.4876 33.4143C40.4876 33.4137 40.4876 33.4131 40.4876 33.4125C40.492 32.8817 40.7869 32.403 41.2652 32.1544L41.2653 32.1544L41.2735 32.15C41.7087 31.9133 42.28 31.9533 42.7239 32.2603L49.3323 36.963Z" fill="#7533B6" stroke="white"/>
</g>
<defs>
<clipPath id="clip0_42_1435">
<rect width="51.3949" height="57.263" fill="white" transform="translate(0 0.515869)"/>
</clipPath>
</defs>
</svg>
