<svg width="52" height="58" viewBox="0 0 52 58" fill="none" xmlns="http://www.w3.org/2000/svg">
<g clip-path="url(#clip0_42_1383)">
<path d="M42.0692 10.0666C42.4543 9.99302 42.7717 9.95271 43.0065 9.93095L43.4632 9.93507C44.5687 9.94503 45.4608 10.8371 45.4707 11.9426C45.4806 13.04 44.591 13.937 43.4932 13.9606L43.4932 13.9605L43.4817 13.961C43.0399 13.9807 38.1051 14.3491 33.9672 21.0284L33.7134 21.4379L34.1134 21.7067C37.8914 24.2455 40.3993 28.5592 40.394 33.4509C40.3855 41.2486 34.0318 47.6038 26.2187 47.6262C18.422 47.6347 12.082 41.2964 12.0764 33.4844C12.0954 28.711 14.4661 24.4858 18.0879 21.9122L18.466 21.6435L18.2263 21.2463C14.0941 14.3985 9.03877 14.006 8.57533 13.9987C7.476 13.9514 6.59177 13.0295 6.61496 11.9506C6.63858 10.8521 7.52352 9.97427 8.61015 9.97309C8.83712 9.97284 16.3718 10.0619 21.9066 19.5794L22.1015 19.9144L22.4745 19.8093C23.6763 19.4705 24.9254 19.2684 26.2378 19.267C27.4166 19.2657 28.5457 19.4251 29.6547 19.6944L30.0164 19.7823L30.2043 19.4611C32.9756 14.725 36.234 12.3399 38.819 11.1361C40.1143 10.5329 41.2457 10.2239 42.0692 10.0666ZM25.7379 43.5891L25.7379 43.6292L26.2391 43.6286C31.8614 43.6225 36.4042 39.0501 36.4103 33.4575C36.4164 27.8362 31.8682 23.2859 26.2585 23.3063C20.6652 23.3128 16.108 27.8702 16.1019 33.4635C16.096 38.8898 20.3756 43.3326 25.7379 43.5891Z" fill="#7533B6" stroke="white"/>
</g>
<defs>
<clipPath id="clip0_42_1383">
<rect width="51.3949" height="57.263" fill="white" transform="translate(0 0.515869)"/>
</clipPath>
</defs>
</svg>
