<svg width="337" height="293" viewBox="0 0 337 293" fill="none" xmlns="http://www.w3.org/2000/svg">
<mask id="path-1-inside-1_2001_55" fill="white">
<path d="M294.522 163.803C299.168 139.846 290.9 116.96 272.295 102.469C262.583 94.8924 251.256 90.8625 241.111 90.6867L241.388 78.4912C242.174 46.2045 215.57 40.0708 198.734 39.6495C187.397 39.3752 176.823 43.2844 168.81 50.8644C160.793 42.7475 149.887 38.3881 139.226 38.0738C127.889 37.7995 117.315 41.7087 109.302 49.2888C109.302 49.2888 109.246 49.4952 109.143 49.4675C101.339 42.6235 91.5145 38.7749 81.7355 38.4758C70.399 38.2016 59.8246 42.111 51.8392 49.5879C45.7502 55.3622 38.3899 65.8805 37.9513 83.2276C37.7187 91.1238 44.0203 97.7863 51.9594 97.9239C59.8708 98.1647 66.539 91.8824 66.6682 83.9585C67.0853 67.9321 77.7679 66.9257 81.062 67.0346C87.8846 67.2047 95.8 71.9785 95.3851 84.6894L92.3424 206.016C92.1098 213.912 98.4113 220.574 106.35 220.712C114.262 220.953 120.93 214.671 121.059 206.747L124.158 83.5565C124.575 67.5301 137.098 66.685 140.523 66.7185C143.948 66.7519 155.684 68.0174 155.251 86.582C154.664 109.858 151.851 207.591 151.851 207.591C151.618 215.487 157.919 222.15 165.858 222.287C173.77 222.528 180.438 216.246 180.567 208.322L183.667 85.1319C184.084 69.1055 194.766 68.0991 198.06 68.208C204.883 68.3781 212.798 73.1518 212.487 85.8904C212.487 85.8904 209.548 216.751 209.356 225.321C197.519 231.876 186.007 235.977 177.42 237.434C169.562 238.645 164.251 246.064 165.472 253.908C166.605 260.844 172.467 265.841 179.289 266.011C180.171 266.026 181.081 265.938 181.991 265.85C193.57 263.979 209.755 258.146 226.391 248.566C241.568 256.833 262.44 261.21 273.052 262.948C280.79 264.248 288.298 258.964 289.592 251.242C290.914 243.416 285.584 236.019 277.846 234.719C269.666 233.412 261.267 231.272 254.012 228.996C273.229 212.26 289.391 190.393 294.522 163.803ZM238.687 204.331C238.843 197.961 239.061 190.945 239.231 183.696C239.894 160.55 240.655 134.558 241.086 119.308C244.352 119.52 250.292 121.333 256.153 126.33C261.477 130.852 269.692 141.122 266.401 158.368C262.971 176.129 252.127 191.794 238.79 204.358L238.687 204.331Z"/>
</mask>
<path d="M294.522 163.803C299.168 139.846 290.9 116.96 272.295 102.469C262.583 94.8924 251.256 90.8625 241.111 90.6867L241.388 78.4912C242.174 46.2045 215.57 40.0708 198.734 39.6495C187.397 39.3752 176.823 43.2844 168.81 50.8644C160.793 42.7475 149.887 38.3881 139.226 38.0738C127.889 37.7995 117.315 41.7087 109.302 49.2888C109.302 49.2888 109.246 49.4952 109.143 49.4675C101.339 42.6235 91.5145 38.7749 81.7355 38.4758C70.399 38.2016 59.8246 42.111 51.8392 49.5879C45.7502 55.3622 38.3899 65.8805 37.9513 83.2276C37.7187 91.1238 44.0203 97.7863 51.9594 97.9239C59.8708 98.1647 66.539 91.8824 66.6682 83.9585C67.0853 67.9321 77.7679 66.9257 81.062 67.0346C87.8846 67.2047 95.8 71.9785 95.3851 84.6894L92.3424 206.016C92.1098 213.912 98.4113 220.574 106.35 220.712C114.262 220.953 120.93 214.671 121.059 206.747L124.158 83.5565C124.575 67.5301 137.098 66.685 140.523 66.7185C143.948 66.7519 155.684 68.0174 155.251 86.582C154.664 109.858 151.851 207.591 151.851 207.591C151.618 215.487 157.919 222.15 165.858 222.287C173.77 222.528 180.438 216.246 180.567 208.322L183.667 85.1319C184.084 69.1055 194.766 68.0991 198.06 68.208C204.883 68.3781 212.798 73.1518 212.487 85.8904C212.487 85.8904 209.548 216.751 209.356 225.321C197.519 231.876 186.007 235.977 177.42 237.434C169.562 238.645 164.251 246.064 165.472 253.908C166.605 260.844 172.467 265.841 179.289 266.011C180.171 266.026 181.081 265.938 181.991 265.85C193.57 263.979 209.755 258.146 226.391 248.566C241.568 256.833 262.44 261.21 273.052 262.948C280.79 264.248 288.298 258.964 289.592 251.242C290.914 243.416 285.584 236.019 277.846 234.719C269.666 233.412 261.267 231.272 254.012 228.996C273.229 212.26 289.391 190.393 294.522 163.803ZM238.687 204.331C238.843 197.961 239.061 190.945 239.231 183.696C239.894 160.55 240.655 134.558 241.086 119.308C244.352 119.52 250.292 121.333 256.153 126.33C261.477 130.852 269.692 141.122 266.401 158.368C262.971 176.129 252.127 191.794 238.79 204.358L238.687 204.331Z" fill="#7533B6"/>
<path d="M294.522 163.803L293.54 163.612L293.54 163.613L294.522 163.803ZM272.295 102.469L271.68 103.257L271.681 103.258L272.295 102.469ZM241.111 90.6867L240.111 90.664L240.089 91.6691L241.094 91.6865L241.111 90.6867ZM241.388 78.4912L240.388 78.4669L240.388 78.4685L241.388 78.4912ZM198.734 39.6495L198.759 38.6498L198.758 38.6498L198.734 39.6495ZM168.81 50.8644L168.098 51.5671L168.786 52.2634L169.497 51.5909L168.81 50.8644ZM139.226 38.0738L139.255 37.0742L139.25 37.0741L139.226 38.0738ZM109.302 49.2888L108.615 48.5623L108.409 48.7565L108.336 49.0295L109.302 49.2888ZM109.143 49.4675L108.484 50.2193L108.659 50.3731L108.884 50.4334L109.143 49.4675ZM81.7355 38.4758L81.7661 37.4763L81.7597 37.4761L81.7355 38.4758ZM51.8392 49.5879L51.1557 48.8579L51.1511 48.8623L51.8392 49.5879ZM37.9513 83.2276L38.9509 83.257L38.951 83.2529L37.9513 83.2276ZM51.9594 97.9239L51.9898 96.9243L51.9767 96.9241L51.9594 97.9239ZM66.6682 83.9585L65.6685 83.9325L65.6683 83.9422L66.6682 83.9585ZM81.062 67.0346L81.029 68.0341L81.0371 68.0343L81.062 67.0346ZM95.3851 84.6894L94.3856 84.6568L94.3854 84.6643L95.3851 84.6894ZM92.3424 206.016L93.342 206.045L93.3421 206.041L92.3424 206.016ZM106.35 220.712L106.381 219.713L106.368 219.712L106.35 220.712ZM121.059 206.747L120.06 206.722L120.059 206.73L121.059 206.747ZM124.158 83.5565L123.159 83.5305L123.159 83.5313L124.158 83.5565ZM155.251 86.582L156.251 86.6072L156.251 86.6053L155.251 86.582ZM151.851 207.591L152.85 207.621L152.85 207.62L151.851 207.591ZM165.858 222.287L165.889 221.288L165.876 221.288L165.858 222.287ZM180.567 208.322L179.568 208.297L179.568 208.306L180.567 208.322ZM183.667 85.1319L182.667 85.1058L182.667 85.1067L183.667 85.1319ZM198.06 68.208L198.027 69.2075L198.035 69.2077L198.06 68.208ZM212.487 85.8904L211.487 85.866L211.487 85.868L212.487 85.8904ZM209.356 225.321L209.841 226.196L210.343 225.918L210.356 225.343L209.356 225.321ZM177.42 237.434L177.572 238.422L177.579 238.421L177.587 238.42L177.42 237.434ZM165.472 253.908L164.484 254.062L164.486 254.069L165.472 253.908ZM179.289 266.011L179.264 267.01L179.272 267.01L179.289 266.011ZM181.991 265.85L182.087 266.846L182.119 266.843L182.15 266.838L181.991 265.85ZM226.391 248.566L226.869 247.688L226.377 247.42L225.892 247.699L226.391 248.566ZM273.052 262.948L273.217 261.962L273.213 261.961L273.052 262.948ZM289.592 251.242L288.606 251.075L288.606 251.077L289.592 251.242ZM277.846 234.719L278.012 233.733L278.004 233.732L277.846 234.719ZM254.012 228.996L253.355 228.242L252.007 229.416L253.712 229.95L254.012 228.996ZM238.687 204.331L237.687 204.306L237.668 205.093L238.428 205.296L238.687 204.331ZM239.231 183.696L238.232 183.667L238.231 183.672L239.231 183.696ZM241.086 119.308L241.15 118.311L240.115 118.243L240.086 119.28L241.086 119.308ZM256.153 126.33L255.504 127.091L255.506 127.092L256.153 126.33ZM266.401 158.368L267.382 158.557L267.383 158.555L266.401 158.368ZM238.79 204.358L238.532 205.324L239.07 205.469L239.476 205.086L238.79 204.358ZM295.503 163.993C300.218 139.684 291.825 116.413 272.91 101.68L271.681 103.258C289.975 117.507 298.118 140.007 293.54 163.612L295.503 163.993ZM272.91 101.68C263.045 93.9849 251.512 89.8668 241.129 89.6868L241.094 91.6865C250.999 91.8582 262.12 95.8 271.68 103.257L272.91 101.68ZM242.111 90.7093L242.388 78.5139L240.388 78.4685L240.111 90.664L242.111 90.7093ZM242.388 78.5156C242.789 62.0378 236.173 52.1001 227.214 46.2821C218.33 40.5134 207.253 38.8624 198.759 38.6498L198.709 40.6492C207.05 40.8579 217.693 42.4844 226.124 47.9595C234.48 53.3854 240.773 62.6579 240.388 78.4669L242.388 78.5156ZM198.758 38.6498C187.171 38.3695 176.337 42.3674 168.123 50.138L169.497 51.5909C177.309 44.2014 187.623 40.381 198.709 40.6492L198.758 38.6498ZM169.521 50.1617C161.314 41.8518 150.159 37.3957 139.255 37.0742L139.196 39.0733C149.615 39.3805 160.272 43.6432 168.098 51.5671L169.521 50.1617ZM139.25 37.0741C127.663 36.7938 116.829 40.7918 108.615 48.5623L109.989 50.0152C117.801 42.6257 128.115 38.8053 139.201 39.0735L139.25 37.0741ZM109.302 49.2888C108.336 49.0295 108.336 49.0293 108.336 49.029C108.336 49.0289 108.336 49.0287 108.336 49.0285C108.336 49.0282 108.336 49.0279 108.337 49.0276C108.337 49.027 108.337 49.0264 108.337 49.0258C108.337 49.0246 108.338 49.0234 108.338 49.0223C108.339 49.02 108.339 49.0178 108.34 49.0157C108.341 49.0115 108.342 49.0076 108.343 49.004C108.346 48.9968 108.348 48.9895 108.351 48.9819C108.355 48.9709 108.365 48.9418 108.387 48.9025C108.402 48.876 108.463 48.7673 108.595 48.6641C108.667 48.6073 108.777 48.5394 108.926 48.5006C109.081 48.4598 109.246 48.4597 109.402 48.5016L108.884 50.4334C109.289 50.5419 109.629 50.3942 109.828 50.2384C109.999 50.1044 110.094 49.9492 110.135 49.8745C110.184 49.7872 110.215 49.7082 110.232 49.6593C110.242 49.6328 110.25 49.6096 110.255 49.5912C110.258 49.582 110.26 49.5736 110.263 49.5665C110.264 49.5629 110.264 49.5595 110.265 49.5564C110.266 49.5549 110.266 49.5534 110.267 49.5521C110.267 49.5514 110.267 49.5507 110.267 49.55C110.267 49.5497 110.267 49.5493 110.267 49.549C110.267 49.5489 110.267 49.5486 110.267 49.5485C110.268 49.5483 110.268 49.5481 109.302 49.2888ZM109.802 48.7157C101.828 41.7224 91.7828 37.7826 81.7661 37.4763L81.705 39.4754C91.2463 39.7671 100.85 43.5246 108.484 50.2193L109.802 48.7157ZM81.7597 37.4761C70.1738 37.1959 59.3416 41.1933 51.1558 48.8579L52.5227 50.3178C60.3076 43.0287 70.6242 39.2074 81.7114 39.4755L81.7597 37.4761ZM51.1511 48.8623C44.9017 54.7886 37.398 65.5481 36.9516 83.2023L38.951 83.2529C39.3818 66.213 46.5986 55.9357 52.5273 50.3135L51.1511 48.8623ZM36.9517 83.1982C36.7028 91.6478 43.4427 98.7765 51.942 98.9238L51.9767 96.9241C44.598 96.7962 38.7346 90.5999 38.9509 83.257L36.9517 83.1982ZM51.9289 98.9235C60.3908 99.181 67.5296 92.4636 67.6681 83.9748L65.6683 83.9422C65.5483 91.3013 59.3508 97.1484 51.9898 96.9244L51.9289 98.9235ZM67.6678 83.9845C67.8701 76.2138 70.5411 72.2805 73.3679 70.2593C76.2485 68.1995 79.4871 67.9831 81.029 68.0341L81.0951 66.0352C79.3429 65.9772 75.5931 66.2095 72.2046 68.6324C68.7622 71.0937 65.8834 75.6768 65.6685 83.9325L67.6678 83.9845ZM81.0371 68.0343C84.2364 68.1141 87.6594 69.2732 90.2275 71.8633C92.7796 74.4372 94.5858 78.5238 94.3856 84.6568L96.3845 84.722C96.5993 78.1441 94.6553 73.4884 91.6477 70.4551C88.6562 67.438 84.7103 66.1253 81.087 66.0349L81.0371 68.0343ZM94.3854 84.6643L91.3427 205.991L93.3421 206.041L96.3848 84.7145L94.3854 84.6643ZM91.3428 205.986C91.094 214.436 97.8336 221.565 106.333 221.712L106.368 219.712C98.9889 219.584 93.1257 213.388 93.342 206.045L91.3428 205.986ZM106.32 221.712C114.782 221.969 121.921 215.252 122.059 206.763L120.059 206.73C119.939 214.089 113.742 219.937 106.381 219.713L106.32 221.712ZM122.059 206.772L125.158 83.5816L123.159 83.5313L120.06 206.722L122.059 206.772ZM125.158 83.5825C125.359 75.8774 128.438 71.986 131.735 69.9679C135.107 67.9035 138.868 67.7023 140.513 67.7184L140.533 65.7185C138.753 65.7011 134.54 65.9057 130.691 68.2621C126.766 70.6648 123.375 75.2091 123.159 83.5305L125.158 83.5825ZM140.513 67.7184C142.137 67.7343 145.659 68.0464 148.71 70.4825C151.712 72.8797 154.463 77.5006 154.252 86.5587L156.251 86.6053C156.472 77.0988 153.571 71.8046 149.958 68.9196C146.393 66.0735 142.334 65.7361 140.533 65.7185L140.513 67.7184ZM154.252 86.5568C153.958 98.1928 153.108 128.443 152.331 155.787C151.943 169.458 151.573 182.402 151.3 191.928C151.163 196.691 151.051 200.6 150.973 203.318C150.934 204.676 150.903 205.738 150.883 206.459C150.872 206.82 150.864 207.096 150.859 207.281C150.856 207.374 150.854 207.444 150.853 207.492C150.852 207.515 150.852 207.533 150.851 207.545C150.851 207.551 150.851 207.555 150.851 207.558C150.851 207.559 150.851 207.561 150.851 207.561C150.851 207.562 150.851 207.562 151.851 207.591C152.85 207.62 152.85 207.62 152.85 207.619C152.85 207.618 152.85 207.617 152.85 207.616C152.85 207.613 152.85 207.608 152.851 207.602C152.851 207.59 152.852 207.573 152.852 207.549C152.854 207.502 152.856 207.432 152.858 207.339C152.864 207.153 152.872 206.877 152.882 206.517C152.903 205.795 152.933 204.734 152.972 203.375C153.05 200.657 153.162 196.748 153.299 191.985C153.572 182.459 153.942 169.515 154.33 155.844C155.107 128.502 155.957 98.2473 156.251 86.6072L154.252 86.5568ZM150.851 207.562C150.602 216.011 157.342 223.14 165.841 223.287L165.876 221.288C158.497 221.16 152.634 214.963 152.85 207.621L150.851 207.562ZM165.828 223.287C174.29 223.545 181.429 216.827 181.567 208.338L179.568 208.306C179.448 215.665 173.25 221.512 165.889 221.288L165.828 223.287ZM181.567 208.347L184.666 85.157L182.667 85.1067L179.568 208.297L181.567 208.347ZM184.666 85.1579C184.868 77.3872 187.539 73.4538 190.366 71.4326C193.247 69.3729 196.485 69.1565 198.027 69.2074L198.093 67.2085C196.341 67.1506 192.591 67.3829 189.203 69.8057C185.761 72.2671 182.882 76.8501 182.667 85.1058L184.666 85.1579ZM198.035 69.2077C201.234 69.2874 204.658 70.4463 207.24 73.0413C209.806 75.6209 211.637 79.7174 211.487 85.866L213.486 85.9149C213.648 79.3248 211.677 74.6651 208.658 71.6307C205.654 68.6117 201.709 67.2986 198.085 67.2083L198.035 69.2077ZM212.487 85.8904C211.487 85.868 211.487 85.8685 211.487 85.8695C211.487 85.8705 211.487 85.872 211.487 85.8739C211.487 85.8779 211.487 85.8839 211.486 85.8918C211.486 85.9077 211.486 85.9314 211.485 85.9629C211.483 86.0258 211.481 86.1197 211.479 86.2436C211.473 86.4915 211.465 86.8594 211.454 87.3397C211.432 88.3002 211.401 89.7101 211.36 91.5076C211.28 95.1026 211.164 100.248 211.025 106.449C210.746 118.851 210.373 135.476 209.994 152.369C209.235 186.156 208.452 221.013 208.357 225.299L210.356 225.343C210.452 221.058 211.235 186.201 211.993 152.414C212.372 135.521 212.746 118.896 213.024 106.494C213.164 100.293 213.279 95.1475 213.36 91.5525C213.4 89.755 213.432 88.3451 213.453 87.3846C213.464 86.9043 213.472 86.5364 213.478 86.2885C213.481 86.1646 213.483 86.0707 213.484 86.0078C213.485 85.9763 213.486 85.9526 213.486 85.9367C213.486 85.9288 213.486 85.9228 213.486 85.9189C213.486 85.9169 213.486 85.9154 213.486 85.9144C213.486 85.9134 213.486 85.9129 212.487 85.8904ZM208.872 224.446C197.108 230.961 185.704 235.014 177.252 236.448L177.587 238.42C186.311 236.94 197.93 232.792 209.841 226.196L208.872 224.446ZM177.267 236.446C168.852 237.742 163.179 245.683 164.484 254.062L166.461 253.754C165.322 246.445 170.273 239.547 177.572 238.422L177.267 236.446ZM164.486 254.069C165.696 261.482 171.964 266.828 179.264 267.01L179.314 265.011C172.969 264.853 167.514 260.205 166.459 253.747L164.486 254.069ZM179.272 267.01C180.221 267.027 181.188 266.933 182.087 266.846L181.895 264.855C180.974 264.944 180.122 265.025 179.307 265.011L179.272 267.01ZM182.15 266.838C193.878 264.942 210.178 259.057 226.89 249.432L225.892 247.699C209.332 257.236 193.262 263.016 181.831 264.863L182.15 266.838ZM225.913 249.444C241.247 257.797 262.261 262.194 272.89 263.935L273.213 261.961C262.619 260.226 241.889 255.869 226.869 247.688L225.913 249.444ZM272.886 263.934C281.161 265.324 289.192 259.682 290.578 251.407L288.606 251.077C287.405 258.246 280.419 263.171 273.217 261.962L272.886 263.934ZM290.578 251.408C291.992 243.035 286.292 235.124 278.012 233.733L277.68 235.706C284.876 236.914 289.835 243.797 288.606 251.075L290.578 251.408ZM278.004 233.732C269.882 232.434 261.531 230.307 254.311 228.042L253.712 229.95C261.003 232.237 269.451 234.39 277.688 235.707L278.004 233.732ZM254.668 229.75C273.992 212.922 290.317 190.872 295.504 163.992L293.54 163.613C288.465 189.915 272.467 211.598 253.355 228.242L254.668 229.75ZM239.687 204.355C239.842 198.008 240.061 190.956 240.231 183.719L238.231 183.672C238.061 190.934 237.844 197.915 237.687 204.306L239.687 204.355ZM240.231 183.724C240.894 160.58 241.655 134.586 242.085 119.337L240.086 119.28C239.656 134.529 238.895 160.52 238.232 183.667L240.231 183.724ZM241.021 120.306C244.055 120.503 249.793 122.222 255.504 127.091L256.802 125.569C250.79 120.444 244.649 118.538 241.15 118.311L241.021 120.306ZM255.506 127.092C260.646 131.458 268.623 141.391 265.418 158.18L267.383 158.555C270.762 140.853 262.309 130.246 256.8 125.568L255.506 127.092ZM265.419 158.178C262.042 175.665 251.349 191.153 238.105 203.63L239.476 205.086C252.905 192.435 263.9 176.594 267.382 158.557L265.419 158.178ZM239.049 203.392L238.946 203.365L238.428 205.296L238.532 205.324L239.049 203.392Z" fill="white" mask="url(#path-1-inside-1_2001_55)"/>
</svg>
