<svg width="51" height="50" viewBox="0 0 51 50" fill="none" xmlns="http://www.w3.org/2000/svg">
<path d="M25.2161 49.929C38.9448 49.929 50.074 38.7998 50.074 25.0711C50.074 11.3424 38.9448 0.213135 25.2161 0.213135C11.4874 0.213135 0.358154 11.3424 0.358154 25.0711C0.358154 38.7998 11.4874 49.929 25.2161 49.929Z" fill="#FF2424"/>
<path d="M42.8299 7.38623C41.4804 7.45725 40.131 7.95441 38.9236 8.66464C36.5089 10.0141 34.5202 12.0737 33.4549 14.5595C32.3895 17.1164 32.3895 20.0993 33.739 22.5141C34.3782 23.7215 35.3725 24.7158 36.3668 25.7101C37.077 26.4203 37.8583 27.2016 38.0713 28.1249C38.3554 29.4033 37.5742 30.6107 36.6509 31.4629C34.7333 33.0965 31.8923 33.4516 29.6196 32.3862C27.9861 31.605 26.7077 30.1135 25.1452 29.1902C22.9435 27.9118 20.0316 27.7698 17.6878 28.9771C15.3441 30.1845 13.7105 32.5283 13.4264 35.0851C13.2844 36.3635 13.4265 37.784 12.5032 38.7783C11.7219 39.6306 10.3015 39.7726 9.66225 40.7669C8.95202 41.7612 9.37815 43.1107 9.52019 44.3181C13.7816 47.8692 19.3213 49.9288 25.2872 49.9288C39.0657 49.9288 50.1452 38.7783 50.1452 25.0709C50.1452 18.1817 47.3753 11.9317 42.8299 7.38623Z" fill="#E72121"/>
<path d="M43.1139 7.74146C42.3326 8.09657 41.6935 8.45169 41.0543 8.87782C37.6452 11.2216 35.0173 15.554 36.5088 19.3182C37.7162 22.3011 41.0542 24.0057 42.1906 26.9886C43.1849 29.5454 42.4037 32.5284 40.6992 34.6591C38.9946 36.7897 36.5798 38.2812 34.1651 39.4886C31.3241 40.838 27.915 41.9744 25.0741 40.554C23.2275 39.6307 21.9491 37.8551 20.0315 37.0738C17.5457 36.0795 14.3497 37.429 13.2844 39.9148C12.8582 40.9091 12.7872 42.0454 12.29 43.0397C11.8639 43.892 11.1537 44.4602 10.3724 44.9574C14.4918 48.0113 19.6764 49.8579 25.2162 49.8579C38.9946 49.8579 50.0741 38.7074 50.0741 25C50.1451 18.3238 47.4463 12.2159 43.1139 7.74146Z" fill="#D80B0B"/>
<path d="M41.4094 12.5C41.5515 11.3636 40.4861 10.8665 39.2077 12.429C38.2134 13.5654 37.148 15.483 38.4264 16.9034C38.8526 17.3295 39.3497 17.4716 39.7758 16.9034C39.9889 16.5483 40.06 16.1222 40.06 15.696C40.131 15.0568 40.202 14.7017 40.6281 14.2046C40.9122 13.7784 41.3384 13.1392 41.4094 12.5Z" fill="#E72121"/>
<path d="M41.6224 17.6136C41.5514 17.4715 41.4094 17.3295 41.2673 17.3295C41.2673 17.2585 41.1963 17.1875 41.1963 17.1875C40.9832 16.9744 40.6992 17.0454 40.5571 17.1875C40.273 17.4715 40.131 17.8977 40.344 18.3238C40.4861 18.6789 40.9832 18.821 41.3383 18.75C41.6224 18.4659 41.8355 18.0397 41.6224 17.6136Z" fill="#E72121"/>
<path d="M11.0827 28.338C9.4492 28.196 8.38385 29.8295 7.81567 31.1079C7.03442 32.6704 6.82134 34.588 7.60259 36.2215C8.02873 37.0738 8.73896 37.4999 9.52021 37.4289C10.0884 37.642 10.7986 37.3579 11.0827 36.7187C12.006 35.9374 11.864 34.8011 11.7929 33.6647C12.1481 32.8835 12.9293 32.3153 13.2844 31.463C13.7105 29.9715 12.4322 28.409 11.0827 28.338Z" fill="#E72121"/>
<path d="M36.5799 27.2727C36.2248 26.3494 35.3725 26.2073 34.5203 26.4914C33.3839 26.9886 30.3299 29.6164 32.0345 30.8238C32.8867 31.463 33.881 30.8238 34.5913 30.2556C34.8043 30.1136 35.0174 29.9005 35.2305 29.7585C35.3725 29.7585 35.5146 29.7585 35.5856 29.6164C36.2958 29.1193 36.935 28.196 36.5799 27.2727Z" fill="#E72121"/>
<path d="M32.8156 25.5682C33.0287 25.7102 33.2417 25.7813 33.4548 25.9233C33.7389 26.0653 34.094 25.9943 34.165 25.6392C34.165 25.4972 34.165 25.3551 34.165 25.2131C34.3071 24.6449 33.7389 23.8636 33.0997 23.5795C33.0287 23.5085 32.8866 23.4375 32.7446 23.4375C32.3185 23.2955 31.9633 23.5795 31.7503 23.9347C31.5372 24.3608 31.6792 24.7869 32.0344 25.142C32.2474 25.2841 32.5315 25.4972 32.8156 25.5682Z" fill="#E72121"/>
<path d="M15.273 26.7046C15.202 26.6336 15.131 26.6336 15.131 26.5625C14.4918 26.1364 13.7105 26.4915 13.4264 27.2017C13.4264 27.2728 13.4264 27.3438 13.3554 27.4148C13.0713 28.054 13.0713 28.8353 13.7105 29.2614C14.4918 29.7586 15.202 29.1904 15.4151 28.4091C15.6991 27.912 15.6992 27.1307 15.273 26.7046Z" fill="#E72121"/>
<path d="M12.5741 25.7812C12.5031 25.7102 12.4321 25.6392 12.29 25.6392C12.077 25.5682 11.9349 25.5682 11.7219 25.6392C11.4378 25.7813 11.1537 25.9943 11.0827 26.3494C11.0116 26.4915 11.0116 26.7756 11.1537 26.9176C11.2247 27.0597 11.5088 27.2017 11.6508 27.2017C11.9349 27.2727 12.2901 27.2727 12.5031 27.0597C12.7872 27.0597 13.0003 26.8466 13.0003 26.5625C13.0003 26.2784 12.7872 25.9943 12.5741 25.7812Z" fill="#E72121"/>
<path d="M26.7077 33.0965L26.6367 33.0255C25.7134 31.6761 24.1509 29.9715 23.4407 31.463C23.0855 32.2443 23.5827 33.1676 24.0799 33.6647C24.648 34.3039 25.4293 34.588 26.2105 34.7301C26.4236 34.8011 26.6367 34.8011 26.8497 34.8721C27.2759 34.9431 27.56 34.588 27.3469 34.1619C27.2049 34.0198 26.9918 33.5937 26.7077 33.0965Z" fill="#FF2424"/>
<path d="M28.3411 33.0967C28.1991 33.0967 27.986 33.1677 27.915 33.3098C27.773 33.5228 27.773 33.8069 27.915 34.091C28.0571 34.3751 28.2701 34.4461 28.5542 34.5171C28.6252 34.5171 28.6252 34.5171 28.6963 34.5171C28.6963 34.5171 28.7673 34.5171 28.7673 34.5882C29.1224 34.7302 29.4065 34.3751 29.3355 34.02C29.2644 33.4518 28.8383 33.1677 28.3411 33.0967Z" fill="#FF2424"/>
<path d="M28.4832 35.5115C28.4121 35.5115 28.2701 35.5115 28.1991 35.5115C27.986 35.5115 27.7019 35.7245 27.7019 36.0086C27.7019 36.2927 27.915 36.4348 28.1991 36.5058C28.2701 36.5058 28.4121 36.5058 28.4832 36.5058C28.6962 36.5058 28.9803 36.2927 28.9803 36.0086C28.9093 35.7245 28.7672 35.5825 28.4832 35.5115Z" fill="#FF2424"/>
<path d="M14.8468 33.949C14.1366 34.3041 13.9946 35.2984 14.4917 35.8666C14.6338 36.0086 14.8468 36.0086 14.9889 35.9376C15.6991 35.8666 15.6281 34.6592 15.5571 34.162C15.486 33.8779 15.1309 33.8069 14.8468 33.949Z" fill="#FF2424"/>
<path d="M15.2731 32.4574L15.202 32.5284C14.989 32.7415 14.989 33.0256 15.202 33.1676C15.4151 33.3807 15.6992 33.3807 15.8412 33.1676L15.9123 33.0966C16.1253 32.8835 16.1253 32.5995 15.9123 32.4574C15.7702 32.2443 15.4151 32.2443 15.2731 32.4574Z" fill="#FF2424"/>
<path d="M38.8525 24.716C38.6394 24.3609 38.2843 24.1478 37.9292 23.8637C37.6451 23.5796 37.5741 23.1535 37.29 22.8694C37.0059 22.5853 36.5088 22.4433 36.1536 22.7274C35.2304 23.5086 36.4377 24.4319 37.0059 24.858C37.4321 25.3552 37.9292 25.7813 38.4974 25.6393C38.9235 25.5683 39.0656 25.0711 38.8525 24.716Z" fill="#FF2424"/>
<path d="M27.489 39.8437C28.1992 40.1278 29.5486 40.3409 30.1168 39.5597C30.3299 39.2045 30.3299 38.7784 30.0458 38.4233C29.7617 38.1392 29.4066 37.9972 29.0515 37.9972C28.6253 37.8551 28.1282 37.8551 27.631 37.9972C27.2759 38.1392 26.8498 38.4233 26.7787 38.8494C26.7077 39.4176 27.0628 39.7017 27.489 39.8437Z" fill="#D80B0B"/>
<path d="M33.668 10.7955C34.0231 11.0086 34.3782 10.8666 34.6623 10.6535C35.2305 10.2984 35.6566 9.80121 36.2248 9.51712C36.864 9.09098 38.4265 8.66484 38.3554 7.67052C38.2844 6.81825 36.935 6.67621 36.2958 6.81825C35.6566 6.9603 35.0174 7.31541 34.5202 7.88359C34.2362 8.09666 33.9521 8.38076 33.739 8.66485C33.1708 9.16201 32.7447 10.2984 33.668 10.7955Z" fill="#D80B0B"/>
<path d="M32.9576 13.2102C33.0997 13.2102 33.2417 13.1392 33.3837 12.9971C33.5258 12.7841 33.5968 12.571 33.5968 12.3579C33.5968 12.2869 33.5968 12.2869 33.5968 12.2159V12.1449C33.5968 11.8608 33.3838 11.7187 33.0997 11.6477C32.7445 11.6477 32.4605 11.8608 32.3184 12.1449C32.1764 12.5 32.1763 12.8551 32.4604 13.1392C32.6735 13.2102 32.8156 13.2102 32.9576 13.2102Z" fill="#D80B0B"/>
<path d="M39.7758 7.59947C39.9178 7.59947 39.9888 7.59947 40.1309 7.59947C40.3439 7.52845 40.415 7.3864 40.486 7.17333C40.486 7.10231 40.486 7.03129 40.486 7.03129C40.557 6.88924 40.486 6.67618 40.344 6.53413C40.1309 6.32106 39.8468 6.39209 39.7048 6.53413L39.6338 6.60515C39.4917 6.67617 39.4207 6.7472 39.2786 6.81822C39.1366 7.03129 39.0656 7.31538 39.2786 7.45743C39.4207 7.6705 39.6337 7.6705 39.7758 7.59947Z" fill="#D80B0B"/>
<path d="M8.95195 37.8552C8.52581 37.7842 8.02864 37.8552 7.6025 38.1393C7.46045 38.2103 7.31843 38.3524 7.17638 38.4944C7.10536 38.6365 7.03432 38.7785 6.9633 38.9916C6.89228 39.7018 7.60252 40.1279 8.24172 40.1279C8.66786 40.1279 9.09398 39.9859 9.37807 39.7018C10.0883 39.0626 9.80422 38.0683 8.95195 37.8552Z" fill="#D80B0B"/>
<path d="M6.75029 36.2926C6.53723 36.1505 6.25314 36.1505 6.11109 36.2926C5.89803 36.5056 5.82699 36.8608 5.96904 37.0738C5.96904 37.0738 5.96904 37.1448 6.04007 37.1448C6.04007 37.1448 6.04007 37.1448 6.11109 37.2159C6.11109 37.2159 6.11108 37.2869 6.1821 37.2869C6.46619 37.571 6.96337 37.571 7.17643 37.1448C7.24746 36.8607 7.10541 36.4346 6.75029 36.2926Z" fill="#D80B0B"/>
<path d="M36.2957 33.7358C36.2247 33.8779 36.0827 34.0199 36.0116 34.233C35.4435 35.0142 35.3014 35.7955 36.0116 36.0796H36.0827C36.2247 36.1506 36.3668 36.2216 36.5088 36.2926C38.0713 36.7188 42.6167 32.3154 40.273 31.4631C40.202 31.4631 40.06 31.3921 39.9889 31.3921C39.9179 31.321 39.7759 31.321 39.6338 31.321C38.2844 31.8182 37.148 32.5995 36.2957 33.7358Z" fill="#D80B0B"/>
<path d="M39.8468 29.9716C39.9178 30.0427 39.9178 30.1137 39.9889 30.1847C40.1309 30.3268 40.273 30.4688 40.344 30.5398C40.5571 30.7529 40.9122 30.7529 41.0542 30.4688C41.2673 30.0427 41.3383 29.4035 41.1252 28.9773C41.1252 28.9063 41.0542 28.8353 40.9832 28.7643C40.7701 28.4802 40.486 28.2671 40.1309 28.2671C39.7758 28.3381 39.5627 28.6222 39.4917 28.9063C39.4917 28.9063 39.4917 28.9063 39.4917 28.9773C39.4207 29.1194 39.4207 29.1904 39.4207 29.3324C39.5627 29.5455 39.6337 29.8296 39.8468 29.9716Z" fill="#D80B0B"/>
<path d="M38.4974 30.7528C38.7815 31.1079 39.4207 30.8238 39.4207 30.3977C39.4207 29.9005 38.8525 29.6874 38.4974 30.0426C38.4264 30.1136 38.3553 30.2556 38.3553 30.3977C38.3553 30.5397 38.3554 30.6818 38.4974 30.7528Z" fill="#D80B0B"/>
<path d="M20.9548 3.125C20.5287 3.125 20.1736 3.125 19.7474 3.05397C19.5344 2.98295 19.2503 2.98296 18.9662 3.125C16.8355 3.83523 14.9179 4.90057 13.1423 6.32102C11.7219 7.45739 9.66221 9.30398 9.73323 11.3636C9.80426 13.3523 11.8639 14.2045 13.5685 13.7784C15.9122 13.2102 18.1139 11.2926 19.9605 9.87216C21.381 8.80682 23.8668 7.10228 24.0088 5.11364C24.1509 3.33807 22.4463 3.05398 20.9548 3.125Z" fill="#E72121"/>
<path d="M5.40086 13.6363C5.18779 13.8493 4.97471 14.1334 4.83266 14.4175C4.83266 14.4175 4.83266 14.4885 4.76164 14.4885C4.76164 14.5596 4.69063 14.5596 4.69063 14.6306C4.69063 14.6306 4.69063 14.6306 4.69063 14.7016C4.40654 15.2698 4.12244 15.838 4.12244 16.4062C4.12244 16.9743 4.33552 17.4005 4.69063 17.6846C4.97472 18.0397 5.40084 18.2527 5.82698 18.2527C5.96902 18.2527 6.11107 18.2527 6.25312 18.1817C8.24176 18.0397 9.94631 14.9857 8.52586 13.4232C7.46051 12.4999 6.18211 12.713 5.40086 13.6363Z" fill="#E72121"/>
<path d="M12.3611 15.199C12.2901 15.199 12.2191 15.199 12.1481 15.199C12.0771 15.1279 12.006 15.1279 11.864 15.1279C11.5089 15.0569 11.0827 15.0569 10.7986 15.27C10.5145 15.483 10.2305 15.7671 10.1594 16.1222V16.1933C9.94637 16.6194 9.94637 17.1166 10.1594 17.5427C10.4435 17.9688 10.8697 18.1819 11.3668 18.2529C11.7219 18.2529 12.2191 18.1819 12.5032 17.9688C12.5742 17.8978 12.6452 17.8978 12.6452 17.8268C13.1424 17.5427 13.3555 16.9745 13.2844 16.4063C13.2844 15.8382 12.8583 15.341 12.3611 15.199Z" fill="#E72121"/>
<path d="M27.2048 2.41472C26.8497 2.27268 26.4236 2.3437 26.0684 2.55676C25.6423 2.84086 25.4293 3.26699 25.5003 3.83518C25.5003 3.9062 25.5713 3.97722 25.5713 4.04825C25.5713 4.54541 25.6423 5.11359 25.9974 5.4687C26.4236 5.89484 27.2048 5.89484 27.631 5.4687C27.915 5.18461 28.0571 4.82949 28.1281 4.47438C28.4122 3.69313 28.1281 2.69881 27.2048 2.41472Z" fill="#E72121"/>
<path d="M24.5771 7.31531C24.0799 7.67042 23.3697 8.09656 23.2276 8.73576C23.1566 8.87781 23.1566 9.01986 23.1566 9.16191C23.1566 9.51702 23.4407 10.0142 23.8668 10.0852C24.0799 10.0852 24.2219 10.1562 24.435 10.0852C24.506 10.0852 24.506 10.0142 24.5771 10.0142C24.8612 9.94315 25.1452 9.80111 25.3583 9.51702C25.5003 9.37497 25.7134 9.1619 25.8555 8.94884C26.2106 8.5227 26.2816 7.95452 25.9265 7.52838C25.6424 7.17327 25.0032 6.9602 24.5771 7.31531Z" fill="#E72121"/>
<path d="M3.83836 19.4601C2.98608 21.1647 3.90938 23.1533 6.04007 22.301C6.4662 22.159 7.24745 21.3777 7.74461 21.5198C8.09972 21.6618 8.52587 22.5141 8.952 22.7982C10.0173 23.5084 11.2247 23.5084 12.4321 23.3664C14.8469 23.0823 17.0486 21.8749 18.398 19.8863C19.1793 18.7499 19.0372 17.3294 20.1026 16.5482C21.3099 15.6959 22.8014 15.1277 22.8724 13.4942C22.8724 13.1391 22.6594 12.713 22.3753 12.5709C21.31 12.0738 20.8128 12.2868 19.7474 12.855C18.8241 13.3522 17.6168 13.8493 16.9065 14.6306C16.1963 15.3408 16.1253 16.1931 15.9122 17.1164C15.6281 18.0397 15.0599 18.7499 14.3497 19.3181C13.5685 19.8863 12.6452 20.5255 11.7219 20.7385C10.4435 21.0936 10.0884 20.3834 9.16506 19.7442C8.59688 19.3181 7.95767 19.105 7.24744 19.3181C6.53721 19.5311 4.97472 21.2357 4.97472 19.6732C4.83268 19.247 4.12245 18.963 3.83836 19.4601Z" fill="#E72121"/>
<path d="M29.6907 3.76407C31.3242 5.82373 28.4833 7.38623 27.418 8.66464C26.3526 10.0141 26.5657 11.0794 27.1339 12.6419C27.631 13.9913 26.7788 14.5595 25.7134 15.2698C25.0032 15.6959 24.293 16.193 23.6538 16.7612C22.3043 17.9686 21.168 19.6021 20.8128 21.4487C20.7418 21.8749 20.8839 22.372 21.31 22.5851C21.381 22.6561 21.4521 22.6561 21.5231 22.6561C21.8072 22.7982 22.3043 22.6561 22.5174 22.372C24.0089 20.4544 25.2163 18.7499 27.2759 17.4004C29.0515 16.1931 30.543 14.4885 29.7617 12.2158C29.6197 11.7896 29.1935 11.2925 29.1935 10.8663C29.1935 10.2271 29.7617 9.87203 30.1879 9.51691C30.8981 8.87771 31.5373 8.2385 31.9634 7.3152C32.7447 5.53964 32.2475 3.69305 30.614 2.69873C29.7617 2.20157 29.1935 3.19589 29.6907 3.76407Z" fill="#E72121"/>
<path d="M3.8384 25.5681C3.76738 25.6391 4.05147 26.3494 4.12249 26.4914C4.33556 26.8465 4.69069 27.1306 5.0458 27.3437C5.89807 27.7698 6.89237 27.6988 7.6026 27.0596C7.81567 26.8465 7.95773 26.4204 7.81568 26.1363C7.60261 25.4261 7.03443 25.4261 6.39523 25.5681C5.82705 25.7102 5.75601 25.4971 5.47192 24.9999C5.18783 24.5028 4.7617 24.0056 4.12249 24.0766C3.55431 24.0766 3.05716 24.5028 2.91512 25.0709C2.84409 25.6391 3.41227 25.9232 3.8384 25.5681Z" fill="#E72121"/>
<path d="M3.34124 28.4092C3.41226 28.9064 3.55432 29.3325 3.90943 29.6166C4.40659 30.0427 5.18784 30.1138 5.61397 29.5456C5.82704 29.2615 5.82704 28.9064 5.61397 28.6223C5.75602 28.8353 5.54295 28.4802 5.54295 28.4802C5.4009 28.2672 5.11681 28.1251 4.90375 28.0541H4.83272C4.7617 28.0541 4.7617 28.0541 4.83272 28.0541C4.90374 28.0541 4.90374 28.0541 4.83272 28.0541C4.83272 28.0541 4.83272 28.0541 4.76169 28.0541C4.69067 27.9831 4.69067 27.9831 4.76169 28.0541C4.83272 28.1251 4.83272 28.1251 4.76169 28.0541C4.76169 28.0541 4.76171 28.0541 4.69069 27.9831C4.76171 28.0541 4.76171 28.0541 4.69069 27.9831C4.54864 27.699 4.19352 27.5569 3.83841 27.628C3.55431 27.77 3.27022 28.0541 3.34124 28.4092Z" fill="#E72121"/>
<path opacity="0.28" d="M36.2957 2.76978C37.9292 6.10784 38.8525 9.87205 38.8525 13.8493C38.8525 27.6277 27.702 38.7073 13.9946 38.7073C10.0173 38.7073 6.25311 37.784 2.91504 36.1505C6.96334 44.3181 15.415 49.9999 25.2162 49.9999C38.9946 49.9999 50.0741 38.8493 50.0741 25.1419C50.1451 15.2698 44.5344 6.81807 36.2957 2.76978Z" fill="#B70909"/>
<path opacity="0.28" d="M41.9066 6.53394C43.8952 10.1561 45.1026 14.2754 45.1026 18.6788C45.1026 32.4572 33.9521 43.5368 20.2447 43.5368C13.8526 43.5368 8.02878 41.122 3.62537 37.1447C7.88673 44.7442 15.9833 49.8578 25.3583 49.8578C39.1367 49.8578 50.2163 38.7072 50.2163 24.9998C50.1452 17.6845 46.9492 11.0794 41.9066 6.53394Z" fill="#B70909"/>
<path opacity="0.92" d="M42.4746 7.10232C38.0002 2.76993 31.8922 0.14209 25.2161 0.14209C22.7303 0.14209 20.3155 0.497204 18.0428 1.20743C17.8297 1.27845 17.6877 1.34947 17.5456 1.34947C17.4036 1.4205 17.2616 1.42049 17.1195 1.49152C16.8354 1.56254 16.5513 1.70459 16.3383 1.77561C16.1962 1.84664 16.0542 1.84664 15.9121 1.91766C15.6991 1.98868 15.486 2.13072 15.2019 2.20174C15.0599 2.27277 14.8468 2.34379 14.7047 2.41482C14.5627 2.48584 14.3496 2.55686 14.2076 2.6989C14.0655 2.76992 13.9235 2.84095 13.8525 2.91197C13.5684 3.05402 13.3553 3.19607 13.0712 3.33811C12.9292 3.40914 12.8582 3.48016 12.7161 3.55118C12.432 3.69323 12.1479 3.90629 11.9349 4.04834C11.8638 4.11936 11.7218 4.19039 11.6508 4.26141C11.5087 4.40346 11.2956 4.47448 11.1536 4.61652C11.0826 4.68755 11.0116 4.68754 11.0116 4.75857C10.7275 4.97164 10.4434 5.1847 10.0883 5.39777C10.0172 5.46879 9.94622 5.53981 9.8752 5.53981C9.59111 5.75288 9.30701 5.96595 9.02291 6.17902C8.95189 6.25005 8.88088 6.25004 8.80985 6.32107C8.3127 6.7472 7.81554 7.24436 7.3894 7.67049C7.3894 7.67049 7.3894 7.6705 7.31837 7.74152C7.03428 8.02561 6.7502 8.38073 6.46611 8.66482L6.39509 8.73583C6.111 9.09095 5.8269 9.37505 5.54281 9.73016C2.27576 13.9205 0.358154 19.2472 0.358154 24.929C0.358154 32.6705 3.90929 39.6307 9.52008 44.1762C4.83258 39.6307 1.92064 33.3097 1.92064 26.2785C1.92064 23.0114 2.55985 19.9574 3.69621 17.1165C5.47178 18.3949 7.60247 19.1052 9.94622 19.1052C15.9121 19.1052 20.8127 14.2756 20.8127 8.23868C20.8127 6.17902 20.2445 4.26141 19.2502 2.62789C21.665 1.84664 24.2218 1.4205 26.8496 1.4205C32.7445 1.49152 38.2133 3.62221 42.4746 7.10232Z" fill="#FFF2C8"/>
<path d="M21.8071 7.95465C21.8071 10.0143 23.4407 11.6478 25.5003 11.6478C27.56 11.6478 29.1935 10.0143 29.1935 7.95465C29.1935 5.895 27.56 4.26147 25.5003 4.26147C23.4407 4.26147 21.8071 5.895 21.8071 7.95465Z" fill="#FFF2C8"/>
<path d="M20.8127 14.9858C20.8127 16.3352 21.8781 17.4006 23.2275 17.4006C24.5769 17.4006 25.6423 16.3352 25.6423 14.9858C25.6423 13.6364 24.5769 12.571 23.2275 12.571C21.9491 12.571 20.8127 13.7074 20.8127 14.9858Z" fill="#FFF2C8"/>
<path opacity="0.14" d="M38.9236 4.26141C35.0174 1.63357 30.2588 0.14209 25.2162 0.14209C21.7361 0.14209 18.469 0.852319 15.4861 2.13073C14.4918 2.55686 13.5685 2.983 12.7162 3.55118C12.6452 3.62221 12.5031 3.6222 12.4321 3.69323C12.2191 3.83527 12.006 3.97731 11.7929 4.11936C11.6509 4.19038 11.5799 4.2614 11.4378 4.33243C11.2247 4.47447 11.0117 4.61652 10.7986 4.75857C10.6565 4.82959 10.5855 4.90062 10.4435 4.97164C10.2304 5.11368 10.0884 5.25572 9.8753 5.39777C9.73325 5.46879 9.66223 5.53982 9.52019 5.68187C9.30712 5.82391 9.16508 5.96595 8.95201 6.17902C8.80997 6.25004 8.73895 6.39209 8.5969 6.46311C8.38383 6.60515 8.24177 6.81822 8.0287 6.96027C7.95768 7.03129 7.81564 7.17334 7.74462 7.24436C7.60257 7.38641 7.3895 7.59947 7.24745 7.74152C7.17643 7.81254 7.03439 7.95458 6.96336 8.02561C6.82132 8.23868 6.60826 8.38072 6.46622 8.59379C6.3952 8.66481 6.32415 8.80686 6.18211 8.87789C6.04006 9.09096 5.82701 9.23299 5.68496 9.44606C5.61394 9.51708 5.5429 9.65914 5.47188 9.73016C5.32984 9.94323 5.1878 10.1563 4.97474 10.3694C4.90371 10.4404 4.83268 10.5824 4.76165 10.6535C4.61961 10.8665 4.47758 11.0796 4.33554 11.2927C4.26451 11.3637 4.19348 11.5057 4.19348 11.5767C4.05144 11.7898 3.90939 12.0739 3.76734 12.287C3.69632 12.358 3.69633 12.429 3.62531 12.5C3.48326 12.7841 3.34121 12.9972 3.19917 13.2813C3.19917 13.3523 3.12814 13.4233 3.12814 13.4233C1.35257 16.9035 0.287231 20.8097 0.287231 24.929C0.287231 34.0199 5.11678 41.9035 12.3611 46.3069C5.61394 41.8324 1.13951 34.233 1.13951 25.4972C1.13951 21.733 1.99178 18.1819 3.48325 14.9858C5.04575 16.1932 7.03439 16.9034 9.16507 16.9034C14.1367 16.9034 18.185 13.0682 18.185 8.23868C18.185 6.108 17.4037 4.19038 16.0543 2.6989C19.1083 1.34947 22.5173 0.639247 26.0685 0.639247C30.827 0.71027 35.2304 1.98868 38.9236 4.26141Z" fill="#FFF2C8"/>
<path d="M25.2161 49.7159C38.9448 49.7159 50.074 38.5866 50.074 24.858C50.074 11.1293 38.9448 0 25.2161 0C11.4874 0 0.358154 11.1293 0.358154 24.858C0.358154 38.5866 11.4874 49.7159 25.2161 49.7159Z" fill="url(#paint0_linear_74_57893)"/>
<path opacity="0.22" d="M0.358154 18.9631C0.358154 22.0881 1.1394 25.0711 2.48884 27.6279C5.04565 29.1904 8.0286 30.0426 11.2246 30.0426C20.6706 30.0426 28.2701 22.3722 28.2701 12.9972C28.2701 8.09661 26.2104 3.6932 22.8723 0.568205C21.665 0.284114 20.3866 0.213091 19.0371 0.213091C8.73883 0.142068 0.358154 8.59378 0.358154 18.9631Z" fill="white"/>
<path opacity="0.19" d="M13.1423 11.7898C14.6721 11.7898 15.9122 10.5497 15.9122 9.01989C15.9122 7.49013 14.6721 6.25 13.1423 6.25C11.6126 6.25 10.3724 7.49013 10.3724 9.01989C10.3724 10.5497 11.6126 11.7898 13.1423 11.7898Z" fill="white"/>
<path opacity="0.19" d="M10.4435 10.8664C10.4435 11.2926 10.7986 11.6477 11.2247 11.6477C11.6509 11.6477 12.006 11.2926 12.006 10.8664C12.006 10.4403 11.6509 10.0852 11.2247 10.0852C10.7276 10.0852 10.4435 10.4403 10.4435 10.8664Z" fill="white"/>
<path opacity="0.19" d="M14.2787 13.3523C15.3378 13.3523 16.1963 12.4938 16.1963 11.4347C16.1963 10.3756 15.3378 9.51709 14.2787 9.51709C13.2196 9.51709 12.3611 10.3756 12.3611 11.4347C12.3611 12.4938 13.2196 13.3523 14.2787 13.3523Z" fill="white"/>
<path opacity="0.17" d="M48.0855 14.6309C48.1565 17.6138 47.7304 20.5968 46.665 23.5797C42.0486 36.6479 27.702 43.4661 14.7048 38.8496C7.95766 36.4348 2.91505 31.5343 0.216187 25.4973C0.429255 35.5826 6.8213 44.9576 16.9065 48.5087C29.9747 53.1252 44.2503 46.307 48.8668 33.2388C51.0685 26.9178 50.6423 20.3127 48.0855 14.6309Z" fill="url(#paint1_linear_74_57893)"/>
<path opacity="0.17" d="M35.4434 1.98877C37.5031 4.11945 39.1366 6.67628 40.344 9.58821C45.5997 22.3723 39.5627 37.003 26.7786 42.3297C20.1735 45.0285 13.0712 44.7445 7.0343 42.0456C13.9235 49.3609 24.932 52.1308 34.8042 48.0115C47.5883 42.7558 53.6962 28.0541 48.3695 15.27C45.8837 9.16207 41.1252 4.54559 35.4434 1.98877Z" fill="url(#paint2_linear_74_57893)"/>
<path opacity="0.19" d="M45.5287 10.5823C48.0855 14.4885 49.5059 19.105 49.5059 24.1476C49.5059 37.926 38.3554 49.0056 24.648 49.0056C16.2673 49.0056 8.88093 44.8862 4.40649 38.5652C8.8099 45.3834 16.5514 49.9289 25.2872 49.9289C39.0656 49.9289 50.1452 38.7783 50.1452 25.0709C50.1452 19.6732 48.4406 14.7016 45.5287 10.5823Z" fill="white"/>
<defs>
<linearGradient id="paint0_linear_74_57893" x1="7.65112" y1="7.26548" x2="42.8486" y2="42.4628" gradientUnits="userSpaceOnUse">
<stop stop-color="#FF0000"/>
<stop offset="1" stop-color="#930005"/>
</linearGradient>
<linearGradient id="paint1_linear_74_57893" x1="22.8616" y1="15.0127" x2="31.0909" y2="49.3383" gradientUnits="userSpaceOnUse">
<stop offset="0.2422" stop-color="white"/>
<stop offset="0.9199" stop-color="white"/>
<stop offset="1" stop-color="white"/>
</linearGradient>
<linearGradient id="paint2_linear_74_57893" x1="16.9395" y1="19.1583" x2="46.014" y2="39.1726" gradientUnits="userSpaceOnUse">
<stop offset="0.2422" stop-color="white"/>
<stop offset="0.9199" stop-color="white"/>
<stop offset="1" stop-color="white"/>
</linearGradient>
</defs>
</svg>
