<svg width="51" height="50" viewBox="0 0 51 50" fill="none" xmlns="http://www.w3.org/2000/svg">
<path opacity="0.68" d="M25.9872 49.9292C39.7748 49.9292 50.9519 38.7838 50.9519 25.0353C50.9519 11.2868 39.7748 0.141357 25.9872 0.141357C12.1996 0.141357 1.02258 11.2868 1.02258 25.0353C1.02258 38.7838 12.1996 49.9292 25.9872 49.9292Z" fill="url(#paint0_linear_74_56358)"/>
<path d="M25.9872 49.9292C39.7748 49.9292 50.9519 38.7838 50.9519 25.0353C50.9519 11.2868 39.7748 0.141357 25.9872 0.141357C12.1996 0.141357 1.02258 11.2868 1.02258 25.0353C1.02258 38.7838 12.1996 49.9292 25.9872 49.9292Z" fill="#DDC3A3"/>
<g opacity="0.89">
<path d="M48.6887 22.9138C48.6887 22.4895 48.5473 21.9237 48.2644 21.4286C48.123 20.8629 47.8401 20.5093 47.345 20.3678C46.9914 20.1556 46.5671 20.2264 46.072 20.6507C45.5063 21.1457 45.1527 22.1358 45.1527 23.0552C44.8698 24.2575 45.0112 26.2377 46.6378 26.3791C48.4059 26.5206 48.7595 24.2575 48.6887 22.9138Z" fill="#D8B58C"/>
<path d="M42.3238 15.0636C42.2531 15.0636 42.1824 15.1343 42.1824 15.1343C41.6166 15.205 40.9801 15.4879 40.6265 15.9829C40.2729 16.5487 40.3436 17.1852 40.8387 17.6803C41.4752 18.246 42.1824 18.1753 42.7482 17.751C42.7482 17.751 42.8189 17.751 42.8189 17.6803C43.2432 17.3974 43.5261 16.9023 43.6675 16.4073C43.8797 15.5586 43.2432 14.7807 42.3238 15.0636Z" fill="#D8B58C"/>
<path d="M23.0169 28.3592C22.1682 28.8543 21.3903 29.7029 21.1781 30.693C20.5416 33.0268 23.7241 33.0976 25.1385 32.3904C26.7651 31.5417 28.2502 28.7836 26.0579 27.652C25.1385 27.2277 24.1484 27.5813 23.2997 28.2178C23.1583 28.2885 23.0876 28.2885 23.0169 28.3592Z" fill="#D8B58C"/>
<path d="M29.2405 31.2588C29.8062 31.0466 30.0184 30.5516 30.0891 29.9858C30.1598 29.7736 30.1598 29.4907 30.0184 29.2786C30.0184 29.1371 29.9477 29.0664 29.9477 28.9957C30.0184 28.7835 29.9477 28.5006 29.8062 28.3592C29.5941 28.147 29.0283 28.0763 28.8161 28.3592C28.6747 28.5006 28.604 28.6421 28.5332 28.7835C28.2504 29.0664 28.1089 29.42 28.1796 29.8443C28.1796 29.9151 28.1089 30.0565 28.1089 30.1272C27.9675 30.8344 28.4625 31.5416 29.2405 31.2588Z" fill="#D8B58C"/>
<path d="M9.36766 25.9549C10.9235 24.6819 11.065 21.358 10.3578 19.59C10.0042 18.812 9.36766 18.0341 8.519 18.1048C8.02395 18.1755 7.67035 18.4584 7.31674 18.8828C5.90231 19.1656 5.33654 22.4895 5.47799 23.5504C5.61943 25.3184 7.59963 27.44 9.36766 25.9549Z" fill="#D8B58C"/>
<path d="M21.7438 12.0932C22.2389 12.2346 22.6632 12.0224 23.0168 11.7395C23.229 11.5274 23.4412 11.3152 23.5826 11.0323C23.9362 10.2544 23.9362 8.76925 22.9461 8.41564C20.9659 7.70843 19.6929 11.6688 21.7438 12.0932Z" fill="#D8B58C"/>
<path d="M10.4285 30.6226C9.36766 29.8446 8.30684 29.8446 7.67035 30.8347C6.96313 31.1883 6.96313 33.0978 6.96313 33.6636C7.10458 35.1487 8.09468 36.5631 9.65055 36.6339C9.86271 36.6339 10.0042 36.6339 10.2163 36.6339C10.7821 36.7753 11.2771 36.7046 11.6307 36.2095C11.7015 36.0681 11.7722 35.9267 11.8429 35.7852C12.1258 35.4316 12.338 34.9366 12.338 34.3708C12.338 32.9564 11.56 31.4005 10.4285 30.6226Z" fill="#D8B58C"/>
<path d="M27.8259 18.6708C28.6038 20.0145 30.3012 20.7217 31.7156 20.2973C32.635 20.0145 33.3422 19.5194 33.9079 18.7415C34.3323 18.1757 34.7566 17.6099 34.9688 16.9027C35.3224 15.7005 35.0395 14.2153 34.1201 13.2959C33.4129 12.6594 32.635 12.3058 31.6449 12.2351C30.9376 12.2351 30.3012 12.4473 29.6647 12.7302C28.6746 13.2252 27.9674 14.2153 27.6845 15.2761C27.6137 15.4883 27.6137 15.7005 27.6137 15.9126C27.3309 16.7613 27.3309 17.8221 27.8259 18.6708Z" fill="#D8B58C"/>
<path d="M37.7269 31.7539C36.5246 31.7539 36.5246 33.5927 37.7269 33.5927C38.9292 33.6634 38.9292 31.7539 37.7269 31.7539Z" fill="#D8B58C"/>
<path d="M32.0691 41.0185C31.5034 40.5234 30.9376 40.1698 30.1597 40.0284C29.8061 39.9577 29.4525 39.887 29.0989 39.887C28.816 39.887 28.3209 39.9577 28.1795 40.0284C27.6844 40.1698 27.3308 40.4527 26.9772 40.7356C26.27 41.3014 26.0578 42.4329 26.3407 43.2816C26.5529 44.1302 27.2601 44.9082 28.1795 45.1203C28.2502 45.1203 28.2502 45.1203 28.3209 45.1203C28.5331 45.1911 28.7452 45.2618 28.8867 45.3325C29.5939 45.4739 30.2304 45.4739 30.9376 45.3325C31.7863 45.1911 32.4935 44.3424 32.7056 43.5645C32.9178 42.7158 32.7764 41.5843 32.0691 41.0185Z" fill="#D8B58C"/>
<path d="M24.7849 42.857C24.7849 42.7863 24.7142 42.7156 24.7142 42.5741C24.7142 42.5741 24.7142 42.5741 24.7142 42.5034C24.7142 42.5034 24.7142 42.4327 24.6434 42.4327C24.5727 42.3619 24.5727 42.2912 24.502 42.2205C24.502 42.1498 24.4313 42.1498 24.4313 42.0791L24.3605 42.0083C23.8655 41.4426 23.1583 41.1597 22.3804 41.2304C21.1074 41.3718 20.3294 42.7156 20.6123 43.9885C20.8952 45.1201 22.1682 45.6859 23.229 45.2615C23.3704 45.1908 23.4412 45.1201 23.5826 45.0494C23.9362 44.9079 24.2191 44.6958 24.4313 44.4129C24.7849 43.9885 24.9263 43.4935 24.7849 42.857Z" fill="#D8B58C"/>
<path d="M24.9264 38.7554C24.2899 38.7554 23.7241 39.2504 23.7948 39.8869C23.7948 40.5234 24.2899 41.0185 24.9264 41.0185C25.5628 41.0185 26.1286 40.5234 26.0579 39.8869C25.9872 39.3211 25.5628 38.7554 24.9264 38.7554Z" fill="#D8B58C"/>
<path d="M43.1725 30.7637C41.4044 30.7637 41.4044 33.5218 43.1725 33.5218C44.9405 33.5925 44.9405 30.7637 43.1725 30.7637Z" fill="#D8B58C"/>
<path d="M42.6067 34.512C40.9094 34.512 40.9094 37.1287 42.6067 37.1287C44.3748 37.1287 44.3748 34.512 42.6067 34.512Z" fill="#D8B58C"/>
<path d="M38.2926 37.4119C37.3732 37.4119 37.3732 38.8263 38.2926 38.8263C39.2119 38.8263 39.2119 37.4119 38.2926 37.4119Z" fill="#D8B58C"/>
<path d="M40.5557 30.6223C39.4949 30.6223 39.4949 32.3196 40.5557 32.3196C41.6873 32.3196 41.6873 30.6223 40.5557 30.6223Z" fill="#D8B58C"/>
<path d="M40.0607 33.9463C39.4949 33.9463 38.9999 34.4413 39.0706 34.9364C39.0706 35.5022 39.4949 35.9265 40.0607 35.9265C40.6265 35.9265 41.1215 35.4314 41.0508 34.9364C41.0508 34.3706 40.6265 33.9463 40.0607 33.9463Z" fill="#D8B58C"/>
<path d="M34.1907 34.6536C33.5542 34.6536 32.9177 35.2193 32.9177 35.8558C32.9177 36.4923 33.4835 37.0581 34.1907 37.0581C34.8272 37.0581 35.4637 36.4923 35.4637 35.8558C35.393 35.2193 34.8979 34.6536 34.1907 34.6536Z" fill="#D8B58C"/>
<path d="M40.3436 22.2065C39.5657 22.2065 38.7878 22.5601 38.222 23.0552C37.727 23.5502 37.3026 24.3989 37.3733 25.1768C37.3733 25.9548 37.6562 26.7327 38.222 27.2985C38.7878 27.8642 39.5657 28.1471 40.3436 28.1471C41.1216 28.1471 41.8995 27.7935 42.4653 27.2985C42.9603 26.8034 43.3847 25.9548 43.3139 25.1768C43.3139 24.3989 43.0311 23.621 42.4653 23.0552C41.8288 22.5601 41.1216 22.2065 40.3436 22.2065Z" fill="#D8B58C"/>
<path d="M35.393 24.2576C36.3831 24.2576 36.3831 22.7725 35.393 22.7725C34.4736 22.7725 34.4736 24.2576 35.393 24.2576Z" fill="#D8B58C"/>
<path d="M35.0395 25.5305C32.7764 25.5305 32.7764 28.9959 35.0395 28.9959C37.3026 28.9959 37.3026 25.5305 35.0395 25.5305Z" fill="#D8B58C"/>
<path d="M40.3436 12.942C40.9094 13.2956 41.5459 13.0834 42.0409 12.6591C42.1824 12.5177 42.3238 12.3055 42.4653 12.164C42.536 12.0933 42.536 12.0226 42.6067 11.9519C42.6774 11.8812 42.6774 11.7397 42.7482 11.669V11.5983C42.8896 11.3154 42.8896 11.1032 42.8189 10.8203C42.6774 10.4667 42.3238 10.1838 41.9702 10.2546C41.4752 10.2546 41.0508 10.396 40.768 10.7496C40.6972 10.8203 40.6972 10.8911 40.6265 10.9618C40.5558 11.0325 40.4851 11.1032 40.4144 11.1032C40.1315 11.3154 39.9193 11.5983 39.9193 12.0226C39.7779 12.3762 39.99 12.7298 40.3436 12.942Z" fill="#D8B58C"/>
<path d="M37.3025 9.26467C37.6561 9.61828 38.2219 9.61827 38.5048 9.19394C38.9291 8.34529 38.7877 7.3552 38.1512 6.64798C37.6561 6.08221 36.8075 6.43581 36.5953 7.0723C36.4539 7.35519 36.4539 7.7088 36.4539 7.99168C36.4539 8.48673 36.666 8.76962 36.9489 9.12323C37.0196 9.19395 37.1611 9.26467 37.3025 9.26467Z" fill="#D8B58C"/>
<path d="M21.1781 48.2322C22.1682 48.2322 22.1682 46.7471 21.1781 46.7471C20.188 46.7471 20.188 48.2322 21.1781 48.2322Z" fill="#D8B58C"/>
<path d="M17.43 46.8177C18.4201 46.8177 18.4201 45.3325 17.43 45.3325C16.4399 45.3325 16.4399 46.8177 17.43 46.8177Z" fill="#D8B58C"/>
<path d="M14.4596 33.5927C15.4497 33.5927 15.4497 32.0369 14.4596 32.0369C13.4695 32.0369 13.4695 33.5927 14.4596 33.5927Z" fill="#D8B58C"/>
<path d="M4.06362 25.8135C4.91227 25.8135 4.91227 24.5405 4.06362 24.5405C3.21496 24.5405 3.21496 25.8135 4.06362 25.8135Z" fill="#D8B58C"/>
<path d="M46.355 14.3567C46.9208 14.3567 47.4866 13.8617 47.4159 13.2959C47.4159 12.7302 46.9208 12.2351 46.355 12.2351C45.7893 12.2351 45.2235 12.7302 45.2942 13.2959C45.2942 13.8617 45.7893 14.3567 46.355 14.3567Z" fill="#D8B58C"/>
<path d="M44.5868 16.4075C45.4355 16.4075 45.4355 15.1345 44.5868 15.1345C43.7382 15.1345 43.7382 16.4075 44.5868 16.4075Z" fill="#D8B58C"/>
<path d="M44.2334 19.5191C45.082 19.5191 45.082 18.1754 44.2334 18.1754C43.314 18.1047 43.314 19.5191 44.2334 19.5191Z" fill="#D8B58C"/>
<path d="M38.7878 22.8429C39.7072 22.8429 39.7072 21.4285 38.7878 21.4285C37.8684 21.4285 37.8684 22.8429 38.7878 22.8429Z" fill="#D8B58C"/>
<path d="M32.3522 28.43C32.9887 28.43 33.6252 27.8642 33.6252 27.157C33.6252 26.4498 33.0594 25.884 32.3522 25.884C31.7157 25.884 31.0792 26.4498 31.0792 27.157C31.0792 27.8642 31.645 28.43 32.3522 28.43Z" fill="#D8B58C"/>
<path d="M30.4427 31.471C31.2206 31.471 31.9278 30.7638 31.9278 29.9859C31.8571 29.208 31.2913 28.5007 30.4427 28.5007C29.6647 28.5007 28.9575 29.208 28.9575 29.9859C29.0282 30.7638 29.594 31.471 30.4427 31.471Z" fill="#D8B58C"/>
<path d="M27.6138 33.5925C28.6039 33.5925 29.5233 32.7439 29.4526 31.7538C29.3819 30.7637 28.6747 29.915 27.6138 29.915C26.6237 29.915 25.7044 30.7637 25.7751 31.7538C25.8458 32.7439 26.6237 33.5925 27.6138 33.5925Z" fill="#D8B58C"/>
<path d="M26.553 48.4444C27.5431 48.4444 28.4625 47.5957 28.3918 46.6056C28.3211 45.6155 27.6139 44.7668 26.553 44.7668C25.5629 44.7668 24.6436 45.6155 24.7143 46.6056C24.785 47.5957 25.5629 48.4444 26.553 48.4444Z" fill="#D8B58C"/>
<path d="M26.9066 42.5038C27.6138 42.5038 28.2503 41.8673 28.2503 41.1601C28.2503 40.4529 27.6845 39.8164 26.9066 39.8164C26.1994 39.8164 25.5629 40.4529 25.5629 41.1601C25.6336 41.938 26.1286 42.5038 26.9066 42.5038Z" fill="#D8B58C"/>
<path d="M21.3902 40.5236C21.956 40.5236 22.5217 40.0285 22.5217 39.392C22.5217 38.7555 22.0267 38.2605 21.3902 38.2605C20.8244 38.2605 20.2587 38.7555 20.2587 39.392C20.3294 40.0285 20.7537 40.5236 21.3902 40.5236Z" fill="#D8B58C"/>
<path d="M17.7128 38.0483C19.4808 38.0483 19.4808 35.3608 17.7128 35.3608C16.0155 35.3608 16.0155 38.0483 17.7128 38.0483Z" fill="#D8B58C"/>
<path d="M38.4341 37.7652C39.4242 37.7652 40.3436 36.9166 40.3436 35.8558C40.2729 34.8657 39.495 33.9463 38.4341 33.9463C37.444 33.9463 36.5247 34.7949 36.5247 35.8558C36.5954 36.9166 37.3733 37.7652 38.4341 37.7652Z" fill="#D8B58C"/>
<path d="M33.8373 33.5929C34.5445 33.5929 35.2517 32.9564 35.181 32.2492C35.181 31.542 34.5445 30.9055 33.8373 30.9055C33.13 30.9055 32.4228 31.542 32.4935 32.2492C32.4935 32.9564 33.0593 33.5929 33.8373 33.5929Z" fill="#D8B58C"/>
<path d="M13.3988 21.4286C13.9645 21.4286 14.5303 20.9336 14.5303 20.2971C14.5303 19.7313 14.0352 19.1655 13.3988 19.1655C12.833 19.1655 12.2672 19.6606 12.2672 20.2971C12.3379 20.9336 12.7623 21.4286 13.3988 21.4286Z" fill="#D8B58C"/>
<path d="M3.56856 20.5094C4.41722 20.5094 4.41722 19.1657 3.56856 19.1657C2.64918 19.0949 2.64918 20.5094 3.56856 20.5094Z" fill="#D8B58C"/>
<path d="M14.1059 28.8543C14.6717 28.8543 15.2374 28.3593 15.1667 27.7935C15.1667 27.2277 14.6717 26.7327 14.1059 26.7327C13.5401 26.7327 12.9743 27.2277 13.0451 27.7935C13.0451 28.3593 13.5401 28.8543 14.1059 28.8543Z" fill="#D8B58C"/>
<path d="M17.2885 33.0271C18.0664 33.0271 18.7736 32.3906 18.7029 31.6127C18.7029 30.8347 18.0664 30.1982 17.2885 30.1982C16.5105 30.1982 15.8033 30.8347 15.874 31.6127C15.9448 32.3906 16.5105 33.0271 17.2885 33.0271Z" fill="#D8B58C"/>
</g>
<g opacity="0.44">
<path d="M30.7962 20.6506C29.7354 20.8627 28.9574 22.1357 29.311 23.1965C29.3818 23.4087 29.4525 23.6209 29.5232 23.7623C29.8061 24.1159 30.089 24.3988 30.5133 24.611C30.9376 24.7524 31.4327 24.8231 31.857 24.6817C32.5642 24.4695 33.13 23.9038 33.2714 23.1258V23.1965C33.2714 23.1965 33.2714 23.1965 33.2714 23.1258C33.4836 22.4893 33.2714 21.57 32.7764 21.1456C32.2106 20.7213 31.5741 20.5091 30.7962 20.6506Z" fill="#CE9B78"/>
<path d="M19.1981 36.4922C18.4909 36.4922 17.8544 36.8458 17.5008 37.4823C17.2179 37.9773 17.2179 38.5431 17.43 39.0382C17.5008 39.2503 17.6422 39.4625 17.7836 39.6039C17.9958 39.8161 18.2787 39.9575 18.5616 40.0283C19.0566 40.2404 19.6931 40.099 20.1175 39.8161C20.4711 39.6039 20.6832 39.321 20.8247 38.9674C20.9661 38.6138 21.0368 38.1895 20.8954 37.7652C20.6832 37.058 20.0467 36.4922 19.1981 36.4922Z" fill="#CE9B78"/>
<path d="M15.4497 37.9775C15.379 36.9874 14.6718 36.2095 13.6817 36.2095C12.7623 36.2095 11.8429 37.0581 11.9136 37.9775C11.9843 38.9676 12.6916 39.7455 13.6817 39.7455C14.601 39.7455 15.5204 38.8969 15.4497 37.9775Z" fill="#CE9B78"/>
<path d="M6.68019 31.6832C7.88245 31.6832 7.88245 29.8445 6.68019 29.8445C5.54865 29.8445 5.47792 31.6832 6.68019 31.6832Z" fill="#CE9B78"/>
<path d="M10.7821 39.1794C8.58973 39.1794 8.58973 42.6448 10.7821 42.6448C13.0452 42.6448 13.0452 39.1794 10.7821 39.1794Z" fill="#CE9B78"/>
<path d="M14.7424 41.3013C13.8938 41.3013 13.8938 42.5742 14.7424 42.5742C15.5911 42.5742 15.5911 41.3013 14.7424 41.3013Z" fill="#CE9B78"/>
<path d="M31.645 33.8757C31.4328 33.6635 31.1499 33.6635 30.867 33.5928C30.6549 33.5928 30.372 33.5928 30.1598 33.6635C30.0891 33.6635 30.0891 33.7342 30.0184 33.7342C29.099 33.8757 28.3918 34.8658 28.6747 35.8559C29.0283 37.0581 30.5842 37.4824 31.5035 36.5631C31.7864 36.2802 32.0693 35.9266 32.14 35.573C32.2107 35.2194 32.2107 34.8658 32.14 34.5122C31.9986 34.2293 31.8571 34.0171 31.645 33.8757Z" fill="#CE9B78"/>
<path d="M43.5261 21.6407C43.6675 21.2871 43.7382 20.8628 43.5968 20.5091C43.3139 19.6605 42.3945 19.024 41.5459 19.3069C41.1923 19.4483 40.8387 19.5898 40.6265 19.8727C39.7778 20.792 40.0607 22.2065 41.1923 22.7015C41.6873 22.9137 42.2531 22.9137 42.7481 22.6308C43.1725 22.4186 43.3846 22.065 43.5261 21.6407Z" fill="#CE9B78"/>
<path d="M38.3635 14.9927C36.7369 14.9927 36.7369 17.5386 38.3635 17.5386C39.9901 17.4679 39.9901 14.9927 38.3635 14.9927Z" fill="#CE9B78"/>
<path d="M34.1202 13.9318C35.0396 13.9318 35.8882 13.1539 35.8882 12.1638C35.8175 11.2444 35.1103 10.3958 34.1202 10.3958C33.2008 10.3958 32.3522 11.1737 32.3522 12.1638C32.4229 13.1539 33.1301 13.9318 34.1202 13.9318Z" fill="#CE9B78"/>
<path d="M16.0861 28.8543C15.4496 28.3593 14.7424 28.0764 13.8937 28.2886C13.1865 28.5007 12.4793 29.1372 12.3379 29.8444C12.055 30.976 12.1964 32.0368 12.7622 33.0269C13.0451 33.5219 13.4694 34.017 14.0352 34.3706C15.1667 35.4314 17.0055 35.7143 18.0663 34.3706C19.41 32.5318 17.5712 30.0566 16.0861 28.8543Z" fill="#CE9B78"/>
<path d="M18.9858 43.4228C18.5614 42.857 17.7835 42.5034 17.147 42.5034C16.3691 42.5034 15.6619 42.9277 15.2375 43.5642C14.8132 44.2007 14.8132 45.0494 15.0961 45.7566C15.4497 46.6053 16.2983 47.1003 17.2177 47.1003C17.2884 47.1003 17.4299 47.1003 17.5006 47.1003C18.0664 47.3832 18.6321 47.4539 19.2686 47.1003C20.2587 46.5345 20.4002 45.2615 19.8344 44.3422C19.693 43.9886 19.3394 43.7057 18.9858 43.4228Z" fill="#CE9B78"/>
<path d="M9.08488 12.3054C9.29705 12.0932 9.43849 11.881 9.50921 11.5982C9.57993 11.386 9.57993 11.1031 9.43849 10.8909C9.22633 10.5373 8.87272 10.4666 8.51911 10.5373C8.23623 10.6081 7.95334 10.6788 7.74118 10.9617C7.38757 11.3153 7.31685 11.9518 7.74118 12.3054C7.8119 12.3761 7.95334 12.4468 8.02406 12.5175C8.1655 12.7297 8.44839 12.8004 8.73128 12.659C8.802 12.5883 8.802 12.5883 8.87272 12.5175C8.87272 12.4468 8.94344 12.3761 9.08488 12.3054Z" fill="#CE9B78"/>
<path d="M3.28558 17.6097C3.35631 18.034 3.56847 18.3169 3.85135 18.529C3.9928 18.5997 4.06352 18.7412 4.20496 18.8119C5.26578 19.4484 6.46805 18.8826 7.17526 17.9633C7.3167 17.7511 7.45814 17.5389 7.52887 17.3268C7.88247 16.8317 8.09464 16.3367 7.95319 15.7709C7.81175 14.5686 6.46805 14.0029 5.40723 14.4272C4.62929 14.7101 3.9928 15.2759 3.56847 15.9831C3.21486 16.4781 3.14414 17.0439 3.28558 17.6097Z" fill="#CE9B78"/>
<path d="M9.93356 17.3268C11.2773 17.3268 11.2773 15.2759 9.93356 15.2759C8.58985 15.2759 8.58985 17.3268 9.93356 17.3268Z" fill="#CE9B78"/>
<path d="M12.4088 25.8133C12.7624 26.4497 13.3282 26.8741 14.0354 27.0155C14.6719 27.157 15.2376 27.0862 15.8034 26.8034C16.157 26.5912 16.5106 26.2376 16.7228 25.884C17.0764 25.2475 17.2179 24.5403 17.0057 23.7623C16.7935 23.0551 16.2277 22.4186 15.5205 22.1357C14.884 21.8529 14.1768 21.8529 13.4696 22.1357C12.7624 22.4186 12.3381 23.1258 12.2674 23.8331C12.0552 24.4695 12.0552 25.1768 12.4088 25.8133Z" fill="#CE9B78"/>
<path d="M16.5105 27.8641C16.5105 28.5713 17.0763 29.137 17.7835 29.137C18.42 29.137 19.0565 28.5713 19.0565 27.8641C19.0565 27.1568 18.4907 26.5911 17.7835 26.5911C17.0763 26.6618 16.4398 27.2276 16.5105 27.8641Z" fill="#CE9B78"/>
<path d="M19.5516 31.4711C20.6831 31.4711 20.7539 29.6323 19.5516 29.6323C18.3493 29.6323 18.3493 31.4711 19.5516 31.4711Z" fill="#CE9B78"/>
<path d="M5.33648 28.43C5.83153 27.5106 5.61936 26.3084 4.91215 25.6011C4.48782 25.1768 3.85133 25.0354 3.21484 25.1768C2.4369 25.4597 2.08329 26.0962 2.01257 26.8741C2.01257 27.2277 2.0833 27.5106 2.29546 27.7228C2.29546 27.8642 2.29546 27.9349 2.36618 28.0764C2.71979 29.4908 4.69999 29.6323 5.33648 28.43Z" fill="#CE9B78"/>
<path d="M11.3479 28.8542C12.7624 28.8542 12.7624 26.6619 11.3479 26.6619C9.9335 26.7326 9.9335 28.8542 11.3479 28.8542Z" fill="#CE9B78"/>
<path d="M7.59971 35.7851C7.03394 35.5022 6.32673 35.5022 5.76096 35.8558C5.47807 36.068 5.2659 36.3509 5.19518 36.6338C5.05374 36.9167 4.98302 37.2703 5.12446 37.5532C5.2659 37.9775 5.47807 38.4018 5.9024 38.614C6.11456 38.7554 6.39745 38.8261 6.60961 38.8969C6.96322 38.9676 7.2461 38.9676 7.59971 38.8261C7.8826 38.6847 8.16548 38.4725 8.30692 38.1896C8.51909 37.7653 8.66053 37.2703 8.44837 36.7752C8.30692 36.4216 8.02404 36.068 7.59971 35.7851Z" fill="#CE9B78"/>
<path d="M47.6281 30.1977C48.3353 30.1977 48.3353 29.0662 47.6281 29.0662C46.9209 29.1369 46.9209 30.1977 47.6281 30.1977Z" fill="#CE9B78"/>
<path d="M46.9915 19.6606C49.8204 19.6606 49.8204 15.2759 46.9915 15.2759C44.1627 15.2759 44.1627 19.6606 46.9915 19.6606Z" fill="#CE9B78"/>
<path d="M47.4157 21.4286C47.4157 22.0651 47.9107 22.6308 48.6179 22.6308C49.2544 22.6308 49.8202 22.0651 49.8202 21.4286C49.8202 20.7921 49.3251 20.2263 48.6179 20.2263C47.9814 20.2263 47.345 20.7921 47.4157 21.4286Z" fill="#CE9B78"/>
<path d="M44.9405 15.2759C46.3549 15.2759 46.3549 13.0835 44.9405 13.0835C43.5968 13.0835 43.5968 15.2759 44.9405 15.2759Z" fill="#CE9B78"/>
<path d="M33.6958 16.195C33.6958 16.1243 33.6958 16.1243 33.625 16.0535C33.625 16.0535 33.625 16.0536 33.625 15.9828C33.5543 15.9121 33.5543 15.8414 33.4129 15.7707C33.13 15.4878 32.8471 15.4171 32.4935 15.4171C32.0692 15.3463 31.6448 15.6999 31.362 16.0535C31.1498 16.4072 31.1498 16.8315 31.2205 17.2558C31.362 18.0338 32.2813 18.3874 32.9886 18.1045C33.3422 17.963 33.5543 17.7509 33.6958 17.3973C33.7665 17.2558 33.7665 17.1851 33.7665 17.0437C33.9079 16.8315 33.8372 16.4779 33.6958 16.195Z" fill="#CE9B78"/>
<path d="M34.3324 35.3608C33.5544 35.3608 33.5544 36.5631 34.3324 36.5631C35.181 36.6338 35.181 35.3608 34.3324 35.3608Z" fill="#CE9B78"/>
<path d="M43.2431 31.8953C42.4652 31.8953 42.4652 33.0975 43.2431 33.0975C44.0211 33.0975 44.0211 31.8953 43.2431 31.8953Z" fill="#CE9B78"/>
<path d="M39.99 25.1768C38.3634 25.1768 38.3634 27.7227 39.99 27.7227C41.6166 27.7227 41.6166 25.1768 39.99 25.1768Z" fill="#CE9B78"/>
<path d="M39.2829 25.1768C40.1315 25.1768 40.1315 23.9038 39.2829 23.9038C38.4342 23.8331 38.4342 25.1768 39.2829 25.1768Z" fill="#CE9B78"/>
<path d="M35.393 26.9448C34.6857 26.9448 34.6857 28.0764 35.393 28.0764C36.1709 28.0764 36.1709 26.9448 35.393 26.9448Z" fill="#CE9B78"/>
<path d="M49.9616 27.2985C49.8909 27.1571 49.8909 27.0864 49.8201 26.9449C49.3958 26.3791 48.5472 26.3084 48.0521 26.8035C47.6985 27.1571 47.6278 27.6521 47.7692 28.0764C47.7692 28.1472 47.8399 28.2179 47.9107 28.3593C47.9814 28.4301 48.0521 28.5715 48.1228 28.6422C48.2643 28.7837 48.4764 28.9251 48.6886 28.9958C49.3251 29.1373 50.0323 28.7129 50.103 28.0764C50.1738 27.7936 50.103 27.5107 49.9616 27.2985Z" fill="#CE9B78"/>
<path d="M46.2842 30.1271C46.7793 29.4907 46.85 28.642 46.4964 28.0055C46.0721 27.2983 45.2941 26.9447 44.4455 27.1569C44.304 27.2276 44.0919 27.2983 43.9504 27.369C43.7383 27.4397 43.5261 27.5812 43.3847 27.7226C42.6067 28.5713 42.8189 29.9857 43.809 30.5515C44.6576 31.0465 45.6477 30.9051 46.2842 30.1271Z" fill="#CE9B78"/>
<path d="M47.2036 32.2489C46.7793 32.1782 46.4257 32.2489 46.0721 32.3904C45.8599 32.5318 45.6478 32.6733 45.5063 32.9561C45.2942 33.239 45.2234 33.5219 45.1527 33.8755C45.082 34.2999 45.3649 34.8656 45.6478 35.1485C46.0014 35.5021 46.4257 35.6436 46.9207 35.5728C47.4158 35.5021 47.7694 35.29 48.0523 34.8656C48.2645 34.5827 48.3352 34.2291 48.3352 33.8755C48.3352 33.5219 48.2645 33.239 48.0523 32.8854C47.9816 32.6733 47.4865 32.3197 47.2036 32.2489Z" fill="#CE9B78"/>
</g>
<g opacity="0.23">
<mask id="mask0_74_56358" style="mask-type:luminance" maskUnits="userSpaceOnUse" x="1" y="0" width="50" height="50">
<path d="M25.9872 49.9292C39.7748 49.9292 50.9519 38.7838 50.9519 25.0353C50.9519 11.2868 39.7748 0.141357 25.9872 0.141357C12.1996 0.141357 1.02258 11.2868 1.02258 25.0353C1.02258 38.7838 12.1996 49.9292 25.9872 49.9292Z" fill="white"/>
</mask>
<g mask="url(#mask0_74_56358)">
<path d="M20.8952 45.9688C20.8245 46.1102 20.8245 46.2517 20.7537 46.3931C20.683 46.3224 20.6123 46.1809 20.4709 46.1102C19.8344 45.5445 18.9857 45.1201 18.1371 45.1201C17.9249 45.1201 17.7127 45.1201 17.5006 45.1909C17.4298 44.8372 17.2177 44.4836 16.7226 44.4836C15.9447 44.4836 15.7325 45.403 16.0861 45.8981C16.0154 45.9688 15.874 46.0395 15.8032 46.181C15.3789 46.6053 15.096 47.1003 14.9546 47.6661C14.8132 48.2319 14.8132 48.8684 14.9546 49.4341V49.5049C15.096 49.7877 15.1668 49.9999 15.3082 50.2828C15.5204 50.6364 15.8032 50.99 16.1569 51.2022C16.369 51.4143 16.5812 51.5558 16.8641 51.6265C17.2884 51.8387 17.7127 51.9094 18.1371 51.9094C18.7028 51.9094 19.2686 51.6972 19.8344 51.4851C20.188 51.2729 20.5416 50.99 20.7537 50.6364C21.0366 50.2828 21.2488 49.9292 21.3195 49.5049V49.4341C21.461 48.9391 21.461 48.5148 21.3902 48.0197C21.461 48.0197 21.461 48.0904 21.5317 48.0904C21.8853 48.2319 22.2389 48.2319 22.5925 48.0904C22.9461 48.0197 23.229 47.8075 23.4412 47.4539C23.724 46.8882 23.6533 46.1809 23.1583 45.7566C22.5925 44.9787 21.3195 45.1201 20.8952 45.9688Z" fill="#C87E56"/>
<path d="M8.30683 20.1556C7.95322 20.0849 7.59961 20.0849 7.31673 20.1556C6.53879 20.3677 6.11447 21.075 6.11447 21.7822C6.04374 21.9943 5.97302 22.2772 5.97302 22.4894C5.97302 23.338 6.46807 24.116 7.31673 24.3281C8.09466 24.5403 8.80188 24.3281 9.29693 23.6916C9.65053 23.2673 9.72126 22.7723 9.65053 22.2065C9.65053 21.6407 9.57981 21.075 9.15548 20.6506C9.08476 20.5799 8.94332 20.5092 8.8726 20.4385C9.15548 20.6506 9.15548 20.6506 8.94332 20.5092C8.66043 20.297 8.51899 20.2263 8.30683 20.1556Z" fill="#C87E56"/>
<path d="M17.43 6.15287C17.925 6.15287 18.3494 5.72855 18.3494 5.30422C18.3494 4.80917 17.9958 4.45557 17.43 4.45557C16.935 4.45557 16.5106 4.87989 16.5106 5.30422C16.5106 5.72855 16.935 6.15287 17.43 6.15287Z" fill="#C87E56"/>
<path d="M13.5403 9.6889C13.611 9.75962 13.7524 9.75963 13.8939 9.83035C14.4596 9.97179 15.0961 9.75963 15.5205 9.40602C16.0862 8.98169 16.5105 8.48664 16.5105 7.77943C16.5105 6.86005 15.7326 6.15283 14.884 6.15283C14.5304 6.15283 14.1767 6.22356 13.8939 6.365C13.6817 6.43572 13.4695 6.57717 13.3281 6.78933C13.1866 6.86005 13.0452 7.00149 12.9038 7.14294C12.4794 7.56727 12.338 8.13303 12.4794 8.69881C12.6209 9.12313 13.0452 9.54746 13.5403 9.6889Z" fill="#C87E56"/>
<path d="M17.2886 7.07201C17.2178 7.42562 17.2886 7.77923 17.6422 8.06212C18.0665 8.41573 18.703 8.27428 18.9859 7.77923C19.2688 7.3549 19.0566 6.78913 18.6323 6.50624C18.2079 6.22336 17.43 6.50624 17.2886 7.07201Z" fill="#C87E56"/>
<path d="M33.4836 8.20366C34.1908 8.41583 34.8981 8.3451 35.5345 7.9915C36.171 7.63789 36.5954 6.85996 36.5246 6.08202C36.5246 5.37481 36.2418 4.73832 35.676 4.17255C35.1809 3.60678 34.4737 3.18244 33.6958 2.97028C33.4129 2.89956 33.0593 2.89956 32.7764 2.97028C31.0791 3.11172 29.8768 4.87976 30.8669 6.43563C31.4327 7.42573 32.4935 7.92078 33.4836 8.20366Z" fill="#C87E56"/>
<path d="M39.7778 9.19366C39.99 9.33511 40.2729 9.47655 40.485 9.54727C41.0508 9.68871 41.5459 9.54727 42.0409 9.19366C42.3945 8.91078 42.536 8.34501 42.3945 7.92068C42.3945 7.77923 42.3238 7.70851 42.2531 7.56707C42.1116 7.28418 41.8995 7.14275 41.6873 7.00131C41.6166 6.93059 41.5459 6.78914 41.4044 6.71842C41.263 6.57697 41.1215 6.50625 40.9801 6.36481H40.9094C40.9094 6.36481 40.8386 6.29409 40.7679 6.29409C40.6972 6.22337 40.6265 6.22336 40.6265 6.15264C40.0607 5.79904 39.3535 6.0112 39.0706 6.50625C38.7877 6.78914 38.5756 7.35491 38.7877 7.77924C38.9292 8.34501 39.2828 8.84006 39.7778 9.19366Z" fill="#C87E56"/>
<path d="M38.9999 10.9618C39.2828 11.2447 39.7071 11.174 39.9193 10.8204C40.1314 10.5375 39.9193 10.0425 39.5657 9.97175C39.4949 9.97175 39.4242 9.90103 39.3535 9.90103C38.8585 9.75959 38.5048 10.3961 38.8584 10.7497C38.8584 10.8911 38.9292 10.9618 38.9999 10.9618Z" fill="#C87E56"/>
<path d="M45.8599 29.0665C46.4964 28.7837 46.9207 28.0764 47.1329 27.44C47.345 26.9449 47.345 26.2377 47.1329 25.7426C46.85 24.894 46.1428 24.1868 45.2234 24.1868C44.4455 24.1868 43.6675 24.6111 43.3139 25.3183C43.1725 25.7426 43.031 26.0962 43.1017 26.5206C43.031 27.0156 43.031 27.44 43.1017 27.935C43.2432 28.5008 43.6675 28.9251 44.1626 29.1373C44.7991 29.4201 45.2941 29.2787 45.8599 29.0665Z" fill="#C87E56"/>
<path d="M36.5953 19.4481C36.3832 20.3675 36.5953 21.2869 37.444 21.7819C38.4341 22.3477 39.7778 21.7819 39.99 20.6504C40.0607 20.5089 40.0607 20.2968 40.0607 20.1553C40.0607 20.0139 40.1314 19.9432 40.1314 19.8017C40.3436 19.4481 40.3436 18.8823 40.1314 18.5995C39.7778 18.1044 39.2827 17.7508 38.5755 17.8215C38.2926 17.8922 38.0097 17.963 37.7976 18.1751C37.2318 18.458 36.7368 18.8116 36.5953 19.4481Z" fill="#C87E56"/>
<path d="M39.7778 13.4373C38.4341 13.4373 38.4341 15.4882 39.7778 15.4882C41.1215 15.4882 41.1215 13.4373 39.7778 13.4373Z" fill="#C87E56"/>
<path d="M13.7524 31.2588C13.2573 31.0466 12.6915 30.8345 12.1965 30.8345C11.3478 30.9052 10.5699 31.4002 10.3577 32.2489C10.2163 32.8854 10.4285 33.5926 10.9942 33.9462C11.065 34.1584 11.2064 34.3705 11.3478 34.512C12.3379 35.4314 14.0353 35.5021 14.8132 34.2998C15.4497 33.239 14.8839 31.8246 13.7524 31.2588Z" fill="#C87E56"/>
<path d="M10.004 32.8148C9.93326 32.6026 9.86254 32.4612 9.7211 32.3198C9.7211 32.3198 9.7211 32.249 9.65038 32.249C9.65038 32.249 9.65037 32.249 9.57965 32.1783C9.36749 31.9661 9.0846 31.8247 8.80172 31.8247C8.51883 31.8247 8.37739 31.8954 8.0945 32.0369C7.52873 32.3198 7.45801 32.9563 7.52873 33.4513C7.52873 33.522 7.52873 33.522 7.52873 33.5927C7.7409 34.1585 8.23595 34.5828 8.87244 34.5121C9.50893 34.4414 9.93326 33.9464 9.93326 33.3099C9.86254 33.5927 9.86254 33.5927 9.93326 33.3806C10.004 33.1684 10.004 32.9563 10.004 32.8148Z" fill="#C87E56"/>
<path d="M5.19502 34.9362C5.54863 34.7948 5.83152 34.5119 5.97296 34.0876C6.1144 33.7339 6.1144 33.3096 6.04368 32.956C5.97296 32.6024 5.76079 32.2488 5.54863 31.9659C5.33647 31.7537 4.91214 31.6123 4.62925 31.6123C4.34637 31.6123 3.92204 31.7537 3.70988 31.9659C3.49771 32.1781 3.35627 32.5317 3.35627 32.8853V32.956C3.28555 33.3096 3.28555 33.6632 3.42699 34.0168C3.56843 34.3704 3.85132 34.6533 4.1342 34.8655C4.41709 35.1484 4.84142 35.0777 5.19502 34.9362Z" fill="#C87E56"/>
<path d="M21.8853 38.4725C21.956 38.4725 22.0267 38.5432 22.0975 38.5432C23.0875 38.8261 24.0069 38.1189 24.0069 37.0581C24.0069 36.3509 23.6533 35.7144 23.229 35.1486C22.8754 34.7243 22.4511 34.2999 22.0975 33.9463C21.1781 33.027 19.6929 33.5927 19.3393 34.795C19.1272 35.5729 19.41 36.4216 19.7636 37.1288C20.188 37.7653 21.0366 38.5432 21.8853 38.4725Z" fill="#C87E56"/>
<path d="M24.5727 35.7144C25.0677 35.8558 25.492 35.4315 25.4213 34.8658C25.3506 34.5829 25.2092 34.3707 24.9263 34.2293C24.2898 33.8757 23.5826 34.5829 23.9362 35.2194C24.0776 35.5022 24.2898 35.6437 24.5727 35.7144Z" fill="#C87E56"/>
<path d="M25.6335 35.6436C24.4312 35.6436 24.4312 37.553 25.6335 37.553C26.8358 37.553 26.8358 35.6436 25.6335 35.6436Z" fill="#C87E56"/>
<path d="M44.7991 37.7654C43.5969 36.846 42.041 38.2604 41.4752 39.2505C41.3338 39.4627 41.3338 39.6748 41.2631 39.9577C40.8387 40.5235 40.768 41.2307 41.3338 41.7965C42.7482 43.2109 44.587 40.4528 45.2234 39.3919C45.5771 38.8262 45.3649 38.1897 44.7991 37.7654Z" fill="#C87E56"/>
<path d="M25.6336 5.09204C26.6237 5.09204 26.6944 3.53618 25.6336 3.53618C24.5728 3.46546 24.5728 5.09204 25.6336 5.09204Z" fill="#C87E56"/>
<path d="M26.1287 6.36474C26.6944 6.36474 26.6944 5.51609 26.1287 5.51609C25.5629 5.44537 25.5629 6.36474 26.1287 6.36474Z" fill="#C87E56"/>
<path d="M27.3308 5.51631C28.1795 5.51631 28.1795 4.17261 27.3308 4.17261C26.4822 4.17261 26.4822 5.51631 27.3308 5.51631Z" fill="#C87E56"/>
<path d="M24.7849 46.8175C24.502 46.7468 24.2898 46.8175 24.1484 47.0297C23.9362 47.3126 24.0069 47.7369 24.2898 47.8784C24.5727 48.0198 24.9263 47.9491 25.1385 47.6662C25.3507 47.3833 25.2092 46.8883 24.7849 46.8175Z" fill="#C87E56"/>
<path d="M24.5727 44.7668C24.0777 44.7668 23.6533 45.1912 23.6533 45.6155C23.6533 46.1105 24.0069 46.4642 24.5727 46.4642C25.0677 46.4642 25.4921 46.0398 25.4921 45.6155C25.4214 45.1205 25.0677 44.7668 24.5727 44.7668Z" fill="#C87E56"/>
<path d="M26.8358 46.9589C26.8358 46.676 26.5529 46.3932 26.1993 46.4639H26.1285C25.7042 46.6053 25.7042 47.2418 26.1285 47.3833H26.1993C26.4822 47.5247 26.8358 47.2418 26.8358 46.9589Z" fill="#C87E56"/>
<path d="M3.21495 22.5601C3.99288 23.4088 5.26587 22.7723 5.47803 21.7822C5.54875 21.57 5.54875 21.3579 5.54875 21.1457C5.54875 21.075 5.54875 20.9335 5.54875 20.8628C5.54875 20.7921 5.47803 20.4385 5.54875 20.5799C5.54875 20.2263 5.47803 20.0142 5.19514 19.7313C4.98298 19.5191 4.62938 19.3777 4.34649 19.3777C3.78072 19.3777 3.28567 19.7313 3.00278 20.1556C2.7199 20.6507 2.7199 21.1457 2.86134 21.6408C2.86134 21.9237 2.93206 22.2773 3.21495 22.5601Z" fill="#C87E56"/>
<path d="M6.46811 17.3976C6.32667 17.3976 6.18523 17.4683 6.11451 17.539C5.97306 17.6097 5.83162 17.7512 5.69018 17.8926C5.54873 18.2462 5.47801 18.5291 5.61946 18.8827C5.7609 19.2363 6.04379 19.3778 6.32667 19.5192C6.68028 19.6606 7.03388 19.5192 7.24605 19.2363C7.31677 19.1656 7.38749 19.0949 7.45821 19.0949C7.81182 18.812 7.88254 18.1755 7.59965 17.8219C7.45821 17.4683 6.96316 17.3268 6.46811 17.3976Z" fill="#C87E56"/>
<path d="M5.12441 16.2659C4.27575 16.2659 4.27575 17.5389 5.12441 17.5389C5.90234 17.6096 5.90234 16.2659 5.12441 16.2659Z" fill="#C87E56"/>
<path d="M37.6563 24.3281C36.6662 24.3281 36.6662 25.884 37.6563 25.884C38.6464 25.884 38.6464 24.3281 37.6563 24.3281Z" fill="#C87E56"/>
<path d="M43.3139 16.2659C42.1117 16.2659 42.1117 18.1046 43.3139 18.1046C44.5162 18.1046 44.5162 16.2659 43.3139 16.2659Z" fill="#C87E56"/>
<path d="M43.4553 15.6293C46.5671 15.6293 46.5671 10.7495 43.4553 10.7495C40.2729 10.7495 40.2729 15.6293 43.4553 15.6293Z" fill="#C87E56"/>
<path d="M36.5953 11.8105C35.676 12.1641 35.7467 13.7907 36.9489 13.7907C38.2219 13.7907 38.2219 11.8813 37.0904 11.7398C38.2219 11.3862 38.0805 9.40601 36.7368 9.40601C35.1809 9.47673 35.1102 11.7398 36.5953 11.8105Z" fill="#C87E56"/>
<path d="M41.263 34.7244C45.1526 34.7244 45.1526 28.6423 41.263 28.6423C37.3733 28.6423 37.3733 34.7244 41.263 34.7244Z" fill="#C87E56"/>
<path d="M39.5656 36.2095C38.8584 36.2095 38.5048 36.6338 38.2926 37.1289C38.0805 36.9167 37.7976 36.7752 37.3733 36.7752C35.6052 36.7752 35.6052 39.5334 37.3733 39.5334C38.0805 39.5334 38.5048 39.1091 38.6463 38.614C38.8584 38.8262 39.1413 38.8969 39.4949 38.8969C41.3337 38.9676 41.3337 36.2095 39.5656 36.2095Z" fill="#C87E56"/>
<path d="M45.577 34.3C43.3846 34.3 43.3846 37.7654 45.577 37.7654C47.7694 37.7654 47.7694 34.3 45.577 34.3Z" fill="#C87E56"/>
<path d="M50.7397 26.5205C48.123 26.5205 48.123 30.6223 50.7397 30.6223C53.3564 30.6223 53.3564 26.5205 50.7397 26.5205Z" fill="#C87E56"/>
<path d="M47.9817 30.5518C45.7893 30.5518 45.7893 33.9464 47.9817 33.9464C50.174 33.9464 50.174 30.5518 47.9817 30.5518Z" fill="#C87E56"/>
<path d="M30.4427 46.0396C30.0183 46.0396 29.594 46.1103 29.1697 46.2518C29.8769 45.686 29.8062 44.2716 28.8161 43.9887C29.3818 43.8472 29.8769 43.2815 29.8769 42.645C29.8769 41.9378 29.2404 41.3013 28.5332 41.3013C27.826 41.3013 27.1187 41.9378 27.1895 42.645C27.1895 43.2815 27.6138 43.7765 28.1796 43.918C26.9066 44.2716 26.9773 46.4639 28.5332 46.4639C28.6039 46.4639 28.6746 46.4639 28.8161 46.4639C28.4625 46.6054 28.1796 46.8883 27.8967 47.1004C27.5431 47.454 27.2602 47.8784 27.1187 48.3027C26.9066 48.727 26.7651 49.2221 26.7651 49.7878C26.8359 50.7779 27.1187 51.768 27.8967 52.4752C28.6746 53.1825 29.594 53.6068 30.5841 53.6068C31.5742 53.6068 32.5643 53.1825 33.2715 52.4752C33.6251 52.1216 33.908 51.6973 34.0494 51.273C34.2616 50.8486 34.403 50.3536 34.403 49.7878C34.3323 48.7977 34.0494 47.8076 33.2715 47.1004C32.4228 46.4639 31.5035 46.0396 30.4427 46.0396Z" fill="#C87E56"/>
<path d="M10.4993 40.1698C10.4286 40.1698 10.4286 40.1698 10.3578 40.1698C10.8529 39.6748 11.2065 38.9675 11.1358 38.331C11.1358 37.6238 10.8529 36.9873 10.3578 36.4923C9.86278 35.9972 9.22629 35.7144 8.51908 35.7144C7.88258 35.7144 7.17537 35.9972 6.68032 36.4923C6.25599 36.9166 5.90238 37.6946 5.90238 38.331C5.90238 38.4018 5.90238 38.4018 5.90238 38.4725C3.92219 38.4725 3.92219 41.5842 5.90238 41.5842C6.6096 41.5842 7.10465 41.1599 7.31681 40.6649C7.5997 40.8063 7.81186 40.877 8.09475 40.9477C5.26589 42.9279 6.04383 48.5149 10.4286 48.5149C15.8741 48.5149 15.8741 40.1698 10.4993 40.1698Z" fill="#C87E56"/>
<path d="M3.78066 30.9053C3.92211 31.1882 4.20499 31.4711 4.70004 31.4711C6.04375 31.4711 6.04375 29.3494 4.70004 29.3494C4.70004 29.3494 4.70004 29.3494 4.62932 29.3494C4.77076 28.9958 4.77076 28.6422 4.77076 28.2886C4.77076 28.1472 4.77076 28.0764 4.77076 27.935C4.98293 28.1472 5.26581 28.3593 5.69014 28.3593C7.24601 28.3593 7.24601 25.9548 5.69014 25.9548C5.05365 25.9548 4.62932 26.3791 4.5586 26.8742C4.34644 26.3791 4.06355 25.8841 3.70994 25.5305C2.93201 24.8233 2.01263 24.3989 0.951808 24.3989C-0.0382905 24.3989 -1.09911 24.8233 -1.80632 25.5305C-2.15993 25.8841 -2.44282 26.3084 -2.58426 26.8035C-2.79642 27.2985 -2.93787 27.7936 -2.93787 28.2886C-2.86714 29.2787 -2.58426 30.3395 -1.80632 31.0467C-1.02839 31.754 -0.109012 32.1783 0.951808 32.1783C1.94191 32.1783 3.00273 31.754 3.70994 31.0467C3.63922 30.976 3.70994 30.976 3.78066 30.9053Z" fill="#C87E56"/>
<path d="M9.50916 29.4908C9.50916 28.7129 8.87267 28.0764 8.09473 28.0764C7.3168 28.0764 6.60958 28.7129 6.68031 29.4908C6.68031 30.2688 7.3168 30.9053 8.09473 30.9053C8.80195 30.9053 9.50916 30.2688 9.50916 29.4908Z" fill="#C87E56"/>
<path d="M4.55862 35.9971C3.42708 35.9971 3.42708 37.7651 4.55862 37.7651C5.69016 37.7651 5.69016 35.9971 4.55862 35.9971Z" fill="#C87E56"/>
<path d="M1.16392 22.7014C1.58825 22.7014 1.94186 22.3478 1.94186 21.9234C1.94186 21.4991 1.58825 21.1455 1.16392 21.1455C0.739595 21.1455 0.385986 21.4991 0.385986 21.9234C0.456708 22.3478 0.739595 22.7014 1.16392 22.7014Z" fill="#C87E56"/>
<path d="M10.0041 20.2972C10.7821 20.7215 11.7015 20.5801 12.3379 20.0143C12.3379 20.0143 12.3379 20.0143 12.4087 20.0143C12.7623 19.7314 12.9744 19.0949 12.9744 18.6706C12.9744 18.1756 12.7623 17.6805 12.4087 17.3269C12.4087 17.3269 12.4087 17.3269 12.3379 17.3269C11.7722 16.8319 10.9942 16.6197 10.2163 16.9026C9.50909 17.1855 9.01404 17.8927 9.01404 18.6706C9.08476 19.3071 9.43837 19.9436 10.0041 20.2972Z" fill="#C87E56"/>
<path d="M5.40732 14.7101C6.32669 14.7101 7.17535 13.9322 7.17535 12.9421C7.10463 12.0227 6.39742 11.1741 5.40732 11.1741C4.48794 11.1741 3.63928 11.952 3.63928 12.9421C3.71 13.9322 4.48794 14.7101 5.40732 14.7101Z" fill="#C87E56"/>
<path d="M47.9815 18.1755C46.7793 18.7413 46.2135 19.8729 46.1428 21.1459C45.9306 21.0044 45.7185 20.9337 45.4356 20.9337C43.7383 20.9337 43.7383 23.5504 45.4356 23.5504C45.9306 23.5504 46.355 23.2675 46.4964 22.9139C46.9915 23.904 47.9108 24.6112 49.3253 24.6112C53.0735 24.6112 53.5685 19.4485 50.7397 18.1755C52.7906 16.9026 52.3663 13.0129 49.3253 13.0129C46.4257 12.9422 45.9306 16.9026 47.9815 18.1755Z" fill="#C87E56"/>
<path d="M47.133 12.4467C48.1231 12.4467 48.1938 10.8909 47.133 10.8909C46.0722 10.8909 46.0722 12.4467 47.133 12.4467Z" fill="#C87E56"/>
<path d="M39.3536 25.3181C39.4244 26.3082 40.1316 27.0861 41.1217 27.0861C42.041 27.0861 42.9604 26.3082 42.8897 25.3181C42.819 24.328 42.1118 23.55 41.1217 23.55C40.2023 23.6208 39.3536 24.3987 39.3536 25.3181Z" fill="#C87E56"/>
<path d="M24.5019 44.6957C27.8965 44.6957 27.8965 39.4624 24.5019 39.4624C21.1073 39.3916 21.1073 44.6957 24.5019 44.6957Z" fill="#C87E56"/>
<path d="M31.8572 45.0494C33.9081 45.0494 33.9081 41.9377 31.8572 41.9377C29.8062 41.867 29.8062 45.0494 31.8572 45.0494Z" fill="#C87E56"/>
<path d="M36.1711 44.2007C34.1909 44.2007 34.1909 47.3124 36.1711 47.3124C38.222 47.2417 38.222 44.2007 36.1711 44.2007Z" fill="#C87E56"/>
<path d="M17.0763 38.3308C14.1767 38.3308 14.1767 42.7863 17.0763 42.7863C19.9759 42.7863 19.9759 38.3308 17.0763 38.3308Z" fill="#C87E56"/>
<path d="M34.1202 29.8445C33.4837 29.8445 32.7765 30.1274 32.3522 30.6224C31.9278 31.0467 31.5742 31.754 31.5742 32.3905C31.5742 33.0269 31.7864 33.7342 32.3522 34.1585C32.8472 34.5828 33.4837 34.9364 34.1202 34.9364C34.7567 34.9364 35.4639 34.6535 35.8882 34.1585C36.3125 33.7342 36.6662 33.0269 36.6662 32.3905C36.6662 31.754 36.454 31.0467 35.8882 30.6224C35.3932 30.1274 34.8274 29.8445 34.1202 29.8445Z" fill="#C87E56"/>
<path d="M27.1188 37.4116C27.1895 38.331 27.4724 39.2504 28.1089 39.8162C28.7454 40.4527 29.594 40.8063 30.5134 40.8063C31.3621 40.8063 32.2814 40.4527 32.9179 39.8162C33.2715 39.5333 33.4837 39.1089 33.6251 38.6846C33.8373 38.2603 33.908 37.836 33.908 37.3409C33.8373 36.4215 33.5544 35.5022 32.9179 34.9364C32.2814 34.2999 31.4328 33.9463 30.5134 33.9463C29.6647 33.9463 28.7454 34.2999 28.1089 34.9364C27.7553 35.2193 27.5431 35.6436 27.4017 36.0679C27.2602 36.563 27.1188 36.9873 27.1188 37.4116Z" fill="#C87E56"/>
<path d="M34.4737 39.321C32.4935 39.321 32.4935 42.3621 34.4737 42.3621C36.4539 42.3621 36.4539 39.321 34.4737 39.321Z" fill="#C87E56"/>
</g>
</g>
<path opacity="0.6" d="M43.7383 7.56738C45.86 11.2449 47.1329 15.5589 47.1329 20.0851C47.1329 33.8757 35.959 44.979 22.1683 44.979C15.2376 44.979 8.9434 42.1501 4.41724 37.5532C8.73124 44.979 16.7935 49.9295 25.9873 49.9295C39.7779 49.9295 50.9519 38.7555 50.9519 25.0356C50.9519 18.2463 48.1938 12.0228 43.7383 7.56738Z" fill="#DDC3A3"/>
<path opacity="0.25" d="M42.1116 6.01147C43.3138 8.91105 43.9503 12.0935 43.9503 15.4174C43.9503 29.2081 32.7763 40.3113 18.9857 40.3113C12.8329 40.3113 7.17521 38.0483 2.86121 34.3707C6.60944 43.4938 15.5203 49.8587 25.9871 49.8587C39.7778 49.8587 50.9517 38.6847 50.9517 24.9648C50.9517 17.3976 47.4864 10.6084 42.1116 6.01147Z" fill="#DDC3A3"/>
<path opacity="0.27" d="M46.9207 11.4568C42.4653 4.66752 34.8274 0.212079 26.1287 0.141357C26.0579 0.141357 26.0579 0.141357 25.9872 0.141357C25.6336 0.141357 25.2093 0.141357 24.8557 0.141357C24.785 0.141357 24.6435 0.141357 24.5728 0.141357C24.2192 0.141357 23.8656 0.212083 23.512 0.212083H23.4413C23.0876 0.282804 22.734 0.282802 22.3804 0.353524C22.3097 0.353524 22.1683 0.353528 22.0975 0.424249C21.8147 0.494971 21.4611 0.494969 21.1782 0.56569C21.1074 0.56569 21.0367 0.56569 21.0367 0.56569C20.6831 0.636411 20.3295 0.707135 19.9759 0.777856C19.8345 0.777856 19.7637 0.848571 19.6223 0.848571C19.3394 0.919292 19.0565 0.990016 18.7736 1.06074C18.7029 1.06074 18.6322 1.13146 18.5615 1.13146C18.2079 1.20218 17.925 1.34363 17.6421 1.48507C17.5007 1.55579 17.4299 1.55579 17.2885 1.62651C17.0763 1.69723 16.8642 1.76795 16.5813 1.90939C16.4398 1.98011 16.3691 1.98012 16.2277 2.05084C15.9448 2.19229 15.6619 2.33373 15.379 2.40445C15.2376 2.47517 15.0961 2.54588 14.9547 2.61661C14.7425 2.68733 14.6011 2.82878 14.4596 2.8995C14.3182 2.97022 14.1768 3.04094 14.0353 3.11166C13.7524 3.25311 13.5403 3.39454 13.2574 3.53598C13.1159 3.60671 12.9745 3.74816 12.7623 3.81888C12.6209 3.8896 12.4794 3.96031 12.4087 4.03103C12.0551 4.2432 11.7722 4.45536 11.4186 4.73825C11.3479 4.73825 11.3479 4.80897 11.2772 4.80897C11.1357 4.95041 10.9236 5.09186 10.7821 5.2333C10.7114 5.30403 10.6407 5.37474 10.4992 5.44546C9.93347 5.86979 9.3677 6.36484 8.87265 6.85989C8.80193 6.93061 8.80193 6.93062 8.73121 7.00134C8.16544 7.49639 7.67039 8.06215 7.17534 8.62792L7.10462 8.69865C6.60957 9.26442 6.11452 9.90091 5.61947 10.5374C2.7199 14.6392 1.02258 19.5897 1.02258 24.8938C1.02258 30.4808 2.86134 35.6435 5.97308 39.816C3.42711 35.9264 1.94196 31.2588 1.94196 26.2375C1.94196 21.8528 3.0735 17.6803 5.0537 14.1442C7.31678 17.751 11.2772 20.1555 15.8741 20.1555C22.8755 20.1555 28.5332 14.4978 28.5332 7.49639C28.5332 5.2333 27.9674 3.18238 26.9066 1.34363C35.1103 1.48507 42.3239 5.37474 46.9207 11.4568Z" fill="#DDC3A3"/>
<path opacity="0.68" d="M46.3549 10.6084C49.0423 14.5688 50.5981 19.3779 50.5981 24.4698C50.5981 38.2605 39.4242 49.3637 25.6335 49.3637C17.2177 49.3637 9.79191 45.1912 5.26575 38.8262C9.72119 45.474 17.3591 49.8588 25.9871 49.8588C39.7778 49.8588 50.9517 38.6848 50.9517 24.9648C50.9517 19.6607 49.2544 14.7102 46.3549 10.6084Z" fill="#DDC3A3"/>
<path opacity="0.46" d="M1.09326 23.7624C4.77077 28.925 10.7821 32.3197 17.5713 32.3197C28.6746 32.3197 37.7269 23.2673 37.7269 12.1641C37.7269 8.34512 36.6661 4.73833 34.7566 1.62659C31.9985 0.565773 29.0282 0 25.9872 0C12.6208 0.141443 1.72975 10.6082 1.09326 23.7624Z" fill="#DDC3A3"/>
<path opacity="0.68" d="M19.5516 23.0553C25.5275 23.0553 30.3719 18.2108 30.3719 12.2349C30.3719 6.259 25.5275 1.41455 19.5516 1.41455C13.5756 1.41455 8.7312 6.259 8.7312 12.2349C8.7312 18.2108 13.5756 23.0553 19.5516 23.0553Z" fill="url(#paint1_radial_74_56358)"/>
<g opacity="0.42">
<path d="M27.7553 15.2758C29.3111 19.7312 33.5544 19.3069 33.2008 23.8331C32.8472 28.3592 30.7256 33.239 34.9688 34.4413C39.2121 35.6435 43.4554 35.6435 48.0523 32.3196C48.9717 31.6831 49.8203 30.2687 50.7397 28.43C50.8812 27.2984 50.9519 26.1669 50.9519 24.9646C50.9519 13.0834 42.6068 3.11172 31.4328 0.636475C28.6039 5.30408 26.4823 11.8104 27.7553 15.2758Z" fill="url(#paint2_linear_74_56358)"/>
<path d="M27.1187 40.1695C25.28 32.5316 16.1569 30.6221 11.2771 31.6122C7.24602 32.4608 3.92212 29.632 1.09326 26.7324C1.94192 39.7452 12.7623 49.9997 25.9872 49.9997C32.4228 49.9997 38.2927 47.5245 42.7481 43.5641C37.2319 44.5542 28.321 45.4029 27.1187 40.1695Z" fill="url(#paint3_linear_74_56358)"/>
</g>
<path opacity="0.49" d="M48.6888 14.6392C48.7595 17.6095 48.3352 20.5798 47.2744 23.5501C42.6775 36.5628 28.3918 43.352 15.3791 38.7551C8.66053 36.3506 3.63932 31.4708 0.951904 25.4595C1.16407 35.502 7.52899 44.8372 17.5714 48.3733C30.5842 52.9701 44.8699 46.1809 49.4668 33.1682C51.7298 26.874 51.2348 20.2969 48.6888 14.6392Z" fill="url(#paint4_linear_74_56358)"/>
<path opacity="0.49" d="M36.1004 2.12183C38.1514 4.24347 39.7779 6.78943 40.9802 9.68901C46.2136 22.4189 40.2023 36.9875 27.4724 42.2916C20.8953 44.979 13.8232 44.6961 7.81189 42.0087C14.7426 49.293 25.6337 52.0511 35.5347 47.9493C48.2645 42.7159 54.3465 28.0766 49.0424 15.3467C46.4965 9.19396 41.7581 4.59707 36.1004 2.12183Z" fill="url(#paint5_linear_74_56358)"/>
<defs>
<linearGradient id="paint0_linear_74_56358" x1="8.35087" y1="7.40586" x2="43.6222" y2="42.6771" gradientUnits="userSpaceOnUse">
<stop stop-color="#FF0000"/>
<stop offset="1" stop-color="#957635"/>
</linearGradient>
<radialGradient id="paint1_radial_74_56358" cx="0" cy="0" r="1" gradientUnits="userSpaceOnUse" gradientTransform="translate(19.5481 12.2187) scale(10.8101 10.7993)">
<stop stop-color="#ECECEC"/>
<stop offset="0.4693" stop-color="#F1F1F1"/>
<stop offset="1" stop-color="white"/>
</radialGradient>
<linearGradient id="paint2_linear_74_56358" x1="27.3732" y1="17.9776" x2="50.9392" y2="17.9776" gradientUnits="userSpaceOnUse">
<stop stop-color="#FF0000"/>
<stop offset="1" stop-color="#957635"/>
</linearGradient>
<linearGradient id="paint3_linear_74_56358" x1="1.09347" y1="38.3256" x2="42.7372" y2="38.3256" gradientUnits="userSpaceOnUse">
<stop stop-color="#FF0000"/>
<stop offset="1" stop-color="#957635"/>
</linearGradient>
<linearGradient id="paint4_linear_74_56358" x1="23.5812" y1="15.0424" x2="31.7776" y2="49.2303" gradientUnits="userSpaceOnUse">
<stop offset="0.2422" stop-color="white"/>
<stop offset="0.9199" stop-color="white"/>
<stop offset="1" stop-color="white"/>
</linearGradient>
<linearGradient id="paint5_linear_74_56358" x1="17.6699" y1="19.1663" x2="46.6508" y2="39.1162" gradientUnits="userSpaceOnUse">
<stop offset="0.2422" stop-color="white"/>
<stop offset="0.9199" stop-color="white"/>
<stop offset="1" stop-color="white"/>
</linearGradient>
</defs>
</svg>
