<svg width="58" height="58" viewBox="0 0 58 58" fill="none" xmlns="http://www.w3.org/2000/svg">
<mask id="mask0_74_56186" style="mask-type:luminance" maskUnits="userSpaceOnUse" x="6" y="6" width="46" height="46">
<path d="M49.6828 37.3172C54.2763 25.8944 48.74 12.9107 37.3172 8.31721C25.8945 3.72372 12.9107 9.25995 8.31724 20.6827C3.72376 32.1055 9.25999 45.0892 20.6828 49.6827C32.1055 54.2762 45.0893 48.74 49.6828 37.3172Z" fill="white"/>
</mask>
<g mask="url(#mask0_74_56186)">
<path opacity="0.71" d="M43.1643 14.5517C43.2707 15.669 42.5259 16.6799 42.2067 17.7971C42.1003 18.1164 42.047 18.4888 42.2599 18.7548C42.4195 18.9676 42.6855 19.074 42.9515 19.1804C44.4944 19.7125 46.3566 20.2445 46.995 21.7342C47.3143 22.6387 47.2078 23.8092 47.9527 24.3944C48.804 25.0329 50.0276 24.4476 50.7725 23.7028C51.5706 22.9579 52.209 22.0002 52.3154 20.9362C52.4218 19.8721 51.9962 18.8612 51.6238 17.9035C50.2937 14.7645 48.9636 11.5191 46.6226 9.07169C45.0265 7.42237 42.4195 10.7742 41.3554 11.7851C42.1535 12.5831 43.0579 13.4344 43.1643 14.5517Z" fill="#C8C6D3"/>
</g>
<mask id="mask1_74_56186" style="mask-type:luminance" maskUnits="userSpaceOnUse" x="6" y="6" width="46" height="46">
<path d="M49.6828 37.3172C54.2763 25.8944 48.74 12.9107 37.3172 8.31721C25.8945 3.72372 12.9107 9.25995 8.31724 20.6827C3.72376 32.1055 9.25999 45.0892 20.6828 49.6827C32.1055 54.2762 45.0893 48.74 49.6828 37.3172Z" fill="white"/>
</mask>
<g mask="url(#mask1_74_56186)">
<path opacity="0.71" d="M44.0157 25.2459C44.0689 25.2991 44.1221 25.2991 44.1753 25.2991C46.4098 25.4588 45.7714 21.0428 44.2285 20.4576C43.2708 20.0852 42.4727 20.9364 42.526 21.8941C42.5792 23.1178 43.7496 23.9158 43.9625 25.0863C43.9625 25.1395 43.9625 25.1927 44.0157 25.2459Z" fill="#C8C6D3"/>
</g>
<mask id="mask2_74_56186" style="mask-type:luminance" maskUnits="userSpaceOnUse" x="6" y="6" width="46" height="46">
<path d="M49.6828 37.3172C54.2763 25.8944 48.74 12.9107 37.3172 8.31721C25.8945 3.72372 12.9107 9.25995 8.31724 20.6827C3.72376 32.1055 9.25999 45.0892 20.6828 49.6827C32.1055 54.2762 45.0893 48.74 49.6828 37.3172Z" fill="white"/>
</mask>
<g mask="url(#mask2_74_56186)">
<path opacity="0.71" d="M47.2078 30.779C47.4206 30.9918 47.7399 30.9386 48.0591 30.8322C49.0168 30.4598 49.6552 29.4489 49.602 28.3848C49.4956 26.6291 47.2078 25.033 45.8245 26.6291C45.3457 27.2144 45.2393 28.1188 45.7181 28.7041C45.9841 29.0233 46.3565 29.1829 46.6226 29.5553C46.8354 29.8213 46.8886 30.1406 46.995 30.4598C47.1014 30.5662 47.1546 30.6726 47.2078 30.779Z" fill="#C8C6D3"/>
</g>
<mask id="mask3_74_56186" style="mask-type:luminance" maskUnits="userSpaceOnUse" x="6" y="6" width="46" height="46">
<path d="M49.6828 37.3172C54.2763 25.8944 48.74 12.9107 37.3172 8.31721C25.8945 3.72372 12.9107 9.25995 8.31724 20.6827C3.72376 32.1055 9.25999 45.0892 20.6828 49.6827C32.1055 54.2762 45.0893 48.74 49.6828 37.3172Z" fill="white"/>
</mask>
<g mask="url(#mask3_74_56186)">
<path opacity="0.71" d="M43.9092 36.259C44.1752 36.4186 44.5477 36.3654 44.7605 36.5783C44.9201 36.7911 44.8137 37.1635 45.0265 37.3231C45.2393 37.4827 45.5053 37.3231 45.6649 37.1635C46.197 36.6315 46.5162 35.8866 46.5694 35.1418C46.5694 34.9821 46.5694 34.8757 46.5162 34.7693C46.3566 34.3969 45.8778 34.0777 45.8778 34.0777C45.5053 33.8649 45.0797 33.9713 44.7073 34.1841C44.388 34.3969 44.122 34.7693 43.9624 35.1418C43.6432 35.461 43.5368 36.0462 43.9092 36.259Z" fill="#C8C6D3"/>
</g>
<mask id="mask4_74_56186" style="mask-type:luminance" maskUnits="userSpaceOnUse" x="6" y="6" width="46" height="46">
<path d="M49.6828 37.3172C54.2763 25.8944 48.74 12.9107 37.3172 8.31721C25.8945 3.72372 12.9107 9.25995 8.31724 20.6827C3.72376 32.1055 9.25999 45.0892 20.6828 49.6827C32.1055 54.2762 45.0893 48.74 49.6828 37.3172Z" fill="white"/>
</mask>
<g mask="url(#mask4_74_56186)">
<path opacity="0.71" d="M38.5887 34.0776C39.1208 34.2904 39.7592 34.2904 40.2913 34.0244C40.6637 33.8116 40.9829 33.5455 41.4086 33.4391C41.4618 33.4391 41.4618 33.4391 41.515 33.4391C41.9406 33.3859 42.3662 33.5988 42.7387 33.4923C43.2707 33.3327 43.5367 32.6411 43.3239 32.109C42.7919 30.6725 40.6637 30.6725 39.4932 31.1514C38.5887 31.5238 36.9926 33.3327 38.5887 34.0776Z" fill="#C8C6D3"/>
</g>
<mask id="mask5_74_56186" style="mask-type:luminance" maskUnits="userSpaceOnUse" x="6" y="6" width="46" height="46">
<path d="M49.6828 37.3172C54.2763 25.8944 48.74 12.9107 37.3172 8.31721C25.8945 3.72372 12.9107 9.25995 8.31724 20.6827C3.72376 32.1055 9.25999 45.0892 20.6828 49.6827C32.1055 54.2762 45.0893 48.74 49.6828 37.3172Z" fill="white"/>
</mask>
<g mask="url(#mask5_74_56186)">
<path opacity="0.71" d="M41.1427 35.1416C41.0363 35.3013 40.983 35.5141 41.0363 35.7269C41.0895 35.8865 41.1959 35.9929 41.3555 36.0461C41.7811 36.2057 42.3664 35.9397 42.4728 35.5141C42.5792 35.1416 42.3663 34.716 42.0471 34.5564C41.6747 34.6096 41.3555 34.8224 41.1427 35.1416Z" fill="#C8C6D3"/>
</g>
<mask id="mask6_74_56186" style="mask-type:luminance" maskUnits="userSpaceOnUse" x="6" y="6" width="46" height="46">
<path d="M49.6828 37.3172C54.2763 25.8944 48.74 12.9107 37.3172 8.31721C25.8945 3.72372 12.9107 9.25995 8.31724 20.6827C3.72376 32.1055 9.25999 45.0892 20.6828 49.6827C32.1055 54.2762 45.0893 48.74 49.6828 37.3172Z" fill="white"/>
</mask>
<g mask="url(#mask6_74_56186)">
<path opacity="0.71" d="M41.7811 34.45C41.8875 34.45 41.9407 34.5032 41.9939 34.5032C42.0471 34.5032 42.0471 34.5032 42.1003 34.45H41.7811Z" fill="#C8C6D3"/>
</g>
<mask id="mask7_74_56186" style="mask-type:luminance" maskUnits="userSpaceOnUse" x="6" y="6" width="46" height="46">
<path d="M49.6828 37.3172C54.2763 25.8944 48.74 12.9107 37.3172 8.31721C25.8945 3.72372 12.9107 9.25995 8.31724 20.6827C3.72376 32.1055 9.25999 45.0892 20.6828 49.6827C32.1055 54.2762 45.0893 48.74 49.6828 37.3172Z" fill="white"/>
</mask>
<g mask="url(#mask7_74_56186)">
<path opacity="0.71" d="M51.3046 32.5346C50.7725 32.5346 50.2405 32.8007 49.8149 33.0667C49.3892 33.3327 48.9636 33.7583 48.8572 34.2372C48.7508 34.6628 48.8572 35.0884 48.8572 35.5141C48.7508 36.8974 47.1547 37.9614 47.3675 39.3447C47.4739 39.93 47.9527 40.4088 48.3783 40.8344C48.8572 41.2601 49.3892 41.6325 50.0277 41.6857C50.6129 41.7389 51.1982 41.4197 51.6238 40.9941C52.209 40.462 52.5815 39.7172 52.7411 38.9723C52.8475 38.3871 52.7943 37.7486 52.9007 37.1102C53.0071 36.4717 53.2199 35.8333 53.2731 35.1416C53.3795 33.9179 52.6879 32.4814 51.3046 32.5346Z" fill="#C8C6D3"/>
</g>
<mask id="mask8_74_56186" style="mask-type:luminance" maskUnits="userSpaceOnUse" x="6" y="6" width="46" height="46">
<path d="M49.6828 37.3172C54.2763 25.8944 48.74 12.9107 37.3172 8.31721C25.8945 3.72372 12.9107 9.25995 8.31724 20.6827C3.72376 32.1055 9.25999 45.0892 20.6828 49.6827C32.1055 54.2762 45.0893 48.74 49.6828 37.3172Z" fill="white"/>
</mask>
<g mask="url(#mask8_74_56186)">
<path opacity="0.71" d="M44.2817 38.9723C43.3772 38.6531 42.2599 38.7063 41.6747 39.4512C41.3555 39.8236 41.249 40.3024 41.0894 40.7281C40.9298 41.2069 40.8234 41.7389 40.6638 42.2178C40.6106 42.4306 40.5574 42.6434 40.6106 42.803C40.7702 43.4415 41.6215 43.4415 42.1003 43.8671C42.4727 44.1331 42.6323 44.6651 42.6856 45.144C42.6856 45.6228 42.5791 46.1017 42.5259 46.5273C42.4727 46.8997 42.4727 47.3253 42.6856 47.5914C42.8984 47.8574 43.2708 47.9638 43.6432 47.9638C44.0156 47.9106 44.3349 47.8042 44.6541 47.6446C45.3457 47.3253 45.9842 47.0061 46.5694 46.5273C47.1015 46.0484 47.5271 45.3568 47.5271 44.6119C47.5271 44.1863 47.3675 43.7607 47.2079 43.3882C46.5162 41.5793 46.3566 39.7704 44.2817 38.9723Z" fill="#C8C6D3"/>
</g>
<mask id="mask9_74_56186" style="mask-type:luminance" maskUnits="userSpaceOnUse" x="6" y="6" width="46" height="46">
<path d="M49.6828 37.3172C54.2763 25.8944 48.74 12.9107 37.3172 8.31721C25.8945 3.72372 12.9107 9.25995 8.31724 20.6827C3.72376 32.1055 9.25999 45.0892 20.6828 49.6827C32.1055 54.2762 45.0893 48.74 49.6828 37.3172Z" fill="white"/>
</mask>
<g mask="url(#mask9_74_56186)">
<path opacity="0.71" d="M39.4401 38.4936C39.3337 38.4404 39.1741 38.4404 39.0144 38.4404C38.1632 38.6 37.4183 39.0257 36.6735 39.5045L36.9927 39.3981C36.7267 39.5577 36.4606 39.7173 36.301 39.9833C36.0882 40.409 36.0882 40.941 36.3542 41.3134C36.6735 41.6859 37.2587 41.7923 37.6311 41.5263C37.8972 41.3134 38.0036 41.0474 38.1632 40.7814C38.4292 40.4622 38.8016 40.1962 39.1208 39.9301C39.4401 39.6641 39.7061 39.2385 39.6529 38.8129C39.5997 38.6532 39.5465 38.5468 39.4401 38.4936Z" fill="#C8C6D3"/>
</g>
<mask id="mask10_74_56186" style="mask-type:luminance" maskUnits="userSpaceOnUse" x="6" y="6" width="46" height="46">
<path d="M49.6828 37.3172C54.2763 25.8944 48.74 12.9107 37.3172 8.31721C25.8945 3.72372 12.9107 9.25995 8.31724 20.6827C3.72376 32.1055 9.25999 45.0892 20.6828 49.6827C32.1055 54.2762 45.0893 48.74 49.6828 37.3172Z" fill="white"/>
</mask>
<g mask="url(#mask10_74_56186)">
<path opacity="0.71" d="M28.48 11.5723C28.6396 11.5723 28.7992 11.5191 28.9589 11.5723C29.3845 11.7319 29.3845 12.3172 29.7037 12.6364C30.0229 13.0088 30.555 13.0088 30.9806 12.796C33.0024 11.7319 31.2466 9.12492 29.4909 8.9653C27.7352 8.9121 25.4474 11.8915 28.48 11.5723Z" fill="#C8C6D3"/>
</g>
<mask id="mask11_74_56186" style="mask-type:luminance" maskUnits="userSpaceOnUse" x="6" y="6" width="46" height="46">
<path d="M49.6828 37.3172C54.2763 25.8944 48.74 12.9107 37.3172 8.31721C25.8945 3.72372 12.9107 9.25995 8.31724 20.6827C3.72376 32.1055 9.25999 45.0892 20.6828 49.6827C32.1055 54.2762 45.0893 48.74 49.6828 37.3172Z" fill="white"/>
</mask>
<g mask="url(#mask11_74_56186)">
<path opacity="0.71" d="M25.1283 22.2664C25.7135 21.7876 26.1923 21.2023 26.618 20.5639C26.9372 20.0851 27.2564 19.4998 27.2564 18.9146C27.2564 17.9037 26.4052 17.0524 25.6071 16.4672C24.8623 15.9884 24.0642 15.5095 23.1597 15.5095C22.5745 15.5095 22.0424 15.7223 21.4572 15.8287C20.4995 16.0416 19.5419 15.9884 18.6374 16.2012C17.9989 16.3076 17.3073 16.5736 16.8285 16.9992C15.2323 17.7973 13.9022 19.1274 13.1574 20.7235C12.8382 21.4152 12.6253 22.2132 12.8914 22.9581C13.3702 24.2882 15.2323 24.6606 15.924 25.8843C16.5092 27.0016 16.0836 28.4913 16.9349 29.449C17.7329 30.3534 19.2226 30.0874 20.3399 29.715C21.936 29.1297 23.6918 28.1721 24.011 26.5227C24.2238 25.4055 23.6918 24.1286 24.277 23.1709C24.4898 22.7985 24.8623 22.5856 25.1283 22.2664Z" fill="#C8C6D3"/>
</g>
<mask id="mask12_74_56186" style="mask-type:luminance" maskUnits="userSpaceOnUse" x="6" y="6" width="46" height="46">
<path d="M49.6828 37.3172C54.2763 25.8944 48.74 12.9107 37.3172 8.31721C25.8945 3.72372 12.9107 9.25995 8.31724 20.6827C3.72376 32.1055 9.25999 45.0892 20.6828 49.6827C32.1055 54.2762 45.0893 48.74 49.6828 37.3172Z" fill="white"/>
</mask>
<g mask="url(#mask12_74_56186)">
<path opacity="0.71" d="M18.2117 13.062C17.7329 13.2748 17.3605 13.8069 17.3605 14.3921C17.9989 14.3921 18.6374 14.3389 19.2758 14.3389C19.4354 14.3389 19.6482 14.3389 19.8079 14.2325C20.1803 14.0197 20.2335 13.4345 19.9675 13.1152C19.7014 12.796 19.2226 12.6896 18.797 12.7428C18.3714 12.796 17.9989 13.0088 17.6265 13.2216L18.2117 13.062Z" fill="#C8C6D3"/>
</g>
<mask id="mask13_74_56186" style="mask-type:luminance" maskUnits="userSpaceOnUse" x="6" y="6" width="46" height="46">
<path d="M49.6828 37.3172C54.2763 25.8944 48.74 12.9107 37.3172 8.31721C25.8945 3.72372 12.9107 9.25995 8.31724 20.6827C3.72376 32.1055 9.25999 45.0892 20.6828 49.6827C32.1055 54.2762 45.0893 48.74 49.6828 37.3172Z" fill="white"/>
</mask>
<g mask="url(#mask13_74_56186)">
<path opacity="0.71" d="M13.4765 16.733C13.3701 17.0522 13.5829 17.4778 13.9022 17.4778C14.115 17.4778 14.2746 17.3714 14.381 17.2118C14.7534 16.8926 15.1258 16.6266 15.4983 16.3074C15.6047 16.2009 15.7643 16.0945 15.7643 15.9349C15.8175 15.7221 15.6579 15.5093 15.4451 15.4561C15.2323 15.4029 15.0194 15.4029 14.8598 15.5093C14.3278 15.7221 13.9022 16.1477 13.4765 16.5734L14.0086 15.9349C13.849 16.2009 13.5829 16.4138 13.4765 16.733Z" fill="#C8C6D3"/>
</g>
<mask id="mask14_74_56186" style="mask-type:luminance" maskUnits="userSpaceOnUse" x="6" y="6" width="46" height="46">
<path d="M49.6828 37.3172C54.2763 25.8944 48.74 12.9107 37.3172 8.31721C25.8945 3.72372 12.9107 9.25995 8.31724 20.6827C3.72376 32.1055 9.25999 45.0892 20.6828 49.6827C32.1055 54.2762 45.0893 48.74 49.6828 37.3172Z" fill="white"/>
</mask>
<g mask="url(#mask14_74_56186)">
<path opacity="0.71" d="M41.781 28.438C42.5791 28.438 42.5791 27.2144 41.781 27.2144C40.983 27.2676 40.983 28.438 41.781 28.438Z" fill="#C8C6D3"/>
</g>
<mask id="mask15_74_56186" style="mask-type:luminance" maskUnits="userSpaceOnUse" x="6" y="6" width="46" height="46">
<path d="M49.6828 37.3172C54.2763 25.8944 48.74 12.9107 37.3172 8.31721C25.8945 3.72372 12.9107 9.25995 8.31724 20.6827C3.72376 32.1055 9.25999 45.0892 20.6828 49.6827C32.1055 54.2762 45.0893 48.74 49.6828 37.3172Z" fill="white"/>
</mask>
<g mask="url(#mask15_74_56186)">
<path opacity="0.71" d="M41.8874 25.9374C42.8983 25.9374 42.8983 24.3945 41.8874 24.3945C40.8766 24.3945 40.8766 25.9374 41.8874 25.9374Z" fill="#C8C6D3"/>
</g>
<mask id="mask16_74_56186" style="mask-type:luminance" maskUnits="userSpaceOnUse" x="6" y="6" width="46" height="46">
<path d="M49.6828 37.3172C54.2763 25.8944 48.74 12.9107 37.3172 8.31721C25.8945 3.72372 12.9107 9.25995 8.31724 20.6827C3.72376 32.1055 9.25999 45.0892 20.6828 49.6827C32.1055 54.2762 45.0893 48.74 49.6828 37.3172Z" fill="white"/>
</mask>
<g mask="url(#mask16_74_56186)">
<path opacity="0.71" d="M38.11 29.6617C39.4401 28.8636 40.451 27.5335 40.0253 25.831C39.8125 24.8733 39.0145 23.9688 37.9504 24.4477C36.8863 24.9265 36.6735 26.097 36.5671 27.1079C36.5139 27.9591 36.1946 28.172 35.6094 28.7572C35.2902 29.0764 34.971 29.4488 34.8646 29.9277C34.6517 30.7789 35.237 31.6834 36.1947 31.577C37.0459 31.3642 37.6312 30.4065 38.11 29.6617Z" fill="#C8C6D3"/>
</g>
<mask id="mask17_74_56186" style="mask-type:luminance" maskUnits="userSpaceOnUse" x="6" y="6" width="46" height="46">
<path d="M49.6828 37.3172C54.2763 25.8944 48.74 12.9107 37.3172 8.31721C25.8945 3.72372 12.9107 9.25995 8.31724 20.6827C3.72376 32.1055 9.25999 45.0892 20.6828 49.6827C32.1055 54.2762 45.0893 48.74 49.6828 37.3172Z" fill="white"/>
</mask>
<g mask="url(#mask17_74_56186)">
<path opacity="0.71" d="M40.0254 36.0462C39.5465 35.8334 38.8017 35.6206 38.2164 35.6738C38.1632 35.6738 38.0568 35.6738 38.0036 35.6738C37.3652 35.727 36.6735 36.0462 36.6203 36.7911C36.5671 37.4295 37.0991 37.9084 37.7376 37.9084C38.0568 37.9084 38.2696 37.7488 38.5888 37.6955C38.9613 37.5891 39.2805 37.4827 39.6529 37.4827C40.2914 37.4295 40.717 36.3654 40.0254 36.0462Z" fill="#C8C6D3"/>
</g>
<mask id="mask18_74_56186" style="mask-type:luminance" maskUnits="userSpaceOnUse" x="6" y="6" width="46" height="46">
<path d="M49.6828 37.3172C54.2763 25.8944 48.74 12.9107 37.3172 8.31721C25.8945 3.72372 12.9107 9.25995 8.31724 20.6827C3.72376 32.1055 9.25999 45.0892 20.6828 49.6827C32.1055 54.2762 45.0893 48.74 49.6828 37.3172Z" fill="white"/>
</mask>
<g mask="url(#mask18_74_56186)">
<path opacity="0.71" d="M36.7267 34.9823C36.8863 34.9291 36.9927 34.8759 37.0992 34.7695C37.4184 34.5034 37.2056 33.865 36.7267 33.865C36.4075 33.865 36.1415 34.0246 36.0883 34.3438C36.0351 34.7695 36.3543 35.0887 36.7267 34.9823Z" fill="#C8C6D3"/>
</g>
<mask id="mask19_74_56186" style="mask-type:luminance" maskUnits="userSpaceOnUse" x="6" y="6" width="46" height="46">
<path d="M49.6828 37.3172C54.2763 25.8944 48.74 12.9107 37.3172 8.31721C25.8945 3.72372 12.9107 9.25995 8.31724 20.6827C3.72376 32.1055 9.25999 45.0892 20.6828 49.6827C32.1055 54.2762 45.0893 48.74 49.6828 37.3172Z" fill="white"/>
</mask>
<g mask="url(#mask19_74_56186)">
<path opacity="0.71" d="M29.1717 25.0863C29.757 24.3414 30.5018 23.5434 30.1826 22.5325C29.8102 21.5748 28.6397 21.362 27.7884 21.7344C26.9372 22.1069 26.2455 23.0113 25.9795 23.9158C25.9263 24.0754 25.9263 24.235 25.9263 24.3946C25.8731 24.501 25.8731 24.5543 25.8731 24.6607C25.7135 25.4587 26.0859 26.31 26.8839 26.5228C27.8948 26.7888 28.5865 25.8311 29.1717 25.0863Z" fill="#C8C6D3"/>
</g>
<mask id="mask20_74_56186" style="mask-type:luminance" maskUnits="userSpaceOnUse" x="6" y="6" width="46" height="46">
<path d="M49.6828 37.3172C54.2763 25.8944 48.74 12.9107 37.3172 8.31721C25.8945 3.72372 12.9107 9.25995 8.31724 20.6827C3.72376 32.1055 9.25999 45.0892 20.6828 49.6827C32.1055 54.2762 45.0893 48.74 49.6828 37.3172Z" fill="white"/>
</mask>
<g mask="url(#mask20_74_56186)">
<path opacity="0.71" d="M25.8199 28.8105C25.8731 28.7573 25.9263 28.7041 25.9795 28.5977V28.5445C26.1924 28.3317 26.2988 28.0657 26.2456 27.7465C26.1924 27.374 25.7135 27.1612 25.3943 27.2676C24.8623 27.4272 24.4366 27.9061 24.5962 28.4913C24.7558 29.0766 25.3943 29.183 25.8199 28.8105Z" fill="#C8C6D3"/>
</g>
<mask id="mask21_74_56186" style="mask-type:luminance" maskUnits="userSpaceOnUse" x="6" y="6" width="46" height="46">
<path d="M49.6828 37.3172C54.2763 25.8944 48.74 12.9107 37.3172 8.31721C25.8945 3.72372 12.9107 9.25995 8.31724 20.6827C3.72376 32.1055 9.25999 45.0892 20.6828 49.6827C32.1055 54.2762 45.0893 48.74 49.6828 37.3172Z" fill="white"/>
</mask>
<g mask="url(#mask21_74_56186)">
<path opacity="0.71" d="M31.4596 26.5227C31.1935 25.9907 30.5551 25.8311 30.0763 26.0971C29.491 26.3631 29.1186 27.0015 28.693 27.4804C28.6398 27.5336 28.5333 27.64 28.4801 27.6932C28.4801 27.6932 28.4801 27.6932 28.4269 27.6932C27.4161 27.8528 26.1392 29.4489 27.5757 30.0874C28.2673 30.4066 28.8526 29.9278 29.4378 29.5021C30.0231 29.0765 30.6615 28.7041 31.1403 28.172C31.4596 27.7464 31.7256 27.1079 31.4596 26.5227Z" fill="#C8C6D3"/>
</g>
<mask id="mask22_74_56186" style="mask-type:luminance" maskUnits="userSpaceOnUse" x="6" y="6" width="46" height="46">
<path d="M49.6828 37.3172C54.2763 25.8944 48.74 12.9107 37.3172 8.31721C25.8945 3.72372 12.9107 9.25995 8.31724 20.6827C3.72376 32.1055 9.25999 45.0892 20.6828 49.6827C32.1055 54.2762 45.0893 48.74 49.6828 37.3172Z" fill="white"/>
</mask>
<g mask="url(#mask22_74_56186)">
<path opacity="0.71" d="M10.2843 14.4986C11.7208 15.0839 13.4765 15.2967 14.8598 14.4454C16.0303 13.7538 17.3072 12.2109 17.3604 10.7743C17.8392 10.0295 17.9989 9.23143 17.2008 8.32697C16.8284 7.90134 15.9771 7.95454 15.7111 8.48658C15.2855 8.53978 14.8598 8.7526 14.4874 9.01862C13.1573 10.1359 11.8804 11.4128 10.6567 12.6897C10.3907 12.8493 10.2311 13.0621 10.1779 13.2749C10.0715 13.541 10.0715 13.7538 10.1247 14.0198C10.0183 14.1262 10.0715 14.3922 10.2843 14.4986Z" fill="#C8C6D3"/>
</g>
<mask id="mask23_74_56186" style="mask-type:luminance" maskUnits="userSpaceOnUse" x="6" y="6" width="46" height="46">
<path d="M49.6828 37.3172C54.2763 25.8944 48.74 12.9107 37.3172 8.31721C25.8945 3.72372 12.9107 9.25995 8.31724 20.6827C3.72376 32.1055 9.25999 45.0892 20.6828 49.6827C32.1055 54.2762 45.0893 48.74 49.6828 37.3172Z" fill="white"/>
</mask>
<g mask="url(#mask23_74_56186)">
<path opacity="0.71" d="M15.0727 29.6085C15.0195 29.236 14.9131 28.8636 14.9131 28.4912C14.9131 28.2784 14.9131 28.0656 14.8598 27.8528C14.7002 27.2143 13.849 26.8951 13.2105 27.1079C13.1041 27.1079 13.0509 27.1611 12.9445 27.2143C12.6253 27.1079 12.3593 27.4271 12.1997 27.6931C11.9868 27.906 11.774 28.0656 11.5612 28.2784L12.04 27.906C11.774 28.3848 11.508 28.8636 11.4548 29.3957C11.4016 29.9809 11.6676 30.6726 12.1997 30.8854C12.2529 30.8854 12.3061 30.8854 12.3061 30.9386C12.4657 31.6834 12.8913 32.4283 13.5298 32.7475C13.6362 33.0667 13.9022 33.3328 14.2746 33.2263C14.647 33.1199 14.9131 32.8539 15.0727 32.5879C15.3387 32.3219 15.5515 31.9495 15.6047 31.577C15.7643 30.8322 15.3919 30.3001 15.0727 29.6085C15.0727 29.6617 15.0727 29.6617 15.0727 29.6085Z" fill="#C8C6D3"/>
</g>
<mask id="mask24_74_56186" style="mask-type:luminance" maskUnits="userSpaceOnUse" x="6" y="6" width="46" height="46">
<path d="M49.6828 37.3172C54.2763 25.8944 48.74 12.9107 37.3172 8.31721C25.8945 3.72372 12.9107 9.25995 8.31724 20.6827C3.72376 32.1055 9.25999 45.0892 20.6828 49.6827C32.1055 54.2762 45.0893 48.74 49.6828 37.3172Z" fill="white"/>
</mask>
<g mask="url(#mask24_74_56186)">
<path opacity="0.71" d="M28.4268 18.8615C28.6396 19.4468 29.5441 19.7128 29.8633 19.0211C30.0761 18.6487 30.1293 18.2231 30.0229 17.7974C30.0229 17.7442 30.0229 17.7442 30.0229 17.691C30.1293 17.0526 29.9697 16.3609 29.3313 16.0417C28.6928 15.6693 28.0012 16.2013 28.0544 16.893C28.0544 17.2122 28.214 17.425 28.3736 17.691C28.4268 17.7442 28.4268 17.7974 28.48 17.9038C28.48 17.957 28.48 18.0103 28.48 18.0635C28.3204 18.3295 28.3204 18.5955 28.4268 18.8615Z" fill="#C8C6D3"/>
</g>
<mask id="mask25_74_56186" style="mask-type:luminance" maskUnits="userSpaceOnUse" x="6" y="6" width="46" height="46">
<path d="M49.6828 37.3172C54.2763 25.8944 48.74 12.9107 37.3172 8.31721C25.8945 3.72372 12.9107 9.25995 8.31724 20.6827C3.72376 32.1055 9.25999 45.0892 20.6828 49.6827C32.1055 54.2762 45.0893 48.74 49.6828 37.3172Z" fill="white"/>
</mask>
<g mask="url(#mask25_74_56186)">
<path opacity="0.71" d="M11.8272 32.4814C11.1356 32.0025 10.3375 32.4282 10.0715 33.1198C9.75226 33.9179 9.80546 34.8223 10.0715 35.6736C10.1779 37.0037 10.7099 38.2806 11.9868 38.653C12.7317 38.8658 13.6361 38.5466 13.9022 37.8018C14.2746 36.7377 13.1573 36.046 12.6785 35.1948C12.1997 34.3435 12.7849 33.1198 11.8272 32.4814Z" fill="#C8C6D3"/>
</g>
<mask id="mask26_74_56186" style="mask-type:luminance" maskUnits="userSpaceOnUse" x="6" y="6" width="46" height="46">
<path d="M49.6828 37.3172C54.2763 25.8944 48.74 12.9107 37.3172 8.31721C25.8945 3.72372 12.9107 9.25995 8.31724 20.6827C3.72376 32.1055 9.25999 45.0892 20.6828 49.6827C32.1055 54.2762 45.0893 48.74 49.6828 37.3172Z" fill="white"/>
</mask>
<g mask="url(#mask26_74_56186)">
<path opacity="0.71" d="M9.91189 31.7901C10.4971 31.8965 11.0292 31.4177 11.1356 30.8324C11.1888 30.5664 11.1356 30.2472 10.976 30.0344C10.8164 29.8216 10.5503 29.6619 10.5503 29.3427C10.5503 28.8639 9.85869 28.4915 9.48627 28.9171C9.16704 29.2895 8.90101 29.6619 8.79461 30.1408C8.6882 30.5664 8.74141 31.2049 9.16704 31.4709C9.22024 31.4709 9.22023 31.4709 9.27344 31.5241C9.43305 31.6305 9.69908 31.7369 9.91189 31.7901Z" fill="#C8C6D3"/>
</g>
<mask id="mask27_74_56186" style="mask-type:luminance" maskUnits="userSpaceOnUse" x="6" y="6" width="46" height="46">
<path d="M49.6828 37.3172C54.2763 25.8944 48.74 12.9107 37.3172 8.31721C25.8945 3.72372 12.9107 9.25995 8.31724 20.6827C3.72376 32.1055 9.25999 45.0892 20.6828 49.6827C32.1055 54.2762 45.0893 48.74 49.6828 37.3172Z" fill="white"/>
</mask>
<g mask="url(#mask27_74_56186)">
<path opacity="0.71" d="M11.0292 26.5759C10.8164 26.6291 10.71 26.7887 10.6568 26.9483C10.5504 27.1611 10.71 27.4271 10.9228 27.4803C11.1356 27.5867 11.3484 27.4803 11.5081 27.2675C11.6145 27.1079 11.6145 26.8951 11.5081 26.7355C11.4017 26.5759 11.1888 26.5227 11.0292 26.5759Z" fill="#C8C6D3"/>
</g>
<mask id="mask28_74_56186" style="mask-type:luminance" maskUnits="userSpaceOnUse" x="6" y="6" width="46" height="46">
<path d="M49.6828 37.3172C54.2763 25.8944 48.74 12.9107 37.3172 8.31721C25.8945 3.72372 12.9107 9.25995 8.31724 20.6827C3.72376 32.1055 9.25999 45.0892 20.6828 49.6827C32.1055 54.2762 45.0893 48.74 49.6828 37.3172Z" fill="white"/>
</mask>
<g mask="url(#mask28_74_56186)">
<path opacity="0.71" d="M10.3907 24.0222C10.6035 22.0536 8.90099 20.5639 7.51769 19.4467C7.14526 19.1274 6.56003 19.4999 6.82605 19.9787L6.87924 20.0319C6.4004 20.0851 5.92158 20.4043 5.97478 20.9364C6.02798 21.1492 6.02799 21.362 6.02799 21.5748C5.54915 22.7453 5.12351 23.9158 4.80429 25.1927C4.69788 25.6715 4.9639 26.0439 5.28312 26.1503C5.0171 27.4804 5.01711 28.8105 5.17672 30.1938C5.17672 30.3003 5.17672 30.3535 5.22993 30.4599C5.38954 31.5771 7.03886 31.2047 7.09207 30.1938C7.19847 28.4381 8.04973 27.5336 9.11381 26.31C9.75226 25.6715 10.2843 24.9799 10.3907 24.0222Z" fill="#C8C6D3"/>
</g>
<mask id="mask29_74_56186" style="mask-type:luminance" maskUnits="userSpaceOnUse" x="6" y="6" width="46" height="46">
<path d="M49.6828 37.3172C54.2763 25.8944 48.74 12.9107 37.3172 8.31721C25.8945 3.72372 12.9107 9.25995 8.31724 20.6827C3.72376 32.1055 9.25999 45.0892 20.6828 49.6827C32.1055 54.2762 45.0893 48.74 49.6828 37.3172Z" fill="white"/>
</mask>
<g mask="url(#mask29_74_56186)">
<path opacity="0.71" d="M8.47538 18.9146C9.27344 19.2871 9.91189 19.8191 10.4439 20.5107C10.71 20.8832 11.1888 21.096 11.6144 20.83C11.6144 20.83 11.6144 20.83 11.6676 20.83C11.774 20.7768 11.8804 20.7768 11.9336 20.6704C12.2529 20.4043 12.3061 19.9787 12.1465 19.6063C12.0401 19.3935 11.9336 19.2339 11.774 19.0742C10.976 17.957 9.75229 16.414 8.42219 17.4249C7.99656 17.7973 7.83693 18.5954 8.47538 18.9146Z" fill="#C8C6D3"/>
</g>
<mask id="mask30_74_56186" style="mask-type:luminance" maskUnits="userSpaceOnUse" x="6" y="6" width="46" height="46">
<path d="M49.6828 37.3172C54.2763 25.8944 48.74 12.9107 37.3172 8.31721C25.8945 3.72372 12.9107 9.25995 8.31724 20.6827C3.72376 32.1055 9.25999 45.0892 20.6828 49.6827C32.1055 54.2762 45.0893 48.74 49.6828 37.3172Z" fill="white"/>
</mask>
<g mask="url(#mask30_74_56186)">
<path opacity="0.71" d="M11.9868 15.9885C11.9336 16.0417 11.8804 16.0949 11.8272 16.0949H11.774C11.6144 16.2013 11.508 16.3077 11.508 16.4673C11.4548 16.5737 11.4016 16.7333 11.4548 16.8929C11.4548 16.9461 11.4548 16.9994 11.508 17.0526C11.508 17.1058 11.508 17.1058 11.508 17.159C11.5612 17.3718 11.8272 17.5314 12.04 17.4782C12.3592 17.3718 12.6253 17.2122 12.7317 16.8929C12.7849 16.7333 12.7849 16.5205 12.7317 16.3609C12.7317 16.0949 12.306 15.7757 11.9868 15.9885Z" fill="#C8C6D3"/>
</g>
<mask id="mask31_74_56186" style="mask-type:luminance" maskUnits="userSpaceOnUse" x="6" y="6" width="46" height="46">
<path d="M49.6828 37.3172C54.2763 25.8944 48.74 12.9107 37.3172 8.31721C25.8945 3.72372 12.9107 9.25995 8.31724 20.6827C3.72376 32.1055 9.25999 45.0892 20.6828 49.6827C32.1055 54.2762 45.0893 48.74 49.6828 37.3172Z" fill="white"/>
</mask>
<g mask="url(#mask31_74_56186)">
<path opacity="0.71" d="M12.7849 25.6712C13.2638 25.5115 13.3702 24.9795 13.2106 24.5539C12.9978 24.075 12.5721 23.6494 12.2529 23.2238C11.8805 22.7449 11.0824 23.011 11.242 23.6494C11.2952 23.8622 11.3484 24.075 11.5613 24.1815C11.508 24.9795 11.9337 25.884 12.7849 25.6712Z" fill="#C8C6D3"/>
</g>
<mask id="mask32_74_56186" style="mask-type:luminance" maskUnits="userSpaceOnUse" x="6" y="6" width="46" height="46">
<path d="M49.6828 37.3172C54.2763 25.8944 48.74 12.9107 37.3172 8.31721C25.8945 3.72372 12.9107 9.25995 8.31724 20.6827C3.72376 32.1055 9.25999 45.0892 20.6828 49.6827C32.1055 54.2762 45.0893 48.74 49.6828 37.3172Z" fill="white"/>
</mask>
<g mask="url(#mask32_74_56186)">
<path opacity="0.71" d="M47.0483 31.7899C47.0483 31.2578 46.6758 30.9386 46.2502 30.7258C45.8246 30.513 45.399 30.247 45.1329 29.8213C44.8137 29.2893 44.0156 29.5021 43.9624 30.1405C43.9092 30.779 44.2285 31.3642 44.7073 31.7899C45.0797 32.1091 45.6118 32.4815 46.0906 32.3751C46.197 32.3751 46.3566 32.4283 46.5162 32.4283C46.7822 32.3219 47.0483 32.1091 47.0483 31.7899Z" fill="#C8C6D3"/>
</g>
<mask id="mask33_74_56186" style="mask-type:luminance" maskUnits="userSpaceOnUse" x="6" y="6" width="46" height="46">
<path d="M49.6828 37.3172C54.2763 25.8944 48.74 12.9107 37.3172 8.31721C25.8945 3.72372 12.9107 9.25995 8.31724 20.6827C3.72376 32.1055 9.25999 45.0892 20.6828 49.6827C32.1055 54.2762 45.0893 48.74 49.6828 37.3172Z" fill="white"/>
</mask>
<g mask="url(#mask33_74_56186)">
<path opacity="0.71" d="M53.3263 28.1189C53.4327 28.0125 53.4859 27.8528 53.5391 27.64C53.5391 27.1612 53.4859 26.7356 53.4327 26.2567C53.3795 25.9907 53.2199 25.8843 53.0603 25.7779C53.0603 25.7247 53.0071 25.6183 53.0071 25.5651C52.9007 25.1394 52.5282 24.9798 52.1558 25.033C51.8898 24.9266 51.6238 24.9266 51.3577 25.1394C51.1981 25.0862 51.0385 25.0862 50.8789 25.2458C50.1873 25.9375 50.2405 27.108 50.4533 27.9592C50.6661 28.8637 51.2513 29.6618 52.1558 29.8746C52.6346 29.981 53.1135 29.5554 52.9539 29.0765C52.9539 29.0765 52.9539 29.0233 52.9006 29.0233C52.9539 28.9701 53.0071 28.9701 53.0603 28.9169C53.3263 28.8105 53.4327 28.4381 53.3263 28.1189C53.3263 28.1721 53.3263 28.1721 53.3263 28.1189Z" fill="#C8C6D3"/>
</g>
<mask id="mask34_74_56186" style="mask-type:luminance" maskUnits="userSpaceOnUse" x="6" y="6" width="46" height="46">
<path d="M49.6828 37.3172C54.2763 25.8944 48.74 12.9107 37.3172 8.31721C25.8945 3.72372 12.9107 9.25995 8.31724 20.6827C3.72376 32.1055 9.25999 45.0892 20.6828 49.6827C32.1055 54.2762 45.0893 48.74 49.6828 37.3172Z" fill="white"/>
</mask>
<g mask="url(#mask34_74_56186)">
<path opacity="0.71" d="M30.3954 41.473C30.023 40.7281 29.7037 39.8237 28.9057 39.398C28.3204 39.132 27.6288 39.1852 27.2032 39.6641C26.7775 40.0897 26.7243 40.6749 26.8307 41.2602C26.6711 41.7922 26.7243 42.4307 26.9371 43.0159C27.416 44.2396 28.5332 45.0377 29.8101 45.1973C30.7146 45.8889 32.0447 46.3146 32.8428 45.4101C33.3748 44.8248 32.9492 43.8672 32.4703 43.3883C31.7787 42.6967 30.8742 42.4307 30.3954 41.473Z" fill="#C8C6D3"/>
</g>
<mask id="mask35_74_56186" style="mask-type:luminance" maskUnits="userSpaceOnUse" x="6" y="6" width="46" height="46">
<path d="M49.6828 37.3172C54.2763 25.8944 48.74 12.9107 37.3172 8.31721C25.8945 3.72372 12.9107 9.25995 8.31724 20.6827C3.72376 32.1055 9.25999 45.0892 20.6828 49.6827C32.1055 54.2762 45.0893 48.74 49.6828 37.3172Z" fill="white"/>
</mask>
<g mask="url(#mask35_74_56186)">
<path opacity="0.71" d="M30.9806 39.7704C30.2358 39.9832 30.3422 40.9409 30.821 41.3665C31.0338 41.5793 31.4063 41.7389 31.7255 41.6325C32.0447 41.5261 32.3107 41.1537 32.2575 40.8345C32.2575 40.4088 31.9383 39.93 31.5127 39.8768C31.3531 39.7704 31.1934 39.7172 30.9806 39.7704Z" fill="#C8C6D3"/>
</g>
<mask id="mask36_74_56186" style="mask-type:luminance" maskUnits="userSpaceOnUse" x="6" y="6" width="46" height="46">
<path d="M49.6828 37.3172C54.2763 25.8944 48.74 12.9107 37.3172 8.31721C25.8945 3.72372 12.9107 9.25995 8.31724 20.6827C3.72376 32.1055 9.25999 45.0892 20.6828 49.6827C32.1055 54.2762 45.0893 48.74 49.6828 37.3172Z" fill="white"/>
</mask>
<g mask="url(#mask36_74_56186)">
<path opacity="0.71" d="M25.2346 40.7281C24.9154 40.7813 24.7026 41.1005 24.6494 41.4197C24.5962 41.8986 24.9154 42.271 25.341 42.3774C25.5006 42.4306 25.7666 42.3774 25.873 42.2178C26.1923 41.8454 26.2987 41.4197 26.1923 40.9409C26.1391 40.5153 25.5538 40.4089 25.2346 40.7281Z" fill="#C8C6D3"/>
</g>
<mask id="mask37_74_56186" style="mask-type:luminance" maskUnits="userSpaceOnUse" x="6" y="6" width="46" height="46">
<path d="M49.6828 37.3172C54.2763 25.8944 48.74 12.9107 37.3172 8.31721C25.8945 3.72372 12.9107 9.25995 8.31724 20.6827C3.72376 32.1055 9.25999 45.0892 20.6828 49.6827C32.1055 54.2762 45.0893 48.74 49.6828 37.3172Z" fill="white"/>
</mask>
<g mask="url(#mask37_74_56186)">
<g opacity="0.43">
<path d="M33.4812 23.4368C36.4607 18.3292 32.896 10.0826 26.8308 9.65694C24.277 9.49733 22.202 10.6678 20.2335 12.1043C18.9034 12.796 17.6265 13.7536 16.6156 14.7645C13.6362 17.6907 10.4972 22.7451 11.4548 27.1078C12.6253 32.4282 18.7438 33.8647 23.1065 31.577C24.9686 30.6193 26.3519 28.97 28.0012 27.6931C29.8634 26.3098 32.2576 25.5117 33.4812 23.4368Z" fill="#E2E0E2"/>
<path d="M43.3772 23.9688C39.6529 23.9688 38.1632 26.895 37.1524 29.9276C36.1415 30.8853 35.1306 31.7897 34.0133 32.4814C31.4063 34.2371 28.2141 35.7268 27.4692 39.0787C26.5116 43.5478 30.5551 46.208 34.5454 45.8356C38.11 45.5163 41.1959 43.335 43.8028 41.0472C46.3566 38.8126 48.272 35.8864 48.8572 32.4814C49.4425 28.7039 48.0059 23.9688 43.3772 23.9688Z" fill="#E2E0E2"/>
</g>
</g>
<path opacity="0.46" d="M42.3584 38.1727C41.5352 39.3118 40.7121 40.4508 40.0653 41.7098C38.7718 44.2278 37.9487 46.9856 36.6551 49.5036C35.7144 51.3022 34.4209 52.8609 32.7746 54C44.769 52.3213 54 41.8297 54 29.1199C54 15.271 43.0051 4 29.3644 4C27.3065 4 25.3663 4.23981 23.426 4.71942C23.0732 5.91847 22.9556 7.11751 23.0144 8.13669C23.1908 11.4341 25.1311 14.2518 28.0121 15.6906C30.3052 16.8897 32.657 16.4101 35.0676 16.8297C37.3019 17.1894 39.4774 17.9688 41.2412 19.4676C45.5921 23.2446 46.5329 29.2998 44.4162 34.5156C43.8871 35.8945 43.1227 37.0336 42.3584 38.1727Z" fill="#E2E0E2"/>
<path opacity="0.46" d="M21.1436 49.785C18.5691 46.8166 16.9308 42.6609 17.984 38.8615C18.8617 35.4776 21.6702 32.8061 22.1383 29.3628C22.4894 26.81 21.4362 24.0792 19.4468 22.4763C18.0425 21.3483 16.2872 20.7546 14.9415 19.5673C12.8351 17.6082 12.3085 14.343 13.1277 11.5528C13.3617 10.6623 13.7713 9.83113 14.2394 9C8.03723 13.5119 4 20.8733 4 29.2441C4 42.1266 13.6543 52.6939 26 54C24.2447 52.7533 22.5479 51.3879 21.1436 49.785Z" fill="#E2E0E2"/>
<path opacity="0.14" d="M42.3735 8C42.6747 9.60881 42.8554 11.2176 42.8554 12.9456C42.8554 26.7098 31.5903 37.9119 17.6144 37.9119C12.6144 37.9119 7.91566 36.4819 4 33.9793C6.28916 45.4197 16.5301 54 28.759 54C42.6747 54 54 42.8575 54 29.0337C54 20.215 49.3614 12.4689 42.3735 8Z" fill="#E2E0E2"/>
<path opacity="0.67" d="M47.4956 12C49.0615 15.3 49.9649 18.96 49.9649 22.86C49.9649 36.72 38.7026 48 24.7302 48C17.3225 48 10.6374 44.82 6 39.72C10.0954 48.18 18.7076 54 28.7654 54C42.6775 54 54 42.78 54 28.86C54 22.38 51.5307 16.44 47.4956 12Z" fill="#E2E0E2"/>
<path opacity="0.65" d="M29.2 4C27.76 4 26.38 4.11983 25 4.35949C24.94 4.35949 24.82 4.35949 24.76 4.4194C24.34 4.47932 23.92 4.59915 23.5 4.65906C23.44 4.65906 23.38 4.71897 23.26 4.71897C21.82 5.07846 20.38 5.55778 19.06 6.15692C19 6.21683 18.94 6.21684 18.82 6.27675C18.46 6.45649 18.04 6.63623 17.68 6.81598C17.62 6.87589 17.56 6.87589 17.5 6.93581C16.6 7.41512 15.76 7.89444 14.98 8.43367C14.62 8.67333 14.2 8.9729 13.84 9.27247C13.78 9.33238 13.72 9.3923 13.66 9.3923C13.36 9.63195 13 9.93153 12.7 10.1712C12.64 10.2311 12.58 10.291 12.52 10.3509C11.8 11.01 11.08 11.669 10.42 12.388C10.12 12.7475 9.82001 13.107 9.52001 13.4665C9.46001 13.5264 9.4 13.5863 9.34 13.6462C9.1 13.9458 8.86001 14.3053 8.62001 14.6049C8.56001 14.6648 8.5 14.7247 8.5 14.7846C7.96 15.5635 7.42 16.4023 6.94 17.301C5.08 20.8359 4 24.8502 4 29.1041C4 35.5749 6.46 41.5064 10.54 46C7.24 41.7461 5.26 36.4137 5.26 30.602C5.26 26.2282 6.40001 22.0942 8.38001 18.4993C10.36 19.9971 12.82 20.836 15.46 20.836C22.06 20.836 27.4 15.5036 27.4 8.91298C27.4 7.77461 27.22 6.75606 26.98 5.73752C28.12 5.55778 29.26 5.49786 30.4 5.49786C37.78 5.49786 44.38 8.67332 49 13.7061C44.38 7.77461 37.24 4 29.2 4Z" fill="#F0DDF1"/>
<path opacity="0.22" d="M4 24.3239C7.30827 28.4004 12.3609 31 18.0752 31C27.9399 31 36 23.1422 36 13.3939C36 10.1444 35.0978 7.07221 33.4737 4.41357C31.9699 4.11816 30.406 4 28.782 4C16.391 4 6.10526 12.744 4 24.3239Z" fill="#F0DDF1"/>
<path d="M29 54C42.8071 54 54 42.8071 54 29C54 15.1929 42.8071 4 29 4C15.1929 4 4 15.1929 4 29C4 42.8071 15.1929 54 29 54Z" fill="url(#paint0_linear_74_56186)"/>
<path opacity="0.68" d="M20 29C26.0751 29 31 24.0751 31 18C31 11.9249 26.0751 7 20 7C13.9249 7 9 11.9249 9 18C9 24.0751 13.9249 29 20 29Z" fill="url(#paint1_radial_74_56186)"/>
<path opacity="0.29" d="M51.8202 19C51.88 21.9708 51.4616 24.9417 50.3856 27.9125C45.7829 40.8654 31.4966 47.639 18.4656 43.0044C11.7708 40.6278 6.68989 35.6962 4 29.7545C4.2391 39.7365 10.5753 49.065 20.6175 52.5706C33.6485 57.1457 47.9349 50.3721 52.5375 37.4787C54.809 31.1805 54.3308 24.6446 51.8202 19Z" fill="url(#paint2_linear_74_56186)"/>
<path opacity="0.22" d="M39.2054 6C41.2285 8.15807 42.8947 10.7358 44.0848 13.6132C49.3212 26.3817 43.3112 41.0686 30.5771 46.3438C24.0316 49.0414 17.01 48.7417 11 46.104C17.9026 53.4774 28.792 56.175 38.6103 52.0987C51.2849 46.8234 57.3544 32.1366 52.118 19.368C49.6188 13.1336 44.8583 8.51774 39.2054 6Z" fill="url(#paint3_linear_74_56186)"/>
<path opacity="0.81" d="M29 54C42.8071 54 54 42.8071 54 29C54 15.1929 42.8071 4 29 4C15.1929 4 4 15.1929 4 29C4 42.8071 15.1929 54 29 54Z" fill="url(#paint4_linear_74_56186)"/>
<defs>
<linearGradient id="paint0_linear_74_56186" x1="11.3063" y1="11.3294" x2="46.6416" y2="46.6647" gradientUnits="userSpaceOnUse">
<stop stop-color="white"/>
<stop offset="0.0261059" stop-color="#F9FAFA"/>
<stop offset="0.2482" stop-color="#CDD2D2"/>
<stop offset="0.4625" stop-color="#ABB3B3"/>
<stop offset="0.6644" stop-color="#929D9D"/>
<stop offset="0.8489" stop-color="#839090"/>
<stop offset="1" stop-color="#7E8B8B"/>
</linearGradient>
<radialGradient id="paint1_radial_74_56186" cx="0" cy="0" r="1" gradientUnits="userSpaceOnUse" gradientTransform="translate(20.0242 17.9757) scale(11.0291)">
<stop stop-color="#ECECEC"/>
<stop offset="0.4693" stop-color="#F1F1F1"/>
<stop offset="1" stop-color="white"/>
</radialGradient>
<linearGradient id="paint2_linear_74_56186" x1="26.6363" y1="19.3843" x2="34.7561" y2="53.4573" gradientUnits="userSpaceOnUse">
<stop offset="0.2422" stop-color="white"/>
<stop offset="0.9199" stop-color="white"/>
<stop offset="1" stop-color="white"/>
</linearGradient>
<linearGradient id="paint3_linear_74_56186" x1="20.867" y1="23.1855" x2="49.8883" y2="43.0161" gradientUnits="userSpaceOnUse">
<stop offset="0.2422" stop-color="white"/>
<stop offset="0.9199" stop-color="white"/>
<stop offset="1" stop-color="white"/>
</linearGradient>
<linearGradient id="paint4_linear_74_56186" x1="11.3063" y1="11.3294" x2="46.6416" y2="46.6647" gradientUnits="userSpaceOnUse">
<stop stop-color="white"/>
<stop offset="0.0261059" stop-color="#F9FAFA"/>
<stop offset="0.2482" stop-color="#CDD2D2"/>
<stop offset="0.4625" stop-color="#ABB3B3"/>
<stop offset="0.6644" stop-color="#929D9D"/>
<stop offset="0.8489" stop-color="#839090"/>
<stop offset="1" stop-color="#7E8B8B"/>
</linearGradient>
</defs>
</svg>
