<svg width="49" height="48" viewBox="0 0 49 48" fill="none" xmlns="http://www.w3.org/2000/svg">
<path d="M47.9728 23.9659C47.9728 13.3068 40.9798 4.27711 31.3391 1.15405C31.7464 4.75235 31.9501 10.3195 30.5923 13.3068C28.5555 17.9235 26.5187 22.6081 21.6305 21.2502C16.6743 19.9603 13.687 18.6703 9.74928 21.2502C7.50883 22.7439 3.2995 22.2686 0.312236 20.5713C0.176451 21.6576 0.0406494 22.8118 0.0406494 23.9659C0.0406494 37.205 10.7677 47.932 24.0067 47.932C37.2457 47.932 47.9728 37.205 47.9728 23.9659Z" fill="#41AAF9"/>
<path d="M39.622 5.771C37.5852 8.62248 34.3943 13.2392 32.9685 17.2448C30.6602 23.4909 26.1793 28.1076 20.5442 26.5461C15.1807 25.0525 4.72526 24.9846 0.719604 29.126C3.02795 39.9209 12.6687 48.0001 24.1425 48.0001C37.3815 48.0001 48.1085 37.2731 48.1085 24.0341C47.9728 16.7017 44.7139 10.184 39.622 5.771Z" fill="#2BA1F9"/>
<path d="M24.0067 47.9322C37.2458 47.9322 47.9728 37.2052 47.9728 23.9662C47.9728 17.8559 45.6644 12.2887 41.9303 8.07935C38.8073 15.8191 40.9798 22.3368 35.4806 27.3608C28.9629 33.4711 19.5258 27.6324 13.3476 29.3976C9.88509 30.3481 5.67576 32.4527 1.87378 32.9959C5.40419 41.754 14.0265 47.9322 24.0067 47.9322Z" fill="#41AAF9"/>
<path d="M21.0195 42.0254C17.1496 43.3154 13.144 43.1796 9.88513 43.3154C13.8229 46.2347 18.7112 47.932 24.0068 47.932C37.2458 47.932 47.9728 37.205 47.9728 23.966C47.9728 20.0961 47.0902 16.4978 45.4608 13.3069C44.5103 15.3437 43.6956 17.8557 43.2204 20.9109C41.4552 31.4342 28.5556 39.5813 21.0195 42.0254Z" fill="#4FB3FF"/>
<path d="M2.34912 13.7822C2.5528 13.9179 2.68858 14.0537 2.96015 14.1895C3.3675 14.3253 3.91064 14.2574 4.318 14.1216C5.60796 13.7822 6.83002 13.239 8.11998 12.9674C9.40994 12.6959 10.9036 12.7638 11.9219 13.5106C12.6688 14.0537 13.2119 14.9363 13.9587 15.4795C14.9092 16.0905 16.1313 16.0905 17.2176 15.9547C18.9828 15.751 20.8159 15.2758 22.2416 14.1216C23.4637 13.1711 24.2784 11.7454 24.9573 10.3875C26.5188 7.19659 27.3335 3.39461 25.8399 0.203664C25.8399 0.203664 25.8399 0.135768 25.772 0.135768C25.161 0.0678752 24.5499 0.0678711 23.9389 0.0678711C14.434 0.0678711 6.21899 5.63506 2.34912 13.7822Z" fill="#2BA1F9"/>
<path d="M24.1425 33.9462C22.1057 33.9462 20.069 33.8783 18.0322 33.8783C14.0265 33.8104 6.55836 32.9957 3.43531 36.1187C3.43531 36.1187 3.43532 36.1187 3.36743 36.1866C4.79317 38.5629 6.62627 40.7354 8.73093 42.5006C14.0265 40.5996 19.3221 38.7665 24.5499 36.8655C25.4325 36.594 26.4509 35.9829 26.2472 35.1003C26.1114 34.1498 25.0251 33.9462 24.1425 33.9462Z" fill="#4FB3FF"/>
<path d="M6.55835 7.60396C6.89781 7.67186 7.23727 7.73976 7.57674 7.73976C8.39145 7.67186 9.20616 7.46819 10.0209 7.40029C10.8356 7.3324 11.7182 7.46819 12.3292 8.07922C12.6687 8.41868 12.8045 8.96182 13.1439 9.36917C13.8229 10.4555 15.1807 10.9307 16.4707 10.8628C17.7606 10.7949 18.9148 10.1839 19.9332 9.43707C21.0195 8.69025 21.9699 7.33239 21.4268 6.17822C21.2231 5.77086 20.8158 5.36351 20.9516 4.88827C21.0195 4.5488 21.4268 4.34512 21.7663 4.07355C23.0562 3.25884 23.6672 1.56153 23.4636 0C16.7422 0.203677 10.7677 3.12306 6.55835 7.60396Z" fill="#41AAF9"/>
<path d="M24.0067 47.9321C37.2458 47.9321 47.9728 37.2051 47.9728 23.966C47.9728 21.5898 47.6333 19.2814 46.9544 17.1089C45.5965 17.9915 44.5102 19.2814 43.9671 20.7751C43.0845 23.1513 43.4919 25.7312 43.5598 28.3111C43.5598 30.8232 43.0166 33.6746 40.9119 35.1004C40.3688 35.5077 39.7578 35.7114 39.2146 36.1188C36.9063 37.7482 36.3631 41.3465 33.7832 42.4328C32.5612 42.908 31.2033 42.7722 29.9812 43.2475C28.6234 43.7906 27.6729 45.0806 26.2472 45.3522C24.9572 45.6237 23.6673 44.8769 22.3773 44.4695C20.0011 43.7906 17.489 44.3338 15.1807 45.1485C14.7733 45.2843 14.2981 45.4879 13.8907 45.6237C16.9459 47.1174 20.4084 47.9321 24.0067 47.9321Z" fill="#41AAF9"/>
<path d="M13.8909 35.6437C11.9899 35.0327 7.37317 36.3905 4.65747 38.0199C5.20061 38.6989 5.74375 39.3778 6.28689 40.0567C12.1256 37.8841 22.1058 36.1868 21.9022 35.5079C21.6306 34.6253 16.1313 36.3905 13.8909 35.6437Z" fill="#2BA1F9"/>
<path d="M42.8129 24.8488C42.4735 27.2929 42.4735 29.8049 41.5909 32.1812C40.6404 34.6932 38.3999 36.9336 36.1595 38.4952C32.4254 41.143 27.8766 42.1614 23.5315 43.5871C21.1552 44.4018 18.7111 45.3523 16.6743 46.8459C17.6248 47.1175 18.5753 47.3891 19.5258 47.5249C25.2967 44.7413 32.2896 44.266 37.4494 40.1246C40.8441 37.4089 43.2203 33.9464 43.8313 29.6013C44.3744 25.7314 44.1029 20.5716 47.0901 17.7201C47.0222 17.3806 46.8865 17.0411 46.7507 16.6338C44.1708 18.3311 43.2203 21.6578 42.8129 24.8488Z" fill="#70C1FF"/>
<path d="M16.4707 26.6137C17.4212 27.0211 18.3717 27.4284 19.2543 27.9716C20.2726 28.5147 21.2231 29.1936 22.3094 29.601C25.7719 30.8909 29.1665 29.5331 31.6786 27.0211C34.7337 24.0338 35.3448 20.4355 36.5668 16.4977C37.5852 13.0352 39.2825 10.1159 41.3193 7.40016C41.1835 7.26437 40.9799 7.06069 40.8441 6.9249C39.3504 8.69011 38.1284 10.7269 37.1779 12.7637C35.4806 16.4977 35.209 21.1144 32.6291 24.4411C30.1849 27.5642 25.7719 29.8047 22.0379 27.7C22.3094 27.7 22.6489 27.7 22.9883 27.7C25.2288 27.4963 27.3335 26.6137 29.0308 25.188C31.2712 23.3549 32.3575 20.6392 33.5117 18.0593C34.8016 15.2757 36.0237 12.3563 37.3815 9.5727C38.0605 8.28275 38.8073 6.99279 39.7578 5.90651C39.4183 5.63494 39.1468 5.36337 38.8073 5.0918C36.7026 7.12857 35.4806 10.1158 34.1906 12.6958C31.7465 17.9235 29.7776 25.0522 23.1241 25.8669C17.8964 26.4779 13.2118 22.2686 7.98411 24.7127C5.74366 25.7311 4.04635 27.4963 1.94168 28.7184C1.53433 28.99 1.12696 29.1936 0.719604 29.3294C0.855389 29.9404 0.991183 30.5515 1.19486 31.1625C3.02796 30.2799 4.58948 28.99 6.2189 27.7679C9.07038 25.7311 11.5824 25.188 14.977 26.1385C15.4523 26.2742 15.9954 26.41 16.4707 26.6137Z" fill="#70C1FF"/>
<path d="M4.79317 15.0721C6.28681 14.3932 7.78046 13.4427 9.47777 13.3748C11.1751 13.3069 12.1256 14.3932 13.2797 15.3437C14.7055 16.6336 16.1991 17.3805 18.2359 17.041C22.1058 16.3621 25.5004 13.239 26.8582 9.57282C27.605 7.60393 27.8087 5.36349 27.4014 3.25883C27.2656 2.30833 26.9261 1.22205 26.5188 0.203664C25.7041 0.135772 24.8894 0.0678711 24.0068 0.0678711C24.482 0.882581 24.9572 1.6973 25.2288 2.5799C25.7041 4.3451 25.772 6.1782 25.2967 7.9434C24.482 11.0665 21.9021 13.7822 18.8469 14.8005C15.1807 15.9547 13.6871 12.0848 10.2925 11.6775C9.00251 11.5417 7.78045 11.8812 6.55838 12.3564C5.94735 12.628 4.79318 13.5106 4.18214 13.5106C3.36743 13.5106 2.8922 13.3748 2.68852 13.0353C2.34906 13.6464 2.07748 14.2574 1.80591 14.8684C2.62062 15.6153 3.70689 15.5474 4.79317 15.0721Z" fill="#70C1FF"/>
<path d="M17.6248 44.4017C22.9884 42.0254 28.4197 39.8529 33.0364 36.1867C37.0421 33.0636 40.3688 29.058 42.0661 24.2376C43.2882 20.9109 44.1029 17.1768 45.7323 14.0537C45.5965 13.7822 45.4607 13.5106 45.3928 13.239C43.8313 15.6152 42.8129 18.3988 41.9982 21.1145C40.0293 27.5643 36.2953 32.5205 30.6602 36.1867C25.3646 39.7171 19.2543 41.2786 13.6192 44.1301C13.2118 44.3338 12.7366 44.6053 12.3292 44.809C13.0081 45.1485 13.6871 45.4879 14.366 45.8274C15.4523 45.3521 16.5386 44.8769 17.6248 44.4017Z" fill="#70C1FF"/>
<path d="M5.20048 23.8303C10.1566 23.0156 15.7238 17.72 20.6121 21.4541C20.7479 21.522 20.8836 21.3862 20.8157 21.2504C17.6248 16.7695 12.1255 19.621 8.11987 21.1825C5.33628 22.2009 2.89214 22.2688 0.176443 21.4541C0.10855 22.133 0.0406494 22.812 0.0406494 23.4909C1.73796 23.8982 3.43528 24.1019 5.20048 23.8303Z" fill="#70C1FF"/>
<path d="M28.8271 11.8813C30.6602 8.41878 30.3207 4.07367 28.8271 0.543264C28.6234 0.475371 28.4197 0.475363 28.1482 0.407471C29.4381 4.14156 29.0987 7.73986 28.1482 11.6097C28.0803 12.0171 28.6234 12.2208 28.8271 11.8813Z" fill="#70C1FF"/>
<path d="M26.7223 13.5786C25.1608 15.2759 23.2598 16.2264 21.3588 17.4485C21.0873 17.6521 21.2909 18.0595 21.5625 17.9916C23.7351 17.4484 25.704 15.6832 27.1297 13.9859C27.3334 13.7144 26.9939 13.307 26.7223 13.5786Z" fill="#70C1FF"/>
<path opacity="0.42" d="M39.7578 5.97461C41.523 9.30134 42.5415 13.1033 42.5415 17.1769C42.5415 30.4159 31.8144 41.1429 18.5754 41.1429C12.533 41.1429 7.03367 38.9025 2.82434 35.2363C6.83 42.8402 14.8413 48 24.0068 48C37.2458 48 47.9729 37.273 47.9729 24.034C47.9729 16.7695 44.7819 10.3876 39.7578 5.97461Z" fill="#4FB3FF"/>
<path opacity="0.26" d="M37.5851 4.27734C38.3998 6.72147 38.8751 9.30139 38.8751 12.085C38.8751 25.324 28.1481 36.051 14.9091 36.051C9.88502 36.051 5.20044 34.4895 1.33057 31.8417C4.58941 41.2787 13.4833 48.0001 24.0066 48.0001C37.2457 48.0001 47.9727 37.2731 47.9727 24.0341C47.9727 15.8191 43.8991 8.62246 37.5851 4.27734Z" fill="#4398D8"/>
<path opacity="0.35" d="M0.855469 17.7878C3.63906 22.744 8.86677 26.0707 14.9771 26.0707C23.871 26.0707 31.0676 18.8741 31.0676 9.9802C31.0676 6.3819 29.8455 3.05516 27.8767 0.339462C26.5867 0.135785 25.2968 0 24.0068 0C12.9403 0.0678925 3.57117 7.60396 0.855469 17.7878Z" fill="#9DBEFF"/>
<path opacity="0.26" d="M40.5046 6.65356C43.2203 10.5234 44.7818 15.2759 44.7818 20.3C44.7818 33.539 34.0548 44.266 20.8157 44.266C14.4338 44.266 8.66299 41.754 4.31787 37.6804C8.66299 43.8586 15.8596 47.9322 24.0067 47.9322C37.2457 47.9322 47.9727 37.2052 47.9727 23.9661C47.9727 17.1769 45.1213 10.9987 40.5046 6.65356Z" fill="#6399C3"/>
<path opacity="0.28" d="M40.7762 6.92501C37.1779 3.32671 32.3575 0.882593 26.9261 0.271561C25.7719 0.135776 24.6857 0.0678711 23.5994 0.0678711C23.3278 0.0678711 23.1241 0.0678711 22.8526 0.0678711C22.7847 0.0678711 22.7847 0.0678711 22.7168 0.0678711C22.2415 0.0678711 21.8342 0.135772 21.3589 0.203664C21.291 0.203664 21.291 0.203664 21.2232 0.203664C20.9516 0.203664 20.7479 0.271561 20.4763 0.271561C20.4763 0.271561 20.4763 0.271561 20.4084 0.271561C19.9332 0.339453 19.5258 0.407342 19.0506 0.543127C18.9827 0.543127 18.9148 0.543127 18.9148 0.543127C18.2359 0.678912 17.557 0.882581 16.878 1.08626C16.8101 1.08626 16.7422 1.15415 16.7422 1.15415C16.0633 1.35783 15.4523 1.6294 14.7734 1.83308C14.7055 1.83308 14.6376 1.90098 14.6376 1.90098C14.2302 2.10465 13.8229 2.24043 13.4155 2.44411C13.2118 2.57989 13.0082 2.64778 12.8045 2.78357C12.7366 2.78357 12.7366 2.85147 12.6687 2.85147C12.2613 3.05514 11.9219 3.25882 11.5824 3.46249C11.5145 3.46249 11.5145 3.53039 11.4466 3.53039C11.243 3.66618 11.0393 3.80196 10.8356 3.86985C10.8356 3.86985 10.8356 3.86985 10.7677 3.86985C10.4283 4.14142 10.0209 4.3451 9.68143 4.61667C9.61354 4.68457 9.61353 4.68455 9.54564 4.75245C9.0025 5.1598 8.45937 5.56717 7.98412 6.04242C7.91623 6.11031 7.91622 6.1103 7.84832 6.17819C7.37308 6.65344 6.82995 7.12869 6.3547 7.60394C6.28681 7.67183 6.2868 7.67184 6.21891 7.73973C5.87945 8.07919 5.60789 8.41866 5.33632 8.75812C5.20053 8.9618 4.99685 9.16547 4.86106 9.30125L4.79316 9.36915C4.52159 9.70861 4.25004 10.0481 4.04636 10.4554C4.04636 10.5233 3.97847 10.5233 3.97847 10.5912C2.00959 13.5785 0.651731 17.1089 0.176484 20.9109C-0.841903 29.3295 2.62061 37.2051 8.66304 42.2291C3.50322 37.2051 0.719632 29.8727 1.67013 22.2008C2.07748 18.6704 3.29955 15.4116 5.06475 12.5601C6.76206 13.9858 8.86673 14.9363 11.1751 15.2758C17.557 16.0905 23.3278 11.5417 24.1425 5.15981C24.2783 3.80196 24.2104 2.51201 23.9388 1.28995C25.3646 1.22206 26.8582 1.22204 28.3519 1.42572C33.1722 2.10465 37.3815 4.07353 40.7762 6.92501Z" fill="white"/>
<path d="M24.0067 47.9321C37.2428 47.9321 47.9728 37.2021 47.9728 23.9661C47.9728 10.73 37.2428 0 24.0067 0C10.7706 0 0.0406494 10.73 0.0406494 23.9661C0.0406494 37.2021 10.7706 47.9321 24.0067 47.9321Z" fill="url(#paint0_linear_74_58596)"/>
<path opacity="0.6" d="M24.0067 47.9321C37.2428 47.9321 47.9728 37.2021 47.9728 23.9661C47.9728 10.73 37.2428 0 24.0067 0C10.7706 0 0.0406494 10.73 0.0406494 23.9661C0.0406494 37.2021 10.7706 47.9321 24.0067 47.9321Z" fill="url(#paint1_linear_74_58596)"/>
<path opacity="0.48" d="M17.6928 19.5531C22.4923 19.5531 26.383 15.6623 26.383 10.8628C26.383 6.06335 22.4923 2.17261 17.6928 2.17261C12.8933 2.17261 9.00256 6.06335 9.00256 10.8628C9.00256 15.6623 12.8933 19.5531 17.6928 19.5531Z" fill="url(#paint2_radial_74_58596)"/>
<path opacity="0.49" d="M45.868 14.1897C45.9359 17.0412 45.5286 19.8926 44.5102 22.7441C40.0972 35.2363 26.3829 41.754 13.9586 37.341C7.5088 35.0327 2.68843 30.3481 0.108521 24.5772C0.312198 34.218 6.42252 43.1798 16.0633 46.5744C28.5555 50.9874 42.2019 44.4697 46.6149 31.9775C48.7195 25.9351 48.3122 19.5532 45.868 14.1897Z" fill="url(#paint3_linear_74_58596)"/>
<path opacity="0.15" d="M33.7833 2.10474C35.7522 4.14151 37.3138 6.58565 38.4679 9.36924C43.492 21.5899 37.7211 35.5757 25.5004 40.6677C19.1864 43.2476 12.3972 42.976 6.62634 40.3961C13.2119 47.389 23.7352 50.0368 33.1723 46.0991C45.3929 41.075 51.2317 27.0213 46.1398 14.8006C43.7635 8.89399 39.2147 4.48097 33.7833 2.10474Z" fill="url(#paint4_linear_74_58596)"/>
<defs>
<linearGradient id="paint0_linear_74_58596" x1="7.08395" y1="7.05281" x2="40.9512" y2="40.9202" gradientUnits="userSpaceOnUse">
<stop stop-color="white"/>
<stop offset="0.9972" stop-color="#003EE7"/>
</linearGradient>
<linearGradient id="paint1_linear_74_58596" x1="44.3611" y1="36.6214" x2="3.67412" y2="11.3516" gradientUnits="userSpaceOnUse">
<stop stop-color="white"/>
<stop offset="1" stop-color="#ECECEC"/>
</linearGradient>
<radialGradient id="paint2_radial_74_58596" cx="0" cy="0" r="1" gradientUnits="userSpaceOnUse" gradientTransform="translate(17.6625 10.859) scale(8.65677)">
<stop stop-color="#ECECEC"/>
<stop offset="0.546" stop-color="#EEEEEE"/>
<stop offset="0.8358" stop-color="#F6F6F6"/>
<stop offset="1" stop-color="white"/>
</radialGradient>
<linearGradient id="paint3_linear_74_58596" x1="21.759" y1="14.5383" x2="29.6256" y2="47.3511" gradientUnits="userSpaceOnUse">
<stop offset="0.2422" stop-color="white"/>
<stop offset="0.9199" stop-color="white"/>
<stop offset="1" stop-color="white"/>
</linearGradient>
<linearGradient id="paint4_linear_74_58596" x1="16.098" y1="18.5011" x2="43.8911" y2="37.6333" gradientUnits="userSpaceOnUse">
<stop offset="0.2422" stop-color="white"/>
<stop offset="0.9199" stop-color="white"/>
<stop offset="1" stop-color="white"/>
</linearGradient>
</defs>
</svg>
