<svg width="50" height="56" viewBox="0 0 50 56" fill="none" xmlns="http://www.w3.org/2000/svg">
<path d="M25.0672 55.7121C38.2242 55.7121 48.89 45.0463 48.89 31.8894C48.89 18.7324 38.2242 8.06665 25.0672 8.06665C11.9103 8.06665 1.24451 18.7324 1.24451 31.8894C1.24451 45.0463 11.9103 55.7121 25.0672 55.7121Z" fill="#737B7C"/>
<path d="M25.0671 55.6455C38.1763 55.6455 48.8899 44.9985 48.8899 31.8227C48.8899 30.5584 48.7568 29.2941 48.5571 28.0297C47.7586 27.8967 47.0266 27.6305 46.3612 27.2978C44.8307 26.4992 43.6329 25.2349 42.4351 23.9706C41.2373 22.7062 40.0395 21.4419 38.4425 20.7764C36.912 20.0445 34.9156 20.0445 33.5848 21.1757C32.1208 22.3735 31.9877 24.636 32.5866 26.4327C32.8528 27.1647 33.1855 28.0963 32.6531 28.6952C32.1208 29.2941 31.2557 29.0944 30.5237 29.2275C29.2594 29.4272 28.2612 30.4253 27.5958 31.49C26.4646 33.2202 25.7326 35.4161 26.2649 37.4124C26.5976 38.6102 27.3962 39.8746 26.8638 41.0724C26.3315 42.3367 24.801 42.6694 23.6032 43.2683C21.9396 44.1334 20.6752 46.1297 21.2741 47.9264C21.5403 48.6584 22.0061 49.2573 22.2058 49.9227C22.6716 51.7194 21.2076 53.3164 20.4091 55.0466C21.9396 55.5124 23.4701 55.6455 25.0671 55.6455Z" fill="#ABABAB"/>
<path d="M28.0617 19.6453C27.9952 18.7802 28.1948 17.9817 28.0617 17.1166C27.9286 15.9188 27.1966 14.9207 26.4647 13.9891C25.7327 13.0574 24.8676 12.1924 24.4018 11.1277C24.1356 10.4622 24.0691 9.6637 24.2022 8.93171C24.2687 8.66554 24.4018 8.33283 24.4018 8.06665C11.5588 8.39937 1.24451 18.9133 1.24451 31.8228C1.24451 35.7489 2.24267 39.4754 3.90627 42.8026C4.90442 42.603 5.83603 42.0706 6.7011 41.4717C7.69926 40.8728 8.76397 40.2074 9.76213 39.6085C11.2926 38.6769 13.0228 37.4791 13.3555 35.7489C13.7548 33.553 11.825 31.2239 12.6901 29.0945C13.0228 28.296 13.6882 27.6971 14.4202 27.2979C15.5515 26.5659 16.9489 26.0335 18.2132 26.3662C20.0764 26.7655 21.2742 28.6287 22.9378 29.5603C24.0025 30.2258 25.2669 30.492 26.5312 30.2923C27.1967 30.2258 27.9286 30.0262 28.461 29.6269C29.4591 28.8949 29.9915 27.6971 30.1246 26.4993C30.1911 25.3015 29.8584 24.1037 29.326 22.9725C28.9268 21.9078 28.1948 20.8431 28.0617 19.6453Z" fill="#ABABAB"/>
<path d="M48.7568 29.6267C48.7568 29.8263 46.095 29.6932 45.8288 29.6267C42.3686 29.0943 40.7049 25.8336 37.5774 24.902C36.8454 24.7024 35.9803 24.6359 35.3814 25.1017C33.0524 26.6987 37.9766 29.9594 34.6494 30.9575C33.7844 31.2237 32.9193 30.9575 32.1208 31.1572C31.3888 31.2903 30.5903 31.8226 29.9914 32.355C28.7936 33.3531 27.9285 34.9502 27.995 36.5472C27.995 40.0075 30.8565 43.4678 34.1836 44.1998C34.9156 44.3329 35.7142 44.3994 36.4461 44.7321C38.0432 45.4641 38.2428 47.4604 37.5108 48.8579C36.7123 50.3884 34.6494 50.1887 33.984 51.8523C33.7844 52.3181 33.6513 53.2498 33.984 53.649C34.3833 54.1148 35.2483 53.8487 35.7807 53.5825C36.9119 53.0501 37.9766 52.4512 39.0413 51.7192C41.0377 50.3218 42.9009 48.5917 44.3649 46.6619C47.2928 42.8689 48.8899 38.1443 49.156 33.3531C49.0895 32.0888 49.2226 30.891 48.7568 29.6267Z" fill="#E72121"/>
<path d="M28.1948 21.5085C27.7955 19.9114 27.9286 18.2478 27.2632 16.7173C26.5977 15.1868 25.1338 14.1887 24.2022 12.8578C23.2706 11.5269 22.8047 9.79676 22.9378 8.19971C10.8268 9.26441 1.31104 19.4456 1.31104 31.8893C1.31104 34.418 1.71031 36.8802 2.44229 39.1426C3.24082 38.8099 3.90625 38.3441 4.37206 37.7452C5.30368 36.5474 5.37023 34.8838 5.50332 33.3533C5.70295 31.0908 6.2353 28.8283 7.49964 26.9651C8.69743 25.1019 10.6937 23.5714 12.9562 23.3717C14.0875 23.2386 15.2187 23.4383 16.2834 23.7045C17.4812 23.9706 18.6125 24.3699 19.6106 24.9688C20.7419 25.6342 21.6735 26.6324 22.6051 27.4975C23.6033 28.3625 24.668 29.1611 25.9988 29.4938C27.2632 29.7599 28.7937 29.3607 29.5257 28.296C30.1911 27.2978 30.058 25.9669 29.6588 24.8357C29.1264 23.7044 28.5275 22.6397 28.1948 21.5085Z" fill="#ABABAB"/>
<path d="M28.9268 26.832C29.1929 25.4345 28.5941 23.904 27.8621 22.6397C27.3297 21.7081 26.7974 20.7765 26.4647 19.7783C26.1319 18.7801 26.4647 17.7154 26.1319 16.7173C25.7992 15.5195 24.7345 14.6544 24.1356 13.5897C23.3371 12.3254 22.6716 10.9945 22.2724 9.59708C22.2058 9.26436 22.1393 8.79855 22.0727 8.2662C20.6753 7.93348 18.4794 8.53237 16.8158 9.13127C6.43492 12.7912 -0.419122 23.1721 1.31102 33.686C1.84337 32.8875 2.24265 32.0889 2.57537 31.2239C2.90809 30.2257 3.17426 29.161 3.50698 28.1628C4.10588 26.4992 4.50515 24.7026 5.90257 23.5048C6.7011 22.7728 7.49963 22.7728 8.56433 22.4401C9.69558 22.1073 10.7603 21.575 11.7584 20.9095C12.3573 20.5103 12.8897 20.0445 13.5551 19.8449C15.1522 19.246 15.8842 20.3772 16.6827 21.5084C18.1466 23.4382 20.0099 24.2367 22.2058 25.1018C23.1375 25.5011 24.0691 25.9669 24.7345 26.6989C25.3334 27.4309 25.7327 28.6286 26.8639 28.7617C27.7955 28.8948 28.5941 28.0298 28.8602 27.1647C28.8602 27.0316 28.9268 26.9651 28.9268 26.832Z" fill="#E72121"/>
<path d="M28.3945 43.6011C28.3279 43.6011 28.2614 43.6011 28.1948 43.6011C26.864 43.7342 24.3353 45.1981 23.936 46.529C23.6698 47.3275 23.7364 48.1261 23.8029 48.9246C23.8695 49.7231 23.936 50.8544 24.8676 51.1205C25.3334 51.2536 25.8658 51.1871 26.3316 51.1205C27.5294 50.9209 28.7937 51.1871 29.9915 51.1205C30.5904 51.054 31.1893 50.9875 31.6551 50.7213C32.3205 50.2555 32.7864 49.59 33.5184 49.1908C34.1838 48.858 34.9158 48.7915 34.7827 47.7933C34.6496 46.9948 34.0507 46.9948 33.4518 46.7952C32.0544 46.2628 31.1228 45.1981 29.8584 44.4661C29.5923 44.0669 28.9268 43.6011 28.3945 43.6011Z" fill="#E72121"/>
<path d="M24.7345 48.5918C24.9341 49.3238 25.5995 49.9892 26.3981 49.9226C26.8639 49.9226 27.3297 49.6565 27.7955 49.6565C28.1282 49.6565 28.3944 49.7896 28.6606 49.8561C28.9933 49.9226 29.326 49.8561 29.5256 49.6565C29.7253 49.3903 29.6587 48.991 29.5256 48.7249C29.326 48.1925 29.326 47.9263 29.4591 47.4605C29.5922 46.9947 29.7918 46.7951 29.5256 46.3293C29.1929 45.7969 28.0617 45.3977 27.4628 45.3311C25.9323 44.9984 24.4017 47.0613 24.7345 48.5918Z" fill="#E72121"/>
<path d="M31.3224 48.9244C31.522 48.9244 31.7882 48.7913 31.9878 48.7248C32.3206 48.6583 32.7198 48.6583 32.9195 48.3921C33.0525 48.1259 32.8529 47.7266 32.5867 47.5936C32.1209 47.2608 31.1893 46.3958 30.7901 46.9281C30.3908 47.4605 30.4573 48.991 31.3224 48.9244Z" fill="#E72121"/>
<path d="M31.1228 34.6178C29.5257 37.1464 34.0507 36.2814 35.1154 36.2148C36.5794 36.0817 38.3761 36.0152 38.3095 34.152C38.243 31.8229 35.6478 31.956 34.0507 32.4218C32.8529 32.7545 31.7882 33.6196 31.1228 34.6178Z" fill="#E72121"/>
<path d="M38.5092 30.4254C38.6423 30.492 38.8419 30.5585 39.0415 30.492C39.1746 30.4254 39.2412 30.3589 39.2412 30.2258C39.3077 30.0927 39.3743 29.9596 39.3743 29.8265C39.5074 29.2942 39.4408 28.7618 39.3743 28.2295C39.3743 28.0964 39.3077 27.9633 39.2412 27.8967C38.4426 26.832 35.9805 29.4273 38.5092 30.4254Z" fill="#E72121"/>
<path d="M39.7734 50.9873C41.3039 49.7895 42.9675 48.1259 44.1653 46.5954C47.0932 42.8024 48.6902 38.0778 48.9564 33.2866C49.023 32.6212 49.0895 31.8227 49.023 31.1572C48.0248 31.0907 46.7605 31.2238 45.7623 31.1572C44.5645 31.0907 43.6329 30.6249 42.6347 30.026C42.2355 29.8263 41.8362 29.6267 41.437 29.6267C41.0377 29.6267 40.5719 29.8929 40.4388 30.2921C40.3057 30.6249 40.4388 30.9576 40.5053 31.2903C40.9712 33.087 40.9046 35.8153 39.241 37.0131C37.9101 37.9447 36.5792 37.0131 35.1153 37.0131C34.3833 37.0131 33.5848 37.2793 33.0524 37.8782C31.9877 39.0759 32.8528 40.2072 34.1171 40.6065C35.3149 41.0057 36.5127 41.2719 37.6439 41.8708C38.5756 42.3366 39.3741 43.002 39.973 43.8671C40.3722 44.3995 40.705 44.9984 40.7715 45.6638C40.8381 46.2627 40.705 46.8616 40.5053 47.4605C40.3057 48.5252 40.0395 49.9892 39.7734 50.9873Z" fill="#E72121"/>
<path d="M22.8713 14.7875C22.4055 13.9224 21.8731 13.1239 21.5404 12.1922C21.0746 11.1275 20.8084 9.33085 21.008 8.13306C19.6771 8.13306 18.1466 8.66541 16.8823 9.13122C9.62901 11.7264 4.0393 17.4492 1.97644 24.636C2.24262 24.5694 2.97462 24.5029 3.24079 24.3032C3.7066 23.9705 3.90622 23.3716 4.30548 22.9058C5.17055 21.9077 6.63453 21.8411 7.76577 21.2422C8.63085 20.7764 9.29629 19.9779 10.1614 19.5121C11.8915 18.4474 14.9525 17.9816 16.8158 18.8466C17.6143 19.1794 18.2132 19.7782 18.7455 20.4437C19.2113 21.0426 19.4775 21.9742 20.276 22.3069C21.6069 22.9058 23.1374 21.9742 23.9359 20.843C24.7345 19.6452 24.2021 17.7154 23.7363 16.4511C23.4036 15.9187 23.1374 15.3198 22.8713 14.7875Z" fill="#E72121"/>
<path d="M24.801 21.442C24.2687 22.307 22.2723 23.1721 23.2705 23.9706C24.2687 24.7692 26.5977 27.1647 27.0635 26.5658C27.5959 25.9004 26.3315 18.9798 24.801 21.442Z" fill="#E72121"/>
<path d="M28.1282 8.26611C28.1282 8.3992 28.1282 8.53229 28.0617 8.66538C27.9286 9.79663 27.7955 10.9944 27.8621 12.1257C27.8621 12.658 27.9286 13.2569 28.1948 13.7227C28.5275 14.4547 29.1929 14.9205 29.9249 15.2532C31.8547 16.1183 34.1172 15.8521 35.9804 16.7837C36.912 17.2495 37.7106 17.9815 38.6422 18.4473C40.1727 19.2459 41.9694 19.4455 43.3668 20.4437C44.8973 21.5084 45.6958 23.3716 47.2263 24.3698C47.426 24.5028 47.5591 24.5694 47.7587 24.7025C45.0304 16.0518 37.4444 9.4639 28.1282 8.26611Z" fill="#ABABAB"/>
<path d="M25.0672 31.2238C24.7345 30.9576 24.2687 31.0907 23.8694 31.2903C23.4701 31.4899 23.2039 31.7561 22.8047 31.8892C21.8731 32.2219 20.8749 31.5565 19.8768 31.4899C18.4128 31.3569 17.0819 32.4216 16.3499 33.6859C15.6179 34.9502 15.3518 36.4142 14.886 37.8116C13.6216 41.8708 10.8933 45.3976 7.29993 47.7267C9.96169 50.7211 13.422 53.0502 17.2815 54.3811C17.5477 52.5844 17.4146 50.6546 17.8139 48.8579C18.0801 47.527 18.679 46.2627 19.4775 45.1315C20.0098 44.3995 20.6753 43.734 21.2076 42.9355C21.74 42.137 22.1392 41.2054 22.0061 40.2737C21.9396 39.6083 21.6069 39.0094 21.5404 38.344C21.4738 37.4789 21.8065 36.6138 22.2058 35.8818C22.7381 35.0168 23.4036 34.2182 24.2021 33.5528C24.6014 33.2201 25.0006 32.9539 25.2003 32.5546C25.4664 32.1554 25.4664 31.4899 25.0672 31.2238Z" fill="#ABABAB"/>
<path opacity="0.13" d="M49.023 33.3534C49.023 32.8876 49.0895 32.3552 49.0895 31.8894C49.0895 31.6898 49.0895 31.4236 49.0895 31.224C49.023 30.6916 48.9564 30.1593 48.7568 29.6269C48.7568 29.4938 48.7568 29.3607 48.6903 29.2276C48.6903 29.0946 48.6237 28.8949 48.6237 28.7618C48.4241 27.431 48.1579 26.1001 47.7586 24.8358C47.6255 24.503 47.559 24.1703 47.4259 23.9041C47.3594 23.771 47.3594 23.7045 47.2928 23.5714C47.2263 23.3718 47.0932 23.1056 47.0266 22.906C46.9601 22.7729 46.9601 22.7063 46.8936 22.5733C46.7605 22.2405 46.6274 21.9744 46.4943 21.6416C46.4278 21.5751 46.4278 21.5086 46.3612 21.442C46.2281 21.1758 46.095 20.9762 46.0285 20.71C45.9619 20.6435 45.8954 20.5104 45.8954 20.4438C45.2965 22.5067 44.6976 24.6361 43.8326 26.6324C42.302 30.0927 39.7734 33.4199 36.18 34.8173C32.9193 36.0817 29.2594 35.6159 25.8657 36.614C21.5403 37.8784 18.1466 41.4052 13.8212 42.6695C10.7602 43.5346 7.433 43.2019 4.23889 43.4681C5.10396 44.9986 6.10212 46.4625 7.23337 47.7269C7.89881 48.4589 8.63078 49.1908 9.36276 49.8563L9.42931 49.9228C9.82858 50.2555 10.1613 50.5217 10.5606 50.8544C11.3591 51.4533 12.2242 52.0522 13.0892 52.518C13.0892 52.518 13.0892 52.518 13.1558 52.518C16.0172 54.1816 19.2778 55.2463 22.7381 55.6456C22.8046 55.6456 22.8712 55.6456 22.8712 55.6456C23.2039 55.6456 23.5366 55.7121 23.8694 55.7121C24.2686 55.7121 24.6679 55.7121 25.0671 55.7121C28.3278 55.7121 31.4554 55.0467 34.2502 53.8489C34.6495 53.9155 35.2484 53.7824 35.6476 53.5827C36.7789 53.0504 37.8436 52.4515 38.9083 51.7195C39.241 51.5199 39.5072 51.2537 39.8399 51.0541C39.9065 50.9875 39.973 50.9875 39.973 50.921C41.3704 49.8563 42.6348 48.5919 43.6995 47.2611C43.8325 47.0614 44.0322 46.8618 44.1653 46.6622C47.0932 42.8692 48.7568 38.1445 49.023 33.3534Z" fill="#ABABAB"/>
<path opacity="0.33" d="M49.0896 31.8228C49.0896 31.6231 49.0896 31.3569 49.0896 31.1573C49.023 30.625 48.9565 30.0926 48.7569 29.5603C48.7569 29.4272 48.7569 29.2941 48.6903 29.161C48.6903 29.0279 48.6238 28.8283 48.6238 28.6952C48.4241 27.3643 48.158 26.0334 47.7587 24.7691C47.6256 24.4364 47.5591 24.1037 47.426 23.8375C47.3594 23.7044 47.3594 23.6378 47.2929 23.5048C47.2263 23.3051 47.0933 23.039 47.0267 22.8393C46.9602 22.7062 46.9602 22.6397 46.8936 22.5066C46.7605 22.1739 46.6275 21.9077 46.4944 21.575C46.4278 21.5084 46.4278 21.4419 46.3613 21.3754C46.2282 21.1092 46.0951 20.9095 46.0285 20.6434C45.962 20.5768 45.8955 20.4437 45.8955 20.3772C46.4278 22.5066 46.9602 24.636 46.8936 26.832C46.8271 31.1573 44.3649 35.2165 40.9712 37.8783C40.0396 38.6102 38.9749 39.3422 37.7771 39.6749C36.18 40.1408 34.5164 39.9411 32.9194 40.0077C30.5238 40.0742 28.1282 40.6731 25.9323 41.6713C23.6698 42.736 21.6735 44.2665 19.411 45.1981C14.6198 47.1279 9.09666 46.1297 4.50513 43.8007C5.30365 45.1981 6.23526 46.529 7.29996 47.6602C7.9654 48.3922 8.69739 49.1242 9.42938 49.7896L9.49592 49.8562C9.89519 50.1889 10.2279 50.4551 10.6272 50.7878C11.4257 51.3867 12.2908 51.9856 13.1558 52.4514C13.1558 52.4514 13.1558 52.4514 13.2224 52.4514C16.0838 54.115 19.3444 55.1797 22.8047 55.5789C22.8713 55.5789 22.9378 55.5789 22.9378 55.5789C23.2705 55.5789 23.6032 55.6455 23.9359 55.6455C24.3352 55.6455 24.7345 55.6455 25.1338 55.6455C28.3944 55.6455 31.522 54.9801 34.3168 53.7823C34.7161 53.8488 35.315 53.7157 35.7142 53.5161C36.8455 52.9837 37.9102 52.3848 38.9749 51.6529C39.3076 51.4532 39.5738 51.1871 39.9065 50.9874C39.973 50.9209 40.0396 50.9209 40.0396 50.8543C41.437 49.7896 42.7014 48.5253 43.7661 47.1944C43.8991 46.9948 44.0988 46.7951 44.2319 46.5955C47.1598 42.8025 48.7569 38.0779 49.023 33.2867C49.023 32.8209 49.0896 32.3551 49.0896 31.8228Z" fill="#ABABAB"/>
<path opacity="0.56" d="M49.0896 31.2238C49.0896 30.6914 48.9565 30.1591 48.7569 29.6267C48.7569 29.4937 48.7569 29.3606 48.6903 29.2275C48.6903 29.0944 48.6238 28.8948 48.6238 28.7617C48.4241 27.4308 48.158 26.0999 47.7587 24.8356C47.6256 24.5029 47.5591 24.1701 47.426 23.904C47.3594 23.7709 47.3594 23.7043 47.2929 23.5712C47.2263 23.3716 47.0933 23.1054 47.0267 22.9058C46.9602 22.7727 46.9602 22.7062 46.8936 22.5731C46.7605 22.2404 46.6275 21.9742 46.4944 21.6415C46.4278 21.5749 46.4278 21.5084 46.3613 21.4418C46.2282 21.1757 46.0951 20.976 46.0286 20.7099C45.962 20.5768 45.8955 20.5102 45.8289 20.3771C45.6958 20.1775 45.6293 19.9779 45.4962 19.7782C45.4297 19.6452 45.3631 19.5786 45.2966 19.4455C45.1635 19.1793 44.9639 18.9132 44.7642 18.647C44.6977 18.5139 44.6311 18.4474 44.5646 18.3143C44.4315 18.1146 44.2984 17.9816 44.2319 17.7819C44.1653 17.6488 44.0322 17.5157 43.9657 17.4492C43.8326 17.3161 43.6995 17.1165 43.633 16.9834C43.5664 16.8503 43.4333 16.7172 43.3668 16.6507C43.1672 16.451 42.9675 16.1849 42.8344 15.9852C42.7014 15.8521 42.6348 15.7191 42.5017 15.586C42.3686 15.4529 42.3021 15.3863 42.169 15.2532C42.0359 15.1202 41.9028 14.9871 41.7697 14.854C41.7032 14.7874 41.5701 14.6544 41.437 14.5878C41.3705 14.5213 41.3039 14.4547 41.2374 14.3882C41.3039 14.4547 41.3039 14.4547 41.3705 14.5213C41.5036 14.6544 41.5701 14.7209 41.7032 14.854C41.8363 14.9871 41.9694 15.1202 42.0359 15.2532C42.2355 15.4529 42.4352 15.6525 42.5683 15.9187C42.6348 16.0518 42.7679 16.1849 42.8344 16.2514C42.9675 16.3845 43.1006 16.5841 43.1672 16.7172C43.2337 16.8503 43.3668 16.9834 43.4333 17.0499C43.5664 17.2496 43.6995 17.3827 43.7661 17.5823C43.8326 17.7154 43.8991 17.7819 43.9657 17.915C44.1653 18.1812 44.2984 18.4474 44.4981 18.7135C44.5646 18.8466 44.6311 18.9132 44.6977 19.0463C44.8308 19.2459 44.8973 19.4455 45.0304 19.6452C45.0969 19.7782 45.1635 19.8448 45.23 19.9779C45.3631 20.1775 45.4962 20.4437 45.5627 20.7099C45.6293 20.7764 45.6293 20.8429 45.6958 20.9095C45.8289 21.1757 45.962 21.5084 46.0951 21.8411C46.1616 21.9742 46.1616 22.0407 46.2282 22.1738C46.2947 22.3735 46.4278 22.6396 46.4944 22.8393C46.5609 22.9724 46.5609 23.0389 46.6274 23.172C46.7605 23.5047 46.8271 23.8374 46.9602 24.1036C47.3594 25.3679 47.6256 26.6988 47.8252 28.0297C47.8252 28.1628 47.8918 28.3624 47.8918 28.4955C47.8918 28.6286 47.8918 28.7617 47.9583 28.8948C48.158 29.4271 48.2245 29.9595 48.291 30.4918C48.291 30.6915 48.291 30.9576 48.291 31.1573C48.291 31.6231 48.2245 32.1554 48.2245 32.6212C47.9583 37.4124 46.3613 42.137 43.4333 45.93C43.3003 46.1296 43.1006 46.3293 42.9675 46.5289C41.8363 47.8598 40.5719 49.1241 39.2411 50.1888C39.1745 50.2554 39.108 50.2554 39.108 50.3219C38.7753 50.5216 38.5091 50.7877 38.1764 50.9874C37.1782 51.7193 36.0469 52.3182 34.9157 52.8506C34.5164 53.0502 33.9841 53.2499 33.5183 53.1168C30.7234 54.3146 27.5959 54.98 24.3352 54.98C23.936 54.98 23.5367 54.98 23.1374 54.98C22.8047 54.98 22.472 54.9135 22.1393 54.9135C22.0727 54.9135 22.0062 54.9135 22.0062 54.9135C18.5459 54.5807 15.2852 53.516 12.4238 51.7859C12.4238 51.7859 12.4238 51.7859 12.3573 51.7859C11.4922 51.2535 10.6272 50.7212 9.82864 50.1223C9.42937 49.8561 9.09665 49.5234 8.69738 49.1907L8.63083 49.1241C8.49775 48.991 8.36467 48.8579 8.16504 48.7249C8.5643 49.1241 8.96356 49.5234 9.42937 49.9227L9.49592 49.9892C9.89518 50.3219 10.2279 50.5881 10.6272 50.9208C11.4257 51.5197 12.2908 52.1186 13.1558 52.5844C13.1558 52.5844 13.1558 52.5844 13.2224 52.5844C16.0838 54.248 19.3444 55.3127 22.8047 55.712C22.8713 55.712 22.9378 55.712 22.9378 55.712C23.2705 55.712 23.6032 55.7785 23.9359 55.7785C24.3352 55.7785 24.7345 55.7785 25.1338 55.7785C28.3944 55.7785 31.522 55.1131 34.3168 53.9153C34.7161 53.9818 35.315 53.8488 35.7142 53.6491C36.8455 53.1168 37.9102 52.5179 38.9749 51.7859C39.3076 51.5863 39.5738 51.3201 39.9065 51.1204C39.973 51.0539 40.0396 51.0539 40.0396 50.9874C41.437 49.9227 42.7014 48.6583 43.7661 47.3274C43.8992 47.1278 44.0988 46.9282 44.2319 46.7285C47.1598 42.9355 48.7569 38.2109 49.023 33.4198C49.023 32.9539 49.0896 32.4216 49.0896 31.9558C49.0896 31.6231 49.0896 31.4234 49.0896 31.2238Z" fill="#ABABAB"/>
<path opacity="0.41" d="M22.0728 8.26617C21.74 8.19963 21.3408 8.13309 20.9415 8.13309C19.6106 8.13309 18.0801 8.66544 16.8158 9.06471C16.4165 9.1978 16.0173 9.33088 15.6845 9.53051C15.5514 9.59706 15.3518 9.6636 15.2187 9.73015C15.0191 9.79669 14.886 9.86323 14.6864 9.99632C8.76396 12.7246 4.23899 17.6489 2.24267 23.7044C2.17612 23.904 2.10957 24.1702 2.04302 24.3698C2.04302 24.4364 1.97647 24.5029 1.97647 24.5694C1.64375 25.7672 1.37759 26.965 1.24451 28.1628C4.23899 32.6213 9.29632 35.5492 15.0856 35.5492C24.2687 35.5492 31.7216 28.0963 31.7216 18.9132C31.7216 14.7875 30.2577 11.061 27.7955 8.13309C26.9305 8 25.9989 8 25.0672 8C24.0691 8.06654 23.0709 8.13308 22.0728 8.26617Z" fill="#98F1FF"/>
<path opacity="0.42" d="M43.633 16.9835C43.5665 16.8504 43.4334 16.7174 43.3669 16.6508C43.1672 16.4512 42.9676 16.185 42.8345 15.9854C42.7014 15.8523 42.6349 15.7192 42.5018 15.5861C42.3687 15.453 42.3022 15.3865 42.1691 15.2534C42.036 15.1203 41.9029 14.9872 41.7698 14.8541C41.7033 14.7876 41.5702 14.6545 41.4371 14.588C41.1709 14.3218 40.9047 14.1221 40.6386 13.856C40.572 13.7894 40.5055 13.7229 40.3724 13.6563C40.2393 13.5233 40.0397 13.3902 39.9066 13.2571C39.84 13.1905 39.7735 13.124 39.6404 13.0574C39.4408 12.9244 39.3077 12.7913 39.1081 12.6582C38.6423 12.3255 38.243 12.0593 37.7772 11.7931C37.7106 11.7931 37.7106 11.7266 37.6441 11.7266C37.4445 11.5935 37.2448 11.4604 36.9786 11.3273C36.9121 11.3273 36.9121 11.2608 36.8456 11.2608C36.1136 10.8615 35.4481 10.4622 34.6496 10.1295C31.6551 8.79863 28.3945 8.06665 24.9342 8.06665C23.936 8.06665 22.9379 8.13319 22.0063 8.26627C21.6735 8.19973 21.2743 8.13319 20.875 8.13319C19.5441 8.13319 18.0136 8.66555 16.7493 9.06481C16.35 9.1979 15.9507 9.33098 15.618 9.53062C15.4849 9.59716 15.2853 9.66371 15.1522 9.73025C14.9526 9.79679 14.8195 9.86333 14.6199 9.99642C14.2872 10.1295 13.9544 10.3291 13.6217 10.5288C13.4886 10.5953 13.4221 10.6619 13.289 10.7284C13.0894 10.8615 12.8232 10.9946 12.6236 11.1277C12.4905 11.1942 12.3574 11.2608 12.2243 11.3273C12.0247 11.4604 11.825 11.5935 11.6254 11.7266C11.4923 11.7931 11.3592 11.9262 11.2261 11.9927C11.0265 12.1258 10.8269 12.2589 10.6938 12.392C10.5607 12.4586 10.4276 12.5916 10.2945 12.6582C10.0949 12.7913 9.89526 12.9244 9.76217 13.0574C9.62908 13.124 9.56254 13.2571 9.42945 13.3236C9.22982 13.4567 9.03019 13.6563 8.83056 13.7894C8.76401 13.856 8.63093 13.9225 8.56439 14.0556C8.29821 14.3218 8.03203 14.5214 7.76585 14.7876C7.76585 14.7876 7.76585 14.7876 7.6993 14.7876C7.43313 15.0538 7.16696 15.3199 6.90079 15.5861C6.83424 15.6527 6.76768 15.7857 6.63459 15.8523C6.50151 16.0519 6.30189 16.2516 6.1688 16.3846C6.10226 16.5177 5.96917 16.5843 5.90263 16.7174C5.76954 16.917 5.63645 17.0501 5.50336 17.2497C5.43682 17.3828 5.30373 17.5159 5.23719 17.649C5.1041 17.8486 4.97101 17.9817 4.83792 18.1813C4.77138 18.3144 4.63829 18.4475 4.57175 18.5806C4.43866 18.7802 4.30557 18.9799 4.23903 19.1795C4.17248 19.3126 4.10593 19.4457 4.03938 19.5787C3.9063 19.7784 3.77321 19.978 3.70666 20.2442C3.64012 20.3773 3.57358 20.4438 3.50704 20.5769C3.37395 20.9096 3.17431 21.1758 3.04122 21.5085C2.70851 22.2405 2.37579 23.039 2.10961 23.8376C2.04307 24.0372 1.97653 24.3034 1.90999 24.503C1.90999 24.5696 1.84344 24.6361 1.84344 24.7026C0.97837 27.6306 0.778742 30.6916 1.24455 33.7526C1.24455 33.8857 1.24453 34.0188 1.31108 34.1519C1.31108 34.285 1.31108 34.4181 1.37763 34.6177C1.37763 34.6842 1.37763 34.7508 1.37763 34.8839C1.37763 34.9504 1.37763 35.0169 1.37763 35.0835C1.37763 35.15 1.37763 35.2166 1.37763 35.2831C1.37763 35.4162 1.44417 35.5493 1.44417 35.7489C1.44417 35.882 1.51072 36.0151 1.51072 36.1482C1.51072 36.2813 1.57727 36.3478 1.57727 36.4809C1.57727 36.5475 1.57725 36.614 1.6438 36.6806C1.71034 36.8802 1.71035 37.0798 1.77689 37.2794C1.77689 37.4125 1.84344 37.5456 1.84344 37.6787C1.84344 37.7453 1.84344 37.7453 1.84344 37.8118C1.90999 38.0114 1.90997 38.1445 1.97652 38.3442C1.97652 38.4772 2.04307 38.5438 2.04307 38.6769C2.37579 39.7416 2.70851 40.7397 3.17432 41.7379C3.17432 41.7379 3.17432 41.7379 3.17432 41.8044C3.37395 42.2037 3.57358 42.603 3.77321 43.0022C4.70483 44.7324 5.76953 46.396 7.10041 47.8599C7.30004 48.1261 7.49967 48.3257 7.76585 48.5254C6.83423 47.3941 6.0357 46.1298 5.37026 44.7989C5.17063 44.3997 4.971 44.0004 4.77137 43.6011C4.77137 43.6011 4.77137 43.6011 4.77137 43.5346C4.30556 42.5364 3.97284 41.5383 3.64012 40.4736C3.64012 40.3405 3.57359 40.2739 3.57359 40.1408C3.50704 39.9412 3.50704 39.8081 3.44049 39.6085C3.44049 39.5419 3.44049 39.5419 3.44049 39.4754C3.44049 39.3423 3.37394 39.2092 3.37394 39.0761C3.3074 38.8765 3.30741 38.6769 3.24087 38.4772C3.24087 38.4107 3.24086 38.3441 3.17432 38.2776C3.17432 38.1445 3.10777 38.078 3.10777 37.9449C3.10777 37.8118 3.04122 37.6787 3.04122 37.5456C3.04122 37.4125 2.97468 37.2794 2.97468 37.0798C2.97468 37.0133 2.97468 36.9467 2.97468 36.8802C2.97468 36.8136 2.97468 36.7471 2.97468 36.6806C2.97468 36.614 2.97468 36.5475 2.97468 36.4144C2.97468 36.2813 2.97469 36.1482 2.90815 35.9486C2.90815 35.8155 2.90815 35.6824 2.8416 35.5493C2.30925 32.4883 2.57542 29.3607 3.44049 26.4993C3.44049 26.4328 3.50704 26.3662 3.50704 26.2997C3.57358 26.1001 3.64012 25.8339 3.70666 25.6343C3.9063 25.0354 4.10593 24.4365 4.3721 23.9041C6.6346 26.832 10.228 28.7618 14.2206 28.7618C21.0747 28.7618 26.5978 23.2387 26.5978 16.3846C26.5978 14.0556 25.9324 11.9262 24.8677 10.063C25.4666 9.99643 25.9989 9.99642 26.5978 9.99642C30.0581 9.99642 33.3187 10.7284 36.2467 12.0593C37.0452 12.392 37.7106 12.7913 38.4426 13.1905C38.5092 13.1905 38.5092 13.2571 38.5757 13.2571C38.7753 13.3902 39.0415 13.5233 39.2411 13.6563C39.3077 13.6563 39.3077 13.7229 39.3742 13.7229C39.84 13.9891 40.2393 14.3218 40.6386 14.588C40.8382 14.721 41.0378 14.8541 41.1709 14.9872C41.2375 15.0538 41.304 15.1203 41.4371 15.1869C41.6367 15.3199 41.7698 15.453 41.9029 15.5861C41.9694 15.6527 42.036 15.7192 42.1691 15.7857C42.4353 16.0519 42.7014 16.2516 42.9676 16.5177C43.1007 16.5843 43.1672 16.7174 43.3003 16.7839C43.4334 16.917 43.5665 17.0501 43.6996 17.1832C43.6996 17.0501 43.633 17.0501 43.633 16.9835Z" fill="#E72121"/>
<path opacity="0.63" d="M49.0896 31.2239C49.0231 30.6916 48.9566 30.1592 48.7569 29.6269C48.7569 29.4938 48.7569 29.3607 48.6904 29.2276C48.6904 29.0945 48.6238 28.8949 48.6238 28.7618C48.4242 27.4309 48.158 26.1001 47.7588 24.8357C47.6257 24.503 47.5591 24.1703 47.426 23.9041C47.3595 23.771 47.3595 23.7045 47.2929 23.5714C47.2264 23.3718 47.0933 23.1056 47.0268 22.9059C46.9602 22.7729 46.9602 22.7063 46.8937 22.5732C46.7606 22.2405 46.6275 21.9743 46.4944 21.6416C46.4279 21.5751 46.4279 21.5085 46.3613 21.442C46.2282 21.1758 46.0952 20.9762 46.0286 20.71C45.9621 20.5769 45.8955 20.5104 45.829 20.3773C45.6959 20.1777 45.6294 19.978 45.4963 19.7784C45.4297 19.6453 45.3632 19.5787 45.2966 19.4457C45.1635 19.1795 44.9639 18.9133 44.7643 18.6471C44.6977 18.514 44.6312 18.4475 44.5646 18.3144C44.4316 18.1148 44.2985 17.9817 44.2319 17.7821C44.1654 17.649 44.0323 17.5159 43.9658 17.4493C43.8327 17.3163 43.6996 17.1166 43.633 16.9835C43.5665 16.8504 43.4334 16.7174 43.3669 16.6508C43.1672 16.4512 42.9676 16.185 42.8345 15.9854C42.7014 15.8523 42.6349 15.7192 42.5018 15.5861C42.3687 15.453 42.3022 15.3865 42.1691 15.2534C42.036 15.1203 41.9029 14.9872 41.7698 14.8541C41.7033 14.7876 41.5702 14.6545 41.4371 14.588C41.1709 14.3218 40.9047 14.1221 40.6386 13.856C40.572 13.7894 40.5055 13.7229 40.3724 13.6563C40.2393 13.5233 40.0397 13.3902 39.9066 13.2571C39.84 13.1905 39.7735 13.124 39.6404 13.0574C39.4408 12.9244 39.3077 12.7913 39.1081 12.6582C38.6422 12.3255 38.243 12.0593 37.7772 11.7931C37.7106 11.7931 37.7106 11.7266 37.6441 11.7266C37.4444 11.5935 37.2448 11.4604 36.9786 11.3273C36.9121 11.3273 36.9121 11.2608 36.8456 11.2608C36.1136 10.8615 35.4481 10.4622 34.6496 10.1295C31.6551 8.79863 28.3945 8.06665 24.9342 8.06665C23.936 8.06665 22.9379 8.13319 22.0062 8.26627C21.6735 8.19973 21.2743 8.13319 20.875 8.13319C19.5441 8.13319 18.0136 8.66555 16.7493 9.06481C16.35 9.1979 15.9507 9.33098 15.618 9.53062C15.4849 9.59716 15.2853 9.66371 15.1522 9.73025C14.9526 9.79679 14.8195 9.86333 14.6199 9.99642C8.69745 12.7247 4.17248 17.649 2.17616 23.7045C2.10961 23.9041 2.04306 24.1703 1.97651 24.3699C1.97651 24.4365 1.90998 24.503 1.90998 24.5695C1.04491 27.4975 0.845265 30.5585 1.31107 33.6195C1.31107 33.7526 1.31108 33.8857 1.37762 34.0188C1.37762 34.1519 1.37762 34.285 1.44417 34.4846C1.44417 34.5511 1.44417 34.6177 1.44417 34.7508C1.44417 34.8173 1.44417 34.8839 1.44417 34.9504C1.44417 35.017 1.44417 35.0835 1.44417 35.15C1.44417 35.2831 1.51072 35.4162 1.51072 35.6158C1.51072 35.7489 1.57726 35.882 1.57726 36.0151C1.57726 36.1482 1.64379 36.2147 1.64379 36.3478C1.64379 36.4144 1.6438 36.4809 1.71034 36.5475C1.77688 36.7471 1.77689 36.9467 1.84344 37.1464C1.84344 37.2794 1.90998 37.4125 1.90998 37.5456C1.90998 37.6122 1.90998 37.6122 1.90998 37.6787C1.97653 37.8783 1.97652 38.0114 2.04306 38.2111C2.04306 38.3441 2.10961 38.4107 2.10961 38.5438C2.44233 39.6085 2.77506 40.6066 3.24086 41.6048C3.24086 41.6048 3.24086 41.6048 3.24086 41.6713C3.4405 42.0706 3.64012 42.4699 3.83976 42.8691C4.77137 44.5993 5.83607 46.2629 7.16695 47.7268C7.83239 48.4588 8.56436 49.1908 9.29635 49.8563L9.3629 49.9228C9.76216 50.2555 10.0949 50.5217 10.4942 50.8544C11.2927 51.4533 12.1577 52.0522 13.0228 52.518C13.0228 52.518 13.0228 52.518 13.0894 52.518C15.9508 54.1816 19.2114 55.2463 22.6717 55.6456C22.7382 55.6456 22.8048 55.6456 22.8048 55.6456C23.1375 55.6456 23.4702 55.7121 23.8029 55.7121C24.2022 55.7121 24.6015 55.7121 25.0007 55.7121C28.2614 55.7121 31.389 55.0467 34.1838 53.8489C34.5831 53.9154 35.1819 53.7823 35.5812 53.5827C36.7125 53.0504 37.7772 52.4515 38.8419 51.7195C39.1746 51.5199 39.4408 51.2537 39.7735 51.054C39.84 50.9875 39.9066 50.9875 39.9066 50.921C41.304 49.8563 42.5683 48.5919 43.633 47.261C43.7661 47.0614 43.9658 46.8618 44.0988 46.6621C47.0268 42.8691 48.6238 38.1445 48.89 33.3534C48.89 32.8875 48.9565 32.3552 48.9565 31.8894C49.0896 31.6232 49.0896 31.4236 49.0896 31.2239Z" fill="#ABABAB"/>
<path opacity="0.25" d="M34.583 11.061C36.5128 13.0574 38.0433 15.4529 39.1746 18.1812C44.0988 30.1591 38.4426 43.8672 26.4647 48.858C20.2761 51.3867 13.6217 51.1205 7.96545 48.5918C14.4202 55.4459 24.7345 58.0411 33.9841 54.1815C45.9621 49.2573 51.6848 35.4827 46.694 23.5048C44.365 17.7154 39.9066 13.3901 34.583 11.061Z" fill="url(#paint0_linear_74_58625)"/>
<g opacity="0.48" filter="url(#filter0_f_74_58625)">
<path d="M18.6928 27.5531C23.4923 27.5531 27.383 23.6623 27.383 18.8628C27.383 14.0634 23.4923 10.1726 18.6928 10.1726C13.8933 10.1726 10.0026 14.0634 10.0026 18.8628C10.0026 23.6623 13.8933 27.5531 18.6928 27.5531Z" fill="url(#paint1_radial_74_58625)" fill-opacity="0.88"/>
</g>
<defs>
<filter id="filter0_f_74_58625" x="0.00256348" y="0.172607" width="37.3805" height="37.3804" filterUnits="userSpaceOnUse" color-interpolation-filters="sRGB">
<feFlood flood-opacity="0" result="BackgroundImageFix"/>
<feBlend mode="normal" in="SourceGraphic" in2="BackgroundImageFix" result="shape"/>
<feGaussianBlur stdDeviation="5" result="effect1_foregroundBlur_74_58625"/>
</filter>
<linearGradient id="paint0_linear_74_58625" x1="17.2727" y1="27.1261" x2="44.5137" y2="45.8782" gradientUnits="userSpaceOnUse">
<stop offset="0.2422" stop-color="white"/>
<stop offset="0.9199" stop-color="white"/>
<stop offset="1" stop-color="white"/>
</linearGradient>
<radialGradient id="paint1_radial_74_58625" cx="0" cy="0" r="1" gradientUnits="userSpaceOnUse" gradientTransform="translate(18.6625 18.859) scale(8.65677)">
<stop stop-color="#ECECEC"/>
<stop offset="0.546" stop-color="#EEEEEE"/>
<stop offset="0.8358" stop-color="#F6F6F6"/>
<stop offset="1" stop-color="white"/>
</radialGradient>
</defs>
</svg>
