<svg width="88" height="53" viewBox="0 0 88 53" fill="none" xmlns="http://www.w3.org/2000/svg">
<path d="M43.6025 48.597C57.0031 48.597 67.8663 37.7337 67.8663 24.3332C67.8663 10.9326 57.0031 0.0693359 43.6025 0.0693359C30.202 0.0693359 19.3387 10.9326 19.3387 24.3332C19.3387 37.7337 30.202 48.597 43.6025 48.597Z" fill="#E7A993"/>
<g opacity="0.66">
<path d="M22.181 18.2326C24.5381 18.2326 26.4098 17.6087 28.4896 16.7075C28.9749 16.4995 28.6976 15.8062 28.2123 15.8062C26.2712 15.7369 24.4687 15.5983 22.5276 15.6676C21.973 15.6676 21.4184 15.6676 20.8638 15.6676C20.5172 16.4995 20.2399 17.3314 20.0319 18.1633C20.7945 18.2326 21.4877 18.2326 22.181 18.2326Z" fill="#B2AFFF"/>
<path d="M50.5351 7.07106C47.6927 10.3293 44.2958 13.1023 40.5522 15.2514C36.878 17.3312 32.9958 18.8563 28.8363 19.6189C26.2019 20.1042 22.597 20.6588 19.6853 19.9655C19.616 20.5201 19.4774 21.0054 19.4774 21.56C21.2798 21.976 23.3596 21.976 24.7461 21.976C29.8761 21.9067 34.9369 20.5201 39.5123 18.3017C44.1571 16.0833 48.4553 12.825 51.9216 9.01216C53.2388 7.55633 54.8332 5.61523 56.0118 3.53547C55.3185 3.11952 54.5559 2.70356 53.7934 2.35693C52.9614 4.02074 51.7829 5.61523 50.5351 7.07106Z" fill="#B2AFFF"/>
<path d="M34.2436 6.72457C36.5313 5.75402 40.5522 3.11966 41.3148 0.138672C40.4828 0.207997 39.6509 0.346648 38.819 0.485298C38.7497 0.623949 38.6804 0.762586 38.6111 0.970562C37.7098 2.49572 36.1154 3.60493 34.5902 4.50615C32.7878 5.54603 29.5988 6.86321 26.9644 6.65524C26.6178 7.00187 26.2019 7.3485 25.8552 7.76445C28.4896 8.59635 31.9558 7.6258 34.2436 6.72457Z" fill="#B2AFFF"/>
<path d="M28.9056 29.8792C35.0755 29.2553 40.8295 26.9676 46.2369 24.0559C51.159 21.4216 55.7344 18.0246 59.27 13.5878C60.3792 12.2013 61.4884 10.6068 62.3896 9.01234C61.2111 7.55651 59.8246 6.23932 58.2995 5.06079C56.9823 7.2792 55.3878 9.35896 53.8626 11.0228C50.6044 14.489 46.6528 17.1234 42.4933 19.3418C38.1258 21.6295 33.481 23.5706 28.5589 24.3332C26.1325 24.6798 23.6368 24.7492 21.2105 24.6798C20.5865 24.6105 19.9626 24.6105 19.3387 24.5412C19.3387 26.2743 19.5467 28.0074 19.8933 29.6712C22.8743 30.1565 26.0632 30.0872 28.9056 29.8792Z" fill="#B2AFFF"/>
<path d="M67.3117 29.6711C67.4504 29.1859 67.5197 28.7006 67.589 28.2153C63.6375 31.4043 59.3393 34.2466 54.8332 36.5344C50.3964 38.8221 45.7516 40.7632 40.9682 42.2883C37.6405 43.3282 34.2436 44.3681 30.7773 44.992C31.3319 45.3387 31.8865 45.6853 32.4411 45.9626C40.4135 44.784 48.2473 41.5258 55.0412 37.8515C59.4087 35.4945 63.4989 32.7215 67.3117 29.6711Z" fill="#B2AFFF"/>
<path d="M42.84 3.11964C40.9682 5.40737 38.4031 7.1405 35.6995 8.38836C31.8172 10.1215 27.3804 11.4387 23.1516 11.1614C22.8743 11.6466 22.5277 12.1319 22.2504 12.6172C26.9645 13.2411 32.4412 11.5773 36.1847 9.98283C39.443 8.59632 42.4933 6.65523 44.7117 3.88222C45.4743 2.91166 46.3755 1.59447 46.9995 0.207967C46.2369 0.138642 45.4743 0 44.7811 0C44.2265 1.17853 43.6025 2.21841 42.84 3.11964Z" fill="#B2AFFF"/>
<path d="M52.4068 36.2571C57.9528 33.4147 63.4295 29.3245 67.8663 24.5411C67.8663 24.4718 67.8663 24.4025 67.8663 24.3331C67.8663 23.5706 67.797 22.7387 67.7277 21.9761C66.3412 23.6399 64.8853 25.2344 63.2909 26.7595C60.1019 29.7405 56.6356 32.3748 52.8228 34.5239C48.8019 36.8117 44.4344 38.4062 39.9283 39.654C35.7688 40.7632 31.124 42.0804 26.7565 41.8724C27.1724 42.2884 27.5884 42.635 28.0736 43.0509C31.4706 43.1203 35.0755 42.0111 38.1258 41.3178C43.0479 40.2086 47.9007 38.6141 52.4068 36.2571Z" fill="#B2AFFF"/>
<path d="M31.6786 39.7234C38.6111 38.8222 45.197 36.3958 51.2283 33.0682C56.705 30.0179 61.9044 26.205 66.0639 21.5602C66.5492 21.0749 66.9651 20.5203 67.3811 20.035C66.8265 16.9154 65.6479 14.0038 64.0535 11.4387C62.8056 13.4492 61.3498 15.2516 59.7553 16.9154C56.0117 20.7976 51.6442 23.9866 46.9301 26.5516C42.008 29.2553 36.67 31.2657 31.124 32.0283C28.143 32.4443 25.0927 32.5136 22.1117 32.3056C21.5571 32.2363 21.0718 32.167 20.5172 32.0976C21.4878 35.0093 23.0129 37.713 24.954 40.0007C27.2418 40.1394 29.4602 40.0007 31.6786 39.7234Z" fill="#B2AFFF"/>
<path d="M44.365 7.00176C42.7706 8.18029 41.5227 9.77476 39.7202 10.7453C37.8485 11.7852 35.6301 12.3398 34.0356 13.7263C33.2037 14.4195 34.1049 15.5288 35.0061 15.3901C37.2245 14.9048 39.6509 13.3797 41.6614 12.2011C43.2558 11.2306 45.0583 9.70545 45.4049 7.76434C45.4049 7.27906 44.8503 6.65513 44.365 7.00176Z" fill="#B2AFFF"/>
</g>
<path d="M64.1227 15.9448C64.1921 15.3902 63.5681 15.0435 63.0829 15.1822C60.7951 15.7368 58.854 19.2031 57.3982 20.9362C55.3184 23.5012 52.5454 25.3037 49.8418 27.1061C49.4951 27.3834 49.7031 27.938 50.1191 27.8687C53.3773 26.8982 55.8037 24.7491 58.3687 22.6693C60.3792 21.0748 63.8454 18.6485 64.1227 15.9448Z" fill="#E79174"/>
<path d="M40.7602 18.2325C37.6405 19.827 34.5902 20.7976 31.124 21.4215C29.3908 21.7681 27.6577 21.9761 25.9246 22.1147C24.7461 22.2534 24.0528 22.1841 23.1516 22.8773C22.9436 23.016 23.0129 23.3626 23.2209 23.5012C25.37 24.8877 30.0841 23.6399 32.4412 23.016C35.6301 22.1841 38.6804 20.8669 41.1068 18.6485C41.3148 18.4405 41.0375 18.0939 40.7602 18.2325Z" fill="#E79174"/>
<g opacity="0.63">
<path d="M50.3964 42.7043C49.9804 42.9816 49.6338 43.2589 49.3565 43.6055C49.0099 43.9521 49.4258 44.5761 49.9111 44.2988C50.2577 44.0908 50.6043 43.8828 50.951 43.7442C51.3669 43.6055 51.6442 43.3976 51.9215 43.1203C52.2682 42.9123 52.1295 42.427 51.7136 42.427C51.2283 42.427 50.8123 42.427 50.3964 42.7043Z" fill="#E79174"/>
<path d="M51.6442 15.9448C50.8123 16.2221 50.2577 16.638 49.5644 17.1926C48.8712 17.7472 48.1779 18.2325 47.4154 18.7871C47.1381 18.9951 46.8608 19.411 46.9994 19.7577C47.0687 20.035 47.2074 20.1043 47.4154 20.3123C47.6233 20.4509 48.0393 20.4509 48.3166 20.3123C49.7031 19.2724 51.5055 18.1632 52.1295 16.4994C52.1988 16.1527 51.9215 15.8755 51.6442 15.9448Z" fill="#E79174"/>
<path d="M38.0564 24.7492C40.9681 24.4719 44.0184 23.0161 46.1675 21.0056C46.6528 20.5897 46.1675 19.6192 45.4742 19.8965C42.7705 20.867 39.9282 22.3922 37.7791 24.2639C37.6405 24.4026 37.7791 24.7492 38.0564 24.7492Z" fill="#E79174"/>
<path d="M58.2995 27.1062C58.5768 26.7596 58.3688 26.0663 57.8142 26.2743C55.1105 27.3141 52.8228 29.2553 50.2578 30.6418C47.2768 32.2363 44.2265 33.7614 41.1068 34.9399C40.6909 35.0786 40.8295 35.7718 41.3148 35.6332C44.4344 34.8706 47.4847 33.8307 50.3964 32.4442C53.1001 31.0577 56.3584 29.5326 58.2995 27.1062Z" fill="#E79174"/>
<path d="M49.7724 1.10936C48.5939 2.91181 47.0688 4.36763 45.8209 6.10076C45.4049 6.65536 46.1675 7.41795 46.7221 7.002C48.7326 5.68482 50.2577 3.67438 51.4362 1.38665C50.8816 1.17868 50.3964 1.04002 49.8418 0.901367C49.8418 0.970692 49.7724 1.04003 49.7724 1.10936Z" fill="#E79174"/>
<path d="M57.1209 10.1908C56.081 11.5773 54.7638 12.7558 53.724 14.1423C53.3773 14.6276 54.0706 15.2515 54.5559 14.9742C57.3982 13.3104 59.2007 9.77485 60.2405 6.72454C60.0326 6.51656 59.8246 6.3779 59.6859 6.16992C58.9234 7.55643 58.0915 8.87362 57.1209 10.1908Z" fill="#E79174"/>
<path d="M62.7362 34.5931C60.5178 36.1182 57.6062 37.0888 55.7344 39.0299C55.3184 39.4458 55.5957 40.3471 56.289 40.3471C59.2006 40.0698 61.9736 38.0593 64.3307 36.4649C64.5387 36.3262 64.7467 36.1876 64.8853 36.0489C65.6479 34.6624 66.2718 33.2759 66.7571 31.7507C65.4399 32.7213 64.1227 33.6918 62.7362 34.5931Z" fill="#E79174"/>
<path d="M36.7393 7.34849C39.859 6.23928 42.7706 3.32762 43.7412 0.0693359C43.6719 0.0693359 43.6025 0.0693359 43.6025 0.0693359C43.1173 0.0693359 42.632 0.0693402 42.0774 0.138665C41.5921 1.17854 40.9682 2.14908 40.1363 2.98098C38.8884 4.29816 37.3633 5.1994 36.2541 6.5859C35.9768 6.8632 36.1847 7.48714 36.7393 7.34849Z" fill="#E79174"/>
<path d="M32.9957 13.38C33.481 13.0334 33.4117 12.0629 32.6491 12.1322C30.3614 12.2708 28.2123 13.2414 25.9245 13.4494C24.538 13.588 23.1515 13.588 21.8343 13.588C21.557 14.1426 21.3491 14.6972 21.0718 15.2518C25.162 15.6678 29.9454 15.5291 32.9957 13.38Z" fill="#E79174"/>
<path d="M46.9994 45.1307C47.6233 44.5761 46.9301 43.8135 46.3061 43.8828C44.0877 44.2295 42.008 45.4773 39.8589 46.1012C38.4031 46.5172 37.0166 46.9332 35.5607 47.2798C36.6699 47.6957 37.8485 47.973 39.027 48.2503C42.008 47.7651 44.9196 46.8638 46.9994 45.1307Z" fill="#E79174"/>
<path d="M31.1933 35.2866C33.9663 34.8013 36.7393 34.2467 39.443 33.4148C41.5921 32.7216 44.5037 32.0283 45.8209 30.0872C46.0982 29.6712 45.7516 29.0473 45.2663 29.1166C43.1865 29.186 41.2454 30.5032 39.3043 31.1964C36.8779 31.959 34.4516 32.5136 31.9559 32.9989C28.2816 33.6921 24.746 33.9001 21.1411 33.6921C21.4877 34.524 21.8344 35.2866 22.2503 36.0492C25.2313 36.1878 28.3509 35.7719 31.1933 35.2866Z" fill="#E79174"/>
<path d="M35.7688 1.31738C33.5503 2.07996 31.4706 3.11984 29.5295 4.50635C30.8467 4.57567 32.2332 4.29837 33.273 3.74377C34.2436 3.25849 35.2141 2.35726 35.7688 1.31738Z" fill="#E79174"/>
</g>
<path opacity="0.36" d="M43.6025 0.0693359C44.3651 0.623938 45.197 1.1092 45.5436 2.28773C45.8209 3.18896 45.6823 4.15953 45.4743 4.99143C44.6424 8.45769 42.0774 11.1614 40.6908 14.489C40.3442 15.3902 40.0669 16.4994 40.6215 17.3313C41.1761 18.0939 42.1467 18.2325 43.0479 18.2325C47.2074 18.3019 51.2283 16.7767 55.3878 16.5687C57.3982 16.4301 59.478 16.7074 61.0725 17.9552C62.251 18.9258 62.8749 20.3123 63.4295 21.6988C64.4001 24.1945 65.1627 26.8289 65.6479 29.4632C65.8559 30.6418 65.9946 31.8203 66.2719 32.9988C67.3117 30.2951 67.8663 27.3835 67.8663 24.3332C67.8663 10.9534 56.9823 0.0693359 43.6025 0.0693359Z" fill="#E7A993"/>
<path opacity="0.36" d="M43.6025 48.6662C48.3167 48.6662 52.7535 47.2797 56.497 44.992C56.0811 44.9227 55.6651 44.8533 55.2492 44.7147C54.2786 44.5067 53.3081 44.1601 52.6148 43.4668C51.159 42.011 51.367 39.5846 52.2682 37.7128C53.1694 35.8411 54.6253 34.3159 55.3878 32.4441C55.5958 31.9588 55.7344 31.4043 55.5958 30.919C55.3185 29.6711 53.724 29.3938 52.4762 29.4631C49.9111 29.6018 47.3461 30.0871 44.9197 30.919C43.8798 31.2656 42.9093 31.6815 41.8001 31.7509C40.6909 31.8202 39.5123 31.5429 38.8884 30.711C38.1258 29.7404 38.0565 28.146 36.878 27.6607C36.3234 27.4527 35.7688 27.5914 35.2142 27.73C31.1933 28.7699 26.9645 31.1269 23.0823 29.6711C21.4878 29.0472 20.2399 27.8687 19.4774 26.3435C20.3786 38.822 30.8467 48.6662 43.6025 48.6662Z" fill="#E7A993"/>
<path opacity="0.15" d="M57.0516 4.15967C57.3982 5.82347 57.6062 7.48727 57.6062 9.28973C57.6062 22.7388 46.7222 33.5536 33.3424 33.5536C28.351 33.5536 23.7062 32.0284 19.824 29.4634C22.181 40.4168 31.8866 48.6665 43.6025 48.6665C57.0516 48.6665 67.8664 37.7824 67.8664 24.4026C67.8664 15.945 63.5682 8.52716 57.0516 4.15967Z" fill="#E7A993"/>
<path opacity="0.15" d="M59.686 6.16968C61.2805 9.42796 62.1817 13.0329 62.1817 16.9151C62.1817 30.3642 51.2976 41.1789 37.9178 41.1789C31.7479 41.1789 26.0632 38.8219 21.7651 35.009C25.7166 43.0507 33.9663 48.5967 43.6025 48.5967C57.0516 48.5967 67.8664 37.7127 67.8664 24.3329C67.8664 17.1231 64.7467 10.6758 59.686 6.16968Z" fill="#E7A993"/>
<path opacity="0.45" d="M59.5473 6.10062C55.2491 2.35706 49.7031 0.0693359 43.5332 0.0693359C42.0773 0.0693359 40.6908 0.207986 39.3043 0.415962C39.235 0.415962 39.235 0.415962 39.1657 0.415962C38.6804 0.485287 38.2644 0.623934 37.7792 0.693259H37.7098C36.254 1.03988 34.8675 1.52516 33.5503 2.07976C33.481 2.07976 33.481 2.14909 33.4117 2.14909C32.9957 2.35707 32.5798 2.49571 32.2331 2.70369C32.2331 2.70369 32.1638 2.70369 32.1638 2.77302C30.916 3.46627 29.6681 4.22884 28.5589 5.06074C28.4896 5.06074 28.4896 5.13007 28.4203 5.13007C28.0736 5.40737 27.727 5.68468 27.4497 5.96198L27.3804 6.03131C26.6871 6.65524 25.9939 7.34849 25.3699 8.04174C25.0926 8.38836 24.746 8.73499 24.4687 9.08162C24.3994 9.15094 24.3994 9.15093 24.3301 9.22025C24.0528 9.56688 23.8448 9.91351 23.5675 10.2601C23.5675 10.3295 23.4982 10.3295 23.4982 10.3988C20.7945 14.3503 19.1307 19.0644 19.1307 24.2638C19.1307 32.3749 23.0822 39.5154 29.1828 43.9522C24.1221 39.5154 20.8638 32.9295 20.8638 25.6503C20.8638 21.6295 21.8344 17.7473 23.6368 14.4196C25.5779 15.8755 27.935 16.7767 30.5693 16.7767C36.8779 16.7767 41.9387 11.6466 41.9387 5.40737C41.9387 4.09019 41.7307 2.84234 41.3147 1.73314C42.5626 1.52516 43.8798 1.45584 45.1276 1.45584C50.6043 1.45584 55.5264 3.18896 59.5473 6.10062Z" fill="#E7A993"/>
<path opacity="0.25" d="M20.1706 17.8166C23.2209 21.6295 27.8657 24.0559 33.0651 24.0559C42.1467 24.0559 49.5645 16.7074 49.5645 7.55645C49.5645 4.99141 49.0099 2.56504 47.97 0.415956C46.5835 0.138655 45.1277 0 43.6025 0C32.4412 0.0693252 23.0129 7.62578 20.1706 17.8166Z" fill="#E7A993"/>
<path opacity="0.76" d="M43.6025 48.597C57.0031 48.597 67.8663 37.7337 67.8663 24.3332C67.8663 10.9326 57.0031 0.0693359 43.6025 0.0693359C30.202 0.0693359 19.3387 10.9326 19.3387 24.3332C19.3387 37.7337 30.202 48.597 43.6025 48.597Z" fill="url(#paint0_linear_74_58363)"/>
<path opacity="0.15" d="M65.8559 14.2117C65.9252 17.1233 65.5093 20.035 64.4694 22.9467C59.9632 35.7025 45.9595 42.3577 33.273 37.8516C26.6871 35.4945 21.765 30.7111 19.1307 24.8184C19.3387 34.6626 25.5779 43.8136 35.4221 47.2798C48.1779 51.786 62.1123 45.1307 66.6185 32.3749C68.8369 26.2049 68.3516 19.7577 65.8559 14.2117Z" fill="url(#paint1_linear_74_58363)"/>
<path opacity="0.15" d="M53.5853 1.87158C55.5957 3.95134 57.1902 6.44703 58.3688 9.28937C63.4988 21.7679 57.6062 36.0489 45.1276 41.2483C38.6804 43.8827 31.7479 43.6054 25.8552 40.971C32.5798 48.1115 43.3252 50.8152 52.9614 46.7943C65.4399 41.6643 71.4019 27.3139 66.2025 14.8354C63.7761 8.80409 59.1313 4.29797 53.5853 1.87158Z" fill="url(#paint2_linear_74_58363)"/>
<g opacity="0.72">
<path d="M21.9038 35.356C21.7651 35.0787 21.6958 34.8014 21.5571 34.5934C11.5743 40.7634 7.20682 44.7842 6.65221 46.5174C6.58289 46.656 6.58289 46.7947 6.65221 46.864V46.9333C6.72154 47.0026 6.86019 47.072 6.92951 47.072C8.17736 47.4879 14.6939 47.5572 45.4743 31.4738C63.9842 21.7682 76.6014 12.4093 79.9983 8.59645C80.4143 8.11118 79.9983 7.41792 79.3744 7.48724C76.8094 7.9032 71.8179 9.42835 64.6081 12.4093C64.7467 12.6173 64.8161 12.756 64.9547 12.964C70.9167 10.5376 74.8682 9.49768 75.2842 10.3296C76.1854 12.0627 62.8057 20.867 45.3357 30.0179C27.9351 39.1689 13.0301 45.2002 12.1289 43.5364C11.6436 42.5658 15.4565 39.4462 21.9038 35.356Z" fill="url(#paint3_linear_74_58363)"/>
<path d="M63.2215 10.1906C63.3602 10.3292 63.4295 10.4679 63.4988 10.6759C72.7191 6.86297 79.5823 4.78321 81.7314 5.47646C82.4246 5.68444 82.9099 6.23904 82.9792 6.9323C83.0485 7.62555 83.1872 9.77463 72.1645 17.6777C65.024 22.7384 55.8731 28.2845 46.4448 33.2759C42.4933 35.3556 38.1951 37.5047 34.0356 39.5845C21.9037 45.4771 10.1877 50.2606 6.37483 49.0127C5.54293 48.7354 5.12698 48.2501 4.91901 47.8342C4.71103 47.4876 4.50306 46.8636 4.78036 45.9624C5.68158 42.7734 12.8221 37.6434 20.7945 32.7213C20.7252 32.5826 20.7252 32.5133 20.6558 32.3747C7.20674 40.8323 -1.18162 48.0422 0.135558 50.6072C2.00734 54.2121 23.1515 46.8636 47.346 34.1078C71.5406 21.352 89.5651 8.11082 87.6933 4.50591C86.3762 2.07953 76.6706 4.57525 63.2215 10.1906Z" fill="url(#paint4_linear_74_58363)"/>
<path d="M69.5302 12.6173C69.7382 12.6173 68.6983 13.7958 68.629 13.8651C68.213 14.2811 67.6584 14.6277 67.1732 14.9744C65.856 15.9449 64.4695 16.9155 63.083 17.7474C61.1419 18.9952 58.9235 20.0351 57.121 21.4909C56.913 21.6296 57.121 21.9069 57.329 21.8375C61.5578 20.3817 66.2026 17.1928 69.4609 14.1424C69.9462 13.7265 70.7087 13.1026 70.3621 12.34C70.1541 11.8547 69.7382 11.7854 69.2529 11.9934C69.0449 12.2013 69.1836 12.6866 69.5302 12.6173Z" fill="url(#paint5_linear_74_58363)"/>
<path d="M85.3363 9.9135C79.1663 16.9153 70.6393 20.8669 63.4295 26.6209C63.2215 26.7595 63.4295 27.1062 63.7068 26.9675C68.0743 24.6798 72.2338 21.6295 76.324 18.7871C79.513 16.6381 84.3657 14.0037 85.8216 10.1908C85.8909 9.98284 85.5443 9.70552 85.3363 9.9135Z" fill="url(#paint6_linear_74_58363)"/>
<path d="M59.27 28.9086C56.2197 30.5724 52.5455 32.0975 49.8418 34.2466C49.7031 34.3852 49.8418 34.6625 49.9804 34.5932C53.3081 33.692 56.6357 31.3349 59.478 29.4631C59.8246 29.2552 59.6166 28.7699 59.27 28.9086Z" fill="url(#paint7_linear_74_58363)"/>
<path d="M37.9872 40.0697C33.0651 42.7041 27.727 44.7145 22.8743 47.4875C22.597 47.6262 22.7356 48.1114 23.0822 48.0421C28.4896 46.7943 33.481 43.2587 38.2645 40.555C38.4724 40.347 38.2645 39.9311 37.9872 40.0697Z" fill="url(#paint8_linear_74_58363)"/>
<path d="M16.427 40.1392C15.5951 40.2085 14.5552 41.6643 15.4565 42.3576C15.8724 42.7042 16.5657 42.3576 16.9816 42.2189C17.8135 41.9416 18.7148 41.6643 19.3387 41.0404C19.4773 40.9018 19.408 40.6244 19.1307 40.6938C18.4375 40.7631 17.8135 41.1097 17.1203 41.3177C16.843 41.387 16.0804 41.803 15.8724 41.4563C15.7338 41.2484 16.2884 40.5551 16.4963 40.4165C16.7043 40.3471 16.635 40.1392 16.427 40.1392Z" fill="url(#paint9_linear_74_58363)"/>
<path d="M0.759495 52.2712C2.00735 53.1724 4.29508 53.3111 5.54293 52.2712C5.68158 52.2019 5.61226 51.9246 5.40428 51.9246C4.71103 51.9246 4.01778 52.2712 3.32453 52.3405C2.49262 52.4098 1.66072 52.3405 0.898143 51.9939C0.759493 51.9246 0.551519 52.2019 0.759495 52.2712Z" fill="url(#paint10_linear_74_58363)"/>
<path d="M5.82029 47.2104C6.72152 48.5276 8.59329 48.5969 9.84114 47.8344C9.97979 47.765 9.91047 47.5571 9.77182 47.5571C8.45464 47.765 7.13747 48.0423 5.95894 47.0718C5.82029 47.0718 5.75096 47.2104 5.82029 47.2104Z" fill="url(#paint11_linear_74_58363)"/>
<path d="M11.2969 47.9039C13.5154 47.4186 16.2884 47.0027 18.2295 45.8242C18.3681 45.6855 18.4374 45.4082 18.1601 45.4082C15.8724 45.4082 13.3074 46.5867 11.1583 47.488C10.881 47.488 11.0196 47.9039 11.2969 47.9039Z" fill="url(#paint12_linear_74_58363)"/>
<path d="M19.3387 31.6814C17.2589 32.3747 15.1099 33.8305 13.4461 35.2863C13.2381 35.4943 13.4461 35.8409 13.7234 35.7023C15.6645 34.6624 17.8135 33.3452 19.5467 31.8894C19.616 31.8201 19.4774 31.6121 19.3387 31.6814Z" fill="url(#paint13_linear_74_58363)"/>
<path d="M75.5615 7.14039C76.6014 7.00174 77.7105 6.72445 78.7504 6.72445C79.2357 6.72445 79.721 6.72444 80.1369 6.86309C80.7609 7.14039 80.8302 7.62568 81.1075 8.11096C81.1768 8.24961 81.3155 8.24959 81.4541 8.18027C82.4247 7.34836 80.9688 6.23918 80.1369 6.0312C78.5424 5.61525 76.948 6.16983 75.4922 6.79376C75.2842 6.86309 75.3535 7.20971 75.5615 7.14039Z" fill="url(#paint14_linear_74_58363)"/>
<path d="M80.6221 9.08166C80.4142 9.15099 80.2755 9.35895 80.0675 9.56693C79.9289 9.7749 79.7902 9.98289 79.7902 10.1909C79.7902 10.3295 79.9289 10.4682 80.0675 10.4682C80.5528 10.3295 80.8994 9.77491 80.8994 9.28963C80.8994 9.08165 80.6915 9.01234 80.6221 9.08166Z" fill="url(#paint15_linear_74_58363)"/>
</g>
<defs>
<linearGradient id="paint0_linear_74_58363" x1="26.3965" y1="7.17593" x2="60.7526" y2="41.5321" gradientUnits="userSpaceOnUse">
<stop stop-color="#FF0000"/>
<stop offset="0.1057" stop-color="#F30007"/>
<stop offset="0.2983" stop-color="#D20119"/>
<stop offset="0.5563" stop-color="#9D0236"/>
<stop offset="0.8664" stop-color="#55045E"/>
<stop offset="0.9972" stop-color="#340570"/>
</linearGradient>
<linearGradient id="paint1_linear_74_58363" x1="41.2682" y1="14.5894" x2="49.3008" y2="48.0947" gradientUnits="userSpaceOnUse">
<stop offset="0.2422" stop-color="white"/>
<stop offset="0.9199" stop-color="white"/>
<stop offset="1" stop-color="white"/>
</linearGradient>
<linearGradient id="paint2_linear_74_58363" x1="35.5133" y1="18.5929" x2="63.8928" y2="38.1288" gradientUnits="userSpaceOnUse">
<stop offset="0.2422" stop-color="white"/>
<stop offset="0.9199" stop-color="white"/>
<stop offset="1" stop-color="white"/>
</linearGradient>
<linearGradient id="paint3_linear_74_58363" x1="6.13143" y1="45.7949" x2="80.9036" y2="9.44801" gradientUnits="userSpaceOnUse">
<stop stop-color="#FFB6A0"/>
<stop offset="0.1477" stop-color="#F3ACA1"/>
<stop offset="0.4168" stop-color="#D293A5"/>
<stop offset="0.7744" stop-color="#9E6BAB"/>
<stop offset="0.9943" stop-color="#7A4FAF"/>
</linearGradient>
<linearGradient id="paint4_linear_74_58363" x1="-0.46817" y1="49.3208" x2="88.4469" y2="6.09899" gradientUnits="userSpaceOnUse">
<stop stop-color="#FFB6A0"/>
<stop offset="0.1477" stop-color="#F3ACA1"/>
<stop offset="0.4168" stop-color="#D293A5"/>
<stop offset="0.7744" stop-color="#9E6BAB"/>
<stop offset="0.9943" stop-color="#7A4FAF"/>
</linearGradient>
<linearGradient id="paint5_linear_74_58363" x1="56.6533" y1="20.3539" x2="70.6693" y2="13.5407" gradientUnits="userSpaceOnUse">
<stop stop-color="#FFB6A0"/>
<stop offset="0.1477" stop-color="#F3ACA1"/>
<stop offset="0.4168" stop-color="#D293A5"/>
<stop offset="0.7744" stop-color="#9E6BAB"/>
<stop offset="0.9943" stop-color="#7A4FAF"/>
</linearGradient>
<linearGradient id="paint6_linear_74_58363" x1="62.3744" y1="24.3301" x2="86.7185" y2="12.4964" gradientUnits="userSpaceOnUse">
<stop stop-color="#FFB6A0"/>
<stop offset="0.1477" stop-color="#F3ACA1"/>
<stop offset="0.4168" stop-color="#D293A5"/>
<stop offset="0.7744" stop-color="#9E6BAB"/>
<stop offset="0.9943" stop-color="#7A4FAF"/>
</linearGradient>
<linearGradient id="paint7_linear_74_58363" x1="49.8615" y1="34.2571" x2="59.5461" y2="29.5494" gradientUnits="userSpaceOnUse">
<stop stop-color="#FFB6A0"/>
<stop offset="0.1477" stop-color="#F3ACA1"/>
<stop offset="0.4168" stop-color="#D293A5"/>
<stop offset="0.7744" stop-color="#9E6BAB"/>
<stop offset="0.9943" stop-color="#7A4FAF"/>
</linearGradient>
<linearGradient id="paint8_linear_74_58363" x1="23.0572" y1="47.9342" x2="38.2148" y2="40.5661" gradientUnits="userSpaceOnUse">
<stop stop-color="#FFB6A0"/>
<stop offset="0.1477" stop-color="#F3ACA1"/>
<stop offset="0.4168" stop-color="#D293A5"/>
<stop offset="0.7744" stop-color="#9E6BAB"/>
<stop offset="0.9943" stop-color="#7A4FAF"/>
</linearGradient>
<linearGradient id="paint9_linear_74_58363" x1="15.4697" y1="41.8538" x2="18.8857" y2="40.1933" gradientUnits="userSpaceOnUse">
<stop stop-color="#FFB6A0"/>
<stop offset="0.1477" stop-color="#F3ACA1"/>
<stop offset="0.4168" stop-color="#D293A5"/>
<stop offset="0.7744" stop-color="#9E6BAB"/>
<stop offset="0.9943" stop-color="#7A4FAF"/>
</linearGradient>
<linearGradient id="paint10_linear_74_58363" x1="1.24298" y1="53.1335" x2="4.99159" y2="51.3113" gradientUnits="userSpaceOnUse">
<stop stop-color="#FFB6A0"/>
<stop offset="0.1477" stop-color="#F3ACA1"/>
<stop offset="0.4168" stop-color="#D293A5"/>
<stop offset="0.7744" stop-color="#9E6BAB"/>
<stop offset="0.9943" stop-color="#7A4FAF"/>
</linearGradient>
<linearGradient id="paint11_linear_74_58363" x1="6.28429" y1="48.236" x2="9.27801" y2="46.7808" gradientUnits="userSpaceOnUse">
<stop stop-color="#FFB6A0"/>
<stop offset="0.1477" stop-color="#F3ACA1"/>
<stop offset="0.4168" stop-color="#D293A5"/>
<stop offset="0.7744" stop-color="#9E6BAB"/>
<stop offset="0.9943" stop-color="#7A4FAF"/>
</linearGradient>
<linearGradient id="paint12_linear_74_58363" x1="11.4973" y1="48.1492" x2="17.8843" y2="45.0445" gradientUnits="userSpaceOnUse">
<stop stop-color="#FFB6A0"/>
<stop offset="0.1477" stop-color="#F3ACA1"/>
<stop offset="0.4168" stop-color="#D293A5"/>
<stop offset="0.7744" stop-color="#9E6BAB"/>
<stop offset="0.9943" stop-color="#7A4FAF"/>
</linearGradient>
<linearGradient id="paint13_linear_74_58363" x1="13.4075" y1="35.1362" x2="19.5614" y2="32.1448" gradientUnits="userSpaceOnUse">
<stop stop-color="#FFB6A0"/>
<stop offset="0.1477" stop-color="#F3ACA1"/>
<stop offset="0.4168" stop-color="#D293A5"/>
<stop offset="0.7744" stop-color="#9E6BAB"/>
<stop offset="0.9943" stop-color="#7A4FAF"/>
</linearGradient>
<linearGradient id="paint14_linear_74_58363" x1="76.2801" y1="8.55862" x2="80.8063" y2="6.35842" gradientUnits="userSpaceOnUse">
<stop stop-color="#FFB6A0"/>
<stop offset="0.1477" stop-color="#F3ACA1"/>
<stop offset="0.4168" stop-color="#D293A5"/>
<stop offset="0.7744" stop-color="#9E6BAB"/>
<stop offset="0.9943" stop-color="#7A4FAF"/>
</linearGradient>
<linearGradient id="paint15_linear_74_58363" x1="79.9" y1="9.95654" x2="80.8471" y2="9.49618" gradientUnits="userSpaceOnUse">
<stop stop-color="#FFB6A0"/>
<stop offset="0.1477" stop-color="#F3ACA1"/>
<stop offset="0.4168" stop-color="#D293A5"/>
<stop offset="0.7744" stop-color="#9E6BAB"/>
<stop offset="0.9943" stop-color="#7A4FAF"/>
</linearGradient>
</defs>
</svg>
