<svg width="58" height="58" viewBox="0 0 58 58" fill="none" xmlns="http://www.w3.org/2000/svg">
<path d="M33.0025 53.9975C46.8082 51.787 56.208 38.8033 53.9975 24.9975C51.7869 11.1918 38.8032 1.79206 24.9975 4.0026C11.1917 6.21313 1.79199 19.1969 4.00253 33.0026C6.21307 46.8083 19.1968 56.2081 33.0025 53.9975Z" fill="#FFB817"/>
<path d="M29.0029 3.68115C26.7069 3.68115 24.5317 3.98326 22.417 4.52705C22.4774 4.52705 22.5378 4.52705 22.5983 4.52705C26.8882 4.88958 31.0572 6.4001 34.5012 8.99821C35.468 9.72327 36.3743 10.5692 36.7972 11.6567C37.7035 14.134 35.8305 16.6717 34.0179 18.6656C32.1448 20.7199 30.2718 22.8347 28.3383 24.889C27.0694 26.2787 25.7402 27.8496 25.7402 29.6622C25.7402 31.6561 27.2507 33.3479 28.8216 34.5564C30.3926 35.7648 32.2052 36.8524 33.172 38.6046C34.4408 40.9006 34.0179 43.8612 32.5678 46.0364C31.1176 48.2115 28.7612 49.6616 26.3444 50.6888C24.1692 51.5951 21.9336 52.1389 19.5772 52.441C22.4774 53.589 25.6193 54.1932 28.8821 54.1932C42.8393 54.1932 54.1985 42.8945 54.1985 28.8768C54.3194 15.0403 42.9602 3.68115 29.0029 3.68115Z" fill="#FFA917"/>
<path d="M26.1027 11.6564C24.3505 12.3815 22.6587 13.4691 20.7856 13.9524C20.0002 14.1337 19.0939 14.1941 18.5501 13.5899C18.0063 12.9253 18.3688 11.9585 18.7917 11.2335C19.2147 10.5084 19.7585 9.78339 19.6376 8.93749C19.4564 7.66865 17.9458 7.30612 16.7978 6.82275C9.00352 11.1127 3.68646 19.4508 3.68646 28.9973C3.68646 38.0605 8.45973 46.0361 15.7103 50.5072C15.8915 50.4468 16.0728 50.3864 16.2541 50.326C19.3355 49.3592 22.5379 48.6342 25.0755 46.7007C26.1027 45.9756 26.9486 45.0089 27.432 43.8005C27.9153 42.6525 27.8549 41.2628 27.1299 40.2356C26.284 38.9668 24.4713 38.3022 24.2901 36.7916C24.1088 35.6436 25.0755 34.4956 25.0151 33.3476C24.8943 31.2933 22.1149 30.6891 20.8461 29.0577C19.9397 27.9097 19.8793 26.1575 20.544 24.8282C21.1482 23.499 22.3566 22.4114 23.6254 21.6863C25.0755 20.9009 26.7069 20.4175 28.2779 19.7529C29.8488 19.0882 31.3593 18.2423 32.3261 16.8527C33.2928 15.463 33.4741 13.4691 32.4469 12.1398C30.9364 10.448 28.157 10.7501 26.1027 11.6564Z" fill="#FFA917"/>
<path d="M49.4252 14.0129C48.096 14.4963 46.8875 15.1005 45.9208 15.6443C44.229 16.5506 42.5976 17.9403 42.2955 19.8738C42.1747 20.4176 42.2351 20.9614 42.5372 21.3843C43.0206 22.049 43.9873 22.049 44.8332 22.1698C46.2833 22.2906 47.673 22.774 48.8814 23.5595C49.0627 23.6803 49.244 23.8012 49.3044 24.0428C49.4252 24.4054 49.1835 24.7679 48.9419 25.0096C47.4918 26.5201 45.377 27.4264 43.2623 27.4264C41.933 27.4264 40.5433 27.1243 39.2141 27.5473C38.1869 27.9098 37.341 28.6953 36.6764 29.5412C35.8305 30.6892 35.1054 32.0789 35.3471 33.529C35.5888 35.402 37.2806 36.7917 38.9724 37.5772C39.6974 37.8793 40.4225 38.1814 41.208 38.1814C42.2351 38.1814 43.2019 37.7584 44.0478 37.2751C45.0749 36.7313 46.1021 36.1271 47.0084 35.4624C47.9147 34.8582 48.821 34.1936 49.8482 33.8915C51.117 33.5894 52.4463 33.8915 53.7151 34.0123C54.0172 32.381 54.1985 30.7496 54.1985 29.0578C54.3194 23.3782 52.5067 18.2424 49.4252 14.0129Z" fill="#FFB817"/>
<path d="M54.3193 28.2119C51.6004 29.3599 48.6397 29.8433 45.7395 30.0245C44.5311 30.085 43.2623 30.1454 42.1747 30.5683C41.0267 31.0517 40.0599 32.0789 40.0599 33.2873C40.0599 33.6498 40.1204 33.9519 40.362 34.254C40.9663 35.0999 42.2351 34.9791 43.2018 34.5561C44.5915 34.0123 45.8604 33.106 47.2501 32.4414C49.4252 31.4142 51.9025 31.0517 54.3193 31.0517C54.3797 30.3871 54.4402 29.662 54.4402 28.937C54.3193 28.7557 54.3193 28.4536 54.3193 28.2119Z" fill="#FFA917"/>
<path d="M46.3438 20.478C46.525 21.203 47.1897 21.6864 47.9147 21.9281C48.6398 22.1698 49.3648 22.1698 50.1503 22.2302C51.2983 22.351 52.4463 22.5323 53.5943 22.8344C52.9297 20.2967 51.9629 17.9403 50.6337 15.7651C49.6669 16.2485 48.7606 16.7923 47.9147 17.5174C46.948 18.2424 46.0417 19.33 46.3438 20.478Z" fill="#FFA917"/>
<g opacity="0.66">
<path opacity="0.43" d="M40.4829 14.7379C40.785 16.5505 44.7728 14.5567 45.4374 13.7108C46.1021 12.8649 45.9208 11.7773 44.8332 11.3543C43.3227 10.7501 42.0539 11.8981 41.0871 12.9857C40.785 13.2878 40.5433 13.6503 40.4225 14.1337C40.4225 14.315 40.4225 14.5567 40.4829 14.7379Z" fill="#FFCB24"/>
<path opacity="0.43" d="M40.3621 17.5173C40.2412 17.2756 39.8787 17.0339 39.5766 17.0944C39.4557 17.0944 39.3349 17.0944 39.2141 17.1548C38.8515 17.2756 38.489 17.6381 38.489 18.0611V18.1215C38.489 18.2424 38.489 18.3028 38.5494 18.4236V18.484C38.5494 18.9674 39.0328 19.2091 39.4557 19.1487C39.7579 19.0882 40.06 18.907 40.2412 18.6653C40.2412 18.6049 40.3016 18.6049 40.3016 18.5445C40.3016 18.5445 40.3016 18.484 40.3621 18.4236C40.3621 18.4236 40.3621 18.4236 40.3621 18.3632V18.3028C40.3621 18.2424 40.4225 18.1819 40.4225 18.1819C40.5433 17.9402 40.5433 17.6986 40.3621 17.5173Z" fill="#FFCB24"/>
<path d="M40.8454 23.1969C40.785 21.928 39.8786 20.5383 38.4285 20.8404C36.193 21.2634 36.9784 24.9491 38.9119 25.1303C40.3016 25.2512 40.9058 24.2844 40.8454 23.1969Z" fill="#FFCB24"/>
<path d="M38.7911 15.2815C39.5162 15.2815 39.5162 14.1335 38.7911 14.1335C38.0661 14.1335 38.0661 15.2815 38.7911 15.2815Z" fill="#FFCB24"/>
<path d="M39.2141 13.0459C39.637 13.1668 40.1808 12.9251 40.2412 12.4417V12.3813C40.4225 12.1396 40.6037 11.8979 40.785 11.6563C41.1475 11.1125 40.5433 10.3874 39.9391 10.5687C39.3349 10.7499 38.6703 11.2937 38.6098 11.9584C38.5494 12.4417 38.6703 12.9855 39.2141 13.0459Z" fill="#FFCB24"/>
<path opacity="0.43" d="M41.6309 11.1728C42.1747 11.1728 42.1747 10.3269 41.6309 10.3269C41.1475 10.3269 41.1475 11.1728 41.6309 11.1728Z" fill="#FFCB24"/>
<path d="M43.0207 10.629C43.7457 10.629 43.7457 9.48096 43.0207 9.48096C42.2956 9.48096 42.2956 10.629 43.0207 10.629Z" fill="#FFCB24"/>
<path d="M49.9086 37.5168C49.8482 37.396 49.7273 37.2751 49.5461 37.2147C47.8543 36.6709 45.8604 37.7585 44.7124 38.9669C43.9873 39.7524 43.6852 40.9004 44.2894 41.8067C44.8936 42.8339 46.1021 42.9547 47.1896 42.5922C48.7606 42.1088 50.8753 40.84 50.8149 38.9669C50.7545 38.3023 50.392 37.8189 49.9086 37.5168Z" fill="#FFCB24"/>
<path d="M40.5433 40.5981C40.5433 41.2627 41.0871 41.8065 41.7517 41.8065C42.3559 41.8065 42.9601 41.2627 42.9601 40.5981C42.9601 39.9334 42.4163 39.3896 41.7517 39.3896C41.1475 39.3896 40.5433 39.9334 40.5433 40.5981Z" fill="#FFCB24"/>
<path opacity="0.43" d="M42.7184 43.1359C42.2955 42.8942 41.7517 42.7733 41.3288 42.8338C40.3016 42.9546 38.6702 44.4047 39.7578 45.4319C40.7245 46.3382 42.2955 45.4923 42.9601 44.6464C43.4435 43.9818 43.2018 43.438 42.7184 43.1359Z" fill="#FFCB24"/>
<path d="M45.3166 43.6797C44.2894 43.6797 44.2894 45.2506 45.3166 45.2506C46.3437 45.1902 46.3437 43.6797 45.3166 43.6797Z" fill="#FFCB24"/>
<path d="M43.6248 46.2776C43.2019 46.2776 43.2019 46.9422 43.6248 46.9422C44.0478 46.9422 44.0478 46.2776 43.6248 46.2776Z" fill="#FFCB24"/>
<path d="M47.6126 43.1357C46.7667 43.1357 46.7667 44.4046 47.6126 44.4046C48.398 44.4046 48.398 43.1357 47.6126 43.1357Z" fill="#FFCB24"/>
</g>
<path opacity="0.39" d="M3.68646 28.9976C3.68646 35.0397 5.8012 40.5984 9.36604 44.9487C9.30562 44.1029 9.42647 43.257 9.60774 42.4111C10.1515 40.1755 11.662 38.242 13.2934 36.5502C13.6559 36.1877 14.0185 35.8252 14.1393 35.3418C14.4414 34.3146 13.5955 33.2875 12.6892 32.8041C11.7829 32.3207 10.6953 32.1395 9.789 31.6561C7.73468 30.5081 6.94921 27.487 8.27847 25.4931C8.45974 25.191 8.70141 24.8889 9.06394 24.7681C9.97026 24.3451 10.8766 25.0098 11.7829 25.4327C13.5955 26.2786 15.8915 26.0369 17.4625 24.7681C19.0334 23.4992 19.7585 21.3241 19.3355 19.3302C19.0938 18.303 18.4292 17.2759 17.4021 17.0342C15.952 16.6717 14.6227 17.9405 13.1726 18.2426C12.8705 18.303 12.508 18.303 12.2058 18.1822C11.9037 18.0009 11.6621 17.6988 11.5412 17.3967C10.4536 15.282 10.5141 13.0464 11.2995 11.0525C6.58668 15.6445 3.68646 21.9887 3.68646 28.9976Z" fill="#FFCB24"/>
<g opacity="0.64">
<path d="M17.1 35.1604C16.4958 35.1604 15.952 35.7042 15.952 36.3084C15.952 36.9126 16.4353 37.4564 17.1 37.4564C17.7042 37.4564 18.248 36.9126 18.248 36.3084C18.1875 35.6438 17.7646 35.1604 17.1 35.1604Z" fill="#FFCB24"/>
<path opacity="0.63" d="M20.544 31.9578C20.3628 31.2932 19.9398 30.7494 19.3356 30.4473C18.7314 30.1452 18.0063 30.0243 17.3417 30.266C16.8583 30.4473 16.375 30.689 16.1333 31.1723C15.8916 31.6557 15.8312 32.1995 15.952 32.7433C16.0124 32.9245 16.0729 33.0454 16.1333 33.1662C16.1937 33.5288 16.375 33.8309 16.6771 34.0726L16.6166 34.0121C16.7375 34.133 16.9188 34.2538 17.0396 34.3747C17.2813 34.4955 17.4625 34.5559 17.7042 34.6163C17.6438 34.6163 17.6438 34.6163 17.5834 34.6163C18.1272 34.6768 18.6106 34.7976 19.1543 34.6163C20.1815 34.1934 20.8461 33.1058 20.544 31.9578Z" fill="#FFCB24"/>
<path d="M15.0457 31.2933C15.7103 31.2933 15.7103 30.2661 15.0457 30.2661C14.381 30.2661 14.381 31.2933 15.0457 31.2933Z" fill="#FFCB24"/>
<path d="M12.6892 30.0847C13.7163 30.0847 13.7163 28.4534 12.6892 28.4534C11.6016 28.5138 11.6016 30.0847 12.6892 30.0847Z" fill="#FFCB24"/>
<path d="M12.8704 39.9939C12.0245 39.9939 12.0245 41.2627 12.8704 41.2627C13.7163 41.2627 13.7163 39.9939 12.8704 39.9939Z" fill="#FFCB24"/>
<path d="M13.1726 43.1359C13.1726 42.5317 12.6892 42.0483 12.085 42.0483C11.5412 42.0483 10.9974 42.5317 10.9974 43.1359C10.9974 43.7401 11.4808 44.2235 12.085 44.2235C12.6288 44.2235 13.1726 43.7401 13.1726 43.1359Z" fill="#FFCB24"/>
<path opacity="0.63" d="M13.1122 44.2839C11.9642 44.2839 11.9642 46.0966 13.1122 46.0966C14.2602 46.0966 14.2602 44.2839 13.1122 44.2839Z" fill="#FFCB24"/>
<path opacity="0.63" d="M17.4625 41.2626C17.4625 41.2626 17.4625 41.2626 17.5229 41.2022C17.5833 41.021 17.5833 40.7793 17.5833 40.598C17.5833 40.1146 17.3416 39.6313 16.8583 39.3896C16.4353 38.8458 15.6498 39.0271 15.1665 39.2687C14.6831 39.5708 14.2602 39.9938 14.0789 40.5376C13.8976 41.0814 13.958 41.746 14.2602 42.2294C14.6831 42.894 15.529 43.2565 16.2541 43.0149C17.0395 42.7732 17.3416 42.1085 17.4625 41.3231C17.4021 41.3835 17.4021 41.3231 17.4625 41.2626Z" fill="#FFCB24"/>
<path d="M18.6709 40.4773C19.7585 40.4773 19.7585 38.7855 18.6709 38.7855C17.5833 38.725 17.5833 40.4773 18.6709 40.4773Z" fill="#FFCB24"/>
<path d="M18.4292 41.4443H18.3688C17.5833 41.7464 17.5833 42.834 18.3688 43.0757H18.4292C18.973 43.257 19.5168 42.7736 19.5168 42.2298C19.5772 41.7464 18.973 41.2026 18.4292 41.4443Z" fill="#FFCB24"/>
<path d="M17.5833 43.438C17.0395 43.438 17.0395 44.3443 17.5833 44.3443C18.1271 44.3443 18.1271 43.438 17.5833 43.438Z" fill="#FFCB24"/>
<path d="M15.7102 44.4653C15.3477 44.4653 15.3477 45.0091 15.7102 45.0091C16.0728 45.0091 16.0728 44.4653 15.7102 44.4653Z" fill="#FFCB24"/>
</g>
<g opacity="0.36">
<path d="M13.1725 13.6504C12.3266 13.6504 11.5412 14.3754 11.6016 15.2213C11.662 16.0672 12.2662 16.7923 13.1725 16.7923C14.0184 16.7923 14.8039 16.0672 14.7435 15.2213C14.6831 14.315 14.0184 13.6504 13.1725 13.6504Z" fill="#FFCB24"/>
<path d="M12.4475 12.9856C12.6892 13.2273 12.9913 13.2877 13.2934 13.1669C13.5955 13.0461 13.7768 12.744 13.7768 12.4418C13.7164 11.7168 12.9309 11.4147 12.4475 11.8981C12.4475 11.8981 12.4475 11.8981 12.3871 11.9585C12.1454 12.2002 12.1454 12.744 12.4475 12.9856Z" fill="#FFCB24"/>
<path d="M15.1665 11.8376C14.7435 11.8376 14.7435 12.5023 15.1665 12.5023C15.5894 12.5023 15.5894 11.8376 15.1665 11.8376Z" fill="#FFCB24"/>
<path d="M16.4353 13.7107C15.4686 13.7107 15.4686 15.1608 16.4353 15.1608C17.3416 15.1608 17.3416 13.7107 16.4353 13.7107Z" fill="#FFCB24"/>
<path d="M16.7374 12.321C15.9519 12.321 15.9519 13.469 16.7374 13.469C17.4625 13.469 17.4625 12.321 16.7374 12.321Z" fill="#FFCB24"/>
<path d="M16.4353 8.03125C14.2602 8.03125 14.2602 11.3544 16.4353 11.3544C18.5501 11.3544 18.5501 8.03125 16.4353 8.03125Z" fill="#FFCB24"/>
<path d="M13.8373 11.1126C14.1998 11.1126 14.1998 10.5688 13.8373 10.5688C13.4747 10.5688 13.4747 11.1126 13.8373 11.1126Z" fill="#FFCB24"/>
</g>
<g opacity="0.42">
<path d="M38.8515 49.5405C36.0722 51.7156 32.8094 53.2866 29.4259 54.3138C43.2019 54.0721 54.3194 42.8337 54.3194 28.9973C54.3194 17.336 46.4646 7.54779 35.7701 4.58716C36.0722 4.708 36.3139 4.82884 36.5555 5.01011C37.8848 5.73516 38.912 6.88316 39.6974 8.21243C40.4225 9.42085 40.8455 10.8105 40.9059 12.2606C40.9663 14.4962 39.9391 16.611 38.5494 18.4236C35.8909 21.928 32.0844 24.224 28.8821 27.2451C27.9153 28.1514 26.8882 29.2994 26.9486 30.6891C26.9486 31.8975 27.7945 32.9247 28.7612 33.5893C29.728 34.2539 30.876 34.6165 31.9635 34.979C34.4408 35.9457 36.7368 37.275 38.7911 38.9668C40.6038 40.4773 42.2956 42.5921 42.0539 44.9485C41.8122 46.8215 40.3621 48.3321 38.8515 49.5405Z" fill="#FFB817"/>
<path d="M29.3654 3.68115C29.2446 3.68115 29.1237 3.68115 29.0029 3.68115C28.5195 3.68115 28.0362 3.68115 27.6132 3.74157C28.2174 3.74157 28.8216 3.74157 29.3654 3.68115Z" fill="#FFB817"/>
</g>
<path opacity="0.35" d="M47.9751 12.2607C49.7273 15.7047 50.7545 19.6321 50.7545 23.8012C50.7545 37.7585 39.4558 49.1176 25.4381 49.1176C17.8854 49.1176 11.0578 45.7945 6.46582 40.5378C10.6349 48.6947 19.1543 54.3139 29.0029 54.3139C42.9602 54.3139 54.3194 43.0151 54.3194 28.9974C54.3194 22.5928 51.9025 16.7319 47.9751 12.2607Z" fill="#FFCD5C"/>
<path opacity="0.39" d="M45.3166 9.66235C45.7395 11.475 45.9208 13.2876 45.9208 15.2211C45.9208 29.1784 34.6221 40.5376 20.6044 40.5376C14.381 40.5376 8.70139 38.302 4.29065 34.6163C6.82834 45.915 16.9187 54.374 29.0029 54.374C42.9602 54.374 54.3194 43.0752 54.3194 29.0575C54.3194 21.2028 50.8149 14.2544 45.3166 9.66235Z" fill="#FFB817"/>
<path opacity="0.61" d="M48.0356 12.3214C43.3831 7.06474 36.616 3.68115 29.0029 3.68115C25.7402 3.68115 22.5983 4.28536 19.6981 5.43337C19.6981 5.43337 19.6376 5.43337 19.6376 5.49379C19.3355 5.61463 19.0939 5.73547 18.7917 5.85631C18.7917 5.85631 18.7313 5.85631 18.7313 5.91673C17.8854 6.27926 17.0999 6.70221 16.3145 7.18558C16.2541 7.18558 16.1936 7.246 16.1936 7.246C15.952 7.36684 15.7707 7.48768 15.529 7.66895C15.4082 7.72937 15.3477 7.78979 15.2269 7.85021C15.0456 7.97105 14.804 8.09189 14.6227 8.27316C14.5018 8.33358 14.4414 8.394 14.3206 8.51484C13.7164 8.93779 13.1122 9.42116 12.5684 9.90453C12.4475 10.0254 12.3267 10.1462 12.2058 10.2066C12.085 10.3275 11.9037 10.4483 11.7829 10.6296C11.662 10.7504 11.5412 10.8713 11.4204 10.9921C11.2995 11.113 11.1787 11.2338 10.9974 11.4151C10.8766 11.5359 10.7557 11.7172 10.5745 11.838C6.34499 16.3696 3.68646 22.4721 3.68646 29.1789C3.68646 36.1273 6.46584 42.4111 10.9974 47.0031C7.07005 42.5319 4.71362 36.7315 4.71362 30.3269C4.71362 23.9222 7.13047 18.0614 11.0578 13.5902C12.4475 15.3424 14.6227 16.43 17.0395 16.43C21.269 16.43 24.713 12.986 24.713 8.75653C24.713 7.66895 24.4713 6.64179 24.1088 5.73547C26.0423 5.2521 28.0362 5.01042 30.0905 5.01042C37.0993 4.82915 43.4436 7.66895 48.0356 12.3214Z" fill="#FFC747"/>
<path opacity="0.2" d="M5.13654 20.5989C7.6138 25.916 12.9913 29.6017 19.2147 29.6017C27.7945 29.6017 34.7429 22.6533 34.7429 14.0735C34.7429 10.0857 33.2324 6.4604 30.7551 3.68103C30.1509 3.6206 29.6071 3.62061 29.0029 3.62061C17.9458 3.68103 8.58054 10.7503 5.13654 20.5989Z" fill="#FFB817"/>
<path opacity="0.91" d="M29.0029 54.3141C42.9848 54.3141 54.3194 42.9795 54.3194 28.9976C54.3194 15.0157 42.9848 3.68115 29.0029 3.68115C15.021 3.68115 3.68646 15.0157 3.68646 28.9976C3.68646 42.9795 15.021 54.3141 29.0029 54.3141Z" fill="url(#paint0_linear_74_56130)"/>
<path opacity="0.68" d="M20.6044 26.4596C26.7111 26.4596 31.6615 21.5362 31.6615 15.463C31.6615 9.38967 26.7111 4.46631 20.6044 4.46631C14.4978 4.46631 9.54736 9.38967 9.54736 15.463C9.54736 21.5362 14.4978 26.4596 20.6044 26.4596Z" fill="url(#paint1_radial_74_56130)"/>
<path opacity="0.25" d="M52.2651 18.907C52.3255 21.8676 51.9026 24.8887 50.815 27.8493C46.1626 40.9003 31.8427 47.7279 18.7314 43.1359C11.9642 40.719 6.88882 35.7645 4.23029 29.7224C4.47197 39.8127 10.8162 49.2384 20.9669 52.8032C34.0179 57.4557 48.3981 50.6281 53.0506 37.5167C55.2861 31.1725 54.8028 24.5866 52.2651 18.907Z" fill="url(#paint2_linear_74_56130)"/>
<path opacity="0.37" d="M39.5766 6.27905C41.6309 8.45421 43.3227 10.9919 44.5311 13.8921C49.8482 26.7014 43.7456 41.3837 30.9364 46.7008C24.3505 49.4197 17.2208 49.1176 11.1786 46.4591C18.1271 53.8305 29.1237 56.5494 39.0328 52.4408C51.8421 47.1237 57.9446 32.4414 52.6276 19.6321C50.0294 13.4087 45.2562 8.75632 39.5766 6.27905Z" fill="url(#paint3_linear_74_56130)"/>
<defs>
<linearGradient id="paint0_linear_74_56130" x1="11.1197" y1="11.1041" x2="46.9023" y2="46.8867" gradientUnits="userSpaceOnUse">
<stop stop-color="white"/>
<stop offset="1" stop-color="#DD3D02"/>
</linearGradient>
<radialGradient id="paint1_radial_74_56130" cx="0" cy="0" r="1" gradientUnits="userSpaceOnUse" gradientTransform="translate(20.6181 15.453) scale(11.0367 11.0256)">
<stop stop-color="#ECECEC"/>
<stop offset="0.4693" stop-color="#F1F1F1"/>
<stop offset="1" stop-color="white"/>
</radialGradient>
<linearGradient id="paint2_linear_74_56130" x1="26.9756" y1="19.2843" x2="35.222" y2="53.681" gradientUnits="userSpaceOnUse">
<stop offset="0.2422" stop-color="white"/>
<stop offset="0.3795" stop-color="#FFFFFC"/>
<stop offset="0.4828" stop-color="#FFFEF2"/>
<stop offset="0.5749" stop-color="#FFFDE2"/>
<stop offset="0.6607" stop-color="#FFFBCB"/>
<stop offset="0.7419" stop-color="#FFF8AE"/>
<stop offset="0.8198" stop-color="#FFF589"/>
<stop offset="0.8949" stop-color="#FFF25E"/>
<stop offset="0.9662" stop-color="#FFEE2E"/>
<stop offset="1" stop-color="#FFEC14"/>
</linearGradient>
<linearGradient id="paint3_linear_74_56130" x1="21.0281" y1="23.4331" x2="50.1859" y2="43.5048" gradientUnits="userSpaceOnUse">
<stop offset="0.2422" stop-color="white"/>
<stop offset="0.4698" stop-color="#FFFFFD"/>
<stop offset="0.5763" stop-color="#FFFEF5"/>
<stop offset="0.6576" stop-color="#FFFDE9"/>
<stop offset="0.7261" stop-color="#FFFCD6"/>
<stop offset="0.7866" stop-color="#FFFABE"/>
<stop offset="0.8414" stop-color="#FFF7A1"/>
<stop offset="0.8919" stop-color="#FFF57E"/>
<stop offset="0.9391" stop-color="#FFF156"/>
<stop offset="0.982" stop-color="#FFEE29"/>
<stop offset="1" stop-color="#FFEC14"/>
</linearGradient>
</defs>
</svg>
