<svg width="59" height="47" viewBox="0 0 59 47" fill="none" xmlns="http://www.w3.org/2000/svg">
<path fill-rule="evenodd" clip-rule="evenodd" d="M13.7586 12.1527C13.809 12.2392 13.8378 12.2824 13.9386 12.2392C13.9963 12.2104 14.0251 12.2032 14.0611 12.1455C14.1115 12.1095 14.1619 11.9943 14.1835 11.9438C14.3132 11.6197 14.378 11.202 14.4789 10.8562C14.4789 10.8418 14.5005 10.7986 14.5005 10.7842C14.5797 10.5393 14.6589 10.3016 14.7382 10.0639C14.767 9.97746 14.7958 9.89823 14.8174 9.80459C14.8246 9.77578 14.839 9.73976 14.8462 9.71815C14.8462 9.71095 14.8606 9.69654 14.8606 9.68934C14.875 9.66053 14.875 9.62451 14.8606 9.5957C14.8318 9.5957 14.803 9.60291 14.7742 9.61731C14.7382 9.63172 14.7022 9.65333 14.6733 9.68214C14.5869 9.74696 14.5221 9.81899 14.4501 9.90543C14.4212 9.92704 14.3132 10.0855 14.2916 10.1215C14.1835 10.2872 14.0971 10.4528 14.0179 10.6257C13.9386 10.7986 13.8666 10.9643 13.8018 11.1443C13.7226 11.3676 13.6073 11.807 13.6865 12.0303C13.7009 12.0735 13.7226 12.1167 13.7514 12.1527H13.7586Z" fill="white"/>
<path fill-rule="evenodd" clip-rule="evenodd" d="M15.0407 17.1442C15.1272 17.1226 15.1992 17.101 15.2784 17.0506C15.3073 17.0434 15.3217 17.0218 15.3433 17.0002C15.3577 16.9786 15.3649 16.9569 15.3649 16.9281C15.3649 16.9209 15.3505 16.8201 15.3433 16.8849C15.3433 16.8993 15.3433 16.9065 15.3289 16.9137C15.3289 16.9137 15.3217 16.9209 15.3145 16.9209C15.3001 16.8921 15.3505 16.8633 15.264 16.8345H15.2352C15.228 16.8345 15.2208 16.8345 15.2136 16.8489C15.2064 16.8489 15.1992 16.8777 15.1992 16.8777C15.1992 16.8993 15.1992 16.9353 15.1776 16.9065C15.1776 16.8921 15.1776 16.8777 15.1776 16.8705C15.1848 16.8561 15.192 16.8489 15.2064 16.8417C15.0624 16.8201 14.9975 16.8273 14.8463 16.7769C14.8463 16.7769 14.8247 16.7769 14.8247 16.7697C14.6806 16.7192 14.551 16.6616 14.4141 16.5896C14.162 16.4599 13.9603 16.3303 13.737 16.1502C13.7154 16.1358 13.701 16.1214 13.6794 16.0998C13.4849 15.9197 13.3625 15.7324 13.24 15.502C13.2256 15.4876 13.1896 15.3939 13.1752 15.3723C13.1464 15.3003 13.1104 15.2282 13.0888 15.149C13.06 15.0626 13.0311 14.9617 13.0167 14.8681C13.0167 14.8393 13.0023 14.7961 12.9591 14.8105C12.9159 14.9257 12.9087 15.0554 12.9087 15.1778C12.9159 15.3291 12.9375 15.4587 12.9879 15.61C13.0095 15.6748 13.0311 15.7324 13.06 15.7973C13.1608 16.0206 13.2616 16.2006 13.4345 16.3807C13.5714 16.532 13.7154 16.6544 13.8811 16.7697C13.9963 16.8489 14.0972 16.9137 14.2268 16.9786C14.4069 17.065 14.5582 17.1226 14.7598 17.1442C14.8607 17.1514 14.9471 17.1514 15.0552 17.1298L15.0407 17.1442Z" fill="white"/>
<path fill-rule="evenodd" clip-rule="evenodd" d="M14.5797 16.3089C14.5797 16.3089 14.7238 16.3449 14.7526 16.3521C14.8751 16.3738 14.9903 16.381 15.12 16.3882C15.2712 16.3882 15.4081 16.3882 15.5521 16.3521C15.6026 16.3449 15.6458 16.3305 15.689 16.3161C15.8691 16.2513 16.0203 16.1649 16.1284 16.0064C16.1212 16.0064 16.1356 15.9776 16.1428 15.9704L16.186 15.8984C16.2004 15.8696 16.2148 15.8407 16.222 15.8047C16.2436 15.7111 16.222 15.6895 16.1428 15.6895C16.114 15.6895 16.0852 15.6823 16.0563 15.6895C16.0275 15.6895 16.0131 15.6895 15.9843 15.7039C15.9483 15.7255 15.8979 15.7471 15.8619 15.7687C15.8475 15.7687 15.8331 15.7831 15.8186 15.7903C15.725 15.8335 15.6242 15.8768 15.5305 15.9128C15.4081 15.9632 15.3 15.992 15.1704 16.0208C15.1416 16.0208 15.1056 16.028 15.0767 16.0352C14.9255 16.0568 14.767 16.064 14.6158 16.0712H14.5942C14.4933 16.0712 14.3781 16.0784 14.2844 16.0712C14.2556 16.0712 14.234 16.0856 14.2268 16.1145C14.306 16.2225 14.4573 16.2801 14.5797 16.3161V16.3089Z" fill="white"/>
<path fill-rule="evenodd" clip-rule="evenodd" d="M15.2856 27.2067C15.2136 27.1131 15.1344 27.0339 15.0479 26.9474C14.5581 26.4937 13.7802 26.1911 13.1608 25.9751L13.1247 25.9606C12.5557 25.7734 12.0731 25.6437 11.4753 25.5789C11.216 25.5501 10.9783 25.5645 10.719 25.6149C10.6902 25.6149 10.6325 25.6437 10.6542 25.6797C11.0719 25.723 11.5041 25.831 11.9075 25.9462C12.282 26.0543 12.6278 26.1767 12.9879 26.3208C13.2472 26.4288 13.4921 26.5369 13.7514 26.6593C14.2268 26.8898 14.5797 27.1059 15.0191 27.3796C15.0335 27.3868 15.0551 27.4084 15.0695 27.4084C15.2352 27.5093 15.3793 27.7326 15.4729 27.5813C15.5233 27.4589 15.264 27.2068 15.2784 27.1923L15.2856 27.2067Z" fill="white"/>
<path fill-rule="evenodd" clip-rule="evenodd" d="M11.4464 25.975C11.3528 25.8886 11.2663 25.8382 11.1439 25.7878C10.899 25.7013 10.6613 25.6941 10.402 25.7013C10.3732 25.7013 10.3444 25.7013 10.3228 25.7013C10.049 25.7229 9.84737 25.7518 9.59526 25.8598H9.58086C9.48722 25.903 9.40799 25.9462 9.32876 26.0111C9.29274 26.0399 9.24232 26.0903 9.22071 26.1335C9.1919 26.1911 9.24953 26.2055 9.24953 26.2055C9.28554 26.1767 9.34316 26.1551 9.39358 26.1407C9.4224 26.1263 9.61687 26.0975 9.64568 26.0903C9.71771 26.0903 9.79695 26.0759 9.87618 26.0687C10.0346 26.0615 10.1787 26.0543 10.3372 26.0687C10.4812 26.0759 10.6037 26.0975 10.7405 26.1263C10.8342 26.1479 10.9206 26.1623 11.007 26.1911C11.1007 26.2199 11.1727 26.2488 11.2591 26.292C11.2879 26.3064 11.3096 26.3208 11.3384 26.328C11.396 26.3568 11.4536 26.3928 11.5112 26.4216C11.5112 26.4216 11.5545 26.4576 11.6049 26.4L11.6193 26.3856C11.6193 26.3856 11.6193 26.3856 11.6193 26.3712C11.6913 26.2415 11.5617 26.0903 11.4824 25.9967C11.4824 25.9967 11.4536 25.9678 11.4464 25.9606V25.975Z" fill="white"/>
<path fill-rule="evenodd" clip-rule="evenodd" d="M17.5762 30.621C17.4753 30.3833 16.9855 30.2536 16.7694 30.2032C16.7694 30.2032 16.6974 30.1816 16.683 30.1816C16.294 30.0952 15.9483 30.0592 15.5594 30.0376C14.9903 30.0087 14.4285 30.0159 13.8595 30.0159C13.7226 30.0159 13.5858 30.0159 13.4489 30.0159C12.9231 30.0015 12.3901 30.0664 11.8715 30.1312C11.5185 30.1744 11.1728 30.2392 10.827 30.2897C10.8054 30.2897 10.7046 30.3113 10.7406 30.3545C11.2808 30.4265 12.0299 30.3761 12.5846 30.3545C12.8727 30.3473 13.1536 30.3473 13.4345 30.3689C13.9099 30.4121 14.3781 30.4265 14.8535 30.4409C15.084 30.4481 15.3072 30.4625 15.5377 30.4697C15.9339 30.4913 16.3157 30.5201 16.7046 30.5634C16.8271 30.5778 16.9423 30.5994 17.0576 30.621C17.216 30.6498 17.3241 30.6858 17.4753 30.7362C17.5257 30.7578 17.6914 30.8227 17.6266 30.7002C17.6266 30.693 17.569 30.621 17.5834 30.6138L17.5762 30.621Z" fill="white"/>
<path fill-rule="evenodd" clip-rule="evenodd" d="M8.61556 31.6294C8.61556 31.6294 8.52192 31.7086 8.4859 31.7303C8.26982 31.8959 8.11855 32.0544 7.93848 32.2561C7.78722 32.4289 7.68638 32.5802 7.58554 32.7747C7.52071 32.9043 7.4775 33.034 7.42708 33.1708C7.41987 33.1997 7.41267 33.2429 7.45589 33.2501C7.61435 33.0916 7.76561 32.9331 7.92408 32.7747C8.08974 32.609 8.26261 32.4794 8.44268 32.3353C8.55073 32.2417 8.65877 32.148 8.76682 32.0544C8.84605 31.9752 8.90367 31.8887 8.95409 31.7879C8.95409 31.7879 8.9685 31.7591 8.9757 31.7447C8.99011 31.7159 8.99731 31.687 9.01171 31.6654C9.03332 31.615 9.06934 31.543 9.01892 31.4926C8.96129 31.4349 8.91808 31.4349 8.85325 31.4637C8.79563 31.4854 8.74521 31.5214 8.70199 31.5574C8.68758 31.5646 8.63716 31.6078 8.61556 31.6222V31.6294Z" fill="white"/>
<path fill-rule="evenodd" clip-rule="evenodd" d="M19.4273 34.5681C19.2544 34.6257 19.1032 34.7626 18.9015 34.8634C18.9015 34.8634 18.8439 34.885 18.8367 34.8922C18.6494 34.9571 18.4765 35.0003 18.2821 35.0363C17.8715 35.1083 17.5113 35.1299 17.1008 35.1371C17.0432 35.1371 16.9783 35.1371 16.9207 35.1371C16.3301 35.1299 15.9555 35.0795 15.4009 34.9139C15.2712 34.8706 15.084 34.813 14.9471 34.8418C14.9039 34.849 14.9111 34.9066 14.9111 34.9066C15.1992 35.0291 15.3073 35.166 15.7322 35.3172C16.1428 35.4469 16.4957 35.4901 16.9207 35.5117C17.2088 35.5333 17.4897 35.5477 17.7778 35.5405C17.9795 35.5405 18.1668 35.5117 18.3685 35.4757C18.6422 35.4181 18.8583 35.346 19.0888 35.1948C19.132 35.1732 19.2328 35.0795 19.2689 35.0435C19.3049 35.0003 19.665 34.5177 19.4273 34.5825V34.5681Z" fill="white"/>
<path fill-rule="evenodd" clip-rule="evenodd" d="M13.5136 41.6054L13.4848 41.519C13.4848 41.519 13.3335 41.2741 13.3263 41.2525C13.1751 41.0076 12.959 40.7555 12.8365 40.525C12.8365 40.525 12.8365 40.5106 12.8293 40.5106C12.7429 40.3161 12.6997 40.136 12.6565 39.9272C12.6277 39.7615 12.5772 39.603 12.5412 39.4374C12.534 39.4086 12.5124 39.3581 12.4764 39.3797C12.4404 39.6463 12.4044 39.92 12.4116 40.1865C12.4116 40.3593 12.4332 40.489 12.4836 40.6547C12.5196 40.7699 12.5556 40.8707 12.6133 40.9716C12.7429 41.2021 12.9878 41.4758 13.1967 41.6343C13.2111 41.6415 13.2759 41.6919 13.2831 41.6991C13.2975 41.6991 13.3552 41.7423 13.3696 41.7495C13.3912 41.7639 13.4128 41.7711 13.4416 41.7783C13.456 41.7783 13.4704 41.7783 13.4848 41.7783C13.5496 41.7711 13.5208 41.7351 13.5208 41.6991C13.5208 41.6991 13.5208 41.6703 13.5208 41.6631C13.5208 41.6415 13.528 41.6271 13.5208 41.6054H13.5136Z" fill="white"/>
<path fill-rule="evenodd" clip-rule="evenodd" d="M18.959 8.24154C18.6925 8.37119 18.4332 8.47924 18.1595 8.58728C18.0947 8.60889 18.0299 8.6377 17.965 8.65931C17.8426 8.70253 17.468 8.75295 17.5473 8.8754C17.6985 9.06267 18.0587 8.96903 18.2532 8.94022C18.2676 8.94022 18.3612 8.91861 18.3828 8.91141C18.6637 8.84658 18.887 8.76015 19.1463 8.6449C19.4344 8.50084 19.6865 8.35679 19.953 8.16951C20.0683 8.08308 20.1763 8.00384 20.2772 7.903C20.3636 7.82377 20.4284 7.75174 20.4933 7.6509C20.7382 7.26915 21.0335 6.87299 21.0263 6.4048C21.0119 6.1527 20.9326 5.87179 20.8966 5.60528C20.8966 5.59087 20.875 5.42521 20.8318 5.48283C20.8102 5.87179 20.8534 6.31837 20.6949 6.67131C20.5653 6.92341 20.3564 7.21153 20.1979 7.44922C20.0683 7.60769 19.8954 7.72293 19.7298 7.83818C19.6289 7.8958 19.5281 7.95342 19.4272 8.01105C19.276 8.09028 19.1247 8.16951 18.9663 8.24874L18.959 8.24154Z" fill="white"/>
<path fill-rule="evenodd" clip-rule="evenodd" d="M16.2364 8.31371C16.3012 8.31371 16.3733 8.31371 16.4381 8.31371C16.8487 8.31371 17.2304 8.26329 17.6338 8.19846C17.7634 8.17686 17.8859 8.14804 18.0155 8.11923C18.3325 8.04 18.635 7.94636 18.9303 7.80951C19.0528 7.75188 19.1608 7.69426 19.2688 7.61503C19.3049 7.58622 19.3337 7.56461 19.3625 7.5358C19.4129 7.49258 19.4561 7.44936 19.4993 7.39174C19.5426 7.32691 19.6074 7.22607 19.4777 7.23328C19.4345 7.23328 19.4129 7.23327 19.3697 7.24768C19.3193 7.24768 19.2616 7.27649 19.2184 7.2981C19.1032 7.33412 18.9879 7.37733 18.8727 7.41335C18.8439 7.42055 18.8079 7.43496 18.779 7.44216C18.3613 7.55741 17.9651 7.70146 17.5401 7.80951C17.4537 7.83112 17.3745 7.85272 17.288 7.86713C16.9279 7.93916 16.5894 7.99678 16.222 8.04C16.1572 8.04 16.0924 8.0472 16.0275 8.05441C15.9195 8.05441 15.8115 8.06161 15.7034 8.06161C15.6026 8.06161 15.4873 8.0472 15.3937 8.01839C15.3649 8.01119 15.3145 7.99678 15.3145 8.04C15.4153 8.14084 15.5449 8.19126 15.6818 8.22728C15.8691 8.2777 16.0419 8.29931 16.2436 8.31371H16.2364Z" fill="white"/>
<path fill-rule="evenodd" clip-rule="evenodd" d="M22.3661 15.0699C22.467 15.0699 22.5678 15.0627 22.6686 15.0627H22.683C22.7263 15.0627 22.7695 15.0627 22.8127 15.0699C22.8775 15.0699 22.9784 15.142 23 15.0411C23.0216 14.9547 23 14.9187 22.9351 14.8539C22.8775 14.8034 22.8199 14.7674 22.7479 14.7386C22.7191 14.717 22.575 14.681 22.5318 14.6738C22.4742 14.6594 22.4237 14.6522 22.3661 14.6522C21.689 14.6378 21.1704 14.6954 20.5438 14.9691C20.2989 15.0844 20.054 15.2356 19.8811 15.4517C19.8307 15.5237 19.8235 15.5381 19.8235 15.6174C19.8235 15.6318 19.8235 15.6678 19.8235 15.6822C19.9099 15.7182 20.1188 15.5886 20.1908 15.5453C20.5294 15.3509 20.8391 15.25 21.2209 15.178C21.6098 15.106 21.9627 15.0772 22.3589 15.0627L22.3661 15.0699Z" fill="white"/>
<path fill-rule="evenodd" clip-rule="evenodd" d="M24.3901 14.789C24.4982 14.7457 24.5846 14.6881 24.6854 14.6161C24.7503 14.5729 24.8079 14.5224 24.8727 14.472C25.0096 14.3568 25.1464 14.2343 25.2905 14.1263C25.4273 14.0182 25.557 13.9246 25.7155 13.8454C25.7731 13.8166 25.8307 13.7877 25.8955 13.7661C25.9964 13.7301 26.0828 13.7085 26.1909 13.6941C26.2845 13.6869 26.3637 13.6869 26.4574 13.6941C26.4934 13.6941 26.5222 13.6941 26.5582 13.6941C26.5726 13.6941 26.5798 13.6941 26.587 13.6941C26.5582 13.7733 26.5366 13.8526 26.5438 13.939C26.5438 13.939 26.551 13.939 26.5582 13.939C26.5654 13.939 26.5726 13.9318 26.5798 13.9318H26.5942C26.5942 13.9318 26.5654 13.9822 26.5942 14.0182C26.5942 14.0182 26.6158 14.0326 26.623 14.0326C26.6374 14.0326 26.6518 14.0326 26.6662 14.0254C26.6806 14.0254 26.7023 13.9966 26.7023 13.9966C26.7599 13.9678 26.8607 13.8526 26.9183 13.8094C26.9255 13.8022 26.9616 13.7805 26.9688 13.7661C27.0408 13.7157 27.1128 13.6653 27.1849 13.6149C27.4225 13.4564 27.5882 13.3484 27.8547 13.2475H27.8691C28.1068 13.1683 28.3085 13.1251 28.5606 13.1107C28.575 13.1107 28.6542 13.1107 28.6687 13.1107C28.7263 13.1107 28.7839 13.1251 28.8415 13.1323C28.9208 13.1539 28.9856 13.1755 29.0576 13.2187C29.0864 13.2331 29.1152 13.2475 29.1368 13.2187C29.0864 13.1107 29.0144 13.0459 28.9208 12.9738C28.8127 12.9018 28.7119 12.8658 28.5822 12.837C28.5678 12.8298 28.4526 12.8154 28.431 12.8154C28.1861 12.801 27.9772 12.8226 27.7323 12.8802C27.5882 12.9162 27.4586 12.9594 27.3217 13.017C27.1704 13.0891 27.048 13.1611 26.9183 13.2619C26.8319 13.334 26.7671 13.3988 26.7023 13.478C26.6807 13.4636 26.659 13.4492 26.6446 13.4348C26.5438 13.37 26.4502 13.3268 26.3277 13.298C26.2773 13.2835 26.2269 13.2763 26.1764 13.2691C26.0036 13.2619 25.8811 13.2835 25.7227 13.3412C25.4778 13.442 25.3121 13.5789 25.1176 13.7589C25.0888 13.7877 25.06 13.8166 25.0312 13.8454C24.8439 14.0326 24.6854 14.2199 24.5126 14.4144C24.4982 14.4288 24.491 14.4432 24.4766 14.4504C24.4189 14.508 24.3685 14.5729 24.3109 14.6305C24.2821 14.6665 24.1956 14.7313 24.1524 14.7529C24.1308 14.7673 24.102 14.789 24.1236 14.825C24.2173 14.825 24.3109 14.8034 24.3973 14.7673L24.3901 14.789Z" fill="white"/>
<path fill-rule="evenodd" clip-rule="evenodd" d="M27.0407 32.184C26.8822 32.184 26.8318 32.2488 26.6877 32.3137C26.6301 32.3353 26.5797 32.3569 26.5221 32.3785C26.4428 32.4073 26.3708 32.4289 26.2916 32.4505C26.0395 32.5154 25.7802 32.573 25.5137 32.5586C25.3984 32.5442 25.2976 32.5226 25.1895 32.4937C24.8798 32.3929 24.6565 32.2344 24.3468 32.1264C24.1307 32.0544 23.9074 32.0256 23.6841 32.0111C23.6841 31.9967 23.6769 31.9895 23.6625 31.9679C23.6625 31.9535 23.6481 31.9391 23.6481 31.9247C23.6481 31.9247 23.6481 31.9247 23.6625 31.9247C23.6769 31.9247 23.6841 31.9319 23.6913 31.9391C23.7129 31.9679 23.6913 31.9247 23.6841 31.9103C23.6769 31.8959 23.6625 31.8959 23.6481 31.8887L23.6193 31.8743C23.5617 31.8239 23.4104 31.7446 23.3312 31.7014C23.252 31.651 23.1799 31.5934 23.1007 31.5358C22.9062 31.3917 22.7694 31.2765 22.6037 31.0892C22.5965 31.0892 22.5749 31.0532 22.5677 31.046C22.3948 30.8299 22.2363 30.5778 22.0995 30.3329C22.0275 30.2032 21.9482 30.0952 21.8762 29.9727C21.8618 29.9439 21.833 29.9295 21.8042 29.9511C21.8042 30.1096 21.833 30.2608 21.869 30.4049C21.8402 30.3761 21.8114 30.3401 21.7826 30.3113C21.6097 30.1096 21.4152 29.9583 21.2423 29.7566C21.2351 29.7566 21.2135 29.7206 21.2063 29.7134C21.0839 29.555 20.9758 29.3605 20.8966 29.1732C20.8534 29.0652 20.7958 28.9499 20.7526 28.8419C20.7381 28.8131 20.7165 28.7914 20.6877 28.8059C20.6373 29.0291 20.6445 29.238 20.6949 29.4613C20.7526 29.663 20.8174 29.8215 20.9254 29.9943C20.9254 30.0159 21.0623 30.1888 21.0839 30.2248C21.2207 30.3977 21.4656 30.6138 21.6745 30.6858C21.761 30.7146 21.905 30.7795 21.941 30.6858C21.941 30.693 21.941 30.7002 21.9482 30.7146C22.0419 30.9523 22.1427 31.1396 22.2868 31.3557C22.3588 31.4565 22.4308 31.5574 22.5173 31.651C22.6181 31.759 22.7189 31.8383 22.8414 31.9247C23.0071 32.0256 23.1655 32.0976 23.36 32.112C23.4176 32.112 23.4752 32.112 23.5329 32.1048C23.9002 32.1984 24.1523 32.3065 24.4765 32.5442C24.815 32.7891 25.0095 32.9187 25.4344 32.9979C25.5065 33.0123 25.5713 33.0196 25.6433 33.0268C25.917 33.034 26.1547 32.9835 26.4068 32.8899C26.5725 32.8251 26.7094 32.753 26.8462 32.6306C26.8534 32.6306 26.8678 32.609 26.875 32.6018C26.911 32.5658 27.2352 32.2128 27.0191 32.2128L27.0407 32.184Z" fill="white"/>
<path fill-rule="evenodd" clip-rule="evenodd" d="M29.1296 32.4146C28.9855 32.4146 28.9783 32.4506 28.8559 32.5154C28.791 32.5514 28.7262 32.5802 28.6614 32.609C28.5389 32.6667 28.4525 32.6955 28.3156 32.7171C28.2724 32.7171 28.2292 32.7315 28.186 32.7315C28.0491 32.7387 27.9195 32.7459 27.7826 32.7531C27.761 32.7531 27.7394 32.7531 27.7178 32.7603C27.6602 32.7603 27.6098 32.7675 27.5521 32.7891C27.5377 32.7891 27.5233 32.7891 27.5089 32.7891C27.4945 32.7891 27.4657 32.8251 27.4585 32.8395C27.4585 32.8467 27.4729 32.8539 27.4801 32.8611C27.4873 32.8683 27.5233 32.8827 27.5305 32.8899C27.5809 32.9188 27.6386 32.9476 27.689 32.962C27.7178 32.9836 27.8835 33.034 27.9267 33.0412C28.0203 33.0628 28.114 33.0772 28.2076 33.0844C28.3661 33.0988 28.5101 33.0988 28.6614 33.0628C28.7262 33.0484 28.7838 33.0268 28.8487 32.998C28.9639 32.9404 29.0431 32.8827 29.1296 32.7819C29.1512 32.7603 29.1872 32.6883 29.2016 32.6522C29.2304 32.5586 29.2808 32.4073 29.144 32.4001L29.1296 32.4146Z" fill="white"/>
<path fill-rule="evenodd" clip-rule="evenodd" d="M19.2688 19.0748C19.1752 19.0964 19.0888 19.1324 19.0023 19.1757C18.8583 19.2477 18.7358 19.3197 18.599 19.4206C18.5197 19.4782 18.4477 19.543 18.3685 19.6078C18.138 19.8167 17.9579 20.0112 17.7922 20.2777C17.7778 20.2921 17.749 20.3569 17.7346 20.3785C17.605 20.6234 17.5474 20.8467 17.5546 21.1276C17.5618 21.2501 17.5762 21.3653 17.5978 21.4878C17.6122 21.5598 17.6482 21.8839 17.785 21.7975C17.9363 21.6823 17.9291 21.4518 17.9579 21.2789C17.9579 21.2285 17.9723 21.1781 17.9723 21.1276C18.0011 20.8827 18.0588 20.6955 18.1668 20.4722C18.2172 20.3641 18.2748 20.2705 18.3469 20.1769C18.4333 20.0544 18.5197 19.9536 18.6134 19.8455C18.743 19.7015 18.8727 19.5718 19.0167 19.4422C19.0456 19.4134 19.0816 19.3845 19.1104 19.3557C19.1752 19.2981 19.24 19.2477 19.3049 19.1901C19.3265 19.1757 19.3841 19.1396 19.4057 19.1252C19.4345 19.1108 19.4561 19.0892 19.4417 19.0604C19.3769 19.046 19.3193 19.0604 19.2544 19.0748H19.2688Z" fill="white"/>
<path fill-rule="evenodd" clip-rule="evenodd" d="M17.1872 20.717C17.1512 20.7314 17.1224 20.7459 17.0864 20.7675C17.0072 20.8251 16.9495 20.8827 16.8919 20.9619C16.8775 20.9763 16.8055 21.0772 16.7911 21.106C16.6974 21.2645 16.6254 21.4157 16.5606 21.5886C16.5246 21.6966 16.4886 21.8047 16.467 21.9199C16.4381 22.064 16.4309 22.1864 16.4381 22.3305C16.4453 22.4529 16.467 22.5538 16.5246 22.6618C16.5246 22.6618 16.5318 22.6762 16.539 22.6834C16.5894 22.7555 16.7191 22.9571 16.8055 22.8059C16.8631 22.6978 16.8559 22.6978 16.8487 22.5682C16.8487 22.5394 16.8487 22.5034 16.8487 22.4745C16.8487 22.4241 16.8559 22.3665 16.8631 22.3161C16.8847 22.0856 16.8847 21.9127 16.9279 21.675C16.9279 21.675 16.9279 21.675 16.9279 21.6678C16.9784 21.4661 17.036 21.2789 17.1008 21.0844C17.1008 21.0772 17.108 21.0628 17.1152 21.0484C17.1368 20.9908 17.1584 20.9331 17.1872 20.8755C17.1944 20.8539 17.2161 20.8251 17.2305 20.8035C17.2305 20.7963 17.2449 20.7819 17.2521 20.7747C17.2665 20.7531 17.2809 20.7242 17.2665 20.7026C17.2377 20.7026 17.2017 20.7026 17.18 20.717H17.1872Z" fill="white"/>
<path fill-rule="evenodd" clip-rule="evenodd" d="M17.1224 25.1179C17.1224 25.1179 17.0432 25.0458 17.0288 25.0314C16.9568 24.9522 16.8703 24.8441 16.8127 24.7577C16.7623 24.6785 16.7119 24.5992 16.6686 24.5128C16.5534 24.3183 16.4598 24.1311 16.3661 23.9222C16.3013 23.7637 16.2437 23.6196 16.1933 23.4612C16.15 23.3171 16.1068 23.1803 16.078 23.029C16.0564 22.9066 16.042 22.7985 16.0348 22.6761C16.0348 22.6617 16.0348 22.6184 16.0348 22.5968C16.0348 22.5104 16.0492 22.4528 16.0636 22.3735C16.0636 22.3735 16.0492 22.3807 16.042 22.3807H16.0348C16.0348 22.3807 16.0636 22.3303 16.0276 22.2943C16.0204 22.2943 16.0132 22.2943 16.006 22.2871C15.9916 22.2871 15.9844 22.2871 15.97 22.2871C15.8187 22.3015 15.7395 22.5032 15.6963 22.6256C15.6963 22.6401 15.6746 22.7337 15.6674 22.7481C15.6458 22.8777 15.653 22.9786 15.6674 23.1082C15.7179 23.454 15.8691 23.7565 16.0276 24.0662C16.0276 24.0734 16.042 24.095 16.0492 24.1022C16.2293 24.4192 16.3877 24.6641 16.647 24.909C16.7407 25.0026 16.8343 25.0818 16.9568 25.1395C17 25.1611 17.0432 25.1827 17.0936 25.1971C17.108 25.1971 17.1296 25.2043 17.144 25.2115C17.1801 25.2115 17.2305 25.2115 17.2089 25.1611C17.1801 25.1539 17.1584 25.1395 17.1296 25.1251L17.1224 25.1179Z" fill="white"/>
<path fill-rule="evenodd" clip-rule="evenodd" d="M29.1583 23.2668C29.1583 23.2668 29.0071 23.1083 28.9926 23.0939C28.9782 23.0723 28.9494 23.0435 28.935 23.0219C28.827 22.8923 28.7261 22.7626 28.6253 22.6258C28.5893 22.5825 28.5533 22.5249 28.5173 22.4817C28.51 22.4673 28.4956 22.4529 28.4884 22.4457C28.4812 22.4097 28.474 22.3664 28.4524 22.316C28.4452 22.3016 28.3948 22.1648 28.3948 22.1432C28.3804 22.0999 28.366 22.0495 28.3588 22.0063C28.33 21.9055 28.3084 21.8046 28.2724 21.7038C28.2219 21.3652 28.1571 21.178 28.1283 20.7746C28.1211 20.6089 28.1139 20.4505 28.1067 20.2848C28.1067 20.0471 28.1067 19.8022 28.1067 19.5645C28.1067 19.5285 28.1067 19.4853 28.1067 19.4493C28.1067 19.3556 28.1139 19.262 28.1211 19.1612C28.1211 19.1323 28.1355 19.0963 28.1427 19.0675C28.1427 19.0675 28.1427 19.0531 28.1499 19.0459C28.1643 19.0171 28.1715 18.9739 28.1499 18.9451C28.1139 18.9451 28.0923 18.9667 28.0635 18.9883C28.0275 19.0171 28.0058 19.0459 27.977 19.0819C27.905 19.1756 27.869 19.2764 27.8258 19.3844C27.7682 19.5429 27.7249 19.6942 27.6961 19.8598C27.6745 19.9967 27.6529 20.1335 27.6385 20.2776C27.6025 20.6522 27.5881 21.0411 27.6169 21.4157C27.6313 21.6029 27.6601 21.783 27.7465 21.9487C27.7682 21.9847 27.7826 22.0207 27.8042 22.0567C27.7465 22.0927 27.7393 22.1504 27.7537 22.244C27.7537 22.28 27.7826 22.3953 27.797 22.4385C27.8042 22.4673 27.8186 22.4889 27.8258 22.5105C27.9194 22.7194 28.0779 22.8562 28.2435 23.0075C28.2652 23.0291 28.3012 23.0579 28.3228 23.0795C28.4668 23.202 28.6037 23.3172 28.7766 23.3965C28.7982 23.4109 28.8486 23.4253 28.8702 23.4397C28.935 23.4613 28.9854 23.4757 29.0575 23.4757C29.1223 23.4901 29.2015 23.4757 29.2592 23.4541C29.3096 23.4325 29.2952 23.3676 29.2952 23.3676C29.2447 23.346 29.1943 23.31 29.1511 23.274L29.1583 23.2668Z" fill="white"/>
<path fill-rule="evenodd" clip-rule="evenodd" d="M26.054 25.478C26.054 25.478 26.09 25.5357 26.0972 25.5357H26.1332C26.1908 25.5789 26.4501 25.5285 26.5149 25.5213C26.7959 25.478 26.9903 25.3916 27.2424 25.2548C27.2424 25.2548 27.2496 25.2548 27.2568 25.2476C27.4297 25.1467 27.5377 25.0531 27.6458 24.8874C27.6746 24.8586 27.7322 24.7073 27.7466 24.6641C27.7971 24.5201 27.7899 24.3904 27.7826 24.2463C27.7826 24.2031 27.7538 24.1743 27.7106 24.1815C27.6026 24.3616 27.5017 24.4912 27.3361 24.6281C27.3361 24.6281 27.3217 24.6425 27.3145 24.6425C27.2136 24.7289 27.1272 24.765 26.9975 24.8082C26.9327 24.8226 26.8607 24.837 26.7959 24.8514C26.5942 24.9018 26.3205 25.0171 26.1764 25.1611C26.1188 25.2187 26.0612 25.2764 26.0179 25.3412H26.0395C26.0035 25.3988 26.0107 25.4348 26.0468 25.4852L26.054 25.478Z" fill="white"/>
<path fill-rule="evenodd" clip-rule="evenodd" d="M27.7538 27.2499C27.7538 27.2499 27.7826 27.2499 27.797 27.2499C27.8402 27.2499 27.905 27.2571 27.9339 27.2355C27.9771 27.2787 28.0203 27.322 28.0707 27.3652C28.0707 27.3724 28.1067 27.394 28.1211 27.4012C28.222 27.4732 28.4525 27.6173 28.5749 27.6389C28.6325 27.6461 28.6902 27.6533 28.719 27.5885C28.755 27.502 28.6974 27.4588 28.6253 27.394C28.5029 27.2859 28.366 27.2211 28.2292 27.1347C28.186 27.1059 28.1427 27.0771 28.0995 27.0482C28.0275 26.9906 27.9699 26.9402 27.9123 26.8754C27.8762 26.8322 27.833 26.7961 27.797 26.7529C27.7466 26.6953 27.689 26.6305 27.6457 26.5656C27.6313 26.5512 27.6169 26.5368 27.5953 26.5512C27.5953 26.7025 27.6457 26.8394 27.7178 26.969C27.7178 26.969 27.7034 26.969 27.7034 26.9546C27.5665 26.861 27.4153 26.7889 27.2712 26.7025C27.2496 26.6953 27.2208 26.6737 27.2064 26.6593C27.0839 26.5801 26.9687 26.4936 26.8462 26.4144C26.8318 26.4072 26.8102 26.3856 26.7958 26.3784C26.7598 26.3496 26.7238 26.328 26.6806 26.2991C26.6589 26.2847 26.6085 26.2487 26.5941 26.2271C26.5797 26.2127 26.5581 26.2127 26.5437 26.2271C26.5437 26.2775 26.5725 26.328 26.6013 26.3712C26.6373 26.436 26.6806 26.4936 26.731 26.5512C26.7382 26.5656 26.7814 26.6089 26.7958 26.6233C26.9038 26.7385 27.0119 26.8322 27.1343 26.933C27.1776 26.969 27.228 27.005 27.2712 27.0338C27.372 27.1059 27.4801 27.1635 27.5953 27.2067C27.6385 27.2283 27.7178 27.2499 27.761 27.2499H27.7538Z" fill="white"/>
<path fill-rule="evenodd" clip-rule="evenodd" d="M59 36.2753C59 35.3245 58.9496 33.5526 58.7119 32.3497C58.2869 30.2176 56.0396 28.244 55.946 28.1576C55.9172 28.136 55.8955 28.1216 55.8595 28.1072C55.91 27.9775 55.9244 27.8263 55.8883 27.6678C55.6795 26.7458 53.8571 25.1684 52.6398 25.0243C52.2581 24.5994 51.3217 24.4913 50.5726 24.4481C48.2101 24.3256 45.6602 25.1972 44.054 25.8743C44.5798 25.3989 45.0048 24.8587 45.3145 24.268C45.3433 24.2752 45.3721 24.2824 45.4009 24.2824C45.4441 24.2824 45.4802 24.2824 45.5234 24.2608C45.7178 24.1888 50.3061 22.5177 52.4886 19.8022C53.1656 18.9595 53.4466 18.4049 53.3817 17.9943C54.03 17.0435 54.0516 14.8178 53.5474 14.1119C53.461 13.9895 53.3529 13.903 53.2377 13.8598C53.2377 13.8382 53.2449 13.8094 53.2449 13.7878C53.2449 13.6726 53.2737 10.885 52.0564 9.27158C51.3721 8.35681 50.1692 7.23316 49.5138 6.64252C47.7419 5.04348 47.6122 5.1011 47.4105 5.18754C47.3097 5.23076 47.2305 5.32439 47.2016 5.42523C47.1368 5.64132 47.2233 5.76377 47.7635 6.54889C48.2317 7.23316 48.9448 8.26318 49.2113 8.95466C49.6002 9.96306 50.2917 10.1719 50.659 10.244C50.659 10.3304 50.659 10.4313 50.659 10.5249C50.6518 11.0867 50.6302 12.0231 50.7527 13.1179C50.9183 14.5585 51.2569 15.3868 51.3793 15.6534C51.3361 15.7686 51.3073 15.8766 51.2857 15.9847C51.1704 16.6257 51.3937 17.2956 51.5738 17.699C51.1272 17.8718 50.6951 18.1023 50.4069 18.2896C49.4922 18.8731 48.8727 19.118 48.3757 19.3196C48.2461 19.3701 48.1308 19.4205 48.0156 19.4637C47.3529 19.7446 46.503 20.3857 45.8763 21.3076C45.8115 20.7098 45.6458 20.1192 45.3793 19.5501C45.4297 19.5213 45.4874 19.4853 45.5594 19.4493C45.7755 19.334 46.042 19.1828 46.3013 18.8514C46.5678 18.5129 46.6254 18.2032 46.683 17.9295C46.7191 17.7422 46.7551 17.5765 46.8487 17.4109C47.3169 16.6041 47.4465 15.9847 47.2449 15.5093C47.1656 15.3364 47.0576 15.1996 46.9279 15.0915C48.0156 14.2776 48.1236 12.9163 48.066 11.6485C48.03 10.8706 47.8787 10.5105 47.7058 10.0927C47.6554 9.97026 47.5978 9.84061 47.5474 9.69655C47.497 9.5669 47.4538 9.42284 47.3961 9.27879C47.1656 8.60171 46.9063 7.8382 46.4237 7.43484C46.2293 7.26918 46.042 7.26197 45.9195 7.28358C45.9195 7.28358 45.9195 7.28358 45.9123 7.28358C45.8979 4.52487 43.4489 3.1131 41.8499 2.69533C41.3817 2.57288 41.0936 2.52246 40.8847 2.48645C40.6158 2.43843 40.234 2.21514 39.7394 1.81658C39.6242 1.72294 39.4945 1.6221 39.3433 1.49965C38.1188 0.520058 37.3265 0.448029 36.1308 0.332783C35.5906 0.282363 34.9783 0.224739 34.1716 0.0806813C32.2484 -0.272261 31.0888 0.592087 30.6566 1.52126C30.5341 1.78057 30.4405 2.06148 30.6566 2.24875C30.7934 2.364 30.9159 2.3568 31.3193 2.32078C31.7442 2.28477 32.4573 2.22715 33.3937 2.27036C34.575 2.32078 35.8643 3.46604 36.2676 3.91262C36.1956 3.94144 36.0588 3.98465 35.8283 4.01346C35.2232 4.08549 33.8835 3.45884 32.9975 3.04828C32.7886 2.95464 32.6014 2.861 32.4357 2.78897C32.0467 2.6161 31.6434 2.48645 31.3625 2.70974C31.096 2.92583 31.168 3.27877 31.2184 3.53807C31.2256 3.57409 31.2328 3.6101 31.24 3.65332C31.3553 4.27277 32.5654 5.31719 33.6386 5.53328C34.5245 5.70615 35.605 6.60651 35.9867 7.16834C36.5125 7.93184 38.0179 9.0699 39.3505 9.70376C40.0492 10.0351 40.8991 10.1215 41.605 10.1215C42.1092 10.1215 42.5342 10.0783 42.7791 10.0423C42.8007 10.1215 42.8439 10.208 42.8871 10.3016C42.9447 10.424 43.024 10.5753 43.1104 10.7986C43.3913 11.5405 43.3193 12.4913 43.3193 12.4985C43.3193 12.5417 43.3193 12.5849 43.3337 12.6281C43.1176 12.6642 42.8799 12.7362 42.6278 12.8298C41.713 13.1828 41.0936 13.7158 40.7695 14.4217C39.9267 13.8958 39.3505 13.8814 38.731 13.867C38.0396 13.8526 37.3193 13.831 35.9507 12.9235C35.9291 12.909 35.9075 12.8946 35.8787 12.8802C35.8499 12.693 35.8571 12.4553 35.8643 12.2176C35.8787 11.7422 35.8931 11.2452 35.5906 10.9355C35.4825 10.8274 35.2881 10.6906 34.9783 10.6906C34.0996 10.6906 33.8259 11.5693 33.7034 12.0303C33.1704 11.879 32.659 11.7638 32.3133 11.7206C31.4417 11.6053 29.5689 11.418 29.5473 11.4108C29.5329 11.4108 29.5185 11.4108 29.5113 11.4108C29.4969 11.4108 29.4897 11.4108 29.4753 11.4108C29.4537 11.4108 27.5881 11.6053 26.7094 11.7206C26.3637 11.7638 25.8595 11.879 25.3192 12.0303C25.1968 11.5693 24.9231 10.6906 24.0443 10.6906C23.7346 10.6906 23.5401 10.8202 23.4321 10.9355C23.1296 11.2452 23.144 11.7422 23.1584 12.2176C23.1584 12.4481 23.1728 12.6858 23.144 12.8802C23.1223 12.8946 23.0935 12.909 23.0719 12.9235C21.7034 13.8382 20.9903 13.8526 20.2916 13.867C19.7586 13.8814 19.2544 13.8958 18.5845 14.2344C18.4621 13.5213 18.0299 12.693 16.827 12.0591C16.258 11.7638 15.7682 11.6413 15.3504 11.7062C15.3864 11.3604 15.4729 10.8778 15.6673 10.4673C15.7754 10.2512 15.8618 10.1071 15.9267 9.98467C15.9843 9.89103 16.0275 9.8118 16.0563 9.73257C16.3948 9.8046 17.0863 9.93425 17.8426 9.93425C18.39 9.93425 18.9807 9.86942 19.4993 9.67494C20.875 9.15634 22.4669 8.14793 23.0575 7.42044C23.4897 6.88742 24.6422 6.0879 25.5353 5.97986C26.623 5.85741 27.9123 4.91383 28.0779 4.30158C28.0851 4.26557 28.0996 4.22955 28.1068 4.19354C28.1788 3.94144 28.2796 3.5957 28.0347 3.358C27.7754 3.1131 27.3649 3.21394 26.9615 3.358C26.7886 3.41562 26.5941 3.48765 26.3781 3.56689C25.4633 3.90542 24.0731 4.42403 23.4753 4.30158C23.252 4.25836 23.1151 4.20794 23.0431 4.16473C23.4897 3.75416 24.8871 2.71694 26.0395 2.76016C26.9687 2.79617 27.6818 2.91142 28.0996 2.97625C28.5029 3.04107 28.6254 3.06268 28.7694 2.95464C29.0071 2.78897 28.9351 2.49365 28.8343 2.22715C28.4741 1.26916 27.3937 0.311174 25.4417 0.505653C24.6278 0.584884 24.0083 0.592087 23.4681 0.59929C22.2652 0.613695 21.4729 0.620898 20.1692 1.49965C20.0107 1.6077 19.8738 1.70133 19.7514 1.78777C19.2232 2.14311 18.8246 2.33519 18.5557 2.364C18.3468 2.38561 18.0515 2.41442 17.5761 2.49365C15.9483 2.78177 13.3912 3.98465 13.1535 6.73616C13.1535 6.73616 13.1535 6.73616 13.1463 6.73616C13.0239 6.70015 12.8366 6.69294 12.6277 6.8442C12.1163 7.21155 11.7922 7.95345 11.5041 8.60171C11.4392 8.74577 11.3816 8.88263 11.324 9.01228C11.2592 9.15634 11.1943 9.27879 11.1295 9.39403C10.9206 9.79739 10.7406 10.1431 10.6397 10.9138C10.4813 12.1599 10.5317 13.4277 11.8642 14.3208C11.6769 14.7602 11.7562 15.358 12.1019 16.1359C12.1811 16.316 12.1955 16.4745 12.21 16.669C12.2316 16.9499 12.2604 17.2668 12.4837 17.6342C12.6998 17.9943 12.9519 18.1744 13.1535 18.3112C13.2904 18.4049 13.3696 18.4697 13.42 18.5489C13.4921 18.6786 13.5353 19.2548 13.5065 19.8238C13.312 20.3064 13.1823 20.8106 13.1247 21.3076C12.5053 20.3785 11.6481 19.7446 10.9855 19.4637C10.8702 19.4133 10.755 19.3701 10.6253 19.3196C10.1283 19.118 9.50887 18.8731 8.5941 18.2896C8.30598 18.1023 7.86661 17.8718 7.42723 17.699C7.6073 17.2956 7.83059 16.6257 7.71535 15.9847C7.69374 15.8694 7.66492 15.7614 7.62171 15.6462C7.74416 15.3796 8.08269 14.5585 8.24836 13.1107C8.37081 12.0159 8.3564 11.0795 8.342 10.5177C8.342 10.424 8.342 10.316 8.342 10.2368C8.70214 10.1647 9.40082 9.94866 9.78978 8.94745C10.0563 8.26318 10.7622 7.22596 11.2304 6.54168C11.7706 5.75657 11.8498 5.63412 11.7922 5.41803C11.7634 5.31719 11.6841 5.22355 11.5833 5.18034C11.3816 5.0939 11.252 5.03628 9.48006 6.63532C8.82459 7.22596 7.62891 8.34961 6.93743 9.26438C5.72014 10.8778 5.74895 13.6654 5.74895 13.7806C5.74895 13.8022 5.74895 13.831 5.75616 13.8526C5.64091 13.8958 5.53287 13.9823 5.44643 14.1047C4.94223 14.8178 4.96384 17.0363 5.6121 17.9871C5.54727 18.3905 5.82819 18.9523 6.50526 19.795C8.68774 22.5105 13.276 24.1816 13.4705 24.2536C13.5065 24.268 13.5497 24.2752 13.5929 24.2752C13.5929 24.2752 13.6505 24.2752 13.6793 24.2608C13.9891 24.8515 14.414 25.3917 14.9399 25.8671C13.3408 25.1828 10.791 24.3112 8.42123 24.4337C7.67933 24.4697 6.73575 24.5777 6.3612 25.0099C5.14391 25.154 3.32157 26.7314 3.11269 27.6534C3.07668 27.8191 3.08388 27.9631 3.1415 28.0928C3.11269 28.1072 3.08388 28.1216 3.05507 28.1432C2.96143 28.2296 0.706922 30.2032 0.289153 32.3353C0.0514577 33.5454 0.00824061 35.3173 0.00103771 36.2609C-0.0133681 38.8107 0.123487 38.8755 0.332371 38.9691C0.382791 38.9908 0.433212 39.0052 0.483632 39.0052C0.541255 39.0052 0.598878 38.9908 0.649299 38.9691C0.858183 38.8683 0.894197 38.717 1.13189 37.7302C1.34078 36.8587 1.66491 35.5478 2.02505 34.8347C2.55807 33.7903 2.21953 33.0988 2.01065 32.7458C2.08268 32.681 2.16911 32.6018 2.26275 32.5298C2.71653 32.1336 3.48724 31.4781 4.27236 30.5922C5.33118 29.4037 5.74175 28.5321 5.857 28.2584C5.97945 28.208 6.09469 28.1576 6.20274 28.0928C6.78617 27.7326 7.15352 27.0988 7.348 26.6666C7.86661 26.9187 8.45004 27.0916 8.80298 27.1564C9.92664 27.3365 10.4741 27.639 10.9494 27.9055C11.1007 27.9847 11.2448 28.064 11.396 28.136C12.1091 28.4673 13.1895 28.6834 14.2628 28.6834C14.8822 28.6834 15.5017 28.6114 16.0419 28.4457C16.0491 28.4745 16.0563 28.5033 16.0635 28.5321C16.1283 28.741 16.2508 28.9427 16.4164 29.1156C14.7094 28.8707 12.1235 28.705 10.0491 29.4541C8.94704 29.8503 8.41403 30.1888 8.30598 30.5778C7.18233 31.1036 6.1091 33.0988 6.15952 33.9559C6.16672 34.136 6.22434 34.2801 6.31798 34.3953C6.29637 34.4169 6.27477 34.4457 6.25316 34.4745C6.18833 34.5826 4.72614 37.082 4.95663 39.2284C5.05747 40.1576 5.78497 41.2957 7.13191 42.5994C8.03227 43.471 9.11991 44.3137 9.38642 44.4001C9.42243 44.4145 9.46565 44.4217 9.50167 44.4217C9.60971 44.4217 9.71055 44.3785 9.78258 44.2921C9.99146 44.04 9.78258 43.7879 9.66733 43.651C9.5809 43.5502 9.45845 43.4133 9.31439 43.2549C8.839 42.7291 7.8522 41.6414 7.78017 41.2092C7.67213 40.5826 7.13911 39.8623 6.79337 39.3869C6.75016 39.3221 6.69253 39.2501 6.64932 39.1924C6.69974 39.106 6.77177 38.9835 6.84379 38.8683C7.14632 38.3641 7.64332 37.5286 8.1043 36.4697C8.71655 35.0508 8.839 34.1072 8.86781 33.8119C8.96145 33.7326 9.05509 33.6534 9.12711 33.5598C9.63852 32.9547 9.75377 32.0544 9.77537 31.6294C10.2796 31.7014 10.8054 31.7158 11.1439 31.7158C12.1667 31.7158 12.7934 31.8527 13.2904 31.9679C13.4633 32.0039 13.6289 32.04 13.8018 32.0688C14.6589 32.2128 15.4152 32.2849 16.0779 32.2849C17.18 32.2849 18.0155 32.0904 18.5773 31.6942C18.5989 31.6798 18.6205 31.6582 18.6421 31.6366C18.7718 31.7158 18.9015 31.759 19.0095 31.7807C19.0959 31.7951 19.1752 31.8023 19.2616 31.8023C19.3912 31.8023 19.5209 31.7806 19.6433 31.7518C19.5281 32.076 19.5065 32.4505 19.6506 32.8539C19.24 32.7458 18.743 32.6882 18.174 32.6882C16.3804 32.6882 14.1908 33.2789 13.4777 34.4169C13.0815 35.0508 12.9951 35.5622 13.0671 35.9871C12.3828 36.3905 10.7045 37.4853 10.402 38.537C10.2075 39.2212 10.2364 39.4085 10.3012 39.6174C10.3228 39.6822 10.3444 39.7471 10.2796 40.0568C10.1787 40.5898 10.3732 41.1588 10.8126 41.6702C10.8054 41.7279 10.8054 41.7855 10.827 41.8431C11.9362 45.2717 13.5425 46.633 16.6181 46.633C16.863 46.633 17.1223 46.6258 17.3888 46.6042C17.5977 46.5898 18.246 46.5466 18.4621 46.0784C18.7286 45.5094 18.2028 44.8179 17.4177 43.7735C16.4669 42.513 15.2856 40.9499 15.372 39.3653C15.372 39.3437 15.372 39.3293 15.372 39.3149C15.4729 39.1924 15.5881 39.0556 15.7106 38.8899C16.5029 37.8023 16.1211 36.8803 15.6818 36.3905C15.7394 36.3545 15.797 36.3401 15.8402 36.3401C15.9483 36.3401 16.1067 36.3689 16.294 36.3977C16.6541 36.4553 17.1079 36.5274 17.6121 36.5274C18.39 36.5274 19.0455 36.3545 19.6217 36.0016C20.8462 35.2452 21.0335 34.4673 21.0551 34.1576C21.1055 34.1648 21.156 34.1792 21.2064 34.1864C21.2712 34.1936 21.3504 34.2008 21.4297 34.2008C21.7682 34.2008 22.2076 34.0928 22.6902 33.7038C23.4609 34.2296 24.4261 34.3665 25.1464 34.3665C25.5065 34.3665 25.8018 34.3305 25.9891 34.2945C26.3781 34.2152 28.3372 34.244 29.4825 34.2801C29.4825 34.2801 29.4897 34.2801 29.4969 34.2801C29.4969 34.2801 29.5041 34.2801 29.5113 34.2801C30.6566 34.244 32.6158 34.2152 33.0047 34.2945C33.1848 34.3305 33.4873 34.3665 33.8475 34.3665C34.5678 34.3665 35.5329 34.2296 36.3037 33.7038C36.7863 34.0928 37.2256 34.2008 37.5642 34.2008C37.6434 34.2008 37.7154 34.2008 37.7875 34.1864C37.8379 34.1864 37.8883 34.1648 37.9315 34.1576C37.9531 34.4673 38.1332 35.2452 39.3649 36.0016C39.9411 36.3545 40.5966 36.5274 41.3745 36.5274C41.8787 36.5274 42.3325 36.4553 42.6926 36.3977C42.8799 36.3689 43.0384 36.3401 43.1536 36.3401C43.1968 36.3401 43.2473 36.3617 43.3121 36.3905C42.8727 36.8731 42.491 37.8023 43.2833 38.8899C43.4057 39.0556 43.5138 39.1924 43.6218 39.3149C43.6218 39.3293 43.6218 39.3509 43.6218 39.3653C43.7082 40.9499 42.527 42.5202 41.5762 43.7735C40.7911 44.8179 40.2725 45.5022 40.5318 46.0784C40.7478 46.5538 41.3961 46.597 41.605 46.6042C41.8715 46.6186 42.1308 46.633 42.3757 46.633C45.4513 46.633 47.0576 45.2717 48.1668 41.8431C48.1884 41.7855 48.1884 41.7279 48.1812 41.6702C48.6206 41.1516 48.8151 40.5898 48.7143 40.0568C48.6566 39.7399 48.671 39.675 48.6926 39.6174C48.7575 39.4085 48.7863 39.2212 48.5918 38.537C48.2893 37.4781 46.611 36.3905 45.9267 35.9871C45.9988 35.5622 45.9123 35.0436 45.5162 34.4169C44.8031 33.2861 42.6134 32.6882 40.8199 32.6882C40.2509 32.6882 39.7611 32.7458 39.3433 32.8539C39.4873 32.4505 39.4657 32.0832 39.3505 31.7518C39.4729 31.7806 39.6026 31.8023 39.725 31.8023C39.8115 31.8023 39.8907 31.8023 39.9771 31.7807C40.0852 31.759 40.2148 31.7158 40.3445 31.6366C40.3661 31.6582 40.3805 31.6798 40.4093 31.6942C40.9639 32.0904 41.7995 32.2849 42.9087 32.2849C43.5714 32.2849 44.3349 32.2128 45.1848 32.0688C45.3505 32.04 45.5162 32.0039 45.689 31.9679C46.1932 31.8599 46.8127 31.7158 47.8355 31.7158C48.174 31.7158 48.6926 31.7014 49.2041 31.6294C49.2329 32.0544 49.3481 32.9547 49.8523 33.5598C49.9243 33.6462 50.018 33.7326 50.1116 33.8119C50.1404 34.1072 50.2629 35.0508 50.8751 36.4697C51.3289 37.5286 51.8331 38.3713 52.1356 38.8683C52.2077 38.9835 52.2797 39.106 52.3301 39.1924C52.2869 39.2501 52.2365 39.3221 52.1861 39.3869C51.8403 39.8623 51.3073 40.5826 51.1993 41.2092C51.12 41.6414 50.1332 42.7291 49.665 43.2549C49.521 43.4133 49.3985 43.5502 49.3121 43.651C49.1969 43.7879 48.9808 44.04 49.1968 44.2921C49.2689 44.3785 49.3697 44.4217 49.4778 44.4217C49.5138 44.4217 49.557 44.4217 49.593 44.4001C49.8595 44.3209 50.9472 43.471 51.8475 42.5994C53.1945 41.2957 53.922 40.1576 54.0228 39.2284C54.2533 37.0748 52.7911 34.5754 52.7263 34.4745C52.7119 34.4457 52.6831 34.4169 52.6614 34.3953C52.7551 34.2801 52.8127 34.136 52.8199 33.9559C52.8631 33.106 51.7971 31.1036 50.6662 30.5778C50.5654 30.1888 50.0252 29.8503 48.9231 29.4541C46.8559 28.705 44.2701 28.8707 42.5558 29.1156C42.7214 28.9427 42.8439 28.741 42.9087 28.5321C42.9159 28.5033 42.9231 28.4745 42.9303 28.4457C43.4777 28.6114 44.09 28.6834 44.7094 28.6834C45.7827 28.6834 46.8631 28.4673 47.5762 28.136C47.7275 28.064 47.8715 27.9847 48.0228 27.9055C48.5054 27.639 49.0528 27.3437 50.1692 27.1564C50.5294 27.0988 51.1056 26.9259 51.6242 26.6666C51.8187 27.0988 52.1933 27.7326 52.7695 28.0928C52.8775 28.1576 52.9928 28.208 53.1152 28.2584C53.2305 28.5321 53.641 29.4037 54.6999 30.5922C55.485 31.4781 56.2557 32.1408 56.7095 32.5298C56.7959 32.609 56.8896 32.681 56.9616 32.7458C56.7527 33.0916 56.4142 33.7831 56.9472 34.8347C57.3073 35.5478 57.6314 36.8587 57.8403 37.7302C58.078 38.717 58.1213 38.8683 58.3229 38.9691C58.3734 38.9908 58.431 39.0052 58.4886 39.0052C58.5462 39.0052 58.5966 38.998 58.6399 38.9691C58.8487 38.8755 58.9784 38.8107 58.9712 36.2609L59 36.2753ZM42.1884 27.286C42.3685 27.4949 42.4117 27.7686 42.2461 28.3305C42.174 28.5754 41.9219 28.8059 41.5834 28.9355C41.2593 29.058 40.9711 29.0508 40.8487 28.9787C41.0216 28.7698 41.1584 28.5682 41.2521 28.3809C41.4537 27.9775 41.7995 27.6174 42.1884 27.2788V27.286ZM52.8703 15.394C52.8703 15.394 52.8199 15.3941 52.8055 15.4229C52.7551 15.5453 52.7191 15.6462 52.6903 15.7758C52.6398 16.0351 52.5894 16.2944 52.5318 16.5537C52.5246 16.5897 52.5102 16.6257 52.503 16.6618C52.4382 16.8778 52.3661 17.0579 52.2869 17.274C52.2725 17.31 52.2581 17.3532 52.2437 17.3893C52.0996 17.0723 51.934 16.5681 52.0132 16.1143C52.114 15.5597 52.7335 14.9043 53.0288 14.6305C53.2449 15.1059 53.2809 16.7122 52.8775 17.4757C52.8199 17.4613 52.7551 17.4541 52.6759 17.4541C52.7479 17.3172 52.7983 17.1876 52.8415 17.0291C52.8631 16.9427 52.8775 16.8562 52.8919 16.7626C52.928 16.5177 52.9424 16.2944 52.9496 16.0495C52.9496 15.8334 52.928 15.6101 52.8775 15.4013L52.8703 15.394ZM51.3001 9.73977C51.1993 9.59571 51.0408 9.5669 50.9039 9.54529C50.6374 9.50208 50.1837 9.42284 49.8955 8.68815C49.7299 8.25597 49.4273 7.73016 49.096 7.21876C49.9532 7.99667 50.9255 8.95465 51.4874 9.70376C52.5534 11.1227 52.5318 13.7518 52.5318 13.7806C52.5318 13.8742 52.5678 13.9535 52.6182 14.0183C52.4598 14.1552 52.2365 14.364 52.0204 14.6233C52.1356 14.2992 52.1716 13.9247 52.1644 13.5861C52.1644 13.334 52.1428 13.0819 52.1284 12.8298C52.1068 12.5705 52.0708 12.3256 52.0276 12.0663C51.97 11.735 51.8835 11.4036 51.8331 11.0723C51.7971 11.0579 51.7755 11.0795 51.7683 11.1083C51.7107 11.2956 51.7035 11.4901 51.7107 11.6846C51.7251 12.0663 51.7611 12.4409 51.7611 12.8226C51.7611 12.8802 51.7611 12.9379 51.7611 12.9955C51.7611 13.4349 51.7251 13.8598 51.7035 14.292C51.6242 13.9535 51.5378 13.5285 51.4802 13.0243C51.3577 11.9799 51.3793 11.0723 51.3865 10.5321C51.3937 10.0135 51.4009 9.87663 51.3001 9.73257V9.73977ZM48.3037 20.1264C48.4117 20.0831 48.527 20.0327 48.6494 19.9895C49.1752 19.7806 49.8307 19.5213 50.8031 18.9019C51.3505 18.5489 52.2149 18.1744 52.6398 18.1744C52.6542 18.1744 52.6614 18.1744 52.6686 18.1744C52.6398 18.2968 52.5174 18.6354 51.934 19.3556C50.2989 21.3869 47.0864 22.8563 45.8187 23.3821C45.8691 23.0651 45.9483 22.7698 46.0636 22.5033C46.0996 22.5033 46.1356 22.5033 46.1644 22.5033C46.2293 22.5033 46.2941 22.5033 46.3589 22.4961C46.5894 22.4745 46.8271 22.4241 47.0504 22.3665C47.4682 22.2584 47.8859 22.1432 48.2965 21.9991C48.4045 21.9631 48.5198 21.9199 48.6206 21.8623C49.0816 21.6318 49.4634 21.3148 49.8379 20.9619C49.8379 20.9619 49.8811 20.9259 49.8811 20.9187C50.2053 20.5801 50.587 20.1336 50.7167 19.6726C50.6879 19.6294 50.6446 19.6942 50.6302 19.7086C50.479 19.9319 50.2557 20.1552 50.0612 20.3424C49.9388 20.4649 49.8163 20.5801 49.6795 20.6882C49.3481 20.9619 49.0456 21.1924 48.6638 21.3941C48.6134 21.4229 48.5198 21.4661 48.4694 21.4805C47.9652 21.6318 47.4465 21.783 46.9496 21.9487C46.8415 21.9847 46.7335 22.0207 46.6182 22.0567C46.5822 22.0711 46.3373 22.1504 46.2077 22.2008C46.7911 21.0267 47.8355 20.3352 48.3181 20.1264H48.3037ZM46.0276 8.03989C46.3157 8.34961 46.5318 8.98347 46.7119 9.50208C46.7623 9.65334 46.8199 9.8046 46.8703 9.94145C46.9279 10.1071 46.9928 10.244 47.0432 10.3664C47.2089 10.7626 47.3241 11.0291 47.3529 11.6701C47.4177 13.1179 47.2305 14.184 46.15 14.717C46.042 14.6882 45.9267 14.6594 45.8259 14.6377C45.6962 14.6089 45.5234 14.5657 45.4513 14.5369C45.4225 14.4721 45.3937 14.3352 45.3649 14.2344C45.2497 13.7662 45.0696 13.0675 44.4429 12.7434C44.3205 12.6786 44.1836 12.6353 44.0468 12.6065C44.0468 12.5849 44.054 12.5633 44.0612 12.5417C44.0612 12.4985 44.1476 11.418 43.8091 10.5249C43.7082 10.2656 43.6218 10.0927 43.557 9.96306C43.5354 9.92705 43.521 9.89103 43.5066 9.86222C43.521 9.84061 43.5498 9.8118 43.593 9.76858C43.6794 9.68215 43.7803 9.66774 44.0396 9.66774C44.2989 9.66774 44.6302 9.66774 44.9904 9.48047C45.3721 9.27879 45.6098 8.83941 45.8187 8.44325C45.8835 8.3208 45.9772 8.14793 46.0492 8.04709L46.0276 8.03989ZM43.0528 9.26438C43.0528 9.26438 43.0384 9.27878 43.0312 9.28599C42.9807 9.27158 42.9303 9.27158 42.8727 9.28599C42.8511 9.28599 40.9063 9.62453 39.6602 9.03389C38.3421 8.40724 36.9807 7.3268 36.5846 6.74336C36.1236 6.07349 34.8991 5.02907 33.7754 4.80578C32.8895 4.62571 31.9963 3.73976 31.9459 3.50206C31.9387 3.45884 31.9315 3.41562 31.9171 3.37961C31.9171 3.37241 31.9171 3.358 31.9171 3.3508C31.9747 3.37241 32.0467 3.40122 32.1332 3.43723C32.2916 3.50926 32.4789 3.5957 32.6806 3.68934C33.7538 4.19354 35.0936 4.81299 35.9003 4.71935C36.246 4.67613 36.5125 4.5969 36.707 4.48165C36.7286 4.56088 36.7574 4.64012 36.7935 4.73376C36.8151 4.79858 36.8295 4.8562 36.8223 4.92823V4.94984C36.8223 4.99306 36.8079 5.02187 36.7935 5.05789C36.7502 5.15152 36.6854 5.22355 36.6062 5.29558C36.6062 5.29558 36.5918 5.30999 36.5846 5.30999C36.4981 5.38202 36.4117 5.46125 36.3253 5.52607C36.2965 5.55489 36.2965 5.5837 36.3109 5.61971C36.4693 5.64852 36.6134 5.63412 36.7646 5.5909C36.8007 5.5909 36.9231 5.53328 36.9591 5.51167C37.0672 5.44684 37.132 5.38202 37.2112 5.28118C37.2761 5.18034 37.3121 5.1011 37.3409 4.97865C37.3697 4.8562 37.3697 4.74816 37.3553 4.62571V4.6041C37.3409 4.52487 37.3193 4.45284 37.2905 4.38802C37.5426 4.46004 37.7659 4.48165 38.0468 4.46005H38.0684C38.3853 4.41683 38.6518 4.32319 38.9111 4.14312C38.9111 4.0927 38.8679 4.07829 38.8319 4.07829C38.6734 4.08549 38.4933 4.07829 38.3349 4.07829C38.2412 4.07829 38.1548 4.07109 38.0612 4.05668C37.8595 4.03507 37.7082 3.99906 37.5137 3.91983C37.4921 3.91262 37.3985 3.86941 37.3841 3.8622C37.1608 3.73976 37.0239 3.61731 36.8367 3.45164C36.8007 3.41562 36.7646 3.38681 36.7286 3.3508C36.707 3.32919 36.6926 3.31478 36.671 3.29317C36.6422 3.26436 36.6062 3.22835 36.563 3.19233C36.5197 3.14191 36.4837 3.1059 36.4333 3.06989C36.2821 2.93303 36.0948 2.76736 35.8715 2.6017C35.2664 2.14791 34.3589 1.59329 33.4225 1.55007C32.5726 1.51406 31.9027 1.55007 31.4489 1.58609C31.7586 1.13951 32.4861 0.498449 34.0347 0.786565C34.8703 0.937826 35.5257 1.00265 36.0588 1.05307C37.24 1.16112 37.8307 1.21874 38.8895 2.06868C38.9399 2.1047 38.9831 2.14071 39.0264 2.17673C39.0264 2.19113 39.0336 2.20554 39.0408 2.21274C39.0552 2.27036 39.084 2.30638 39.1056 2.3568C39.1632 2.45044 39.228 2.54407 39.3001 2.6233C39.3001 2.6233 39.3073 2.6233 39.3073 2.63051C39.3433 2.66652 39.4009 2.73855 39.4081 2.78177C39.4513 2.8682 39.4729 2.94744 39.4873 3.04107C39.4873 3.04107 39.4945 3.1059 39.5017 3.12031C39.5162 3.28597 39.5306 3.44444 39.5089 3.61731C39.5089 3.61731 39.5594 3.66052 39.5954 3.63892C39.7034 3.57409 39.7755 3.49486 39.8259 3.37961C39.8619 3.30038 39.9051 3.15632 39.9123 3.07709C39.9195 3.01226 39.9267 2.95464 39.9195 2.89702C40.2076 3.1059 40.3661 3.14191 40.7406 3.21394C40.9423 3.24996 41.2088 3.30038 41.6554 3.41562C42.0804 3.52367 45.7683 4.5897 45.0912 8.15513C45.0912 8.18394 45.0912 8.21996 45.0912 8.24877C44.9543 8.50808 44.7887 8.78179 44.6302 8.86822C44.4213 8.97626 44.2341 8.97626 44.0108 8.97626C43.7154 8.97626 43.3553 8.97626 43.0456 9.30039L43.0528 9.26438ZM42.8943 13.4925C43.4273 13.2836 43.8379 13.2476 44.0972 13.3844C44.4357 13.5573 44.5582 14.0327 44.6518 14.4145C44.7239 14.6882 44.7743 14.9043 44.9183 15.0483C45.084 15.214 45.3505 15.2788 45.6602 15.3436C46.0204 15.4229 46.467 15.5237 46.5822 15.783C46.683 16.0207 46.5606 16.4673 46.2293 17.0291C46.0708 17.3028 46.0204 17.5477 45.9772 17.771C45.9267 18.0087 45.8907 18.1888 45.7323 18.3977C45.5666 18.6137 45.3937 18.7074 45.2209 18.801C45.1632 18.8298 45.1056 18.8658 45.048 18.9019C44.8967 18.657 44.7311 18.4121 44.5366 18.1816C44.5078 18.1456 44.4862 18.1167 44.4573 18.0807C44.5366 18.0663 44.6158 18.0375 44.7022 18.0087C44.8319 17.9583 44.9471 17.9079 45.0624 17.843C45.2353 17.7422 45.3937 17.6342 45.545 17.5045C45.7323 17.346 45.8547 17.1804 45.9844 16.9643C46.0204 16.9067 46.042 16.849 46.0708 16.7842C46.1284 16.6402 46.1716 16.5177 46.1932 16.3664C46.2076 16.244 46.2221 16.1143 46.1932 15.9991C46.1572 15.9847 46.1356 16.0207 46.1284 16.0495C46.1068 16.1432 46.0636 16.2296 46.0276 16.316C45.9916 16.3881 45.9555 16.4529 45.9123 16.5249C45.8979 16.5465 45.8475 16.6329 45.8331 16.6474C45.689 16.8634 45.545 17.0363 45.3289 17.1876C45.3073 17.202 45.2857 17.2164 45.2641 17.2308C45.0264 17.382 44.8103 17.4901 44.5438 17.5909C44.4141 17.6414 44.2845 17.6774 44.1548 17.7134C44.0396 17.5693 43.9171 17.4325 43.8091 17.2956C43.8307 17.2956 43.8523 17.2956 43.8739 17.2956C43.9964 17.31 44.1116 17.31 44.2413 17.3028C44.2701 17.3028 44.3997 17.2884 44.4141 17.274C44.5438 17.2524 44.695 17.2092 44.7887 17.1155C44.7887 17.0867 44.7599 17.0723 44.7383 17.0651C44.6446 17.0651 44.5294 17.0363 44.4285 17.0219C44.4285 17.0219 44.4141 17.0219 44.4069 17.0219C44.2557 16.9931 44.1044 16.9715 43.9531 16.9283C43.9243 16.9211 43.8883 16.9139 43.8595 16.8995C43.7299 16.8562 43.629 16.813 43.5138 16.7554C43.4201 16.705 43.3337 16.6546 43.2401 16.6041C43.2256 16.5969 43.2112 16.5897 43.204 16.5825C42.4837 15.783 41.8931 15.214 41.3961 14.8178C41.7274 13.9319 42.6206 13.5861 42.9087 13.4709L42.8943 13.4925ZM34.9855 11.5477C35.0287 11.6701 35.0143 11.9871 35.0071 12.1816C35.0071 12.268 35.0071 12.3616 35.0071 12.4481C34.8631 12.3904 34.7046 12.3328 34.5462 12.2824C34.6686 11.8214 34.7766 11.5549 34.9855 11.5477ZM24.0443 12.1816C24.0443 11.9871 24.0299 11.6701 24.0659 11.5477C24.2748 11.5477 24.3901 11.8214 24.5053 12.2824C24.3468 12.34 24.1956 12.3904 24.0443 12.4481C24.0443 12.3616 24.0443 12.268 24.0443 12.1816ZM17.7346 3.20674C18.1812 3.12751 18.4621 3.0987 18.6638 3.07709C19.0455 3.04107 19.204 3.01226 19.5137 2.82499C19.5137 2.88261 19.5137 2.94023 19.5137 3.00506C19.5137 3.09149 19.5425 3.23555 19.5713 3.31478C19.6145 3.43723 19.6794 3.51646 19.7802 3.5957C19.8162 3.62451 19.8738 3.58849 19.8738 3.58849C19.8738 3.41562 19.8882 3.26436 19.9243 3.0987C19.9243 3.08429 19.9387 3.03387 19.9387 3.02667C19.9675 2.93303 19.9891 2.861 20.0395 2.77457C20.0539 2.73135 20.1187 2.66652 20.1548 2.63051C20.1548 2.63051 20.162 2.63051 20.162 2.6233C20.2412 2.54407 20.3132 2.45764 20.378 2.3712C20.4069 2.32078 20.4357 2.28477 20.4573 2.23435C20.4573 2.21994 20.4645 2.20554 20.4717 2.19833C20.5149 2.16952 20.5653 2.13351 20.6157 2.1047C21.7394 1.34839 22.3372 1.34119 23.5185 1.32678C24.0515 1.32678 24.707 1.31238 25.5569 1.22594C27.1272 1.06748 27.797 1.75896 28.0707 2.23435C27.6242 2.16232 26.9543 2.06868 26.1044 2.03267C25.168 1.99665 24.2172 2.47204 23.5761 2.88261C23.3384 3.03387 23.144 3.17793 22.9783 3.30038C22.9279 3.32919 22.8847 3.3652 22.8414 3.40842C22.7982 3.44444 22.7622 3.47325 22.7262 3.50206C22.7046 3.52367 22.683 3.53807 22.6614 3.55968C22.6181 3.58849 22.5821 3.61731 22.5461 3.65332C22.3444 3.80458 22.2004 3.91262 21.9699 4.01346C21.9555 4.02787 21.8546 4.05668 21.833 4.06388C21.6386 4.12151 21.4801 4.14312 21.2784 4.15032C21.1848 4.15032 21.0983 4.15032 21.0047 4.15032C20.8462 4.14312 20.6662 4.13592 20.5077 4.11431C20.4645 4.11431 20.4285 4.11431 20.4213 4.17193C20.6662 4.37361 20.9255 4.48886 21.2352 4.56089H21.2568C21.5809 4.61131 21.8402 4.5969 22.1572 4.51767C22.2004 4.50326 22.2436 4.48886 22.2868 4.47445C22.3012 4.55368 22.3228 4.64012 22.3372 4.73376C22.3516 4.8562 22.3588 4.97145 22.3588 5.0939C22.366 5.40363 22.3444 5.60531 22.2508 5.90063C22.2508 5.90063 22.2292 5.95825 22.2292 5.96545C22.1067 6.28958 21.8979 6.62091 21.6962 6.90183C21.5809 7.06749 21.4873 7.22596 21.3792 7.39163C21.3576 7.42764 21.3504 7.47086 21.3937 7.49247C21.7034 7.3196 21.9627 7.11071 22.2076 6.85141C22.4309 6.59931 22.5893 6.37602 22.7406 6.07349C22.8126 5.91503 22.8702 5.77097 22.9135 5.5981C22.9567 5.40363 22.9639 5.23796 22.9495 5.03628C22.9495 4.97865 22.9351 4.92103 22.9207 4.86341C23.0503 4.91383 23.2016 4.95705 23.3672 4.99306C24.1668 5.15873 25.5497 4.64012 26.6662 4.22955C26.8751 4.15032 27.0695 4.07829 27.2352 4.02067C27.3288 3.99186 27.4009 3.96304 27.4585 3.94864C27.4585 3.95584 27.4585 3.97025 27.4513 3.97745C27.4369 4.02067 27.4297 4.05668 27.4153 4.0999C27.3433 4.3376 26.3853 5.14432 25.4849 5.25236C24.354 5.38202 23.0431 6.3256 22.5317 6.95225C22.0851 7.49967 20.6446 8.46486 19.2832 8.98347C18.0011 9.46606 16.0923 8.98347 16.0635 8.96906C16.0131 8.95466 15.9555 8.95466 15.9122 8.96906C15.9122 8.96186 15.8978 8.94745 15.8906 8.94025C15.6097 8.60171 15.2496 8.5657 14.9543 8.54409C14.731 8.52248 14.5437 8.50807 14.3492 8.38562C14.198 8.29199 14.0611 8.00387 13.9387 7.73016C13.9387 7.70135 13.9387 7.67254 13.9387 7.63652C13.5569 4.03507 17.324 3.27157 17.749 3.19233L17.7346 3.20674ZM11.396 11.0003C11.4753 10.3592 11.6049 10.1071 11.8066 9.72537C11.8714 9.61012 11.9362 9.47326 12.0155 9.3148C12.0731 9.18515 12.1379 9.04109 12.2028 8.88983C12.4188 8.39283 12.6853 7.78058 13.0023 7.49247C13.0671 7.60051 13.1391 7.78058 13.1968 7.91023C13.3696 8.3208 13.5713 8.78179 13.9387 9.01228C14.2844 9.22836 14.6085 9.25718 14.8678 9.27879C15.1271 9.3004 15.228 9.3148 15.3072 9.41564C15.3432 9.45886 15.372 9.49487 15.3864 9.51648C15.372 9.54529 15.3504 9.58131 15.3288 9.61732C15.2568 9.73977 15.1559 9.90544 15.0335 10.1575C14.6806 10.8994 14.6229 11.7926 14.6157 12.0663C14.2772 12.3832 14.1043 12.8298 13.9819 13.1611C13.9459 13.262 13.8954 13.3916 13.8594 13.4493C13.7874 13.4781 13.6073 13.4925 13.4705 13.5069C13.1391 13.5429 12.7286 13.5861 12.39 13.7806C11.3456 13.1323 11.2304 12.268 11.3888 11.0075L11.396 11.0003ZM14.0827 18.1672C13.9531 17.9511 13.773 17.8214 13.6145 17.7134C13.4489 17.5981 13.2904 17.4829 13.1463 17.2524C13.0095 17.0291 12.9951 16.8418 12.9735 16.6041C12.9519 16.3808 12.9302 16.1287 12.8078 15.8406C12.5413 15.2428 12.4693 14.789 12.5989 14.5585C12.743 14.3136 13.1968 14.2632 13.5641 14.22C13.8738 14.184 14.1475 14.1551 14.3276 14.0111C14.4861 13.8814 14.5653 13.6726 14.6661 13.4133C14.803 13.0459 14.9759 12.5921 15.3288 12.4553C15.6097 12.3472 16.0059 12.4265 16.5173 12.693C17.4393 13.1756 17.9147 13.8382 17.9291 14.6522C17.1079 15.25 16.0491 16.3088 14.5293 18.1888C14.4212 18.3184 14.3204 18.4553 14.2268 18.5921C14.198 18.4193 14.1547 18.2752 14.0899 18.1672H14.0827ZM6.18833 17.4685C5.78497 16.705 5.81378 15.0987 6.03707 14.6233C6.33959 14.9043 6.95904 15.5525 7.05268 16.1143C7.13191 16.5681 6.96624 17.0723 6.82219 17.3893C6.80778 17.3532 6.79337 17.31 6.77897 17.274C6.69974 17.0651 6.62771 16.885 6.56288 16.6618C6.55568 16.6257 6.54127 16.5897 6.53407 16.5537C6.46924 16.3016 6.42603 16.0351 6.37561 15.7758C6.34679 15.6462 6.31078 15.5453 6.26036 15.4229C6.24595 15.3941 6.22434 15.3796 6.19553 15.394C6.14511 15.6029 6.1235 15.8262 6.1235 16.0423C6.1235 16.2872 6.14511 16.5177 6.18113 16.7554C6.19553 16.8418 6.20994 16.9283 6.23155 17.0219C6.26756 17.1732 6.31798 17.31 6.39721 17.4469C6.32518 17.4469 6.26036 17.4541 6.19553 17.4685H6.18833ZM7.57129 9.70376C8.13311 8.95465 9.1055 7.99667 9.96265 7.21876C9.63852 7.73016 9.336 8.24877 9.16313 8.68815C8.87501 9.43005 8.42843 9.50208 8.15472 9.54529C8.01787 9.5669 7.8594 9.59571 7.75856 9.73977C7.65772 9.87663 7.66492 10.0207 7.67213 10.5393C7.68653 11.0795 7.70094 11.9871 7.57849 13.0315C7.52087 13.5357 7.44164 13.9535 7.3552 14.2992C7.33359 13.867 7.29758 13.4349 7.29758 13.0027C7.29758 12.9451 7.29758 12.8874 7.29758 12.8298C7.29758 12.4481 7.33359 12.0735 7.348 11.6918C7.348 11.4973 7.348 11.3028 7.29037 11.1155C7.27597 11.0867 7.25436 11.0579 7.22555 11.0795C7.16793 11.4108 7.08869 11.7422 7.03107 12.0735C6.98785 12.3256 6.95184 12.5777 6.93023 12.837C6.91582 13.0891 6.90142 13.3412 6.89421 13.5933C6.89421 13.9319 6.92303 14.3064 7.03827 14.6305C6.82219 14.3784 6.6061 14.1624 6.44043 14.0255C6.49806 13.9607 6.53407 13.8742 6.53407 13.7806C6.53407 13.7518 6.50526 11.1299 7.57849 9.70376H7.57129ZM7.13191 19.3556C6.54847 18.6282 6.41882 18.2968 6.39721 18.1744C6.40442 18.1744 6.41162 18.1744 6.42603 18.1744C6.8582 18.1744 7.71534 18.5489 8.26276 18.9019C9.23516 19.5213 9.89062 19.7806 10.4164 19.9895C10.5389 20.0399 10.6469 20.0831 10.7622 20.1264C11.252 20.3352 12.2892 21.0195 12.8726 22.2008C12.7358 22.1504 12.4981 22.0711 12.4621 22.0567C12.354 22.0207 12.246 21.9847 12.1379 21.9487C11.6409 21.783 11.1223 21.639 10.6181 21.4805C10.5605 21.4661 10.4741 21.4157 10.4236 21.3941C10.0419 21.1924 9.73216 20.9691 9.40803 20.6882C9.27837 20.5729 9.14872 20.4649 9.02627 20.3424C8.839 20.1552 8.61571 19.9247 8.45724 19.7086C8.44284 19.687 8.39242 19.6222 8.37081 19.6726C8.50046 20.1336 8.88222 20.5801 9.20635 20.9187C9.20635 20.9187 9.24236 20.9547 9.24956 20.9619C9.61691 21.322 10.0059 21.6318 10.4669 21.8623C10.5677 21.9127 10.6829 21.9559 10.791 21.9991C11.1943 22.1432 11.6193 22.2656 12.0371 22.3665C12.2676 22.4241 12.4981 22.4745 12.7286 22.4961C12.7934 22.4961 12.8582 22.5033 12.923 22.5033C12.9519 22.5033 12.9879 22.5033 13.0239 22.5033C13.1319 22.777 13.2184 23.0651 13.2688 23.3821C12.0011 22.8563 8.78858 21.3941 7.15352 19.3556H7.13191ZM16.8774 27.286C17.2736 27.6174 17.6121 27.9847 17.8138 28.3809C17.9075 28.5682 18.0443 28.7698 18.2172 28.9787C18.0947 29.0508 17.8066 29.058 17.4825 28.9355C17.1439 28.8059 16.8918 28.5682 16.8198 28.3305C16.6541 27.7686 16.6974 27.4949 16.8774 27.286ZM3.78976 30.124C3.03346 30.9739 2.29156 31.615 1.85218 31.9967C1.43441 32.3569 1.31917 32.4577 1.28315 32.6234C1.24714 32.8035 1.32637 32.9331 1.41281 33.0628C1.57127 33.3149 1.84498 33.7398 1.44882 34.5178C1.19672 35.0148 0.97343 35.7134 0.793357 36.4049C0.793357 35.1084 0.865386 33.5165 1.06707 32.4865C1.44162 30.5994 3.58088 28.7194 3.60249 28.705C3.68172 28.6402 3.71773 28.5465 3.72494 28.4457C3.91221 28.4745 4.18592 28.4961 4.48844 28.4961C4.56047 28.4961 4.6325 28.4961 4.70453 28.4961C4.59649 28.5249 4.48844 28.5826 4.42362 28.6114C3.89781 28.8779 3.47284 29.2596 3.04066 29.6558C3.03346 29.6558 3.01185 29.6846 2.99744 29.6918C2.65171 30.0159 2.29156 30.3833 2.03226 30.7794C1.92421 30.9451 1.84498 31.1108 1.81617 31.3125C1.81617 31.3485 1.81617 31.3773 1.85939 31.3773C2.01785 31.1252 2.29156 30.8587 2.50044 30.6498C2.75975 30.3977 3.01905 30.1672 3.29276 29.9439C3.45123 29.8143 3.61689 29.6918 3.77536 29.5694C4.09229 29.3317 4.48844 29.058 4.77656 28.8059C4.79097 28.7914 4.81258 28.777 4.82698 28.7626C4.59649 29.1228 4.26516 29.591 3.78256 30.1312L3.78976 30.124ZM4.98545 28.5105C4.98545 28.5105 4.97104 28.5105 4.95663 28.5033C4.94943 28.5033 4.89901 28.4889 4.89901 28.4889C4.89901 28.4889 4.89181 28.4889 4.8846 28.4889C4.92062 28.4889 4.96384 28.4889 4.99985 28.4817C4.99265 28.4961 4.98545 28.5105 4.97824 28.5249L4.98545 28.5105ZM5.87861 27.4877C5.33839 27.8263 4.32998 27.783 3.89781 27.7398C3.98424 27.5381 4.26516 27.1276 4.80537 26.6594C4.92782 26.5513 5.05747 26.4505 5.17992 26.3569C5.15832 26.3857 5.14391 26.4073 5.1223 26.4361C5.01426 26.5946 4.94223 26.717 4.863 26.8899C4.863 26.9043 4.84859 26.9187 4.84139 26.9259C4.79097 27.0195 4.74775 27.1492 4.69013 27.2356C4.67572 27.2644 4.67572 27.286 4.69733 27.3076C4.82698 27.2644 4.94223 27.1492 5.02866 27.0555C5.09349 26.9907 5.15831 26.9187 5.21594 26.8467C5.27356 26.7746 5.33118 26.7098 5.39601 26.6378C5.52566 26.5081 5.64091 26.4145 5.78497 26.2992C5.97945 26.148 6.18113 26.0183 6.37561 25.8743C6.46924 26.0183 6.6061 26.1624 6.77176 26.2848C6.62771 26.6306 6.32518 27.1924 5.8642 27.4733L5.87861 27.4877ZM11.7562 27.4877C11.6265 27.4301 11.4969 27.3581 11.36 27.2788C10.8558 27.0051 10.222 26.6594 8.98306 26.4505C8.45724 26.3641 7.93863 26.1552 7.56408 25.9463C7.52087 25.8671 7.44884 25.795 7.348 25.7662C7.31919 25.759 7.29037 25.7518 7.26156 25.7518C7.1103 25.6438 7.01666 25.5501 6.98785 25.4781C7.05268 25.4205 7.3552 25.226 8.52927 25.1612C11.6553 24.9955 15.2784 26.753 16.0995 27.178C16.0347 27.3437 15.9987 27.5165 15.9987 27.7182C14.7094 28.1504 12.8006 27.9559 11.7634 27.4805L11.7562 27.4877ZM7.48485 36.1816C7.04548 37.1972 6.56288 38.0112 6.26756 38.4938C5.99385 38.9547 5.92182 39.0772 5.93623 39.2429C5.95063 39.3869 6.02987 39.495 6.26036 39.8119C6.54848 40.208 7.03827 40.8707 7.1175 41.3317C7.13191 41.3965 7.15352 41.4758 7.18233 41.5478C6.44043 40.7483 5.81378 39.8623 5.73455 39.1492C5.53287 37.2404 6.92303 34.8635 6.93743 34.8347C6.98785 34.7482 6.99506 34.6546 6.98065 34.5682C7.26156 34.525 7.69374 34.4241 8.11871 34.2512C8.03227 34.6762 7.8522 35.3245 7.49205 36.1744L7.48485 36.1816ZM8.61571 33.0916C8.23395 33.5454 7.33359 33.7759 6.93743 33.8551C6.95904 33.3077 7.83059 31.6438 8.65893 31.2476C8.78137 31.3341 8.93264 31.4061 9.1055 31.4637C9.1055 31.7086 9.04788 32.5802 8.61571 33.0916ZM13.9603 31.3557C13.8162 31.3269 13.6577 31.2981 13.4921 31.262C12.9591 31.1396 12.2892 30.9955 11.1871 30.9955C10.2796 30.9955 9.44404 30.8587 9.14152 30.7146C9.27117 30.6138 9.5881 30.4193 10.3516 30.1384C13.1175 29.1372 17.0431 29.9223 17.9435 30.124C17.9435 30.4049 18.0083 30.729 18.1884 31.082C18.1884 31.082 18.1884 31.0964 18.1956 31.0964C17.6914 31.4493 16.5461 31.7806 13.9603 31.3485V31.3557ZM19.1896 31.0676C19.0959 31.046 18.9591 30.9955 18.8294 30.7506C18.5413 30.196 18.6854 29.8431 18.8294 29.6558C19.24 30.0592 19.6938 30.4553 20.0899 30.7722C19.881 30.9163 19.4849 31.1324 19.1896 31.0748V31.0676ZM16.8846 44.2129C17.2952 44.7531 17.9074 45.5742 17.8498 45.7759C17.8498 45.7759 17.7706 45.8623 17.3816 45.8839C16.8486 45.9199 16.3588 45.9127 15.9122 45.8767C15.9699 45.8623 16.0275 45.8407 16.0851 45.8119C16.8054 45.3221 16.3156 45.3221 16.3156 45.4734C16.3444 45.5022 16.33 45.5238 16.33 45.5238C16.3156 45.5094 16.3156 45.495 16.3156 45.4734C16.2796 45.4446 16.1932 45.4013 15.9699 45.3941C15.9699 45.3941 15.7826 45.3941 15.761 45.3941C15.5737 45.3725 15.408 45.3365 15.2352 45.2861C14.9471 45.1997 14.7454 45.0988 14.4933 44.9332C14.4933 44.9332 14.4717 44.9187 14.4645 44.9115C14.1403 44.6666 13.8954 44.4289 13.6361 44.1192C13.5137 43.968 13.3696 43.8167 13.2616 43.6582C13.2328 43.6294 13.1968 43.6006 13.1607 43.6366C13.2112 44.004 13.3696 44.3353 13.5713 44.645C13.7514 44.9043 13.9314 45.106 14.1619 45.3149C14.2484 45.3869 14.3276 45.459 14.414 45.5166C13.2832 45.034 12.4981 44.076 11.8714 42.5058C12.39 42.8083 12.9807 43.0244 13.5065 43.0244C13.773 43.0244 14.0251 42.9668 14.2268 42.8371C14.4501 42.7002 14.7958 42.3545 14.6805 41.5838C14.5437 40.6834 14.5509 40.3593 14.7238 40.0856C14.9471 41.6486 16.0419 43.1036 16.8774 44.2129H16.8846ZM15.1631 38.4649C14.911 38.8035 14.7022 39.0268 14.5221 39.214C13.917 39.8479 13.737 40.1792 13.9675 41.6918C14.0107 41.9656 13.9675 42.1456 13.8378 42.2249C13.5569 42.3977 12.779 42.2681 12.0155 41.7423C11.4609 41.3677 10.9134 40.7627 11.0215 40.1936C11.1079 39.7399 11.0719 39.567 11.0215 39.4013C10.9999 39.3437 10.9783 39.2645 11.1295 38.7315C11.3096 38.0904 12.4909 37.1972 13.3768 36.657C13.5713 36.9523 13.8234 37.1828 14.0323 37.3845C14.0899 37.4349 14.1475 37.4925 14.198 37.543C14.2628 37.6078 14.3564 37.6438 14.4501 37.6438C14.4645 37.6438 14.4789 37.6438 14.5005 37.6438C14.6085 37.6294 14.7094 37.5646 14.7598 37.4709C14.8822 37.2693 15.0263 37.0604 15.1776 36.8803C15.4008 37.1252 15.725 37.6798 15.1487 38.4649H15.1631ZM19.2832 35.3893C18.8294 35.6702 18.2964 35.8071 17.6553 35.8071C17.2088 35.8071 16.791 35.7422 16.4525 35.6846C16.2508 35.6558 16.0707 35.627 15.9267 35.6198C15.3288 35.591 14.731 36.2681 14.3996 36.7362C14.1908 36.5418 14.0107 36.3473 13.9098 36.1312C13.9098 36.0808 13.8954 36.0304 13.8666 35.9799C13.8594 35.9655 13.845 35.9511 13.8378 35.9367C13.7658 35.6414 13.8306 35.2813 14.1331 34.7987C14.6229 34.0208 16.4164 33.4085 18.2172 33.4085C19.384 33.4085 20.2628 33.6966 20.378 34.1C20.378 34.1792 20.2988 34.7482 19.2832 35.3749V35.3893ZM21.3432 33.4733C21.0263 33.4301 20.7238 33.2068 20.5005 32.8683C20.0395 32.1552 20.5581 31.5934 20.8246 31.3629C21.0119 31.5574 21.156 31.7951 21.3216 32.0688C21.5377 32.4289 21.7754 32.8323 22.1644 33.2284C21.8834 33.4301 21.6097 33.5093 21.3432 33.4733ZM33.1776 33.5886C32.587 33.4733 29.8859 33.5526 29.5329 33.5598C29.18 33.5526 26.4789 33.4661 25.8883 33.5886C25.4273 33.6822 23.9075 33.7687 22.9567 32.9763C22.4597 32.5586 22.1932 32.1192 21.9411 31.6942C21.6962 31.2909 21.4657 30.9019 21.0695 30.6066C20.2556 30.0015 18.8222 28.7842 18.4621 28.0567C18.0083 27.1492 17.0575 26.4649 16.2004 25.8887C14.9327 25.0459 14.1187 23.8503 13.917 22.5249C13.7946 21.7398 13.8954 20.9259 14.198 20.1552C14.234 20.1047 14.2556 20.0543 14.2628 19.9895C14.4645 19.5213 14.7382 19.0675 15.0839 18.6354C18.3324 14.6233 19.2616 14.6017 20.3276 14.5729C21.0839 14.5513 21.9483 14.5369 23.4897 13.5069C23.5257 13.4853 23.5689 13.4565 23.6121 13.4349C23.7202 13.4277 23.8282 13.37 23.9003 13.2908C24.2172 13.1467 24.6206 12.9955 25.0383 12.8586C25.0743 12.8586 25.1104 12.8514 25.1464 12.837C25.168 12.8298 25.1968 12.8154 25.2184 12.801C25.809 12.6209 26.4141 12.4697 26.8174 12.4193C27.617 12.3112 29.2664 12.1455 29.5257 12.1167C29.785 12.1455 31.4345 12.3112 32.234 12.4193C32.6374 12.4697 33.2352 12.6209 33.8331 12.801C33.8547 12.8154 33.8763 12.8226 33.9051 12.837C33.9411 12.8514 33.9771 12.8586 34.0131 12.8586C34.4309 12.9955 34.8343 13.1467 35.1512 13.2908C35.2232 13.3772 35.3241 13.4277 35.4393 13.4349C35.4825 13.4637 35.5257 13.4853 35.5618 13.5069C37.1032 14.5369 37.9675 14.5585 38.7238 14.5729C39.7971 14.6017 40.719 14.6233 43.9675 18.6354C44.9255 19.8238 45.3433 21.1996 45.1416 22.5249C44.9399 23.8503 44.1332 25.0459 42.8583 25.8887C42.0012 26.4577 41.0504 27.1492 40.5966 28.0567C40.2364 28.777 38.8031 30.0015 37.9891 30.6066C37.5858 30.9019 37.3625 31.2837 37.1176 31.6942C36.8655 32.1192 36.599 32.5586 36.102 32.9763C35.1584 33.7687 33.6314 33.6822 33.1704 33.5886H33.1776ZM37.7154 33.4733C37.4489 33.5093 37.1752 33.4229 36.8943 33.2284C37.2833 32.8323 37.521 32.4289 37.737 32.0688C37.9027 31.7951 38.0468 31.5502 38.234 31.3629C38.5005 31.5934 39.0192 32.1552 38.5582 32.8683C38.3349 33.2068 38.0324 33.4301 37.7154 33.4733ZM44.6374 45.5238C44.7239 45.4662 44.8031 45.3941 44.8895 45.3221C45.1272 45.1132 45.3001 44.9115 45.4802 44.6522C45.6818 44.3425 45.8403 44.0112 45.8907 43.6438C45.8547 43.6078 45.8187 43.6366 45.7899 43.6654C45.6746 43.8167 45.5378 43.9752 45.4153 44.1264C45.1632 44.4361 44.9111 44.681 44.587 44.9187C44.587 44.9187 44.5654 44.9331 44.5582 44.9403C44.3061 45.1132 44.1044 45.2069 43.8163 45.2933C43.6362 45.3437 43.4705 45.3797 43.2905 45.4013C43.2761 45.4013 43.0816 45.4157 43.0816 45.4013C42.8583 45.4013 42.7719 45.4446 42.7359 45.4806C42.7359 45.495 42.7359 45.5094 42.7214 45.531C42.7214 45.531 42.707 45.5094 42.7359 45.4806C42.7359 45.3293 42.2461 45.3293 42.9663 45.8191C43.024 45.8479 43.0816 45.8623 43.1392 45.8839C42.6926 45.9272 42.2028 45.9271 41.6698 45.8911C41.2881 45.8695 41.2088 45.7831 41.2088 45.7831C41.144 45.5742 41.7635 44.7603 42.174 44.2129C43.0096 43.1108 44.1044 41.6558 44.3277 40.0856C44.5006 40.3593 44.5078 40.6834 44.3709 41.5838C44.2557 42.3545 44.6086 42.7002 44.8247 42.8371C45.0336 42.9668 45.2785 43.0244 45.545 43.0244C46.0708 43.0244 46.6686 42.8083 47.18 42.5058C46.5534 44.076 45.7683 45.0268 44.6374 45.5166V45.5238ZM47.9147 38.7459C48.066 39.2717 48.0372 39.3581 48.0228 39.4157C47.9724 39.5814 47.9363 39.7543 48.0228 40.208C48.1308 40.7771 47.5834 41.3821 47.0288 41.7567C46.2653 42.2825 45.4874 42.4121 45.2064 42.2393C45.084 42.16 45.0408 41.98 45.0768 41.7062C45.3073 40.1936 45.1272 39.8623 44.5222 39.2284C44.3349 39.034 44.126 38.8179 43.8811 38.4794C43.3193 37.7014 43.6362 37.1468 43.8523 36.9019C44.0036 37.082 44.1548 37.2909 44.2701 37.4925C44.3277 37.5862 44.4213 37.651 44.5366 37.6654C44.551 37.6654 44.5654 37.6654 44.587 37.6654C44.6806 37.6654 44.7743 37.6294 44.8391 37.5646C44.8895 37.5142 44.9471 37.4565 45.0048 37.4061C45.2208 37.2044 45.473 36.9667 45.6602 36.6786C46.5462 37.2188 47.7203 38.112 47.9075 38.7531L47.9147 38.7459ZM44.9255 34.8131C45.2281 35.2957 45.2929 35.6486 45.2209 35.9511C45.2136 35.9655 45.1992 35.9799 45.192 35.9943C45.1632 36.0376 45.156 36.088 45.1488 36.1456C45.0408 36.3617 44.8607 36.5562 44.659 36.7507C44.3349 36.2969 43.7659 35.6342 43.1824 35.6342C43.168 35.6342 43.1536 35.6342 43.1392 35.6342C42.9952 35.6414 42.8151 35.6702 42.6134 35.699C42.2749 35.7567 41.8571 35.8215 41.4105 35.8215C40.7695 35.8215 40.2364 35.6846 39.7827 35.4037C38.7815 34.7843 38.7022 34.2224 38.695 34.1216C38.8103 33.711 39.689 33.4301 40.8559 33.4301C42.6566 33.4301 44.4501 34.0424 44.9399 34.8203L44.9255 34.8131ZM39.8619 31.082C39.5666 31.1396 39.1704 30.9235 38.9615 30.7794C39.3505 30.4625 39.8115 30.0736 40.222 29.663C40.3661 29.8503 40.5102 30.2104 40.222 30.7578C40.0924 31.0027 39.9555 31.0604 39.8619 31.0748V31.082ZM53.3241 39.1708C53.2521 39.8839 52.6182 40.7627 51.8763 41.5694C51.9051 41.4902 51.9268 41.4181 51.9412 41.3533C52.0204 40.8923 52.5102 40.2297 52.7983 39.8335C53.0288 39.5166 53.108 39.4085 53.1224 39.2645C53.1368 39.0988 53.0648 38.9691 52.7911 38.5154C52.503 38.0328 52.0132 37.2188 51.5738 36.2032C51.2137 35.3677 51.0336 34.7122 50.9472 34.2873C51.3721 34.4601 51.8043 34.5682 52.0852 34.6042C52.0636 34.6906 52.078 34.7843 52.1284 34.8707C52.1428 34.8923 53.533 37.2693 53.3313 39.1852L53.3241 39.1708ZM52.1212 33.8695C51.7251 33.7975 50.8175 33.5598 50.443 33.106C50.018 32.5946 49.9604 31.7158 49.9532 31.4781C50.126 31.4205 50.2773 31.3485 50.4069 31.262C51.2281 31.6582 52.1068 33.3221 52.1284 33.8695H52.1212ZM48.6999 30.1528C49.4706 30.4265 49.7875 30.6282 49.9099 30.729C49.6074 30.8731 48.7719 31.0099 47.8643 31.0099C46.7623 31.0099 46.0924 31.154 45.5594 31.2764C45.3937 31.3125 45.2353 31.3485 45.0912 31.3701C42.4982 31.8023 41.3601 31.4709 40.8559 31.118C40.8559 31.118 40.8559 31.1108 40.8631 31.1036C41.0432 30.7506 41.1152 30.4265 41.108 30.1456C42.0084 29.9439 45.9339 29.166 48.6999 30.16V30.1528ZM50.0828 26.4649C48.8367 26.6666 48.2101 27.0123 47.7058 27.2932C47.569 27.3725 47.4321 27.4445 47.3097 27.5021C46.2725 27.9775 44.3637 28.1792 43.0744 27.7398C43.0744 27.5453 43.0384 27.3653 42.9735 27.1996C43.7947 26.7746 47.4177 25.0171 50.5438 25.1828C51.7251 25.2476 52.0276 25.4421 52.0852 25.4997C52.0564 25.5717 51.9556 25.6654 51.8115 25.7734C51.7827 25.7734 51.7539 25.7734 51.7251 25.7878C51.6314 25.8166 51.5522 25.8815 51.509 25.9679C51.1344 26.1768 50.6158 26.3857 50.09 26.4721L50.0828 26.4649ZM52.2797 26.3136C52.4454 26.184 52.5822 26.0471 52.6759 25.9031C52.8703 26.0471 53.072 26.1768 53.2665 26.3281C53.4105 26.4361 53.5258 26.5369 53.6554 26.6666C53.7203 26.7314 53.7779 26.8034 53.8355 26.8755C53.8931 26.9475 53.958 27.0195 54.0228 27.0844C54.1092 27.1852 54.2245 27.3004 54.3541 27.3365C54.3757 27.3148 54.3757 27.286 54.3613 27.2644C54.3037 27.178 54.2605 27.0483 54.2101 26.9547C54.2101 26.9403 54.1957 26.9259 54.1885 26.9187C54.1092 26.7458 54.0372 26.6234 53.9292 26.4649C53.9075 26.4361 53.8931 26.4073 53.8715 26.3857C53.994 26.4793 54.1236 26.5802 54.2461 26.6882C54.7863 27.1564 55.0744 27.567 55.1537 27.7686C54.7287 27.8119 53.7131 27.8479 53.1729 27.5165C52.7119 27.2284 52.4165 26.6738 52.2653 26.3281L52.2797 26.3136ZM54.1741 28.4961C54.1741 28.4961 54.1669 28.4961 54.1596 28.4961C54.1596 28.4961 54.1092 28.5033 54.102 28.5105C54.0948 28.5105 54.0804 28.5105 54.0732 28.5177C54.066 28.5033 54.0588 28.4889 54.0516 28.4745C54.0876 28.4745 54.1308 28.4817 54.1669 28.4817L54.1741 28.4961ZM57.6242 34.5322C57.2281 33.7542 57.5018 33.3293 57.6603 33.0772C57.7395 32.9475 57.8259 32.8179 57.7899 32.6378C57.7539 32.4649 57.6386 32.3713 57.2209 32.0111C56.7743 31.6294 56.0324 30.9883 55.2833 30.1384C54.8007 29.5982 54.4694 29.13 54.2389 28.7698C54.2533 28.7842 54.2749 28.7987 54.2893 28.8131C54.5846 29.0652 54.9736 29.3317 55.2905 29.5766C55.4562 29.699 55.6146 29.8215 55.7803 29.9511C56.0612 30.1744 56.3205 30.4049 56.5726 30.657C56.7815 30.8659 57.0552 31.1324 57.2137 31.3845C57.2569 31.3845 57.2641 31.3557 57.2569 31.3197C57.2281 31.1252 57.1489 30.9523 57.0408 30.7866C56.7815 30.3833 56.4214 30.0231 56.0756 29.699C56.0684 29.6918 56.0468 29.6702 56.0324 29.663C55.6002 29.2668 55.1825 28.8851 54.6494 28.6186C54.5846 28.5898 54.4766 28.5393 54.3757 28.5033C54.4478 28.5033 54.5198 28.5033 54.5918 28.5033C54.9016 28.5033 55.1681 28.4817 55.3553 28.4529C55.3553 28.5465 55.3985 28.6402 55.4778 28.7122C55.4994 28.7266 57.6387 30.6138 58.0132 32.4937C58.2149 33.5165 58.2797 35.1156 58.2869 36.4121C58.0996 35.7206 57.8835 35.022 57.6314 34.525L57.6242 34.5322Z" fill="white"/>
<path fill-rule="evenodd" clip-rule="evenodd" d="M44.7671 11.0868C44.695 10.9067 44.623 10.7338 44.5366 10.561C44.515 10.5178 44.4213 10.3593 44.3997 10.3377C44.3421 10.244 44.2845 10.1648 44.198 10.0928C44.1692 10.064 44.1404 10.0424 44.1044 10.0208C44.0756 10.0063 44.054 9.99194 44.018 9.99194C43.9964 10.0208 43.9964 10.0568 44.0108 10.0856C44.0108 10.0928 44.018 10.1072 44.0252 10.1144C44.0324 10.1432 44.0396 10.1792 44.0468 10.208C44.0612 10.2945 44.0828 10.3809 44.1044 10.4745C44.1044 10.4745 44.1044 10.4745 44.1044 10.4817C44.162 10.7266 44.2269 10.9715 44.2845 11.2236C44.2845 11.238 44.2989 11.2813 44.2989 11.2957C44.3709 11.6486 44.3997 12.0736 44.5078 12.4049C44.5294 12.4625 44.5654 12.5778 44.6086 12.6138C44.6374 12.6714 44.6662 12.6858 44.7239 12.7146C44.8175 12.7651 44.8535 12.7146 44.9039 12.6426C44.9327 12.6066 44.9543 12.5634 44.976 12.5202C45.0768 12.3041 44.9976 11.8575 44.9327 11.627C44.8823 11.4469 44.8247 11.2669 44.7599 11.094L44.7671 11.0868Z" fill="white"/>
<path fill-rule="evenodd" clip-rule="evenodd" d="M48.3397 25.6149C48.0803 25.5645 47.8499 25.5573 47.5833 25.5789C46.9855 25.6437 46.5101 25.7733 45.9339 25.9606C45.9339 25.9606 45.9051 25.975 45.8979 25.975C45.2784 26.1911 44.5005 26.4936 44.0107 26.9474C43.9243 27.0267 43.845 27.1059 43.773 27.2067C43.7874 27.2211 43.5281 27.4732 43.5785 27.5957C43.6722 27.7469 43.8162 27.5237 43.9819 27.4228C43.9963 27.4228 44.0179 27.4012 44.0323 27.394C44.4789 27.1203 44.8318 26.9042 45.3 26.6737C45.5521 26.5513 45.797 26.436 46.0635 26.3352C46.4237 26.1911 46.7766 26.0687 47.144 25.9606C47.5473 25.8454 47.9723 25.7373 48.3973 25.6941C48.4261 25.6509 48.3613 25.6365 48.3397 25.6293V25.6149Z" fill="white"/>
<path fill-rule="evenodd" clip-rule="evenodd" d="M49.73 26.0255C49.658 25.9535 49.5788 25.9103 49.4779 25.8743H49.4635C49.2114 25.7734 49.0097 25.7374 48.736 25.7158C48.7072 25.7158 48.6784 25.7158 48.6568 25.7158C48.3975 25.7158 48.1598 25.7158 47.9149 25.8023C47.7924 25.8527 47.706 25.9031 47.6124 25.9895C47.6124 25.9895 47.5764 26.0183 47.5764 26.0255C47.4971 26.1192 47.3675 26.2704 47.4395 26.4001C47.4395 26.4001 47.4395 26.4001 47.4395 26.4145L47.4539 26.4289C47.5043 26.4865 47.5475 26.4433 47.5475 26.4505C47.598 26.4217 47.6628 26.3785 47.7204 26.3569C47.7492 26.3425 47.7708 26.3281 47.7996 26.3209C47.8861 26.2848 47.9653 26.2488 48.0517 26.22C48.1454 26.1912 48.2246 26.1696 48.3183 26.1552C48.4551 26.1264 48.5776 26.1048 48.7216 26.0976C48.8801 26.0904 49.0241 26.0904 49.1826 26.0976C49.2546 26.0976 49.3411 26.112 49.4131 26.1192C49.4491 26.1192 49.6364 26.1552 49.6652 26.1696C49.7084 26.184 49.766 26.2056 49.8093 26.2344C49.8093 26.2344 49.8669 26.22 49.8381 26.1624C49.8165 26.1192 49.766 26.0688 49.73 26.04V26.0255Z" fill="white"/>
<path fill-rule="evenodd" clip-rule="evenodd" d="M41.5906 30.7362C41.7419 30.6785 41.8499 30.6497 42.0084 30.6209C42.1236 30.5993 42.2389 30.5777 42.3613 30.5633C42.7503 30.5201 43.1392 30.4913 43.5282 30.4697C43.7587 30.4553 43.982 30.448 44.2125 30.4408C44.6878 30.4192 45.156 30.4048 45.6314 30.3688C45.9123 30.3472 46.2005 30.3472 46.4814 30.3544C47.036 30.3688 47.7779 30.4264 48.3253 30.3544C48.3613 30.3112 48.2605 30.2968 48.2389 30.2896C47.8931 30.2464 47.5474 30.1815 47.1945 30.1311C46.6758 30.0663 46.1356 29.9943 45.617 30.0159C45.4802 30.0159 45.3433 30.0159 45.2065 30.0159C44.6374 30.0159 44.0756 30.0087 43.5066 30.0375C43.1104 30.0591 42.7647 30.0951 42.3829 30.1815C42.3685 30.1815 42.3037 30.2031 42.2965 30.2031C42.0876 30.2608 41.5906 30.3832 41.4898 30.6209C41.5042 30.6209 41.4537 30.6929 41.4465 30.7074C41.3745 30.8298 41.5474 30.7722 41.5906 30.7434V30.7362Z" fill="white"/>
<path fill-rule="evenodd" clip-rule="evenodd" d="M50.3564 31.5645C50.306 31.5285 50.2628 31.4924 50.2052 31.4708C50.1331 31.442 50.0899 31.442 50.0395 31.4996C49.9963 31.5501 50.0251 31.6149 50.0467 31.6725C50.0611 31.7013 50.0683 31.7301 50.0827 31.7517C50.0827 31.7589 50.0971 31.7878 50.1043 31.795C50.1547 31.8958 50.2124 31.9822 50.2916 32.0615C50.3996 32.1551 50.5077 32.2559 50.6157 32.3424C50.7958 32.4864 50.9687 32.6161 51.1343 32.7818C51.2928 32.9402 51.4513 33.0915 51.6025 33.2571C51.6457 33.2571 51.6385 33.2067 51.6313 33.1779C51.5809 33.0411 51.5449 32.9114 51.4729 32.7818C51.372 32.5801 51.2712 32.4288 51.1199 32.2631C50.9399 32.0615 50.7886 31.903 50.5725 31.7373C50.5365 31.7157 50.4789 31.6653 50.4429 31.6365C50.4213 31.6221 50.378 31.5789 50.3564 31.5717V31.5645Z" fill="white"/>
<path fill-rule="evenodd" clip-rule="evenodd" d="M39.9699 35.1804C40.2004 35.3317 40.4237 35.4037 40.6902 35.4613C40.8919 35.4973 41.0792 35.5189 41.2809 35.5261C41.569 35.5333 41.8499 35.5189 42.138 35.4973C42.563 35.4829 42.9159 35.4325 43.3265 35.3029C43.7442 35.1516 43.8595 35.0147 44.1476 34.8923C44.1476 34.8923 44.1548 34.8419 44.1116 34.8275C43.9747 34.7987 43.7875 34.8563 43.6578 34.8995C43.1032 35.0652 42.7286 35.1156 42.138 35.1228C42.0804 35.1228 42.0156 35.1228 41.9579 35.1228C41.5474 35.1228 41.1872 35.094 40.7767 35.0219C40.5822 34.9859 40.4093 34.9427 40.222 34.8779C40.2148 34.8779 40.1572 34.8563 40.1572 34.8491C39.9555 34.7554 39.8115 34.6114 39.6314 34.5538C39.3937 34.4889 39.7538 34.9787 39.7899 35.0147C39.8259 35.0508 39.9267 35.1444 39.9699 35.166V35.1804Z" fill="white"/>
<path fill-rule="evenodd" clip-rule="evenodd" d="M47.0288 40.5539C47.1513 40.5323 47.2449 40.4746 47.3385 40.3882C47.4178 40.309 47.4754 40.2297 47.5258 40.1289C47.5618 40.0569 47.5834 39.9848 47.5978 39.9056C47.6339 39.74 47.6411 39.5959 47.6267 39.4302C47.6267 39.423 47.6267 39.3798 47.6195 39.3798C47.5906 39.2285 47.5402 39.0773 47.4322 38.9548C47.4034 38.9548 47.389 38.9764 47.3818 39.0053C47.3818 39.0917 47.3529 39.1853 47.3457 39.2718C47.3457 39.2934 47.3385 39.3654 47.3313 39.3798C47.3097 39.5095 47.2881 39.6103 47.2449 39.74C47.2449 39.74 47.2305 39.776 47.2305 39.7832C47.1729 39.92 47.1152 39.9849 47.0288 40.1001C47.0288 40.1001 46.9568 40.1937 46.9496 40.2081C46.8631 40.3162 46.8271 40.3162 46.7983 40.453C46.7839 40.5899 46.9352 40.5755 47.0288 40.5683V40.5539Z" fill="white"/>
<path fill-rule="evenodd" clip-rule="evenodd" d="M45.5523 41.699C45.5523 41.7422 45.5235 41.771 45.5883 41.7782C45.6027 41.7782 45.6171 41.7782 45.6315 41.7782C45.6603 41.7782 45.6747 41.7638 45.7035 41.7494C45.7179 41.7422 45.7756 41.699 45.79 41.699C45.79 41.699 45.862 41.6486 45.8764 41.6342C46.0853 41.4757 46.3302 41.202 46.4598 40.9715C46.5175 40.8635 46.5535 40.7698 46.5895 40.6546C46.6327 40.4889 46.6543 40.3593 46.6615 40.1864C46.6615 39.9127 46.6327 39.6462 46.5967 39.3797C46.5607 39.3509 46.5391 39.4085 46.5319 39.4373C46.4959 39.603 46.4526 39.7614 46.4166 39.9271C46.3734 40.136 46.3302 40.3161 46.2438 40.5105C46.2438 40.5105 46.2438 40.5249 46.2366 40.5249C46.1141 40.7626 45.898 41.0147 45.7468 41.2524C45.7323 41.274 45.5811 41.5117 45.5883 41.5189C45.5883 41.5189 45.5595 41.591 45.5595 41.6054C45.5595 41.627 45.5595 41.6414 45.5595 41.663C45.5595 41.663 45.5595 41.6918 45.5595 41.699H45.5523Z" fill="white"/>
<path fill-rule="evenodd" clip-rule="evenodd" d="M39.1705 7.44199C39.0336 7.32675 38.976 7.24752 38.8896 7.08185C38.7815 6.88017 38.6663 6.68569 38.551 6.49121C38.5078 6.49121 38.5078 6.53443 38.5078 6.56324C38.5294 6.7073 38.5366 6.85136 38.5654 6.99541C38.6015 7.17549 38.6303 7.34836 38.7167 7.51402C38.8463 7.77333 39.0048 7.91739 39.2641 8.05424C39.4226 8.14068 39.5882 8.24872 39.7683 8.2055C39.9124 8.15508 39.6747 7.9462 39.6171 7.87417C39.4946 7.73011 39.3145 7.57165 39.1705 7.44199Z" fill="white"/>
<path fill-rule="evenodd" clip-rule="evenodd" d="M43.6075 8.37131C43.5066 8.39291 43.3986 8.39291 43.2906 8.39291C43.1825 8.38571 43.0745 8.37131 42.9664 8.3569C42.9016 8.3497 42.8368 8.33529 42.7719 8.32809C42.4118 8.26326 42.0805 8.17683 41.7275 8.07599C41.6483 8.05438 41.5619 8.02557 41.4826 7.99675C41.0721 7.8527 40.6831 7.68703 40.2797 7.53577C40.2509 7.52136 40.2221 7.50696 40.1861 7.49975C40.0781 7.45654 39.9628 7.40612 39.8548 7.3557C39.8116 7.33409 39.7539 7.30528 39.7107 7.29087C39.6675 7.27646 39.6459 7.27646 39.6027 7.26926C39.4802 7.24765 39.5306 7.3629 39.5739 7.42772C39.6099 7.48535 39.6459 7.52857 39.6963 7.57899C39.7251 7.6078 39.7539 7.63661 39.7827 7.66542C39.8836 7.75185 39.9844 7.82388 40.0997 7.88871C40.3806 8.05438 40.6759 8.16962 40.9856 8.27046C41.1081 8.30648 41.2305 8.34249 41.3602 8.37851C41.7563 8.47935 42.1309 8.55138 42.5415 8.58739C42.6063 8.58739 42.6783 8.59459 42.7431 8.59459C42.9376 8.6018 43.1177 8.5946 43.305 8.55858C43.4418 8.52977 43.5787 8.49375 43.6867 8.40012C43.6867 8.3569 43.6363 8.3641 43.6075 8.37131Z" fill="white"/>
<path fill-rule="evenodd" clip-rule="evenodd" d="M36.246 15.0701C36.2892 15.0701 36.3252 15.0629 36.3756 15.0629H36.39C36.4909 15.0629 36.5917 15.0629 36.6925 15.0701C37.0887 15.0845 37.4416 15.1133 37.8306 15.1853C38.2124 15.2573 38.5293 15.3582 38.8606 15.5527C38.9327 15.5959 39.1415 15.7255 39.228 15.6895C39.228 15.6751 39.228 15.6391 39.228 15.6247C39.228 15.5455 39.2208 15.5311 39.1703 15.459C38.9975 15.2429 38.7598 15.0845 38.5077 14.9764C37.881 14.7027 37.3624 14.6451 36.6853 14.6595C36.6277 14.6595 36.5701 14.6739 36.5197 14.6811C36.4765 14.6883 36.3324 14.7243 36.3036 14.7459C36.2316 14.7748 36.1739 14.8036 36.1163 14.8612C36.0515 14.926 36.0371 14.962 36.0515 15.0485C36.0731 15.1421 36.1739 15.0773 36.2388 15.0773L36.246 15.0701Z" fill="white"/>
<path fill-rule="evenodd" clip-rule="evenodd" d="M30.0083 13.2188C30.0731 13.1755 30.1452 13.1539 30.2244 13.1323C30.282 13.1179 30.3396 13.1179 30.3973 13.1107C30.4189 13.1107 30.4909 13.1107 30.5053 13.1107C30.7574 13.1179 30.9519 13.1683 31.1896 13.2476H31.204C31.4705 13.3484 31.6434 13.4565 31.8739 13.6149C31.9459 13.6653 32.0179 13.7158 32.0899 13.7662C32.1044 13.7734 32.1332 13.795 32.1404 13.8094C32.1908 13.8598 32.2988 13.9679 32.3493 13.9967C32.3493 13.9967 32.3781 14.0255 32.3853 14.0255C32.3997 14.0327 32.4141 14.0399 32.4285 14.0327C32.4429 14.0327 32.4501 14.0327 32.4573 14.0183C32.4933 13.9823 32.4573 13.9391 32.4573 13.9318C32.4573 13.9318 32.4645 13.9318 32.4717 13.9318C32.4789 13.9318 32.4861 13.9318 32.5005 13.9391C32.5005 13.9391 32.5077 13.9391 32.5149 13.9391C32.5149 13.8526 32.5005 13.7734 32.4717 13.6942C32.4789 13.6942 32.4933 13.6942 32.5005 13.6942C32.5365 13.6942 32.5653 13.6942 32.6014 13.6942C32.695 13.6942 32.7742 13.6942 32.8679 13.6942C32.9759 13.7014 33.0623 13.723 33.1632 13.7662C33.228 13.7878 33.2784 13.8166 33.3433 13.8454C33.5017 13.9246 33.6314 14.0255 33.7682 14.1263C33.9123 14.2344 34.0419 14.3568 34.186 14.4721C34.2436 14.5225 34.3084 14.5657 34.3733 14.6161C34.4669 14.6882 34.5533 14.7386 34.6686 14.789C34.755 14.825 34.8487 14.8538 34.9423 14.8466C34.9639 14.8178 34.9351 14.789 34.9063 14.7746C34.8631 14.753 34.7766 14.6882 34.7478 14.6521C34.6902 14.5945 34.6326 14.5297 34.5822 14.4721C34.5677 14.4577 34.5605 14.4433 34.5461 14.4361C34.3733 14.2344 34.2148 14.0543 34.0275 13.867C33.9987 13.8382 33.9699 13.8094 33.9411 13.7806C33.7466 13.6005 33.581 13.4637 33.3361 13.3628C33.1776 13.298 33.0551 13.2764 32.8823 13.2908C32.8318 13.2908 32.7814 13.3052 32.731 13.3196C32.6158 13.3484 32.5149 13.3916 32.4141 13.4565C32.3997 13.4709 32.3781 13.4853 32.3565 13.4997C32.2988 13.4204 32.2268 13.3556 32.1404 13.2836C32.0107 13.1827 31.8883 13.1035 31.737 13.0387C31.6002 12.9811 31.4705 12.9378 31.3264 12.9018C31.0887 12.8442 30.8799 12.8154 30.6278 12.837C30.6062 12.837 30.4909 12.8514 30.4765 12.8586C30.3468 12.8874 30.246 12.9234 30.138 12.9955C30.0443 13.0603 29.9723 13.1323 29.9219 13.2404C29.9435 13.2764 29.9795 13.262 30.0011 13.2404L30.0083 13.2188Z" fill="white"/>
<path fill-rule="evenodd" clip-rule="evenodd" d="M36.5269 31.6295C36.6133 31.5359 36.6853 31.4422 36.7574 31.3342C36.9014 31.1253 37.0023 30.9308 37.0959 30.6931C37.0959 30.6859 37.0959 30.6787 37.1031 30.6643C37.1391 30.7652 37.2832 30.7003 37.3696 30.6643C37.5785 30.5923 37.8234 30.3762 37.9602 30.2033C37.9819 30.1745 38.1115 29.9945 38.1187 29.9728C38.2268 29.7928 38.2988 29.6415 38.3492 29.4398C38.3996 29.2165 38.4068 29.0077 38.3564 28.7844C38.3276 28.77 38.2988 28.7916 38.2916 28.8204C38.2556 28.9284 38.1979 29.0437 38.1475 29.1517C38.0683 29.339 37.953 29.5335 37.8378 29.6919C37.8306 29.6991 37.809 29.728 37.8018 29.7352C37.6289 29.9368 37.4416 30.0881 37.2616 30.2898C37.2328 30.3258 37.2039 30.3546 37.1751 30.3834C37.2111 30.2322 37.24 30.0809 37.24 29.9296C37.2111 29.908 37.1823 29.9296 37.1679 29.9512C37.0959 30.0737 37.0167 30.1889 36.9446 30.3114C36.8078 30.5491 36.6493 30.8084 36.4764 31.0245C36.4692 31.0317 36.4476 31.0605 36.4404 31.0677C36.2748 31.255 36.1379 31.3702 35.9434 31.5143C35.8642 31.5719 35.7922 31.6223 35.7129 31.6799C35.6409 31.7304 35.4824 31.8024 35.432 31.8528C35.432 31.8528 35.4104 31.8672 35.4032 31.8672C35.3888 31.8672 35.3816 31.8816 35.3744 31.8888C35.3672 31.896 35.3384 31.9392 35.36 31.9176C35.3672 31.9176 35.3744 31.9032 35.3888 31.9032H35.4032C35.4032 31.9176 35.4032 31.932 35.3888 31.9464C35.3816 31.9609 35.3744 31.9753 35.3672 31.9897C35.1439 32.0041 34.9206 32.0329 34.7045 32.1049C34.3948 32.213 34.1787 32.3714 33.869 32.4723C33.761 32.5011 33.6529 32.5227 33.5377 32.5371C33.2712 32.5587 33.0119 32.5011 32.7598 32.429C32.6805 32.4074 32.6085 32.3858 32.5293 32.357C32.4716 32.3354 32.414 32.3138 32.3636 32.2922C32.2195 32.2202 32.1619 32.1697 32.0106 32.1625C31.8018 32.1625 32.1187 32.5155 32.1547 32.5515C32.1547 32.5515 32.1763 32.5731 32.1835 32.5803C32.3204 32.7027 32.4572 32.7748 32.6229 32.8396C32.875 32.9332 33.1127 32.9837 33.3864 32.9765C33.4584 32.9765 33.5233 32.9621 33.5953 32.9476C34.0203 32.8684 34.2219 32.7388 34.5533 32.4939C34.8774 32.2634 35.1367 32.1553 35.4969 32.0545C35.5545 32.0617 35.6121 32.0689 35.6697 32.0617C35.8642 32.0473 36.0227 31.9753 36.1883 31.8744C36.3108 31.7952 36.4116 31.7087 36.5125 31.6007L36.5269 31.6295Z" fill="white"/>
<path fill-rule="evenodd" clip-rule="evenodd" d="M31.5643 32.8106C31.5499 32.8106 31.5355 32.8106 31.5139 32.8106C31.4562 32.7962 31.4058 32.789 31.3482 32.7818C31.3266 32.7818 31.305 32.7818 31.2834 32.7746C31.1465 32.7674 31.0169 32.7602 30.88 32.753C30.8368 32.753 30.7936 32.7458 30.7504 32.7386C30.6135 32.717 30.5271 32.6882 30.4046 32.6306C30.3398 32.6018 30.275 32.5657 30.2101 32.5369C30.0805 32.4721 30.0733 32.4289 29.9364 32.4361C29.7996 32.4433 29.85 32.6018 29.8788 32.6882C29.886 32.717 29.9292 32.7962 29.9508 32.8178C30.0301 32.9187 30.1165 32.9763 30.2317 33.0339C30.2966 33.0627 30.3542 33.0843 30.419 33.0988C30.5703 33.1276 30.7143 33.1348 30.8728 33.1204C30.9736 33.1132 31.0601 33.0988 31.1537 33.0771C31.1969 33.0699 31.3626 33.0195 31.3914 32.9979C31.449 32.9763 31.4995 32.9547 31.5499 32.9259C31.5499 32.9259 31.5859 32.9043 31.6003 32.8971C31.6075 32.8971 31.6147 32.8899 31.6219 32.8755C31.6219 32.8611 31.5859 32.8322 31.5787 32.825L31.5643 32.8106Z" fill="white"/>
<path fill-rule="evenodd" clip-rule="evenodd" d="M39.6387 19.1252C39.6387 19.1252 39.7251 19.1685 39.7395 19.1901C39.8043 19.2405 39.8691 19.2981 39.934 19.3557C39.9628 19.3845 39.9988 19.4134 40.0276 19.4422C40.1717 19.5646 40.3013 19.7015 40.431 19.8455C40.5318 19.9536 40.611 20.0616 40.6975 20.1769C40.7695 20.2777 40.8199 20.3713 40.8776 20.4722C40.9856 20.6955 41.0432 20.8827 41.072 21.1276C41.072 21.1781 41.0792 21.2285 41.0864 21.2789C41.108 21.4518 41.108 21.6823 41.2593 21.7975C41.389 21.8839 41.425 21.5526 41.4394 21.4878C41.4682 21.3653 41.4754 21.2501 41.4826 21.1276C41.4826 20.8467 41.4322 20.6234 41.3025 20.3785C41.2881 20.3569 41.2593 20.2921 41.2449 20.2777C41.0792 20.0112 40.8992 19.8167 40.6687 19.6078C40.5966 19.543 40.5174 19.4782 40.4382 19.4206C40.3085 19.3269 40.1861 19.2477 40.0348 19.1757C39.9484 19.1324 39.8691 19.0964 39.7683 19.0748C39.7107 19.0604 39.6459 19.046 39.581 19.0604C39.5666 19.0892 39.5954 19.118 39.617 19.1252H39.6387Z" fill="white"/>
<path fill-rule="evenodd" clip-rule="evenodd" d="M41.8212 20.8035C41.8212 20.8035 41.85 20.8539 41.8644 20.8755C41.886 20.9331 41.9076 20.9908 41.9364 21.0484C41.9364 21.0556 41.9508 21.0772 41.9508 21.0844C42.0228 21.2789 42.0805 21.4661 42.1237 21.6678C42.1237 21.6678 42.1237 21.6678 42.1237 21.675C42.1741 21.9127 42.1741 22.0784 42.1885 22.3161C42.1885 22.3665 42.1957 22.4241 42.2029 22.4745C42.2029 22.5034 42.2029 22.5394 42.2029 22.5682C42.2029 22.6978 42.1885 22.6978 42.2461 22.8059C42.3254 22.9499 42.4622 22.7555 42.5126 22.6834C42.5126 22.6834 42.5198 22.669 42.527 22.6618C42.5847 22.5538 42.6063 22.4529 42.6135 22.3305C42.6207 22.1864 42.6135 22.0568 42.5847 21.9199C42.5631 21.8047 42.527 21.7038 42.491 21.5886C42.4262 21.4157 42.3614 21.2645 42.2605 21.106C42.2461 21.0844 42.1741 20.9763 42.1597 20.9619C42.1021 20.8827 42.0444 20.8251 41.9652 20.7675C41.9364 20.7459 41.9076 20.7314 41.8644 20.717C41.8356 20.7098 41.8068 20.7026 41.7779 20.7026C41.7635 20.7242 41.7779 20.7531 41.7923 20.7747C41.7923 20.7747 41.814 20.7963 41.8212 20.8035Z" fill="white"/>
<path fill-rule="evenodd" clip-rule="evenodd" d="M42.239 24.7579C42.1813 24.8515 42.0949 24.9523 42.0229 25.0316C42.0085 25.046 41.9436 25.1108 41.9292 25.118C41.9076 25.1324 41.8788 25.1468 41.85 25.154C41.8356 25.2044 41.8788 25.2116 41.9148 25.2044C41.9292 25.2044 41.9508 25.2044 41.9653 25.19C42.0157 25.1756 42.0589 25.1612 42.1021 25.1324C42.2246 25.0748 42.3182 24.9956 42.4118 24.9019C42.6711 24.6498 42.8296 24.4049 43.0097 24.0952C43.0097 24.0952 43.0241 24.0664 43.0313 24.0592C43.197 23.7494 43.341 23.4469 43.3914 23.1012C43.4058 22.9715 43.4058 22.8707 43.3914 22.741C43.3914 22.7266 43.3698 22.633 43.3626 22.6186C43.3266 22.4961 43.2474 22.2945 43.0961 22.2801C43.0817 22.2801 43.0745 22.2729 43.0601 22.2801C43.0529 22.2801 43.0457 22.2801 43.0385 22.2873C42.9953 22.3233 43.0385 22.3665 43.0313 22.3737C43.0313 22.3737 43.0313 22.3737 43.0169 22.3737C43.0097 22.3737 43.0025 22.3737 42.9953 22.3665C43.0097 22.4457 43.0241 22.5033 43.0241 22.5898C43.0241 22.6114 43.0241 22.6546 43.0241 22.669C43.0169 22.7915 43.0025 22.8995 42.9809 23.022C42.9449 23.1732 42.9088 23.3101 42.8656 23.4541C42.8152 23.6126 42.7576 23.7639 42.6927 23.9151C42.5991 24.124 42.5055 24.3113 42.3902 24.5058C42.3398 24.585 42.2894 24.6642 42.2462 24.7507L42.239 24.7579Z" fill="white"/>
<path fill-rule="evenodd" clip-rule="evenodd" d="M29.994 23.4757C30.066 23.4757 30.1164 23.4613 30.1813 23.4397C30.2029 23.4325 30.2533 23.4109 30.2749 23.3965C30.4478 23.3172 30.5846 23.2092 30.7287 23.0795C30.7503 23.0579 30.7863 23.0291 30.8079 23.0075C30.9736 22.8562 31.1321 22.7266 31.2257 22.5105C31.2401 22.4889 31.2473 22.4601 31.2545 22.4385C31.2689 22.4025 31.3049 22.2872 31.2977 22.244C31.3121 22.1576 31.2977 22.0999 31.2473 22.0567C31.2617 22.0207 31.2833 21.9919 31.3049 21.9487C31.3914 21.783 31.413 21.6029 31.4346 21.4157C31.4634 21.0411 31.449 20.6522 31.413 20.2776C31.3986 20.1335 31.377 20.0039 31.3553 19.8598C31.3265 19.6942 31.2833 19.5429 31.2257 19.3844C31.1897 19.2764 31.1465 19.1756 31.0744 19.0819C31.0456 19.0459 31.024 19.0171 30.988 18.9883C30.9592 18.9667 30.9376 18.9523 30.9016 18.9451C30.8727 18.9739 30.88 19.0099 30.9016 19.0459C30.9016 19.0459 30.9088 19.0603 30.9088 19.0675C30.916 19.0963 30.9304 19.1323 30.9304 19.1612C30.9376 19.2548 30.9448 19.3484 30.9448 19.4493C30.9448 19.4853 30.9448 19.5285 30.9448 19.5645C30.952 19.8022 30.952 20.0471 30.9448 20.2848C30.9448 20.4505 30.9376 20.6161 30.9232 20.7746C30.8944 21.178 30.8223 21.3652 30.7791 21.7038C30.7431 21.8046 30.7143 21.9055 30.6927 22.0063C30.6783 22.0495 30.6639 22.0999 30.6567 22.1432C30.6567 22.1576 30.6062 22.3016 30.599 22.316C30.5774 22.3664 30.5702 22.4025 30.563 22.4457C30.5558 22.4601 30.5414 22.4745 30.5342 22.4817C30.4982 22.5249 30.4622 22.5825 30.4334 22.6258C30.3325 22.7626 30.2317 22.8923 30.1236 23.0219C30.1092 23.0435 30.0804 23.0723 30.066 23.0939C30.0516 23.1155 29.922 23.2524 29.9004 23.2668C29.8571 23.3028 29.8067 23.3388 29.7563 23.3604C29.7563 23.3604 29.7419 23.4253 29.7923 23.4469C29.8499 23.4685 29.9292 23.4757 29.994 23.4685V23.4757Z" fill="white"/>
<path fill-rule="evenodd" clip-rule="evenodd" d="M33.0335 25.334C32.9902 25.2692 32.9326 25.2043 32.875 25.1539C32.7237 25.0099 32.4572 24.8874 32.2555 24.8442C32.1907 24.8298 32.1187 24.8154 32.0539 24.801C31.9242 24.765 31.845 24.7289 31.7369 24.6353C31.7369 24.6353 31.7225 24.6209 31.7153 24.6209C31.5497 24.484 31.456 24.3544 31.3408 24.1743C31.2976 24.1743 31.276 24.2031 31.2688 24.2391C31.2688 24.3832 31.2543 24.5129 31.3048 24.6569C31.3192 24.7001 31.3768 24.8514 31.4056 24.8802C31.5136 25.0459 31.6289 25.1395 31.7946 25.2403C31.7946 25.2403 31.8018 25.2403 31.809 25.2476C32.0611 25.3844 32.2555 25.4708 32.5365 25.5141C32.6085 25.5213 32.8606 25.5789 32.9182 25.5285C32.9182 25.5285 32.947 25.5285 32.9542 25.5285C32.9542 25.5285 32.9902 25.478 32.9974 25.4708C33.0335 25.4204 33.0407 25.3772 33.0046 25.3268H33.0335V25.334Z" fill="white"/>
<path fill-rule="evenodd" clip-rule="evenodd" d="M32.3275 26.5514C32.3779 26.4938 32.4212 26.4362 32.4572 26.3714C32.4788 26.3281 32.5076 26.2777 32.5076 26.2273C32.4932 26.2129 32.4716 26.2201 32.4572 26.2273C32.4356 26.2489 32.3924 26.2849 32.3707 26.2993C32.3347 26.3209 32.2987 26.3498 32.2555 26.3786C32.2411 26.393 32.2195 26.4074 32.2051 26.4146C32.0826 26.4938 31.9674 26.5803 31.8449 26.6595C31.8233 26.6739 31.8017 26.6883 31.7801 26.7027C31.6361 26.7891 31.4848 26.8612 31.3479 26.9548C31.3479 26.9548 31.3407 26.962 31.3335 26.9692C31.4056 26.8396 31.4488 26.7027 31.456 26.5514C31.4344 26.537 31.42 26.5514 31.4056 26.5658C31.3623 26.6307 31.3047 26.6883 31.2543 26.7531C31.2183 26.7963 31.1823 26.8396 31.1391 26.8756C31.0742 26.9404 31.0166 26.9908 30.9518 27.0484C30.9086 27.0773 30.8653 27.1061 30.8221 27.1349C30.6853 27.2213 30.5484 27.2861 30.426 27.3942C30.3539 27.459 30.2963 27.5022 30.3323 27.5887C30.3611 27.6535 30.4188 27.6463 30.4764 27.6391C30.5988 27.6247 30.8293 27.4806 30.9302 27.4014C30.9446 27.3942 30.9734 27.3726 30.9806 27.3654C31.031 27.3222 31.0742 27.2789 31.1174 27.2357C31.1463 27.2573 31.2111 27.2573 31.2543 27.2501C31.2615 27.2501 31.2831 27.2501 31.2975 27.2501C31.3407 27.2501 31.4272 27.2285 31.4632 27.2069C31.5784 27.1637 31.6793 27.1061 31.7873 27.034C31.8377 26.998 31.8809 26.9692 31.9242 26.9332C32.0466 26.8324 32.1547 26.7387 32.2627 26.6235C32.2771 26.6091 32.3203 26.5658 32.3203 26.5514H32.3275Z" fill="white"/>
</svg>
