<svg width="389" height="389" viewBox="0 0 389 389" fill="none" xmlns="http://www.w3.org/2000/svg">
<path d="M194.5 0.487061C87.5677 0.487061 0.609009 87.4457 0.609009 194.378C0.609009 301.31 87.5677 388.269 194.5 388.269C301.432 388.269 388.391 301.31 388.391 194.378C388.513 87.4457 301.432 0.487061 194.5 0.487061ZM194.865 343.328C112.535 343.328 45.9152 276.587 45.9152 194.378C45.9152 112.047 112.657 45.4279 194.865 45.4279C277.074 45.4279 343.816 112.047 343.816 194.256C343.816 276.587 277.074 343.328 194.865 343.328Z" fill="#E2E2E2"/>
<path d="M194.5 337.969C115.458 337.969 51.0303 273.664 51.0303 194.5C51.0303 115.458 115.336 51.0303 194.5 51.0303C273.542 51.0303 337.969 115.336 337.969 194.5C337.969 273.664 273.664 337.969 194.5 337.969ZM194.5 52.37C116.067 52.37 52.2482 116.188 52.2482 194.622C52.2482 273.055 116.067 336.873 194.5 336.873C272.933 336.873 336.752 273.055 336.752 194.622C336.752 116.067 272.933 52.37 194.5 52.37Z" fill="black" fill-opacity="0.12"/>
<path d="M194.5 306.304C132.874 306.304 82.6959 256.126 82.6959 194.5C82.6959 132.874 132.874 82.696 194.5 82.696C256.126 82.696 306.304 132.874 306.304 194.5C306.304 256.126 256.126 306.304 194.5 306.304ZM194.5 83.914C133.483 83.914 83.9138 133.483 83.9138 194.5C83.9138 255.517 133.483 305.086 194.5 305.086C255.517 305.086 305.086 255.517 305.086 194.5C305.086 133.605 255.517 83.914 194.5 83.914Z" fill="black" fill-opacity="0.12"/>
<path d="M201 68.931V71H192.549V68.931H195.732V61.5862C195.622 61.7931 195.402 61.8966 195.073 62.1034C194.744 62.3103 194.524 62.4138 194.085 62.6207C193.756 62.8276 193.427 62.931 192.988 63.0345C192.659 63.1379 192.329 63.1379 192 63.1379V60.9655C192.329 60.9655 192.659 60.8621 192.988 60.7586C193.427 60.5517 193.756 60.4483 194.085 60.1379C194.415 59.931 194.744 59.7241 195.073 59.5172C195.293 59.3103 195.512 59.1034 195.512 59H198.037L197.927 68.8276L201 68.931Z" fill="#E2E2E2"/>
<path d="M263 90.5515C263.252 90.1471 263.588 89.8235 263.84 89.5809C264.176 89.3382 264.511 89.0956 264.847 88.9338C265.183 88.7721 265.603 88.6103 266.107 88.6103C266.611 88.5294 267.115 88.5294 267.786 88.6103C268.206 88.6912 268.626 88.6912 269.046 88.7721C269.466 88.8529 269.802 88.8529 270.137 88.8529C270.473 88.8529 270.725 88.8529 270.977 88.7721C271.229 88.6912 271.397 88.5294 271.565 88.3677C271.733 88.2059 271.817 87.9632 271.817 87.7206C271.817 87.4779 271.733 87.2353 271.649 86.9926C271.481 86.75 271.313 86.5074 270.977 86.2647C270.725 86.1029 270.473 85.9412 270.221 85.8603C269.969 85.7794 269.718 85.7794 269.466 85.6985C269.214 85.6985 268.962 85.6985 268.794 85.6985C268.542 85.6985 268.374 85.7794 268.206 85.7794L268.038 84.0809C268.206 84.0809 268.458 84 268.794 84C269.13 84 269.466 84 269.802 84.0809C270.221 84.1618 270.557 84.2426 270.977 84.4044C271.397 84.5662 271.817 84.8088 272.237 85.0515C272.824 85.4559 273.244 85.8603 273.58 86.3456C273.832 86.8309 274 87.3162 274 87.8015C274 88.2868 273.832 88.7721 273.496 89.1765C273.244 89.5 272.992 89.7426 272.656 89.9044C272.321 90.0662 271.985 90.1471 271.649 90.2279C271.313 90.3088 270.977 90.3088 270.641 90.3088C270.305 90.3088 269.969 90.2279 269.718 90.2279C269.214 90.1471 268.794 90.0662 268.458 90.0662C268.122 90.0662 267.786 90.0662 267.45 90.0662C267.198 90.0662 266.947 90.1471 266.695 90.2279C266.443 90.3088 266.191 90.3897 266.023 90.5515L270.557 93.7059L269.55 95L263 90.5515Z" fill="#E2E2E2"/>
<path d="M315.647 152.617C315.736 153.119 315.736 153.538 315.559 153.957C315.381 154.376 315.115 154.794 314.761 155.046C314.406 155.381 313.963 155.632 313.431 155.799C312.722 156.051 312.013 156.051 311.392 155.883C310.771 155.716 310.151 155.381 309.619 154.878C309.087 154.376 308.732 153.706 308.378 152.952C308.112 152.114 307.934 151.36 308.023 150.69C308.112 149.937 308.378 149.35 308.732 148.764L310.417 149.434C310.062 149.853 309.885 150.272 309.796 150.774C309.708 151.277 309.796 151.779 309.973 152.449C310.239 153.119 310.594 153.622 311.037 153.873C311.481 154.124 312.101 154.208 312.722 153.957C313.431 153.706 313.874 153.371 314.052 152.784C314.318 152.198 314.229 151.528 313.963 150.69L313.786 150.272L315.204 149.769L315.381 150.272C315.647 151.025 316.002 151.444 316.534 151.695C317.066 151.947 317.598 152.03 318.13 151.779C318.484 151.695 318.75 151.444 318.928 151.277C319.105 151.109 319.194 150.774 319.194 150.439C319.194 150.104 319.194 149.769 319.016 149.434C318.839 148.931 318.484 148.513 318.13 148.178C317.687 147.843 317.243 147.591 316.711 147.508L317.598 146C318.041 146.084 318.484 146.251 318.839 146.586C319.282 146.838 319.637 147.256 319.903 147.675C320.258 148.094 320.523 148.596 320.701 149.183C320.967 149.853 321.055 150.523 320.967 151.109C320.878 151.695 320.701 152.282 320.346 152.701C319.992 153.119 319.548 153.454 318.928 153.706C318.484 153.873 318.041 153.873 317.598 153.873C317.155 153.873 316.711 153.706 316.357 153.538C316.179 153.287 315.913 152.952 315.647 152.617Z" fill="#E2E2E2"/>
<path d="M311.432 227.018L313.662 227.741L314.885 223L316.252 223.482L321 230.795L320.712 232L314.597 229.991L314.237 231.357L312.871 230.875L313.23 229.509L311 228.786L311.432 227.018ZM315.82 225.17L314.957 228.384L318.77 229.589L315.82 225.17Z" fill="#E2E2E2"/>
<path d="M269.837 287.056C270.498 286.544 271.241 286.203 271.984 286.032C272.727 285.947 273.469 286.032 274.13 286.288L273.965 287.824C273.387 287.653 272.892 287.568 272.314 287.653C271.736 287.738 271.241 287.909 270.828 288.336C270.498 288.591 270.25 288.933 270.085 289.359C269.92 289.786 269.92 290.127 269.92 290.554C270.003 290.98 270.168 291.322 270.415 291.748C270.663 292.089 270.993 292.345 271.406 292.516C271.736 292.687 272.149 292.687 272.561 292.687C272.974 292.601 273.304 292.431 273.635 292.175C273.965 291.919 274.212 291.578 274.377 291.151C274.543 290.724 274.625 290.383 274.543 289.871L275.781 288.847L279 295.331L274.46 299L273.387 297.635L276.854 294.82L275.285 291.833C275.285 292.089 275.12 292.431 274.955 292.687C274.79 293.028 274.543 293.284 274.212 293.54C273.635 294.052 272.974 294.308 272.314 294.393C271.653 294.478 270.993 294.478 270.415 294.222C269.837 293.966 269.26 293.54 268.847 292.943C268.352 292.26 268.104 291.578 268.021 290.895C267.939 290.212 268.104 289.445 268.352 288.762C268.764 288.165 269.26 287.568 269.837 287.056Z" fill="#E2E2E2"/>
<path d="M198.273 319.478C198.501 319.044 198.844 318.719 199.243 318.447C199.643 318.176 200.156 318.014 200.727 318.014C201.297 317.959 201.868 318.068 202.325 318.339C202.781 318.61 203.181 318.99 203.466 319.478C203.751 319.966 203.922 320.617 203.979 321.322C204.036 322.298 203.979 323.112 203.751 323.817C203.523 324.468 203.181 325.01 202.781 325.39C202.325 325.769 201.811 325.932 201.183 325.986C200.67 326.04 200.156 325.932 199.757 325.715C199.3 325.498 198.958 325.227 198.672 324.793L199.357 324.034C199.528 324.359 199.814 324.576 200.099 324.739C200.441 324.901 200.784 324.956 201.126 324.956C201.526 324.956 201.811 324.793 202.096 324.576C202.382 324.359 202.553 324.034 202.724 323.654C202.838 323.274 202.895 322.786 202.895 322.19C202.781 322.407 202.667 322.624 202.496 322.786C202.325 322.949 202.096 323.112 201.868 323.166C201.64 323.274 201.354 323.329 201.069 323.329C200.556 323.383 200.042 323.274 199.585 323.057C199.129 322.841 198.787 322.569 198.501 322.19C198.216 321.81 198.102 321.376 198.045 320.888C197.931 320.346 198.045 319.912 198.273 319.478ZM199.928 319.315C199.7 319.478 199.471 319.695 199.3 319.966C199.129 320.237 199.072 320.508 199.129 320.834C199.129 321.159 199.243 321.376 199.414 321.647C199.586 321.864 199.814 322.081 200.099 322.19C200.384 322.298 200.67 322.407 200.955 322.352C201.297 322.352 201.583 322.244 201.811 322.081C202.039 321.919 202.267 321.702 202.382 321.43C202.496 321.159 202.61 320.888 202.553 320.617C202.553 320.291 202.439 320.075 202.268 319.803C202.096 319.586 201.868 319.369 201.583 319.207C201.297 319.044 201.012 318.99 200.727 319.044C200.499 319.044 200.213 319.153 199.928 319.315Z" fill="#E2E2E2"/>
<path d="M122.291 301.519L127.063 304.615L126.158 306L119 301.356L130.272 295L132 296.141L122.291 301.519Z" fill="#E2E2E2"/>
<path d="M75.5532 235.205C76.1156 235.003 76.6779 234.935 77.2403 235.07C77.8026 235.205 78.2947 235.476 78.7164 235.881C79.1382 236.286 79.4897 236.759 79.7005 237.367C79.9114 237.975 80.052 238.583 79.9817 239.123C79.9114 239.731 79.7005 240.204 79.4194 240.677C79.0679 241.15 78.6461 241.42 78.0838 241.623C77.7323 241.758 77.3105 241.825 76.9591 241.758C76.6076 241.69 76.2561 241.623 75.975 241.42C75.6938 241.285 75.4126 241.082 75.2017 240.879C75.2017 241.15 75.1314 241.42 74.9909 241.69C74.8503 241.96 74.7097 242.163 74.5691 242.366C74.3582 242.568 74.1473 242.703 73.8662 242.838C73.4444 242.974 73.0929 243.041 72.6712 242.973C72.2494 242.906 71.8979 242.771 71.6168 242.568C71.2653 242.366 70.9841 242.095 70.7732 241.758C70.4921 241.487 70.3515 241.15 70.2109 240.812C70.0703 240.474 70 240.136 70 239.731C70 239.326 70 238.988 70.0703 238.583C70.1406 238.245 70.3515 237.907 70.5624 237.57C70.7732 237.299 71.1247 237.029 71.5465 236.894C71.8276 236.827 72.1088 236.759 72.39 236.759C72.6712 236.759 72.9523 236.894 73.2335 236.962C73.5147 237.097 73.7256 237.232 73.9364 237.435C73.9364 237.097 74.0067 236.827 74.1473 236.489C74.2879 236.151 74.4285 235.881 74.7097 235.611C74.9206 235.543 75.2017 235.34 75.5532 235.205ZM73.3741 241.487C73.6553 241.352 73.8662 241.217 74.0067 241.015C74.1473 240.812 74.2176 240.542 74.2176 240.272C74.2176 240.001 74.1473 239.731 74.077 239.529C74.0067 239.258 73.8662 239.056 73.6553 238.853C73.4444 238.65 73.2335 238.515 72.9523 238.448C72.6712 238.38 72.4603 238.38 72.1088 238.448C71.8276 238.515 71.6168 238.718 71.5465 238.921C71.4059 239.123 71.3356 239.393 71.3356 239.664C71.3356 239.934 71.4059 240.204 71.4762 240.474C71.5465 240.744 71.7573 240.947 71.8979 241.15C72.1088 241.352 72.3197 241.487 72.5306 241.555C72.8117 241.555 73.0929 241.555 73.3741 241.487ZM76.0453 236.691C75.7641 236.759 75.6235 236.894 75.4126 237.097C75.272 237.299 75.1314 237.502 75.0612 237.705C74.9909 237.907 74.9909 238.178 74.9909 238.448C74.9909 238.718 75.0612 238.921 75.1314 239.123C75.272 239.461 75.4126 239.664 75.6938 239.934C75.9047 240.136 76.1859 240.339 76.5373 240.407C76.8185 240.474 77.17 240.474 77.5214 240.339C77.7323 240.272 77.9432 240.136 78.1541 239.934C78.2947 239.731 78.4352 239.529 78.5055 239.326C78.5758 239.123 78.5758 238.853 78.5758 238.65C78.5758 238.38 78.5055 238.178 78.4353 237.975C78.2947 237.637 78.1541 237.434 77.8729 237.164C77.662 236.962 77.3808 236.759 77.0294 236.691C76.6779 236.556 76.3967 236.556 76.0453 236.691Z" fill="#E2E2E2"/>
<path d="M69.1817 162.652C68.6927 162.13 68.2852 161.435 68.1222 160.652C67.9593 159.87 67.9593 159.087 68.1222 158.304C68.3667 157.435 68.7742 156.739 69.3447 156.13C69.9152 155.609 70.6487 155.261 71.4636 155.087C72.3601 154.913 73.2566 155 74.3975 155.348C75.8645 155.783 77.0054 156.304 77.9019 157C78.7984 157.696 79.3689 158.391 79.6948 159.261C80.0208 160.13 80.1023 161 79.8578 161.87C79.6948 162.652 79.2874 163.261 78.7984 163.87C78.3094 164.391 77.7389 164.826 77.0054 165L76.1905 163.609C76.6794 163.435 77.1684 163.174 77.4944 162.826C77.9019 162.478 78.1464 161.957 78.3094 161.435C78.4724 160.826 78.3909 160.304 78.2279 159.783C77.9834 159.261 77.6574 158.826 77.0869 158.391C76.5165 157.957 75.8645 157.696 75.0495 157.435C75.294 157.696 75.5385 157.957 75.7015 158.304C75.8645 158.652 75.946 159 76.0275 159.435C76.0275 159.87 76.0275 160.217 75.946 160.652C75.783 161.435 75.3755 162.13 74.8865 162.652C74.3975 163.174 73.827 163.522 73.0936 163.783C72.4416 163.957 71.7081 163.957 70.9746 163.783C70.3227 163.609 69.6707 163.261 69.1817 162.652ZM69.6707 160.13C69.8337 160.565 69.9967 161 70.3227 161.348C70.6487 161.696 71.0561 161.957 71.4636 162.043C71.9526 162.13 72.3601 162.217 72.7676 162.043C73.1751 161.957 73.5826 161.696 73.9085 161.348C74.2345 161 74.479 160.652 74.5605 160.217C74.642 159.696 74.642 159.261 74.5605 158.826C74.3975 158.391 74.2345 157.957 73.9085 157.609C73.5826 157.261 73.1751 157 72.7676 156.913C72.2786 156.739 71.8711 156.739 71.3821 156.913C70.9746 157 70.5672 157.261 70.2412 157.609C69.9152 157.957 69.6707 158.304 69.5892 158.826C69.5077 159.261 69.5077 159.696 69.6707 160.13Z" fill="#E2E2E2"/>
<path d="M119.362 90.5198C120.107 91.4548 120.639 92.4936 120.852 93.5325C121.064 94.5714 121.064 95.5064 120.745 96.4413C120.426 97.3763 119.894 98.1035 119.043 98.8308C118.192 99.4541 117.341 99.8696 116.277 99.9735C115.319 100.077 114.255 99.8696 113.298 99.4541C112.34 99.0385 111.489 98.3113 110.638 97.3763C109.893 96.4414 109.361 95.4025 109.148 94.4675C108.936 93.4286 108.936 92.4936 109.255 91.5586C109.574 90.6237 110.106 89.7926 110.957 89.1692C111.808 88.5459 112.659 88.1304 113.617 88.0265C114.574 87.9226 115.638 88.1304 116.596 88.5459C117.66 88.8576 118.511 89.5848 119.362 90.5198ZM117.447 91.9742C116.915 91.3509 116.383 90.8314 115.745 90.5198C115.106 90.2081 114.574 90.1042 113.936 90.1042C113.298 90.1042 112.766 90.312 112.34 90.7275C111.915 91.1431 111.595 91.5586 111.383 92.0781C111.276 92.5975 111.276 93.2208 111.489 93.8442C111.702 94.4675 112.021 95.0908 112.553 95.818C113.085 96.4414 113.617 96.9608 114.255 97.2724C114.894 97.5841 115.426 97.688 116.064 97.688C116.702 97.688 117.234 97.4802 117.66 97.0647C118.085 96.6491 118.405 96.2336 118.617 95.6102C118.724 95.0908 118.724 94.4675 118.511 93.8442C118.298 93.2208 117.979 92.5975 117.447 91.9742Z" fill="#E2E2E2"/>
<path d="M241.39 330.053C241.146 330.053 240.902 329.931 240.781 329.688L230.672 300.58C230.55 300.214 230.672 299.971 231.037 299.849C231.403 299.727 231.646 299.849 231.768 300.214L241.877 329.322C241.998 329.688 241.877 329.931 241.511 330.053C241.511 330.053 241.511 330.053 241.39 330.053Z" fill="black" fill-opacity="0.12"/>
<path d="M158.084 90.1251C157.841 90.1251 157.597 90.0033 157.476 89.7597L147.123 59.9209C147.002 59.5556 147.123 59.312 147.489 59.1902C147.854 59.0684 148.098 59.1902 148.219 59.5556L158.572 89.3943C158.693 89.7597 158.572 90.0033 158.206 90.1251C158.206 90.1251 158.206 90.1251 158.084 90.1251Z" fill="black" fill-opacity="0.12"/>
<path d="M103.4 131.656C103.279 131.656 103.157 131.656 103.035 131.534L77.0937 113.509C76.8501 113.265 76.7283 112.9 76.9719 112.656C77.2155 112.413 77.5808 112.291 77.8244 112.534L103.766 130.559C104.009 130.803 104.131 131.168 103.888 131.412C103.766 131.534 103.522 131.656 103.4 131.656Z" fill="black" fill-opacity="0.12"/>
<path d="M311.663 276.709C311.541 276.709 311.419 276.709 311.297 276.587L285.356 258.562C285.112 258.318 284.991 257.953 285.234 257.709C285.478 257.466 285.843 257.344 286.087 257.588L312.028 275.613C312.272 275.856 312.394 276.222 312.15 276.465C312.028 276.587 311.906 276.709 311.663 276.709Z" fill="black" fill-opacity="0.12"/>
<path d="M153.213 331.515H153.091C152.726 331.393 152.604 331.028 152.726 330.784L161.86 300.823C161.982 300.458 162.347 300.336 162.591 300.458C162.956 300.58 163.078 300.945 162.956 301.189L153.822 331.149C153.7 331.393 153.456 331.515 153.213 331.515Z" fill="black" fill-opacity="0.12"/>
<path d="M226.775 88.7854H226.653C226.287 88.6636 226.166 88.2983 226.287 88.0547L235.422 58.0942C235.543 57.7288 235.909 57.607 236.152 57.7288C236.518 57.8506 236.64 58.2159 236.518 58.4595L227.383 88.4201C227.262 88.5419 227.018 88.7854 226.775 88.7854Z" fill="black" fill-opacity="0.12"/>
<path d="M283.164 128.002C282.92 128.002 282.798 127.88 282.676 127.758C282.433 127.515 282.555 127.149 282.798 126.906L308.009 107.785C308.253 107.541 308.618 107.663 308.861 107.906C309.105 108.15 308.983 108.515 308.74 108.759L283.529 127.88C283.407 128.002 283.285 128.002 283.164 128.002Z" fill="black" fill-opacity="0.12"/>
<path d="M81.1126 281.093C80.869 281.093 80.7472 280.971 80.6255 280.849C80.3819 280.606 80.5037 280.24 80.7472 279.997L105.714 261.119C105.958 260.876 106.323 260.997 106.567 261.241C106.81 261.484 106.689 261.85 106.445 262.093L81.478 280.971C81.3562 281.093 81.2344 281.093 81.1126 281.093Z" fill="black" fill-opacity="0.12"/>
<path d="M305.695 192.916C305.33 192.916 305.086 192.673 305.086 192.308C305.086 191.942 305.33 191.699 305.695 191.699L337.361 191.09C337.726 191.09 337.969 191.333 337.969 191.699C337.969 192.064 337.726 192.308 337.361 192.308L305.695 192.916Z" fill="black" fill-opacity="0.12"/>
<path d="M51.7611 198.032C51.3957 198.032 51.1521 197.788 51.1521 197.423C51.1521 197.057 51.3957 196.814 51.7611 196.814L83.4267 196.205C83.6702 196.205 84.0356 196.448 84.0356 196.814C84.0356 197.179 83.792 197.423 83.4267 197.423L51.7611 198.032Z" fill="black" fill-opacity="0.12"/>
<path d="M194.5 389C87.2022 389 0 301.676 0 194.5C0 87.2022 87.324 0 194.5 0C301.676 0 389 87.324 389 194.5C389.122 301.676 301.798 389 194.5 389ZM194.5 1.09612C87.933 1.09612 1.21791 87.8112 1.21791 194.378C1.21791 300.945 87.933 387.66 194.5 387.66C301.067 387.66 387.782 300.945 387.782 194.378C387.904 87.8112 301.189 1.09612 194.5 1.09612Z" fill="#E2E2E2"/>
<path d="M85.4972 85.9841C85.3754 85.9841 85.1318 85.9841 85.01 85.8623L57.1199 57.9722C56.8764 57.7287 56.8764 57.3633 57.1199 57.1197C57.3635 56.8761 57.7289 56.8761 57.9725 57.1197L85.8626 85.0098C86.1061 85.2534 86.1061 85.6188 85.8626 85.8623C85.7408 85.8623 85.619 85.9841 85.4972 85.9841Z" fill="#EEEEEE"/>
<path d="M154.552 45.9151C154.309 45.9151 154.065 45.7933 153.944 45.4279L143.835 7.42917C143.713 7.0638 143.957 6.82022 144.322 6.69843C144.687 6.57664 144.931 6.82022 145.053 7.18559L155.161 45.1843C155.283 45.5497 155.04 45.7933 154.674 45.9151C154.674 45.9151 154.674 45.9151 154.552 45.9151Z" fill="#EEEEEE"/>
<path d="M45.4279 155.04H45.3061L7.42918 144.931C7.06381 144.809 6.94202 144.566 6.94202 144.2C7.06381 143.835 7.30739 143.713 7.67276 143.713L45.5497 153.822C45.9151 153.944 46.0369 154.187 46.0369 154.553C45.9151 154.918 45.6715 155.04 45.4279 155.04Z" fill="#EEEEEE"/>
<path d="M7.55091 245.165C7.30733 245.165 7.06375 245.043 6.94196 244.678C6.82017 244.313 7.06375 244.069 7.42912 243.947L45.3061 233.717C45.6715 233.595 45.915 233.839 46.0368 234.204C46.1586 234.569 45.915 234.813 45.5497 234.935L7.6727 245.165C7.55091 245.165 7.55091 245.165 7.55091 245.165Z" fill="#EEEEEE"/>
<path d="M57.6071 332.002C57.4853 332.002 57.2417 332.002 57.1199 331.88C56.8764 331.636 56.8764 331.271 57.1199 331.027L85.01 303.137C85.2536 302.894 85.619 302.894 85.8626 303.137C86.1061 303.381 86.1061 303.746 85.8626 303.99L57.9725 331.88C57.9725 331.88 57.7289 332.002 57.6071 332.002Z" fill="#EEEEEE"/>
<path d="M144.444 382.058H144.322C143.957 381.936 143.835 381.692 143.835 381.327L153.944 343.328C154.065 342.963 154.309 342.841 154.674 342.841C155.04 342.963 155.162 343.206 155.162 343.572L145.053 381.571C144.931 381.936 144.687 382.058 144.444 382.058Z" fill="#EEEEEE"/>
<path d="M244.678 382.058C244.434 382.058 244.191 381.936 244.069 381.571L233.96 343.694C233.838 343.328 234.082 343.085 234.447 342.963C234.813 342.841 235.056 343.085 235.178 343.45L245.287 381.327C245.408 381.693 245.165 381.936 244.8 382.058H244.678Z" fill="#EEEEEE"/>
<path d="M331.515 332.002C331.393 332.002 331.149 332.002 331.027 331.88L303.137 303.99C302.894 303.746 302.894 303.381 303.137 303.137C303.381 302.894 303.746 302.894 303.99 303.137L331.88 331.027C332.123 331.271 332.123 331.636 331.88 331.88C331.758 331.88 331.636 332.002 331.515 332.002Z" fill="#EEEEEE"/>
<path d="M381.571 245.165H381.449L343.328 234.934C342.963 234.813 342.841 234.569 342.841 234.204C342.963 233.838 343.206 233.717 343.572 233.717L381.692 243.947C382.058 244.069 382.18 244.312 382.18 244.678C382.18 244.921 381.936 245.165 381.571 245.165Z" fill="#EEEEEE"/>
<path d="M343.694 155.04C343.45 155.04 343.207 154.918 343.085 154.552C342.963 154.187 343.207 153.944 343.572 153.822L381.571 143.713C381.936 143.591 382.18 143.835 382.301 144.2C382.423 144.566 382.18 144.809 381.814 144.931L343.816 155.04H343.694Z" fill="#EEEEEE"/>
<path d="M303.624 85.9841C303.503 85.9841 303.259 85.9841 303.137 85.8623C302.894 85.6188 302.894 85.2534 303.137 85.0098L331.027 57.1197C331.271 56.8761 331.636 56.8761 331.88 57.1197C332.123 57.3633 332.123 57.7287 331.88 57.9722L303.99 85.8623C303.99 85.8623 303.868 85.9841 303.624 85.9841Z" fill="#EEEEEE"/>
<path d="M234.447 45.9151H234.326C233.96 45.7933 233.838 45.5498 233.838 45.1844L243.947 7.18565C244.069 6.82028 244.312 6.69849 244.678 6.69849C245.043 6.82028 245.165 7.06386 245.165 7.42923L235.056 45.428C235.056 45.7934 234.813 45.9151 234.447 45.9151Z" fill="#EEEEEE"/>
<path d="M213.986 18.025C213.865 18.8775 213.012 19.3647 212.16 19.2429C211.307 19.1211 210.82 18.2686 210.942 17.416C211.185 16.1981 211.551 12.6662 210.089 10.8393C209.48 9.9868 208.506 9.62143 207.044 9.62143C202.903 9.62143 200.102 23.1402 199.372 32.2745C199.372 33.1271 198.641 33.736 197.91 33.736C197.058 33.736 196.449 33.1271 196.449 32.2745C195.718 23.1402 192.917 9.62143 188.776 9.62143C187.436 9.62143 186.462 9.9868 185.731 10.8393C184.269 12.6662 184.635 16.1981 184.878 17.416C185 18.2686 184.513 18.9993 183.661 19.2429C182.808 19.3647 182.077 18.8775 181.834 18.025C181.834 17.7814 180.616 12.179 183.295 8.89069C184.148 7.79457 185.731 6.57666 188.654 6.57666C193.647 6.57666 196.327 14.0059 197.788 21.0698C199.25 14.1277 201.929 6.57666 206.923 6.57666C209.846 6.57666 211.429 7.79457 212.281 8.89069C215.204 12.179 214.108 17.7814 213.986 18.025Z" fill="white"/>
<path d="M295.099 34.5884C293.881 33.9794 291.08 33.4922 289.375 36.0499C288.888 36.6588 288.644 37.3896 288.401 37.9985C287.67 39.8254 287.061 41.5305 282.433 41.5305C277.805 41.5305 277.196 39.9472 276.465 37.9985C276.222 37.3896 275.978 36.6588 275.491 36.0499C273.786 33.4922 270.985 33.9794 269.767 34.5884C269.036 34.9537 268.671 35.9281 269.036 36.6588C269.401 37.3896 270.376 37.7549 271.106 37.3896C271.228 37.3896 272.324 36.7806 273.055 37.7549C273.299 38.1203 273.42 38.6075 273.664 39.0946C274.151 40.4343 274.882 42.2612 276.952 43.3573C274.882 44.9406 273.664 47.4982 273.664 50.2994C273.664 55.171 277.561 59.0683 282.433 59.0683C287.305 59.0683 291.202 55.171 291.202 50.2994C291.202 47.4982 289.862 45.0624 287.913 43.3573C289.984 42.2612 290.715 40.4343 291.202 39.0946C291.445 38.6075 291.567 38.1203 291.811 37.7549C292.42 36.9024 293.394 37.146 293.759 37.3896C294.49 37.7549 295.465 37.3896 295.83 36.6588C296.195 35.8063 295.83 34.9537 295.099 34.5884ZM288.157 50.2994C288.157 53.4659 285.599 56.0236 282.433 56.0236C279.266 56.0236 276.709 53.4659 276.709 50.2994C276.709 47.1328 279.266 44.5752 282.433 44.5752C285.599 44.4534 288.157 47.1328 288.157 50.2994Z" fill="white"/>
<path d="M351.975 115.823V101.817C355.507 100.599 358.309 98.285 359.405 95.362C359.648 94.6312 359.283 93.6569 358.552 93.4133C357.821 93.1697 356.847 93.5351 356.604 94.2658C355.751 96.4581 353.437 98.1632 350.636 99.0157H350.514C350.149 99.0157 349.905 99.1375 349.661 99.2593C348.687 99.5029 347.713 99.5029 346.738 99.5029C345.764 99.5029 344.79 99.3811 343.816 99.2593C343.572 99.1375 343.328 99.0157 342.963 99.0157H342.841C339.918 98.1632 337.726 96.4581 336.873 94.2658C336.508 93.5351 335.656 93.0479 334.925 93.4133C334.194 93.6569 333.707 94.6312 334.072 95.362C335.29 98.285 337.97 100.599 341.501 101.817V115.823C337.97 117.041 335.168 119.355 334.072 122.278C333.829 123.008 334.194 123.983 334.925 124.226C335.047 124.348 335.29 124.348 335.534 124.348C336.143 124.348 336.752 123.983 336.995 123.374C337.848 121.06 340.405 119.233 343.45 118.502C344.546 118.259 345.642 118.137 346.86 118.137C348.078 118.137 349.174 118.259 350.149 118.502H350.27C353.315 119.233 355.873 121.06 356.725 123.374C356.969 124.105 357.943 124.592 358.674 124.226C359.405 123.983 359.892 123.008 359.527 122.278C358.309 119.355 355.507 117.041 351.975 115.823ZM344.424 115.214V102.548C345.155 102.669 345.886 102.669 346.617 102.669C347.347 102.669 348.2 102.669 348.931 102.548V115.214C348.2 115.092 347.469 115.092 346.617 115.092C345.764 115.092 345.155 115.092 344.424 115.214Z" fill="white"/>
<path d="M383.032 183.051C367.078 175.622 358.065 182.077 356.847 183.051C355.02 184.148 353.681 186.218 353.681 188.654C353.681 190.968 354.777 192.917 356.604 194.134C357.7 194.865 358.918 195.231 360.257 195.231C363.911 195.231 366.834 192.308 366.834 188.654C366.834 186.34 365.616 184.269 363.789 183.173C367.687 182.199 373.654 182.077 381.693 185.853C381.814 185.853 381.936 185.974 382.058 185.974C382.18 185.974 382.302 185.974 382.423 185.974C383.032 185.974 383.519 185.609 383.763 185.122C384.128 184.269 383.885 183.295 383.032 183.051ZM360.379 192.064C358.431 192.064 356.847 190.481 356.847 188.532C356.847 186.583 358.431 185 360.379 185C362.328 185 363.911 186.583 363.911 188.532C363.911 190.481 362.328 192.064 360.379 192.064Z" fill="white"/>
<path d="M379.866 187.436C379.135 187.071 378.283 186.949 377.308 186.949C373.654 186.949 370.731 189.872 370.731 193.526C370.731 195.84 371.949 197.91 373.776 199.007C369.879 199.981 363.911 200.103 355.873 196.327C355.629 196.205 355.386 196.205 355.264 196.205C354.655 196.205 354.168 196.571 353.924 197.058C353.559 197.789 353.924 198.763 354.655 199.128C360.257 201.808 365.129 202.66 368.905 202.66C376.212 202.66 380.231 199.494 380.84 199.128C382.667 198.032 383.885 195.962 383.885 193.648C383.885 190.847 382.18 188.411 379.866 187.436ZM377.308 189.994C379.257 189.994 380.84 191.577 380.84 193.526C380.84 195.475 379.257 197.058 377.308 197.058C375.36 197.058 373.776 195.475 373.776 193.526C373.776 191.577 375.36 189.994 377.308 189.994Z" fill="white"/>
<path d="M338.213 284.991C338.579 285.721 338.822 286.087 338.822 286.087V286.209C338.7 285.843 338.457 285.478 338.213 284.991Z" fill="white"/>
<path d="M336.021 287.549C335.899 287.305 335.777 287.061 335.534 286.574C335.777 286.818 336.021 287.183 336.021 287.549Z" fill="white"/>
<path d="M349.54 295.586C348.809 295.221 347.835 295.465 347.469 296.195C347.226 296.561 346.251 298.388 344.546 297.657C342.841 296.926 343.815 293.76 345.764 288.157L345.886 287.792C347.956 281.581 347.956 277.805 347.956 277.683C347.956 273.786 344.79 270.498 340.771 270.498C336.873 270.498 333.707 273.664 333.585 277.561V277.683C333.463 279.145 333.707 280.606 334.072 281.946C333.585 281.824 333.098 281.824 332.611 281.824C328.957 281.824 325.912 284.869 325.912 288.523C325.912 292.176 328.957 295.221 332.611 295.221C336.264 295.221 339.309 292.176 339.309 288.523C339.309 287.792 339.187 287.061 338.944 286.33V286.209V286.087C338.944 286.087 338.7 285.6 338.335 284.991C337.604 283.407 336.508 280.484 336.752 277.805V277.683C336.752 275.369 338.578 273.542 340.892 273.542C343.207 273.542 345.033 275.369 345.033 277.683C345.033 277.683 345.033 281.093 343.207 286.818L343.085 287.183C340.893 293.638 339.187 298.631 343.572 300.458C344.303 300.702 344.912 300.823 345.521 300.823C347.956 300.823 349.783 298.875 350.392 297.535C350.514 296.804 350.27 295.952 349.54 295.586ZM332.611 292.298C330.54 292.298 328.957 290.593 328.957 288.644C328.957 286.574 330.662 284.991 332.611 284.991C333.829 284.991 334.925 285.6 335.655 286.574C335.899 286.818 336.021 287.183 336.143 287.548C336.264 287.914 336.264 288.279 336.264 288.644C336.264 290.593 334.559 292.298 332.611 292.298Z" fill="white"/>
<path d="M292.42 348.809C294.247 342.232 290.958 337.239 290.837 337.117C290.593 336.752 290.228 336.508 289.862 336.508C289.497 336.386 289.01 336.508 288.644 336.752C288.279 336.995 287.914 337.361 287.67 337.726C287.183 334.316 285.112 332.733 285.112 332.611C284.503 332.124 283.529 332.245 283.042 332.854L280.85 335.656C280.119 333.585 278.779 332.611 278.779 332.611C278.17 332.124 277.196 332.245 276.709 332.854L274.882 335.168C274.273 333.098 272.811 331.515 272.568 331.271C271.959 330.662 270.985 330.662 270.376 331.271C269.767 331.88 269.767 332.854 270.376 333.463C270.863 333.951 272.081 335.534 272.081 336.874V354.29C272.081 355.142 272.811 355.751 273.542 355.751C274.395 355.751 275.004 355.02 275.004 354.29V339.918L277.805 336.386C278.17 337.117 278.414 338.091 278.414 339.431V354.411C278.414 355.142 278.901 355.629 279.51 355.873C279.145 356.238 279.023 356.725 279.145 357.213C279.266 357.943 279.875 358.431 280.606 358.431C280.728 358.431 280.85 358.431 280.85 358.431C282.555 358.065 284.016 357.578 285.478 356.969C285.965 357.943 286.696 359.283 287.914 360.623C288.157 360.988 288.644 361.11 289.01 361.11C289.375 361.11 289.74 360.988 290.106 360.745C290.715 360.136 290.715 359.161 290.106 358.552C289.01 357.456 288.523 356.36 288.157 355.629C288.157 355.508 288.035 355.386 288.035 355.386C290.228 353.559 291.689 351.367 292.42 348.809ZM281.337 354.29V339.918L284.138 336.386C284.503 337.117 284.747 338.091 284.747 339.431V353.681C283.529 354.29 282.311 354.777 281.215 355.02C281.215 354.777 281.337 354.533 281.337 354.29ZM287.792 351.245V344.303C288.157 343.207 288.766 341.867 289.253 340.771C289.862 342.476 290.349 344.912 289.497 347.957C289.131 349.296 288.523 350.392 287.792 351.245Z" fill="white"/>
<path d="M183.539 369.513C183.539 368.661 184.27 367.93 185 367.93H190.116C189.507 366.834 189.263 365.616 189.263 364.398C189.263 360.379 192.551 357.091 196.57 357.091C200.59 357.091 203.878 360.379 203.878 364.398C203.878 365.616 203.513 366.834 202.904 367.93H208.019C208.871 367.93 209.48 368.661 209.48 369.513C209.48 370.366 208.75 370.975 208.019 370.975H199.25C198.519 370.975 197.91 370.488 197.788 369.879C197.667 369.27 197.91 368.539 198.519 368.174C199.859 367.443 200.711 365.982 200.711 364.398C200.711 362.084 198.763 360.136 196.449 360.136C194.135 360.136 192.186 362.084 192.186 364.398C192.186 365.982 193.038 367.321 194.378 368.174C194.987 368.539 195.231 369.27 195.109 369.879C194.987 370.61 194.378 370.975 193.647 370.975H184.879C184.27 371.097 183.539 370.366 183.539 369.513Z" fill="white"/>
<path d="M209.602 375.846C209.602 376.699 208.871 377.308 208.019 377.308H185C184.148 377.308 183.417 376.577 183.417 375.846C183.417 374.994 184.148 374.385 185 374.385H208.019C208.993 374.263 209.602 374.994 209.602 375.846Z" fill="white"/>
<path d="M121.06 358.552L116.676 360.988C116.31 361.232 115.945 360.988 115.945 360.501V359.527C112.9 359.405 110.464 356.847 110.464 353.802V340.527C110.464 339.187 110.221 338.213 109.855 337.482L107.054 341.014V355.629C107.054 356.482 106.323 357.091 105.471 357.091C104.618 357.091 104.009 356.36 104.009 355.629V340.771C104.009 339.431 103.766 338.457 103.4 337.726L100.599 341.258V355.629C100.599 356.482 99.8684 357.091 99.0158 357.091C98.1633 357.091 97.5544 356.36 97.5544 355.629V338.213C97.5544 336.873 96.3365 335.29 95.8493 334.803C95.2403 334.194 95.2403 333.22 95.8493 332.611C96.4582 332.002 97.4326 332.002 98.0415 332.611C98.2851 332.854 99.7466 334.438 100.356 336.508L102.182 334.194C102.67 333.585 103.644 333.463 104.253 333.95C104.375 333.95 105.593 334.925 106.323 336.995L108.516 334.194C109.003 333.585 109.977 333.463 110.586 333.95C110.708 334.072 113.387 336.021 113.387 340.649V353.924C113.387 355.264 114.483 356.482 115.823 356.604V355.629C115.823 355.264 116.31 355.02 116.554 355.142L120.938 357.7C121.425 357.943 121.425 358.309 121.06 358.552Z" fill="white"/>
<path d="M55.1714 277.074V287.061C55.1714 287.913 54.4406 288.522 53.5881 288.522C52.7355 288.522 52.1266 287.792 52.1266 287.061V280.849L43.8448 289.131L46.5242 291.811C47.1332 292.42 47.1332 293.394 46.5242 294.003C46.2806 294.246 45.7935 294.49 45.4281 294.49C45.0627 294.49 44.6973 294.368 44.332 294.003L41.6526 291.323L36.9027 296.073C36.6591 296.317 36.172 296.56 35.8066 296.56C35.4412 296.56 35.0759 296.439 34.7105 296.073C34.1015 295.464 34.1015 294.49 34.7105 293.881L39.4603 289.131L36.7809 286.452C36.172 285.843 36.172 284.869 36.7809 284.26C37.3899 283.651 38.3642 283.651 38.9732 284.26L41.6526 286.939L49.9343 278.657H43.723C42.8705 278.657 42.2615 277.926 42.2615 277.196C42.2615 276.343 42.9923 275.612 43.723 275.612H53.5881C54.5624 275.491 55.1714 276.221 55.1714 277.074Z" fill="white"/>
<path d="M30.4477 194.866C28.2555 194.866 26.3068 196.083 25.2107 197.789C24.9671 196.571 24.8454 195.596 24.8454 195.596C24.6018 190.481 23.3839 185.609 23.3839 185.366C23.2621 184.879 22.8967 184.513 22.5313 184.392C22.0442 184.148 21.557 184.27 21.1916 184.513C18.2687 186.218 16.4418 188.898 15.3457 191.577C14.9803 189.75 14.6149 188.167 14.1278 187.315C12.9099 185.001 10.3523 184.879 9.01255 185.122C8.16002 185.244 7.67285 186.097 7.79464 186.949C7.91643 187.802 8.76897 188.289 9.62151 188.167C9.7433 188.167 10.9612 187.924 11.4484 188.898C12.0573 190.116 13.1534 196.449 13.6406 200.59C13.7624 201.442 14.4931 201.929 15.2239 201.929C16.0764 201.929 16.6854 201.199 16.6854 200.346C16.6854 200.224 16.5636 192.552 20.948 188.532C21.3134 190.359 21.8006 193.16 21.9224 195.962C21.9224 196.205 22.166 199.737 23.9928 202.904C23.3839 204.609 22.2877 206.679 21.3134 208.019C20.5827 208.993 18.2686 208.872 17.2943 208.628C16.4418 208.506 15.711 208.993 15.4675 209.846C15.3457 210.698 15.8328 211.429 16.6854 211.673C16.9289 211.673 17.6597 211.794 18.7558 211.794C20.3391 211.794 22.4095 211.429 23.6274 209.968C24.48 208.872 25.4543 207.41 26.1851 205.705C26.3068 205.827 26.5504 205.949 26.6722 206.07C26.794 206.192 26.9158 206.192 26.9158 206.314C27.1594 206.557 27.5247 206.679 27.7683 206.801C27.8901 206.923 28.0119 206.923 28.1337 207.045H28.2555C28.3773 207.045 28.3773 207.045 28.4991 207.166C29.108 207.41 29.717 207.532 30.4477 207.532C33.8579 207.532 36.6591 204.731 36.6591 201.32C36.7809 197.667 33.9797 194.866 30.4477 194.866ZM30.4477 204.365C30.0824 204.365 29.717 204.243 29.3516 204.122C28.9862 204 28.7427 203.878 28.4991 203.635C27.7683 203.026 27.403 202.173 27.403 201.199C27.403 199.494 28.8645 198.032 30.5695 198.032C32.2746 198.032 33.7361 199.494 33.7361 201.199C33.7361 202.904 32.2746 204.365 30.4477 204.365Z" fill="white"/>
<path d="M29.3517 204.121C28.9863 204 28.7427 203.878 28.4991 203.634C28.7427 203.756 28.9863 204 29.3517 204.121Z" fill="white"/>
<path d="M57.607 116.554C56.7545 116.797 55.9019 116.31 55.7801 115.458L55.0494 112.778L49.5688 116.31C49.2034 116.554 48.7163 116.675 48.2291 116.432C47.7419 116.31 47.3766 115.945 47.2548 115.458L46.524 112.778L41.1652 116.31C40.7999 116.554 40.3127 116.675 39.8255 116.432C39.3384 116.31 38.973 115.823 38.8512 115.458L38.1205 113.022L32.7617 116.919C32.5181 117.163 32.1527 117.163 31.9091 117.163C31.422 117.163 30.9348 116.919 30.6912 116.554C30.2041 115.823 30.3259 114.97 31.0566 114.483L38.1205 109.246C38.4858 109.003 39.0948 108.881 39.4602 109.003C39.9473 109.124 40.3127 109.612 40.4345 109.977L41.1652 112.535L46.524 109.003C46.8894 108.759 47.3766 108.637 47.8637 108.881C48.3509 109.003 48.7163 109.49 48.8381 109.855L49.5688 112.535L55.0494 109.003C55.4148 108.759 55.9019 108.637 56.3891 108.881C56.8762 109.003 57.2416 109.368 57.3634 109.855L58.7031 114.483C58.9467 115.458 58.4595 116.31 57.607 116.554Z" fill="white"/>
<path d="M30.6912 105.592C30.2041 104.862 30.3259 104.009 31.0566 103.522L38.1205 98.285C38.4858 98.0414 39.0948 97.9196 39.4602 98.0414C39.9473 98.1632 40.3127 98.6504 40.4345 99.0158L41.1652 101.573L46.524 98.0414C46.8894 97.7979 47.4984 97.6761 47.8637 97.9196C48.3509 98.0414 48.7163 98.5286 48.8381 98.894L49.5688 101.573L55.0494 98.0414C55.4148 97.7979 55.9019 97.6761 56.3891 97.9196C56.8762 98.0414 57.2416 98.4068 57.3634 98.894L58.7031 103.522C58.9467 104.375 58.4595 105.227 57.607 105.349C56.7545 105.592 55.9019 105.105 55.7801 104.253L55.0494 101.573L49.5688 105.105C49.2034 105.349 48.7163 105.471 48.2291 105.227C47.7419 105.105 47.4984 104.74 47.2548 104.253L46.524 101.573L41.1652 105.105C40.7999 105.349 40.1909 105.471 39.8255 105.227C39.3384 105.105 38.973 104.618 38.8512 104.253L38.1205 101.817L32.8835 105.714C32.6399 105.958 32.2745 105.958 32.0309 105.958C31.422 106.201 30.9348 105.958 30.6912 105.592Z" fill="white"/>
<path d="M122.765 54.4406C122.521 55.0496 121.913 55.415 121.304 55.415C121.182 55.415 120.938 55.415 120.695 55.2932C116.554 53.7099 113.753 49.0818 113.509 43.4795H110.951C110.708 48.96 107.785 53.7099 103.766 55.2932C103.644 55.415 103.4 55.415 103.157 55.415C102.548 55.415 101.939 55.0496 101.695 54.4406C101.452 53.7099 101.817 52.7356 102.548 52.492C105.471 51.3959 107.541 47.7421 107.785 43.6013H103.644C102.791 43.6013 102.182 42.8705 102.182 42.1398C102.182 41.2872 102.913 40.6783 103.644 40.6783H107.785C107.298 36.9027 105.227 33.858 102.67 32.7619C101.939 32.5183 101.452 31.544 101.817 30.8132C102.061 30.0825 103.035 29.5953 103.766 29.9607C107.663 31.4222 110.342 35.563 110.951 40.6783H113.631C114.24 35.6848 116.919 31.4222 120.816 29.9607C121.547 29.7171 122.521 30.0825 122.765 30.8132C123.009 31.544 122.643 32.5183 121.913 32.7619C119.233 33.7362 117.285 36.9027 116.797 40.6783H120.573C121.425 40.6783 122.034 41.409 122.034 42.1398C122.034 42.9923 121.304 43.6013 120.573 43.6013H116.676C116.919 47.8639 119.111 51.3959 121.913 52.492C122.643 52.7356 123.009 53.5881 122.765 54.4406Z" fill="white"/>
<path d="M182.565 149.315C182.443 149.315 182.443 149.315 182.321 149.315C182.199 149.194 182.077 149.072 181.956 148.95C178.424 140.181 183.173 130.56 189.141 125.323C189.994 124.47 190.846 123.739 191.699 123.009C193.647 121.304 195.353 119.842 196.449 117.893C196.814 117.041 196.692 115.336 196.083 113.631C195.474 112.047 194.744 110.586 193.769 108.881C192.186 105.958 190.603 102.913 190.237 99.503C189.872 96.4582 190.724 93.4134 192.43 91.5865C192.673 91.343 192.917 91.343 193.16 91.4648C193.404 91.5866 193.526 91.8301 193.404 92.1955C191.821 97.7979 195.718 101.208 199.859 104.74C202.538 107.054 205.218 109.368 206.679 112.413C211.429 120.573 206.436 129.829 203.025 135.918C202.538 136.771 201.929 138.72 202.051 139.816C202.051 140.059 201.929 140.303 201.686 140.425L182.808 149.194C182.686 149.315 182.686 149.315 182.565 149.315ZM191.821 95.1185C191.455 96.4582 191.212 97.9197 191.455 99.503C191.699 102.548 193.282 105.592 194.865 108.394C195.718 110.099 196.57 111.682 197.179 113.265C197.91 115.336 198.032 117.284 197.545 118.502C196.449 120.695 194.5 122.4 192.551 123.983C191.699 124.714 190.846 125.444 189.994 126.175C184.513 131.047 180.007 139.816 182.93 147.854L200.955 139.45C201.077 138.232 201.686 136.406 202.051 135.431C205.218 129.585 210.089 120.695 205.705 113.022C204.365 110.099 201.686 107.907 199.128 105.714C195.596 102.791 192.064 99.6248 191.821 95.1185Z" fill="#D6BE7A"/>
<path d="M196.57 299.971C196.449 299.971 196.327 299.971 196.327 299.849C196.083 299.727 195.961 299.484 196.083 299.118C197.666 293.516 193.769 290.106 189.628 286.574C186.949 284.26 184.269 281.946 182.808 278.901C178.058 270.741 183.052 261.485 186.462 255.395C186.949 254.543 187.558 252.594 187.436 251.498C187.436 251.254 187.558 251.011 187.801 250.889L206.679 242.12C206.801 241.998 207.044 241.998 207.166 242.12C207.288 242.242 207.41 242.364 207.532 242.486C211.063 251.254 206.314 260.876 200.346 266.113C199.493 266.965 198.641 267.696 197.788 268.427C195.84 270.132 194.135 271.594 193.16 273.542C192.795 274.395 192.917 276.1 193.526 277.805C194.135 279.388 194.865 280.85 195.84 282.555C197.423 285.478 199.006 288.644 199.372 291.933C199.737 294.977 198.884 298.022 197.301 299.849C196.936 299.971 196.814 299.971 196.57 299.971ZM188.532 251.863C188.41 253.203 187.801 255.03 187.314 255.883C184.148 261.728 179.276 270.619 183.661 278.292C185 281.215 187.68 283.407 190.237 285.599C193.769 288.644 197.301 291.689 197.545 296.317C197.91 294.977 198.154 293.516 197.91 291.933C197.666 288.766 196.083 285.843 194.5 283.042C193.647 281.337 192.795 279.754 192.186 278.17C191.455 276.1 191.333 274.151 191.821 273.055C192.917 270.863 194.743 269.28 196.814 267.574C197.666 266.844 198.519 266.113 199.372 265.26C204.852 260.389 209.358 251.62 206.435 243.582L188.532 251.863Z" fill="#D6BE7A"/>
<path d="M271.228 209.115C265.26 209.115 259.414 205.948 255.03 203.512C254.056 203.025 252.229 202.416 251.133 202.538C250.889 202.538 250.645 202.416 250.524 202.173L241.755 183.295C241.633 183.173 241.633 182.93 241.755 182.808C241.876 182.686 241.998 182.564 242.12 182.443C250.889 178.911 260.51 183.661 265.747 189.628C266.6 190.481 267.331 191.333 268.062 192.186C269.767 194.135 271.228 195.84 273.177 196.936C274.029 197.301 275.734 197.179 277.439 196.57C279.023 195.961 280.484 195.231 282.189 194.256C285.112 192.673 288.157 191.09 291.567 190.724C294.734 190.359 297.657 191.212 299.484 192.917C299.727 193.16 299.727 193.404 299.605 193.647C299.484 193.891 299.118 194.013 298.875 193.891C293.272 192.308 289.862 196.205 286.33 200.346C284.016 203.025 281.702 205.705 278.657 207.166C276.1 208.506 273.664 209.115 271.228 209.115ZM251.498 201.32C252.716 201.442 254.543 202.051 255.517 202.416C261.363 205.583 270.254 210.455 277.927 206.07C280.85 204.73 283.042 202.051 285.234 199.493C288.279 195.961 291.324 192.429 295.952 192.186C294.612 191.821 293.15 191.577 291.567 191.821C288.522 192.064 285.478 193.647 282.676 195.231C280.971 196.083 279.388 196.936 277.805 197.545C275.734 198.275 273.786 198.397 272.568 197.91C270.376 196.814 268.67 194.865 267.087 192.917C266.356 192.064 265.626 191.212 264.895 190.359C260.023 184.878 251.254 180.372 243.216 183.295L251.498 201.32Z" fill="#D6BE7A"/>
<path d="M141.034 209.115C134.213 209.115 127.637 205.218 123.618 200.711C122.765 199.859 122.034 199.006 121.304 198.154C119.599 196.205 118.137 194.5 116.188 193.526C115.336 193.16 113.631 193.282 111.926 193.891C110.342 194.5 108.881 195.231 107.176 196.205C104.253 197.788 101.086 199.372 97.798 199.737C94.7532 200.102 91.7085 199.25 89.8816 197.667C89.638 197.423 89.638 197.179 89.7598 196.936C89.8816 196.692 90.1252 196.57 90.4905 196.692C96.0929 198.275 99.5031 194.378 103.035 190.237C105.349 187.558 107.663 184.878 110.708 183.417C118.868 178.667 128.124 183.661 134.213 187.071C135.066 187.558 137.015 188.045 138.111 188.045C138.354 188.045 138.598 188.167 138.72 188.41L147.489 207.288C147.61 207.41 147.61 207.653 147.489 207.775C147.367 207.897 147.245 208.019 147.123 208.141C145.296 208.749 143.226 209.115 141.034 209.115ZM114.971 192.064C115.701 192.064 116.31 192.186 116.797 192.43C118.99 193.526 120.573 195.352 122.278 197.423C123.009 198.275 123.739 199.128 124.592 199.981C129.464 205.461 138.233 209.967 146.271 207.044L137.867 189.019C136.527 188.898 134.701 188.289 133.848 187.801C128.002 184.635 119.111 179.763 111.439 184.148C108.516 185.487 106.323 188.167 104.131 190.724C101.086 194.256 98.0416 197.788 93.4135 198.032C94.7532 198.397 96.2147 198.641 97.798 198.397C100.965 198.154 103.888 196.57 106.689 194.987C108.394 194.135 109.977 193.282 111.56 192.673C112.9 192.308 113.996 192.064 114.971 192.064Z" fill="#D6BE7A"/>
<path d="M237.614 161.982C237.492 161.982 237.492 161.982 237.37 161.982L221.659 156.258C221.538 156.258 221.416 156.136 221.294 155.892C221.172 155.771 221.172 155.527 221.294 155.405C224.217 148.463 232.499 145.662 238.832 146.027C239.806 146.027 240.659 146.149 241.511 146.149C243.582 146.271 245.409 146.514 246.992 145.905C247.479 145.662 248.332 144.931 249.062 143.348C249.671 142.13 250.037 140.79 250.524 139.451C251.376 136.893 252.107 134.214 253.812 132.143C255.395 130.194 257.588 128.977 259.536 128.855C259.78 128.855 260.023 128.977 260.145 129.342C260.267 129.585 260.145 129.951 259.902 130.073C255.883 132.387 256.248 136.406 256.492 140.79C256.735 143.591 256.857 146.514 256.004 149.072C254.056 156.379 245.896 158.815 240.537 160.399C239.806 160.642 238.345 161.373 237.858 161.982C237.858 161.982 237.736 161.982 237.614 161.982ZM222.755 155.283L237.492 160.642C238.345 159.911 239.684 159.302 240.415 159.059C245.53 157.597 253.325 155.283 255.03 148.585C255.883 146.149 255.639 143.47 255.517 140.79C255.274 137.258 255.03 133.726 256.979 131.047C256.248 131.534 255.517 132.143 254.908 132.874C253.325 134.822 252.594 137.258 251.742 139.816C251.255 141.277 250.889 142.617 250.28 143.957C249.549 145.54 248.453 146.758 247.479 147.123C245.53 147.732 243.582 147.611 241.511 147.367C240.659 147.245 239.806 147.245 238.832 147.245C232.986 146.88 225.678 149.316 222.755 155.283Z" fill="#D6BE7A"/>
<path d="M129.342 264.773C129.098 264.773 128.855 264.651 128.733 264.286C128.611 264.042 128.733 263.677 128.976 263.555C132.996 261.241 132.63 257.222 132.387 252.837C132.143 250.036 132.021 247.113 132.874 244.556C134.822 237.248 142.982 234.812 148.341 233.229C149.072 232.986 150.533 232.255 151.021 231.646C151.142 231.524 151.386 231.402 151.629 231.524L167.341 237.248C167.462 237.248 167.584 237.37 167.706 237.614C167.828 237.735 167.828 237.979 167.706 238.101C164.783 245.043 156.501 247.844 150.168 247.479C149.194 247.479 148.219 247.357 147.367 247.357C145.296 247.235 143.591 246.991 141.886 247.6C141.399 247.844 140.547 248.575 139.816 250.158C139.329 251.376 138.841 252.716 138.354 254.055C137.502 256.613 136.771 259.292 135.066 261.363C133.604 263.433 131.412 264.651 129.342 264.773ZM151.629 232.864C150.777 233.595 149.437 234.203 148.707 234.447C143.591 235.909 135.918 238.223 134.092 244.921C133.239 247.357 133.483 250.036 133.604 252.716C133.848 256.248 134.092 259.78 132.143 262.459C132.874 261.972 133.604 261.363 134.213 260.632C135.797 258.683 136.527 256.248 137.38 253.69C137.867 252.228 138.233 250.889 138.841 249.549C139.572 247.966 140.668 246.748 141.643 246.383C143.591 245.774 145.54 245.895 147.61 246.017C148.463 246.139 149.437 246.139 150.29 246.139C156.014 246.504 163.443 244.069 166.366 238.101L151.629 232.864Z" fill="#D6BE7A"/>
<path d="M263.555 262.581C263.312 262.581 263.19 262.459 263.068 262.215C260.754 258.196 256.735 258.562 252.351 258.805C249.549 259.049 246.626 259.171 244.069 258.318C236.761 256.369 234.325 248.209 232.742 242.851C232.499 242.12 231.768 240.658 231.159 240.171C231.037 240.049 230.915 239.806 231.037 239.562L236.761 223.851C236.761 223.729 236.883 223.608 237.127 223.486C237.248 223.364 237.492 223.364 237.614 223.486C244.556 226.409 247.357 234.691 246.992 241.024C246.992 241.998 246.87 242.851 246.87 243.703C246.748 245.774 246.505 247.6 247.114 249.184C247.357 249.671 248.088 250.523 249.671 251.254C250.889 251.863 252.229 252.229 253.568 252.716C256.126 253.568 258.805 254.299 260.876 256.004C262.825 257.587 264.042 259.78 264.164 261.728C264.164 261.972 264.042 262.215 263.677 262.337C263.677 262.581 263.677 262.581 263.555 262.581ZM255.761 257.466C258.075 257.466 260.145 257.831 261.972 259.171C261.485 258.44 260.876 257.709 260.145 257.1C258.196 255.517 255.761 254.786 253.203 253.934C251.742 253.446 250.402 253.081 249.062 252.472C247.479 251.741 246.261 250.645 245.896 249.671C245.287 247.722 245.408 245.774 245.652 243.703C245.774 242.851 245.774 241.998 245.774 241.024C246.139 235.178 243.703 227.87 237.736 224.947L232.377 239.684C233.108 240.537 233.717 241.876 233.96 242.607C235.422 247.722 237.736 255.517 244.434 257.222C246.87 258.074 249.549 257.831 252.229 257.709C253.447 257.587 254.665 257.466 255.761 257.466Z" fill="#D6BE7A"/>
<path d="M152.604 167.462C152.482 167.462 152.482 167.462 152.36 167.462C145.418 164.539 142.617 156.258 142.982 149.924C142.982 148.95 143.104 147.976 143.104 147.123C143.226 145.053 143.469 143.348 142.861 141.643C142.617 141.155 141.886 140.303 140.303 139.572C139.085 139.085 137.745 138.598 136.406 138.232C133.848 137.38 131.169 136.649 129.098 134.944C127.15 133.361 125.932 131.169 125.81 129.22C125.81 128.976 125.932 128.733 126.297 128.611C126.541 128.489 126.906 128.611 127.028 128.855C129.342 132.874 133.361 132.508 137.745 132.265C140.547 132.021 143.469 131.899 146.027 132.752C153.335 134.701 155.77 142.861 157.354 148.219C157.597 148.95 158.328 150.412 158.937 150.899C159.059 151.021 159.181 151.264 159.059 151.508L153.335 167.219C153.335 167.34 153.213 167.462 152.969 167.584C152.726 167.462 152.726 167.462 152.604 167.462ZM128.002 131.778C128.489 132.508 129.098 133.239 129.829 133.848C131.778 135.431 134.213 136.162 136.771 137.015C138.232 137.502 139.572 137.867 140.912 138.476C142.495 139.207 143.713 140.303 144.078 141.277C144.687 143.226 144.566 145.175 144.444 147.245C144.322 148.098 144.322 149.072 144.322 149.924C143.957 155.649 146.392 163.078 152.36 166.001L157.719 151.264C156.988 150.412 156.379 149.072 156.136 148.341C154.674 143.226 152.36 135.431 145.662 133.726C143.226 132.874 140.547 133.117 137.867 133.239C134.213 133.604 130.681 133.848 128.002 131.778Z" fill="#D6BE7A"/>
<path d="M241.633 180.007C241.511 180.007 241.389 180.007 241.267 179.885L229.697 170.385C229.576 170.264 229.454 170.142 229.454 169.898C229.454 169.776 229.454 169.533 229.576 169.411C234.204 164.296 241.998 164.418 247.357 166.61C248.21 166.853 248.94 167.219 249.671 167.584C251.376 168.315 252.838 169.046 254.421 169.046C254.908 169.046 255.882 168.68 256.978 167.462C257.831 166.61 258.562 165.636 259.292 164.539C260.754 162.591 262.215 160.52 264.286 159.302C266.235 158.085 268.427 157.719 270.254 158.206C270.497 158.328 270.741 158.572 270.741 158.815C270.741 159.059 270.497 159.302 270.254 159.424C266.235 160.155 265.26 163.565 264.286 167.462C263.677 169.898 262.946 172.456 261.363 174.405C257.466 180.129 249.915 179.763 244.799 179.398C244.069 179.398 242.729 179.642 241.998 179.885C241.755 180.007 241.755 180.007 241.633 180.007ZM230.915 169.776L241.755 178.667C242.607 178.302 243.947 178.18 244.678 178.18C249.427 178.424 256.735 178.789 260.145 173.674C261.607 171.969 262.215 169.533 262.824 167.219C263.555 164.296 264.408 161.251 266.722 159.546C266.113 159.79 265.382 160.033 264.773 160.399C262.824 161.495 261.485 163.443 260.145 165.27C259.293 166.366 258.562 167.462 257.709 168.315C256.613 169.411 255.273 170.142 254.299 170.264C252.472 170.264 250.767 169.533 249.062 168.68C248.331 168.315 247.601 168.071 246.87 167.706C242.12 165.757 235.178 165.636 230.915 169.776Z" fill="#D6BE7A"/>
<path d="M120.573 235.178C119.964 235.178 119.477 235.056 118.989 234.934C118.746 234.812 118.502 234.569 118.502 234.325C118.502 234.082 118.746 233.838 118.989 233.716C123.009 232.986 123.983 229.575 124.957 225.678C125.566 223.242 126.297 220.685 127.88 218.736C131.778 213.012 139.329 213.499 144.444 213.743C145.175 213.743 146.514 213.499 147.245 213.256C147.489 213.134 147.732 213.134 147.854 213.377L159.424 222.877C159.546 222.999 159.668 223.121 159.668 223.364C159.668 223.486 159.668 223.73 159.546 223.851C154.918 228.967 147.123 228.845 141.764 226.653C140.912 226.287 140.181 226.044 139.45 225.678C137.745 224.947 136.284 224.338 134.701 224.217C134.213 224.217 133.239 224.582 132.143 225.678C131.29 226.531 130.56 227.505 129.829 228.601C128.367 230.55 126.906 232.62 124.835 233.838C123.496 234.691 121.912 235.178 120.573 235.178ZM140.79 214.961C136.527 214.961 131.656 215.691 128.855 219.589C127.393 221.294 126.784 223.73 126.175 226.044C125.444 228.967 124.592 232.011 122.278 233.716C122.887 233.473 123.618 233.229 124.226 232.864C126.175 231.768 127.515 229.819 128.976 227.992C129.829 226.896 130.56 225.8 131.412 224.947C132.508 223.73 133.848 223.121 134.822 223.121C136.649 223.121 138.232 223.851 140.059 224.582C140.79 224.947 141.521 225.191 142.373 225.556C147.123 227.505 154.065 227.749 158.328 223.608L147.489 214.717C146.636 215.082 145.296 215.204 144.566 215.204C143.348 214.961 142.13 214.961 140.79 214.961Z" fill="#D6BE7A"/>
<path d="M233.717 273.177C233.351 273.177 233.108 272.933 233.108 272.689C232.377 268.67 228.967 267.696 225.069 266.722C222.634 266.113 220.076 265.382 218.127 263.799C212.403 259.901 212.89 252.35 213.134 247.235C213.134 246.504 212.89 245.165 212.647 244.434C212.525 244.19 212.525 243.947 212.769 243.825L222.268 232.255C222.39 232.133 222.512 232.011 222.755 232.011C222.877 232.011 223.121 232.011 223.243 232.133C228.358 236.761 228.236 244.556 226.044 249.914C225.8 250.645 225.435 251.498 225.069 252.229C224.339 253.934 223.608 255.395 223.608 256.978C223.608 257.466 223.973 258.44 225.191 259.536C226.044 260.389 227.018 261.119 228.114 261.85C230.063 263.311 232.133 264.773 233.351 266.843C234.569 268.792 234.934 270.984 234.447 272.811C234.204 273.055 234.082 273.177 233.717 273.177ZM213.986 244.312C214.352 245.165 214.474 246.504 214.474 247.235C214.23 251.985 213.865 259.292 218.98 262.703C220.685 264.164 223.121 264.773 225.435 265.382C228.358 266.113 231.403 266.965 233.108 269.279C232.864 268.67 232.62 267.94 232.255 267.331C231.159 265.382 229.21 264.042 227.383 262.703C226.287 261.85 225.191 261.119 224.339 260.267C223.243 259.171 222.512 257.831 222.39 256.857C222.39 255.03 223.121 253.325 223.973 251.62C224.339 250.889 224.582 250.158 224.948 249.427C226.896 244.677 227.14 237.735 222.999 233.473L213.986 244.312Z" fill="#D6BE7A"/>
<path d="M167.828 159.302C167.706 159.302 167.584 159.302 167.462 159.18C162.347 154.552 162.469 146.758 164.661 141.399C165.026 140.546 165.27 139.815 165.635 139.085C166.366 137.38 166.975 135.918 167.097 134.335C167.097 133.848 166.732 132.873 165.635 131.777C164.783 130.925 163.809 130.194 162.712 129.463C160.764 128.002 158.693 126.54 157.475 124.47C156.258 122.521 155.892 120.329 156.379 118.624C156.501 118.38 156.745 118.137 156.988 118.137C157.232 118.137 157.475 118.38 157.597 118.624C158.328 122.643 161.738 123.617 165.635 124.592C168.071 125.201 170.629 125.931 172.577 127.515C178.302 131.412 177.814 138.963 177.571 144.078C177.571 144.809 177.815 146.149 178.058 146.879C178.18 147.123 178.18 147.367 177.936 147.488L168.437 159.058C168.193 159.18 168.071 159.302 167.828 159.302ZM157.475 121.912C157.719 122.521 157.963 123.252 158.328 123.861C159.424 125.81 161.373 127.149 163.2 128.611C164.296 129.463 165.392 130.194 166.244 131.047C167.462 132.143 168.071 133.482 168.071 134.457C168.071 136.284 167.34 137.867 166.61 139.694C166.244 140.424 166.001 141.155 165.635 142.008C163.687 146.758 163.443 153.7 167.584 157.962L176.475 147.123C176.109 146.27 175.988 144.931 175.988 144.2C176.231 139.45 176.597 132.143 171.481 128.733C169.776 127.271 167.34 126.662 165.026 126.053C162.225 125.079 159.18 124.226 157.475 121.912Z" fill="#D6BE7A"/>
<path d="M201.32 152.969C201.198 152.969 201.077 152.969 200.955 152.847C200.833 152.725 200.711 152.604 200.711 152.36C200.346 145.54 205.948 140.059 211.307 137.867C212.038 137.502 212.89 137.258 213.621 136.893C215.326 136.284 216.909 135.675 218.005 134.579C218.371 134.213 218.736 133.239 218.736 131.777C218.736 130.56 218.493 129.342 218.371 128.002C218.005 125.566 217.64 123.13 218.249 120.695C218.736 118.502 220.076 116.554 221.659 115.701C221.903 115.579 222.268 115.579 222.39 115.823C222.634 116.066 222.634 116.31 222.39 116.554C220.076 119.964 221.781 123.009 223.851 126.419C225.069 128.611 226.409 130.925 226.653 133.361C227.992 140.059 222.268 145.174 218.493 148.585C218.005 149.072 217.153 150.29 216.909 150.899C216.788 151.142 216.666 151.264 216.422 151.264L201.32 152.969C201.442 152.969 201.442 152.969 201.32 152.969ZM220.076 118.989C219.711 119.598 219.467 120.207 219.345 120.938C218.858 123.13 219.102 125.444 219.467 127.758C219.711 129.098 219.832 130.438 219.832 131.656C219.832 133.239 219.467 134.7 218.736 135.431C217.397 136.771 215.691 137.38 213.986 137.989C213.256 138.232 212.525 138.598 211.794 138.841C207.044 140.79 201.929 145.54 201.929 151.508L215.813 150.168C216.179 149.315 217.031 148.219 217.518 147.732C221.05 144.566 226.409 139.694 225.313 133.483C225.069 131.169 223.851 129.098 222.634 127.028C221.172 124.592 219.711 121.912 220.076 118.989Z" fill="#D6BE7A"/>
<path d="M168.559 276.952C168.437 276.952 168.193 276.831 168.071 276.709C167.828 276.465 167.828 276.222 168.071 275.978C170.385 272.568 168.68 269.523 166.61 266.113C165.392 263.921 164.052 261.607 163.809 259.171C162.469 252.472 168.193 247.357 171.969 243.947C172.456 243.46 173.308 242.364 173.552 241.633C173.674 241.389 173.796 241.268 174.039 241.268L189.019 239.806C189.141 239.806 189.385 239.806 189.507 239.928C189.628 240.05 189.75 240.172 189.75 240.415C190.115 247.235 184.513 252.716 179.154 254.908C178.302 255.274 177.571 255.517 176.84 255.883C175.135 256.492 173.674 257.1 172.578 258.197C172.212 258.562 171.847 259.536 171.847 260.998C171.847 262.216 172.09 263.434 172.212 264.773C172.578 267.209 172.943 269.645 172.334 272.081C171.847 274.273 170.507 276.222 168.924 277.074C168.802 276.952 168.68 276.952 168.559 276.952ZM174.526 242.364C174.161 243.216 173.308 244.312 172.821 244.8C169.289 247.966 163.93 252.838 165.027 259.049C165.27 261.363 166.488 263.434 167.706 265.504C169.167 268.183 170.751 270.863 170.385 273.664C170.751 273.055 170.994 272.446 171.116 271.715C171.603 269.523 171.36 267.209 170.994 264.895C170.751 263.555 170.629 262.216 170.629 260.998C170.629 259.414 170.994 257.953 171.725 257.222C173.065 256.004 174.648 255.274 176.475 254.665C177.206 254.421 177.936 254.056 178.789 253.69C183.539 251.742 188.532 246.992 188.654 241.024L174.526 242.364Z" fill="#D6BE7A"/>
<path d="M257.466 227.262C251.62 227.262 247.235 222.268 244.191 218.98C243.703 218.493 242.485 217.64 241.877 217.397C241.633 217.275 241.511 217.153 241.511 216.91L240.05 201.929C240.05 201.808 240.05 201.564 240.171 201.442C240.293 201.32 240.415 201.199 240.659 201.199C247.479 200.833 252.96 206.436 255.152 211.794C255.517 212.525 255.761 213.378 256.126 214.108C256.735 215.813 257.344 217.397 258.44 218.493C258.805 218.858 259.78 219.224 261.241 219.224C262.459 219.224 263.677 218.98 265.017 218.858C267.453 218.493 269.888 218.128 272.324 218.736C274.516 219.224 276.465 220.563 277.318 222.147C277.439 222.39 277.439 222.756 277.196 222.877C276.952 223.121 276.709 223.121 276.465 222.877C273.055 220.563 270.132 222.268 266.6 224.339C264.408 225.557 262.094 226.896 259.658 227.14C258.805 227.14 258.196 227.262 257.466 227.262ZM242.607 216.301C243.46 216.666 244.556 217.519 245.043 218.006C248.21 221.538 253.081 226.896 259.293 225.8C261.607 225.557 263.677 224.339 265.748 223.121C268.427 221.659 271.106 220.076 273.908 220.442C273.299 220.076 272.69 219.833 271.959 219.711C269.767 219.224 267.453 219.589 265.139 219.833C263.799 220.076 262.459 220.198 261.241 220.198C259.658 220.198 258.196 219.833 257.466 219.102C256.248 217.762 255.517 216.057 254.908 214.352C254.665 213.621 254.299 212.891 254.056 212.16C252.107 207.41 247.357 202.295 241.389 202.295L242.607 216.301Z" fill="#D6BE7A"/>
<path d="M148.95 189.019C142.374 189.019 137.137 183.539 134.944 178.423C134.579 177.571 134.335 176.84 133.97 176.109C133.361 174.404 132.752 172.943 131.656 171.847C131.291 171.481 130.438 171.116 128.855 171.116C127.637 171.116 126.419 171.36 125.079 171.481C122.643 171.847 120.208 172.212 117.772 171.603C115.58 171.116 113.631 169.776 112.778 168.193C112.657 167.949 112.657 167.584 112.9 167.462C113.144 167.219 113.387 167.219 113.631 167.462C117.041 169.776 120.086 168.071 123.496 166.001C125.688 164.783 128.002 163.443 130.438 163.2C137.137 161.86 142.252 167.584 145.662 171.36C146.149 171.847 147.245 172.699 147.976 172.943C148.219 173.065 148.341 173.186 148.341 173.43L149.803 188.41C149.803 188.532 149.803 188.776 149.681 188.897C149.559 189.019 149.437 189.141 149.194 189.141C149.316 189.019 149.194 189.019 148.95 189.019ZM128.977 169.898C130.56 169.898 131.9 170.263 132.63 170.994C133.848 172.334 134.579 173.917 135.188 175.744C135.431 176.475 135.797 177.205 136.162 178.058C138.111 182.808 142.861 187.801 148.828 187.923L147.489 174.039C146.636 173.674 145.54 172.821 145.053 172.334C141.886 168.802 137.015 163.443 130.803 164.539C128.489 164.783 126.419 166.001 124.348 167.219C121.669 168.68 118.99 170.263 116.189 169.898C116.797 170.263 117.406 170.507 118.137 170.629C120.329 171.116 122.643 170.872 124.957 170.507C126.419 170.142 127.637 169.898 128.977 169.898Z" fill="#D6BE7A"/>
<path d="M208.871 252.96C204.365 254.056 199.615 254.665 194.622 254.665C162.834 254.665 137.015 228.845 137.015 197.057C137.015 165.27 162.834 139.45 194.622 139.45C199.493 139.45 204.243 140.059 208.871 141.156C183.904 147.489 165.392 170.142 165.392 197.057C165.514 223.973 183.904 246.626 208.871 252.96Z" fill="#D6BE7A"/>
<path d="M194.743 255.273C162.591 255.273 136.527 229.088 136.527 197.057C136.527 164.905 162.713 138.841 194.743 138.841C199.615 138.841 204.487 139.45 209.115 140.668C209.358 140.79 209.602 141.034 209.602 141.277C209.602 141.521 209.358 141.764 209.115 141.886C183.782 148.341 166.123 170.994 166.123 197.179C166.123 223.364 183.782 246.017 209.115 252.472C209.358 252.594 209.602 252.838 209.602 253.081C209.602 253.325 209.358 253.568 209.115 253.69C204.487 254.664 199.615 255.273 194.743 255.273ZM194.743 140.059C163.321 140.059 137.745 165.635 137.745 197.057C137.745 228.479 163.321 254.055 194.743 254.055C198.763 254.055 202.66 253.69 206.435 252.838C181.834 245.53 164.905 222.877 164.905 197.057C164.905 171.116 181.834 148.585 206.435 141.277C202.66 140.425 198.641 140.059 194.743 140.059Z" fill="#D6BE7A"/>
<path d="M252.35 197.057C252.35 223.973 233.838 246.626 208.871 252.959C183.904 246.626 165.392 223.973 165.392 197.057C165.392 170.141 183.904 147.488 208.871 141.155C233.96 147.488 252.35 170.141 252.35 197.057Z" fill="white"/>
<path d="M208.871 253.568H208.749C182.93 246.992 164.783 223.851 164.783 197.057C164.783 170.385 182.808 147.123 208.749 140.546C208.871 140.546 208.993 140.546 208.993 140.546C234.812 147.123 252.959 170.263 252.959 197.057C252.959 223.73 234.934 246.992 208.993 253.568C208.993 253.568 208.993 253.568 208.871 253.568ZM208.871 141.764C183.66 148.219 166.001 170.872 166.001 197.057C166.001 223.121 183.66 245.895 208.871 252.35C234.082 245.895 251.741 223.242 251.741 197.057C251.741 170.994 234.203 148.219 208.871 141.764Z" fill="#D6BE7A"/>
</svg>
