<svg width="33" height="38" viewBox="0 0 33 38" fill="none" xmlns="http://www.w3.org/2000/svg">
<path d="M22.4536 15.6268L22.4465 15.6292C22.3706 15.6552 22.3003 15.6793 22.2446 15.6955C22.2155 15.7039 22.1796 15.7134 22.1419 15.7197C22.1097 15.7251 22.043 15.7343 21.9653 15.7196C21.8721 15.7019 21.7538 15.6468 21.6781 15.5212C21.6151 15.4165 21.6147 15.3148 21.6164 15.2733C21.6191 15.2046 21.639 15.1297 21.6466 15.101C21.6474 15.0982 21.648 15.0958 21.6485 15.0939L21.6486 15.0936C21.6679 15.0193 21.7446 14.6279 21.8192 14.2138C21.9067 13.728 21.9544 12.7782 21.9545 11.7989C21.9546 10.8196 21.9069 9.8701 21.8195 9.38476C21.3288 6.66233 20.2859 4.28478 18.6863 2.22849C18.3601 1.80918 17.9935 1.39566 17.6697 1.071C17.5076 0.908575 17.3598 0.771866 17.2357 0.669095C17.1038 0.559764 17.0234 0.509753 16.9924 0.496058L17.1535 0.130604L16.9924 0.496058C16.7063 0.369913 16.318 0.368748 16.0363 0.488225C16.0321 0.491234 16.0266 0.49538 16.0194 0.500884C15.9915 0.522377 15.9519 0.554772 15.8996 0.599309C15.7956 0.687909 15.6534 0.814474 15.4767 0.975491C15.1239 1.29694 14.6432 1.74719 14.0752 2.28653C12.9397 3.36474 11.4614 4.79342 9.9734 6.2471C8.48547 7.70075 6.98909 9.17823 5.81748 10.354C5.23155 10.942 4.72784 11.4535 4.3474 11.8484C3.95897 12.2516 3.71734 12.5147 3.63871 12.6172L3.32133 12.3737L3.6387 12.6172C1.3064 15.6577 0.159797 19.4104 0.442066 23.0453L0.0432667 23.0763L0.442067 23.0453C0.743432 26.927 2.32733 30.3074 5.11208 33.0138C6.43027 34.2949 7.60968 35.1285 9.24139 35.9328L9.06455 36.2916L9.2414 35.9328C11.6746 37.1322 14.1623 37.669 16.9479 37.5929C19.4757 37.5239 21.5194 37.0276 23.746 35.9436C25.3657 35.1549 26.59 34.2879 27.926 32.9813C33.0898 27.931 34.0835 20.2056 30.3636 14.0694L30.7057 13.862L30.3636 14.0693C29.9919 13.4561 29.5462 12.8355 29.137 12.3412C28.9324 12.094 28.7405 11.8827 28.5747 11.7214C28.4012 11.5527 28.2809 11.4632 28.2183 11.4316L22.4536 15.6268ZM22.4536 15.6268C23.9405 15.1176 25.3797 13.9458 26.3738 12.4672C26.8769 11.7189 27.0677 11.5373 27.2769 11.4308C27.3397 11.3989 27.5138 11.3614 27.7458 11.3614C27.9774 11.3614 28.1532 11.3988 28.2183 11.4316L22.4536 15.6268ZM2.9048 19.7081C2.7959 20.2909 2.75849 20.9001 2.75618 21.9714C2.75282 23.5157 2.81113 24.0122 3.16098 25.3756C3.81075 27.9085 5.37524 30.391 7.3852 32.0799L7.63465 31.7831L7.38522 32.0799C7.68754 32.3339 8.21188 32.7201 8.66121 33.0333C8.88694 33.1907 9.09946 33.3337 9.261 33.4355C9.3405 33.4856 9.4145 33.53 9.47417 33.5616C9.50193 33.5763 9.53961 33.5953 9.57909 33.6097C9.59667 33.6162 9.63457 33.6293 9.68219 33.6355C9.70617 33.6386 9.74918 33.6422 9.80152 33.6339C9.85365 33.6256 9.94192 33.6009 10.0207 33.5244C10.0842 33.4628 10.1109 33.3964 10.1216 33.365C10.1337 33.3297 10.1384 33.2997 10.1406 33.2824C10.1449 33.2479 10.144 33.2194 10.1434 33.2059C10.142 33.1763 10.1381 33.149 10.1353 33.1313C10.1291 33.0929 10.1196 33.0477 10.1091 33.0024C10.0875 32.9094 10.0557 32.7891 10.0188 32.6623L9.68765 32.7587L10.0188 32.6623C9.93957 32.3902 9.9069 32.0469 9.90989 31.1449C9.9117 30.6055 9.91813 30.3146 9.94395 30.0873C9.96841 29.8719 10.011 29.7076 10.1007 29.4219L9.71903 29.3021L10.1007 29.4219C10.3196 28.7246 10.6102 28.1314 11.039 27.5089L10.7095 27.282L11.039 27.5088C11.1213 27.3894 11.4414 27.039 11.9229 26.5439C12.3906 26.0629 12.9803 25.4756 13.5701 24.9008C14.16 24.3259 14.748 23.7655 15.2124 23.3381C15.4449 23.1241 15.6441 22.9456 15.796 22.8159C15.8721 22.7509 15.9335 22.7006 15.9796 22.6652C16.0159 22.6373 16.0324 22.6268 16.0342 22.6253C16.3197 22.4946 16.6827 22.4946 16.9681 22.6253C16.97 22.6268 16.9865 22.6373 17.0227 22.6652C17.0688 22.7006 17.1302 22.7509 17.2064 22.8159C17.3583 22.9456 17.5575 23.1241 17.79 23.3381C18.2544 23.7655 18.8423 24.3259 19.4323 24.9008C20.0221 25.4756 20.6117 26.0629 21.0795 26.5439C21.561 27.039 21.8811 27.3894 21.9634 27.5088L21.9634 27.5089C22.3912 28.13 22.6825 28.7238 22.903 29.4225C22.9933 29.7089 23.036 29.8725 23.0605 30.0871C23.0864 30.3139 23.0928 30.6043 23.0947 31.145C23.0978 32.0529 23.0655 32.3876 22.985 32.6613L22.985 32.6615C22.9481 32.7873 22.9158 32.9059 22.8937 32.9965C22.8828 33.0409 22.873 33.0839 22.8664 33.1196C22.8634 33.136 22.8592 33.1606 22.857 33.1867C22.856 33.1982 22.854 33.2242 22.8561 33.2558C22.8571 33.2713 22.8598 33.301 22.8696 33.3369C22.8771 33.3645 22.9014 33.4459 22.9766 33.5195L22.9779 33.5208C23.1185 33.657 23.2886 33.6354 23.312 33.6324L23.3135 33.6322C23.3618 33.6264 23.4003 33.6133 23.4184 33.6068C23.4589 33.5922 23.4975 33.5729 23.5261 33.5579C23.5874 33.5256 23.6635 33.48 23.7451 33.4286C23.9111 33.3242 24.1291 33.1776 24.3601 33.0165C24.8197 32.6959 25.3546 32.3011 25.6565 32.0448C27.8655 30.1699 29.4595 27.4418 30.0523 24.5309L29.6603 24.451L30.0523 24.5308C30.3714 22.9639 30.3509 20.8796 30.0038 19.2204C29.745 17.9831 29.0701 16.3089 28.3593 15.1314L28.1701 14.8179L27.9129 14.3919L27.5521 14.7346L26.7654 15.4821C24.894 17.2601 22.6605 18.1961 20.2035 18.2432C19.8727 18.2495 19.6996 18.2461 19.5793 18.2298C19.4792 18.2163 19.4144 18.1939 19.3055 18.139C19.0128 17.9916 18.8083 17.7427 18.7129 17.3962L18.7129 17.3962C18.6759 17.2621 18.6701 17.208 18.6718 17.1633C18.6738 17.113 18.6867 17.0438 18.7378 16.8808C19.3864 14.8113 19.5923 13.8667 19.6895 12.4513C19.7516 11.547 19.6322 10.0801 19.4187 9.0787L19.4187 9.07867C19.0683 7.43618 18.2597 5.57144 17.2886 4.16369L17.2886 4.16367C17.1557 3.97099 17.0277 3.7938 16.9276 3.66288C16.8782 3.5982 16.8323 3.54041 16.7944 3.49656C16.7764 3.47568 16.754 3.45078 16.7305 3.42834C16.7195 3.41792 16.6994 3.39942 16.6733 3.38091C16.6603 3.3717 16.6375 3.35658 16.6073 3.34244C16.5824 3.3308 16.5196 3.3039 16.4346 3.3039C16.353 3.3039 16.2926 3.32943 16.278 3.3356L16.2774 3.33583C16.254 3.3457 16.2362 3.35582 16.2269 3.3613C16.2078 3.37261 16.1926 3.38358 16.185 3.38922C16.1682 3.40166 16.1517 3.41524 16.1386 3.42629C16.1109 3.44965 16.0756 3.48109 16.0351 3.51788C15.9531 3.59236 15.838 3.69985 15.6956 3.83452C15.4102 4.10439 15.0088 4.48951 14.53 4.95198C13.5721 5.87722 12.3012 7.11526 11.0222 8.36753C9.74323 9.61981 8.45557 10.8869 7.46415 11.8703C6.96854 12.3619 6.54635 12.7832 6.2361 13.0965C5.93736 13.3982 5.71919 13.6226 5.65554 13.7023M2.9048 19.7081L3.298 19.7815M2.9048 19.7081C2.9048 19.7081 2.9048 19.7081 2.9048 19.7081L3.298 19.7815M2.9048 19.7081C3.30858 17.5466 4.28238 15.4204 5.65554 13.7023M3.298 19.7815C3.19595 20.3277 3.15847 20.9074 3.15618 21.9723C3.15289 23.4862 3.20781 23.9487 3.54844 25.2762M3.298 19.7815L3.54844 25.2762M5.65554 13.7023L5.96801 13.952L5.65552 13.7023C5.65553 13.7023 5.65554 13.7023 5.65554 13.7023ZM3.54844 25.2762C4.17737 27.7278 5.69615 30.1381 7.64253 31.7737C8.01916 32.0901 8.7786 32.6383 9.27377 32.9669C9.29722 33.051 9.3165 33.1259 9.32975 33.1831C9.3387 33.2217 9.34345 33.246 9.34528 33.2574C9.34645 33.2648 9.34491 33.2575 9.34422 33.2425C9.34394 33.2363 9.34296 33.2136 9.34671 33.1835C9.34859 33.1684 9.35296 33.1403 9.36454 33.1064C9.36937 33.0923 9.37775 33.0702 9.39188 33.0444C9.59161 33.1736 9.72767 33.2514 9.74213 33.2374C9.7527 33.2271 9.71483 33.0581 9.65573 32.8476L3.54844 25.2762ZM23.2563 33.2336C23.2477 33.2252 23.2879 33.0564 23.3483 32.845L23.2563 33.2336ZM20.7688 30.3927L20.7688 30.3926C20.6492 29.8259 20.5242 29.422 20.1755 28.93C19.8465 28.4659 19.3192 27.9253 18.4342 27.0528C17.993 26.6179 17.5858 26.2219 17.285 25.9341C17.1348 25.7905 17.0098 25.6725 16.9197 25.5897C16.8752 25.5487 16.8365 25.5139 16.8067 25.4883C16.7924 25.4761 16.7755 25.4618 16.7587 25.4491C16.7511 25.4434 16.7364 25.4324 16.7181 25.4211C16.7093 25.4157 16.6919 25.4054 16.669 25.3951L16.668 25.3946C16.6546 25.3886 16.5904 25.3596 16.5036 25.3596C16.4086 25.3596 16.3378 25.3943 16.3241 25.401L16.3228 25.4016C16.2979 25.4136 16.2782 25.4261 16.2667 25.4336C16.2429 25.4492 16.2205 25.4664 16.2033 25.4802C16.1672 25.509 16.1236 25.5468 16.0766 25.589C15.9811 25.6746 15.8532 25.7946 15.7053 25.9362C15.4087 26.2203 15.0217 26.6012 14.6317 26.9913C14.2417 27.3815 13.8468 27.7828 13.5343 28.1081C13.3782 28.2705 13.2413 28.4154 13.1354 28.531C13.0371 28.6382 12.9462 28.7409 12.8992 28.8083L12.8992 28.8084C11.8538 30.307 11.9177 32.2788 13.0493 33.7323C14.4918 35.5851 17.1993 35.9544 19.096 34.5612C20.4336 33.5786 21.0986 31.956 20.7688 30.3927Z" fill="white" stroke="url(#paint0_linear_109_14386)" stroke-width="0.8"/>
<defs>
<linearGradient id="paint0_linear_109_14386" x1="16.5" y1="0" x2="16.5" y2="38" gradientUnits="userSpaceOnUse">
<stop stop-color="#402378"/>
<stop offset="1" stop-color="#2E195B"/>
</linearGradient>
</defs>
</svg>
