<svg width="60" height="61" viewBox="0 0 60 61" fill="none" xmlns="http://www.w3.org/2000/svg">
<path d="M34.1405 56.8596C48.4223 54.5728 58.1462 41.1414 55.8595 26.8596C53.5727 12.5778 40.1412 2.85394 25.8594 5.1407C11.5777 7.42746 1.85379 20.8589 4.14055 35.1407C6.42731 49.4225 19.8588 59.1464 34.1405 56.8596Z" fill="#FFB817"/>
<path d="M30.0029 4.80811C27.6277 4.80811 25.3776 5.12063 23.1899 5.68317C23.2524 5.68317 23.3149 5.68317 23.3774 5.68317C27.8153 6.0582 32.1281 7.62081 35.6908 10.3085C36.6909 11.0586 37.6285 11.9336 38.066 13.0587C39.0036 15.6214 37.0659 18.2466 35.1908 20.3093C33.2532 22.4344 31.3155 24.6221 29.3154 26.7472C28.0028 28.1848 26.6277 29.81 26.6277 31.6851C26.6277 33.7477 28.1903 35.4979 29.8154 36.748C31.4405 37.9981 33.3157 39.1231 34.3157 40.9358C35.6283 43.311 35.1908 46.3737 33.6907 48.6238C32.1906 50.874 29.7529 52.3741 27.2527 53.4367C25.0025 54.3743 22.6899 54.9368 20.2522 55.2493C23.2524 56.4369 26.5027 57.062 29.8779 57.062C44.3165 57.062 56.0673 45.3736 56.0673 30.8725C56.1924 16.559 44.4415 4.80811 30.0029 4.80811Z" fill="#FFA917"/>
<path d="M27.0029 13.0585C25.1903 13.8085 23.4402 14.9336 21.5025 15.4337C20.69 15.6212 19.7524 15.6837 19.1899 15.0586C18.6273 14.3711 19.0023 13.371 19.4399 12.6209C19.8774 11.8709 20.4399 11.1208 20.3149 10.2458C20.1274 8.93317 18.5648 8.55814 17.3772 8.05811C9.31413 12.4959 3.81372 21.1216 3.81372 30.9973C3.81372 40.373 8.75158 48.6236 16.2521 53.2489C16.4396 53.1864 16.6272 53.1239 16.8147 53.0614C20.0024 52.0614 23.3152 51.3113 25.9403 49.3112C27.0029 48.5611 27.878 47.561 28.378 46.3109C28.8781 45.1233 28.8156 43.6857 28.0655 42.6232C27.1904 41.3106 25.3153 40.623 25.1278 39.0604C24.9403 37.8728 25.9404 36.6852 25.8779 35.4976C25.7528 33.3725 22.8776 32.7474 21.565 31.0598C20.6275 29.8722 20.565 28.0596 21.2525 26.6845C21.8776 25.3094 23.1276 24.1843 24.4402 23.4342C25.9404 22.6217 27.628 22.1216 29.2531 21.4341C30.8782 20.7465 32.4408 19.8715 33.4409 18.4339C34.441 16.9963 34.6285 14.9336 33.5659 13.5585C32.0033 11.8084 29.1281 12.1209 27.0029 13.0585Z" fill="#FFA917"/>
<path d="M51.1297 15.4961C49.7546 15.9961 48.5045 16.6212 47.5044 17.1837C45.7543 18.1213 44.0666 19.5589 43.7541 21.559C43.6291 22.1216 43.6916 22.6841 44.0041 23.1217C44.5042 23.8092 45.5042 23.8092 46.3793 23.9342C47.8794 24.0592 49.317 24.5593 50.5671 25.3718C50.7546 25.4968 50.9421 25.6218 51.0047 25.8719C51.1297 26.2469 50.8796 26.6219 50.6296 26.8719C49.1295 28.4346 46.9419 29.3721 44.7542 29.3721C43.3791 29.3721 41.9415 29.0596 40.5664 29.4971C39.5038 29.8722 38.6287 30.6847 37.9412 31.5598C37.0661 32.7474 36.3161 34.185 36.5661 35.6851C36.8161 37.6227 38.5662 39.0603 40.3164 39.8729C41.0664 40.1854 41.8165 40.4979 42.629 40.4979C43.6916 40.4979 44.6917 40.0604 45.5668 39.5604C46.6293 38.9978 47.6919 38.3728 48.6295 37.6852C49.567 37.0602 50.5046 36.3726 51.5672 36.0601C52.8798 35.7476 54.2549 36.0601 55.5675 36.1851C55.88 34.4975 56.0675 32.8099 56.0675 31.0597C56.1925 25.1843 54.3174 19.8714 51.1297 15.4961Z" fill="#FFB817"/>
<path d="M56.1925 30.1848C53.3798 31.3724 50.3171 31.8724 47.3168 32.06C46.0668 32.1225 44.7542 32.185 43.6291 32.6225C42.4415 33.1225 41.4414 34.1851 41.4414 35.4352C41.4414 35.8102 41.5039 36.1228 41.7539 36.4353C42.379 37.3103 43.6916 37.1853 44.6916 36.7478C46.1293 36.1853 47.4419 35.2477 48.8795 34.5601C51.1296 33.4976 53.6923 33.1225 56.1925 33.1225C56.255 32.435 56.3175 31.6849 56.3175 30.9349C56.1925 30.7474 56.1925 30.4348 56.1925 30.1848Z" fill="#FFA917"/>
<path d="M47.942 22.1842C48.1295 22.9343 48.8171 23.4343 49.5671 23.6843C50.3172 23.9343 51.0672 23.9343 51.8798 23.9968C53.0674 24.1218 54.255 24.3094 55.4426 24.6219C54.755 21.9967 53.7549 19.559 52.3798 17.3088C51.3798 17.8089 50.4422 18.3714 49.5671 19.1215C48.5671 19.8715 47.6295 20.9966 47.942 22.1842Z" fill="#FFA917"/>
<g opacity="0.66">
<path opacity="0.43" d="M41.8789 16.2461C42.1914 18.1212 46.3167 16.0586 47.0043 15.1835C47.6918 14.3084 47.5043 13.1834 46.3792 12.7458C44.8166 12.1208 43.504 13.3084 42.504 14.4335C42.1914 14.746 41.9414 15.121 41.8164 15.621C41.8164 15.8086 41.8164 16.0586 41.8789 16.2461Z" fill="#FFCB24"/>
<path opacity="0.43" d="M41.7539 19.1213C41.6289 18.8713 41.2539 18.6213 40.9414 18.6838C40.8164 18.6838 40.6913 18.6838 40.5663 18.7463C40.1913 18.8713 39.8163 19.2463 39.8163 19.6839V19.7464C39.8163 19.8714 39.8163 19.9339 39.8788 20.0589V20.1214C39.8788 20.6214 40.3788 20.8714 40.8164 20.8089C41.1289 20.7464 41.4414 20.5589 41.6289 20.3089C41.6289 20.2464 41.6914 20.2464 41.6914 20.1839C41.6914 20.1839 41.6914 20.1214 41.7539 20.0589C41.7539 20.0589 41.7539 20.0589 41.7539 19.9964V19.9339C41.7539 19.8714 41.8164 19.8089 41.8164 19.8089C41.9414 19.5589 41.9414 19.3088 41.7539 19.1213Z" fill="#FFCB24"/>
<path d="M42.2538 24.9966C42.1913 23.684 41.2538 22.2464 39.7537 22.5589C37.441 22.9965 38.2535 26.8092 40.2537 26.9967C41.6913 27.1218 42.3163 26.1217 42.2538 24.9966Z" fill="#FFCB24"/>
<path d="M40.1287 16.8084C40.8788 16.8084 40.8788 15.6208 40.1287 15.6208C39.3786 15.6208 39.3786 16.8084 40.1287 16.8084Z" fill="#FFCB24"/>
<path d="M40.5662 14.4959C41.0037 14.6209 41.5663 14.3709 41.6288 13.8708V13.8083C41.8163 13.5583 42.0038 13.3083 42.1913 13.0583C42.5663 12.4957 41.9413 11.7457 41.3162 11.9332C40.6912 12.1207 40.0036 12.6832 39.9411 13.3708C39.8786 13.8708 40.0036 14.4334 40.5662 14.4959Z" fill="#FFCB24"/>
<path opacity="0.43" d="M43.0664 12.5582C43.629 12.5582 43.629 11.6831 43.0664 11.6831C42.5664 11.6831 42.5664 12.5582 43.0664 12.5582Z" fill="#FFCB24"/>
<path d="M44.5041 11.9955C45.2541 11.9955 45.2541 10.8079 44.5041 10.8079C43.754 10.8079 43.754 11.9955 44.5041 11.9955Z" fill="#FFCB24"/>
<path d="M51.6295 39.8105C51.567 39.6855 51.442 39.5605 51.2545 39.498C49.5044 38.9354 47.4417 40.0605 46.2541 41.3106C45.5041 42.1232 45.1916 43.3108 45.8166 44.2483C46.4417 45.3109 47.6918 45.4359 48.8168 45.0609C50.442 44.5609 52.6296 43.2483 52.5671 41.3106C52.5046 40.6231 52.1296 40.123 51.6295 39.8105Z" fill="#FFCB24"/>
<path d="M41.9414 42.9979C41.9414 43.6854 42.5039 44.248 43.1915 44.248C43.8165 44.248 44.4416 43.6854 44.4416 42.9979C44.4416 42.3103 43.879 41.7478 43.1915 41.7478C42.5665 41.7478 41.9414 42.3103 41.9414 42.9979Z" fill="#FFCB24"/>
<path opacity="0.43" d="M44.1916 45.6234C43.7541 45.3734 43.1916 45.2483 42.754 45.3109C41.6914 45.4359 40.0038 46.936 41.1289 47.9985C42.129 48.9361 43.7541 48.0611 44.4416 47.186C44.9417 46.4984 44.6917 45.9359 44.1916 45.6234Z" fill="#FFCB24"/>
<path d="M46.8793 46.186C45.8168 46.186 45.8168 47.8112 46.8793 47.8112C47.9419 47.7487 47.9419 46.186 46.8793 46.186Z" fill="#FFCB24"/>
<path d="M45.1292 48.8733C44.6916 48.8733 44.6916 49.5608 45.1292 49.5608C45.5667 49.5608 45.5667 48.8733 45.1292 48.8733Z" fill="#FFCB24"/>
<path d="M49.2543 45.6233C48.3793 45.6233 48.3793 46.9359 49.2543 46.9359C50.0669 46.9359 50.0669 45.6233 49.2543 45.6233Z" fill="#FFCB24"/>
</g>
<path opacity="0.39" d="M3.81372 30.9975C3.81372 37.2479 6.00138 42.9984 9.68915 47.4987C9.62665 46.6236 9.75166 45.7486 9.93918 44.8735C10.5017 42.5608 12.0643 40.5607 13.752 38.8105C14.127 38.4355 14.502 38.0605 14.627 37.5604C14.9395 36.4979 14.0645 35.4353 13.1269 34.9353C12.1893 34.4352 11.0643 34.2477 10.1267 33.7477C8.00153 32.5601 7.18897 29.4348 8.56408 27.3722C8.75159 27.0597 9.0016 26.7472 9.37663 26.6221C10.3142 26.1846 11.2518 26.8722 12.1893 27.3097C14.0645 28.1848 16.4397 27.9347 18.0648 26.6221C19.6899 25.3095 20.4399 23.0594 20.0024 20.9967C19.7524 19.9341 19.0648 18.8716 18.0023 18.6215C16.5022 18.2465 15.1271 19.5591 13.6269 19.8716C13.3144 19.9341 12.9394 19.9341 12.6269 19.8091C12.3144 19.6216 12.0643 19.3091 11.9393 18.9966C10.8142 16.8089 10.8767 14.4962 11.6893 12.4336C6.81395 17.1839 3.81372 23.7469 3.81372 30.9975Z" fill="#FFCB24"/>
<g opacity="0.64">
<path d="M17.6897 37.3728C17.0646 37.3728 16.5021 37.9353 16.5021 38.5604C16.5021 39.1854 17.0021 39.748 17.6897 39.748C18.3147 39.748 18.8773 39.1854 18.8773 38.5604C18.8147 37.8728 18.3772 37.3728 17.6897 37.3728Z" fill="#FFCB24"/>
<path opacity="0.63" d="M21.2524 34.0599C21.0649 33.3723 20.6274 32.8098 20.0023 32.4973C19.3773 32.1848 18.6272 32.0597 17.9397 32.3098C17.4397 32.4973 16.9396 32.7473 16.6896 33.2473C16.4396 33.7474 16.3771 34.3099 16.5021 34.8724C16.5646 35.06 16.6271 35.185 16.6896 35.31C16.7521 35.685 16.9396 35.9975 17.2521 36.2476L17.1896 36.185C17.3146 36.3101 17.5022 36.4351 17.6272 36.5601C17.8772 36.6851 18.0647 36.7476 18.3147 36.8101C18.2522 36.8101 18.2522 36.8101 18.1897 36.8101C18.7522 36.8726 19.2523 36.9976 19.8148 36.8101C20.8774 36.3726 21.5649 35.2475 21.2524 34.0599Z" fill="#FFCB24"/>
<path d="M15.5644 33.3724C16.2519 33.3724 16.2519 32.3098 15.5644 32.3098C14.8768 32.3098 14.8768 33.3724 15.5644 33.3724Z" fill="#FFCB24"/>
<path d="M13.1268 32.1222C14.1894 32.1222 14.1894 30.4346 13.1268 30.4346C12.0017 30.4971 12.0017 32.1222 13.1268 32.1222Z" fill="#FFCB24"/>
<path d="M13.3141 42.373C12.4391 42.373 12.4391 43.6856 13.3141 43.6856C14.1892 43.6856 14.1892 42.373 13.3141 42.373Z" fill="#FFCB24"/>
<path d="M13.6269 45.6234C13.6269 44.9983 13.1268 44.4983 12.5018 44.4983C11.9392 44.4983 11.3767 44.9983 11.3767 45.6234C11.3767 46.2484 11.8767 46.7485 12.5018 46.7485C13.0643 46.7485 13.6269 46.2484 13.6269 45.6234Z" fill="#FFCB24"/>
<path opacity="0.63" d="M13.5644 46.811C12.3768 46.811 12.3768 48.6862 13.5644 48.6862C14.752 48.6862 14.752 46.811 13.5644 46.811Z" fill="#FFCB24"/>
<path opacity="0.63" d="M18.0646 43.6854C18.0646 43.6854 18.0646 43.6854 18.1271 43.6229C18.1896 43.4354 18.1896 43.1854 18.1896 42.9979C18.1896 42.4978 17.9396 41.9978 17.4396 41.7478C17.002 41.1852 16.1895 41.3728 15.6894 41.6228C15.1894 41.9353 14.7519 42.3728 14.5643 42.9354C14.3768 43.4979 14.4393 44.1855 14.7519 44.6855C15.1894 45.3731 16.0645 45.7481 16.8145 45.4981C17.6271 45.248 17.9396 44.5605 18.0646 43.7479C18.0021 43.8104 18.0021 43.7479 18.0646 43.6854Z" fill="#FFCB24"/>
<path d="M19.3148 42.873C20.4398 42.873 20.4398 41.1229 19.3148 41.1229C18.1897 41.0604 18.1897 42.873 19.3148 42.873Z" fill="#FFCB24"/>
<path d="M19.0646 43.8734H19.0021C18.1896 44.1859 18.1896 45.311 19.0021 45.561H19.0646C19.6272 45.7485 20.1897 45.2485 20.1897 44.6859C20.2522 44.1859 19.6272 43.6234 19.0646 43.8734Z" fill="#FFCB24"/>
<path d="M18.1896 45.9358C17.6271 45.9358 17.6271 46.8734 18.1896 46.8734C18.7521 46.8734 18.7521 45.9358 18.1896 45.9358Z" fill="#FFCB24"/>
<path d="M16.252 46.9985C15.8769 46.9985 15.8769 47.5611 16.252 47.5611C16.627 47.5611 16.627 46.9985 16.252 46.9985Z" fill="#FFCB24"/>
</g>
<g opacity="0.36">
<path d="M13.6268 15.1211C12.7517 15.1211 11.9392 15.8711 12.0017 16.7462C12.0642 17.6213 12.6892 18.3713 13.6268 18.3713C14.5019 18.3713 15.3144 17.6213 15.2519 16.7462C15.1894 15.8086 14.5019 15.1211 13.6268 15.1211Z" fill="#FFCB24"/>
<path d="M12.8768 14.4333C13.1268 14.6834 13.4393 14.7459 13.7518 14.6209C14.0644 14.4958 14.2519 14.1833 14.2519 13.8708C14.1894 13.1207 13.3768 12.8082 12.8768 13.3083C12.8768 13.3083 12.8768 13.3083 12.8143 13.3708C12.5642 13.6208 12.5642 14.1833 12.8768 14.4333Z" fill="#FFCB24"/>
<path d="M15.6895 13.2458C15.2519 13.2458 15.2519 13.9334 15.6895 13.9334C16.127 13.9334 16.127 13.2458 15.6895 13.2458Z" fill="#FFCB24"/>
<path d="M17.0021 15.1833C16.0021 15.1833 16.0021 16.6835 17.0021 16.6835C17.9397 16.6835 17.9397 15.1833 17.0021 15.1833Z" fill="#FFCB24"/>
<path d="M17.3145 13.7458C16.5019 13.7458 16.5019 14.9334 17.3145 14.9334C18.0646 14.9334 18.0646 13.7458 17.3145 13.7458Z" fill="#FFCB24"/>
<path d="M17.0022 9.30811C14.752 9.30811 14.752 12.7459 17.0022 12.7459C19.1899 12.7459 19.1899 9.30811 17.0022 9.30811Z" fill="#FFCB24"/>
<path d="M14.3145 12.4959C14.6895 12.4959 14.6895 11.9333 14.3145 11.9333C13.9394 11.9333 13.9394 12.4959 14.3145 12.4959Z" fill="#FFCB24"/>
</g>
<g opacity="0.42">
<path d="M40.1913 52.2488C37.3161 54.499 33.9408 56.1241 30.4406 57.1867C44.6916 56.9366 56.1925 45.3108 56.1925 30.9972C56.1925 18.9338 48.0669 8.80809 37.0036 5.74536C37.3161 5.87037 37.5661 5.99538 37.8161 6.18289C39.1912 6.93295 40.2538 8.12054 41.0664 9.49564C41.8164 10.7457 42.2539 12.1833 42.3164 13.6834C42.379 15.9961 41.3164 18.1838 39.8788 20.0589C37.1286 23.6842 33.1908 26.0594 29.878 29.1846C28.8779 30.1222 27.8154 31.3097 27.8779 32.7474C27.8779 33.9974 28.7529 35.06 29.753 35.7476C30.7531 36.4351 31.9407 36.8102 33.0658 37.1852C35.6284 38.1853 38.0036 39.5604 40.1288 41.3105C42.0039 42.8731 43.754 45.0608 43.504 47.4984C43.254 49.4361 41.7539 50.9987 40.1913 52.2488Z" fill="#FFB817"/>
<path d="M30.3779 4.80811C30.2529 4.80811 30.1279 4.80811 30.0029 4.80811C29.5029 4.80811 29.0028 4.8081 28.5653 4.87061C29.1904 4.87061 29.8154 4.87061 30.3779 4.80811Z" fill="#FFB817"/>
</g>
<path opacity="0.35" d="M49.6295 13.6836C51.4422 17.2464 52.5047 21.3092 52.5047 25.622C52.5047 40.0605 40.8164 51.8114 26.3153 51.8114C18.5022 51.8114 11.4392 48.3737 6.68884 42.9358C11.0017 51.3739 19.8148 57.1868 30.0031 57.1868C44.4416 57.1868 56.1925 45.4984 56.1925 30.9974C56.1925 24.3719 53.6923 18.3089 49.6295 13.6836Z" fill="#FFCD5C"/>
<path opacity="0.39" d="M46.8792 10.9956C47.3168 12.8707 47.5043 14.7459 47.5043 16.746C47.5043 31.1846 35.8159 42.9355 21.3148 42.9355C14.8769 42.9355 9.00144 40.6228 4.4386 36.81C7.06379 48.4984 17.5021 57.249 30.003 57.249C44.4416 57.249 56.1924 45.5607 56.1924 31.0596C56.1924 22.934 52.5672 15.746 46.8792 10.9956Z" fill="#FFB817"/>
<path opacity="0.61" d="M49.6921 13.7463C44.8792 8.30836 37.8787 4.80811 30.0031 4.80811C26.6279 4.80811 23.3777 5.43315 20.3774 6.62074C20.3774 6.62074 20.3149 6.62074 20.3149 6.68324C20.0024 6.80825 19.7524 6.93326 19.4399 7.05827C19.4399 7.05827 19.3774 7.05827 19.3774 7.12078C18.5023 7.4958 17.6897 7.93334 16.8772 8.43337C16.8147 8.43337 16.7522 8.49588 16.7522 8.49588C16.5022 8.62089 16.3146 8.7459 16.0646 8.93341C15.9396 8.99591 15.8771 9.05842 15.7521 9.12092C15.5646 9.24593 15.3146 9.37094 15.1271 9.55845C15.0021 9.62096 14.9395 9.68347 14.8145 9.80847C14.1895 10.246 13.5644 10.746 13.0019 11.2461C12.8769 11.3711 12.7519 11.4961 12.6269 11.5586C12.5019 11.6836 12.3143 11.8086 12.1893 11.9961C12.0643 12.1211 11.9393 12.2462 11.8143 12.3712C11.6893 12.4962 11.5643 12.6212 11.3768 12.8087C11.2518 12.9337 11.1268 13.1212 10.9392 13.2462C6.56392 17.9341 3.81372 24.247 3.81372 31.1851C3.81372 38.3731 6.68894 44.8736 11.3768 49.6239C7.31398 44.9986 4.8763 38.9981 4.8763 32.3726C4.8763 25.7472 7.37648 19.6842 11.4393 15.0589C12.8769 16.8715 15.1271 17.9966 17.6272 17.9966C22.0026 17.9966 25.5653 14.4338 25.5653 10.0585C25.5653 8.93341 25.3153 7.87083 24.9403 6.93326C26.9404 6.43323 29.0031 6.18321 31.1282 6.18321C38.3788 5.99569 44.9418 8.93341 49.6921 13.7463Z" fill="#FFC747"/>
<path opacity="0.2" d="M5.31372 22.3094C7.87641 27.8098 13.4393 31.6226 19.8773 31.6226C28.753 31.6226 35.941 24.4346 35.941 15.5589C35.941 11.4336 34.3784 7.68332 31.8157 4.80811C31.1906 4.7456 30.6281 4.74561 30.003 4.74561C18.5647 4.80811 8.87648 12.1212 5.31372 22.3094Z" fill="#FFB817"/>
<path opacity="0.91" d="M30.0032 57.187C44.4672 57.187 56.1926 45.4616 56.1926 30.9975C56.1926 16.5335 44.4672 4.80811 30.0032 4.80811C15.5391 4.80811 3.81372 16.5335 3.81372 30.9975C3.81372 45.4616 15.5391 57.187 30.0032 57.187Z" fill="url(#paint0_linear_74_58655)"/>
<g opacity="0.3" filter="url(#filter0_f_74_58655)">
<path d="M21.3149 28.372C27.6322 28.372 32.7533 23.2789 32.7533 16.9962C32.7533 10.7135 27.6322 5.62036 21.3149 5.62036C14.9977 5.62036 9.87659 10.7135 9.87659 16.9962C9.87659 23.2789 14.9977 28.372 21.3149 28.372Z" fill="url(#paint1_radial_74_58655)"/>
</g>
<path opacity="0.25" d="M54.0673 20.5588C54.1298 23.6216 53.6922 26.7468 52.5672 29.8095C47.7543 43.3105 32.9407 50.3735 19.3772 45.6232C12.3767 43.123 7.1263 37.9976 4.3761 31.7472C4.62612 42.1854 11.1891 51.9362 21.6899 55.6239C35.1909 60.4368 50.067 53.3738 54.8798 39.8103C57.1925 33.2473 56.6925 26.4343 54.0673 20.5588Z" fill="url(#paint2_linear_74_58655)"/>
<path opacity="0.37" d="M40.9414 7.49561C43.0665 9.74577 44.8167 12.371 46.0668 15.3712C51.5672 28.6222 45.2542 43.8108 32.0032 49.3112C25.1902 52.1239 17.8147 51.8114 11.5642 49.0612C18.7522 56.6867 30.1281 59.4994 40.3788 55.2491C53.6298 49.7487 59.9428 34.5601 54.4424 21.3091C51.7547 14.8712 46.8168 10.0583 40.9414 7.49561Z" fill="url(#paint3_linear_74_58655)"/>
<g clip-path="url(#clip0_74_58655)">
<path d="M39.8959 36.4599L39.9369 36.4326L39.9493 36.4203C40.587 36.0219 41.4413 36.2024 41.8703 36.8482C42.293 37.4919 42.1234 38.3659 41.4695 38.7987L41.4614 38.8039C41.217 38.9608 39.2672 40.2125 36.4037 41.2895C33.4855 42.3871 29.657 43.2884 25.7354 42.6983L25.7353 42.6983C23.707 42.3936 21.6383 41.6741 19.6654 40.3862L19.6115 40.351L19.5504 40.3306C16.8623 39.4331 15.1326 36.7291 15.5684 33.8594L15.5684 33.8592C16.0577 30.6302 19.0871 28.4001 22.3302 28.8882C25.5732 29.3764 27.8076 32.3971 27.3185 35.6254L27.3182 35.6273C27.1209 36.9642 26.4631 38.1107 25.5572 38.9871L24.85 39.6712L25.8196 39.8391C29.3299 40.4469 32.8343 39.6039 35.4446 38.6242C38.0605 37.6423 39.8304 36.5034 39.8959 36.4599ZM18.3669 34.2954C18.1097 35.9875 19.2914 37.5695 20.9815 37.8248C22.675 38.0805 24.2634 36.9057 24.5199 35.2178C24.7772 33.5257 23.5955 31.9437 21.9054 31.6885C20.2119 31.4328 18.6235 32.6075 18.3669 34.2954Z" fill="white" stroke="white"/>
<path d="M33.8413 23.4627L34.5482 22.7789L33.5792 22.6107C30.0758 22.0028 26.5713 22.8459 23.9595 23.8255C21.7196 24.6657 20.0978 25.6208 19.6352 25.9063H19.613L19.4868 25.9909C18.8455 26.4205 17.9659 26.2458 17.5283 25.5874C17.1055 24.9437 17.2751 24.0697 17.929 23.6368C17.9315 23.6352 17.9342 23.6335 17.9371 23.6316C18.1816 23.4746 20.1313 22.2229 22.9949 21.1459C25.9131 20.0484 29.7416 19.147 33.6631 19.7372L33.6633 19.7372C35.6906 20.0417 37.7457 20.761 39.7345 22.0502L39.7866 22.0839L39.8454 22.1039C42.5234 23.0157 44.2657 25.7224 43.8302 28.5904L43.8301 28.5905C43.3409 31.8195 40.3115 34.0497 37.0684 33.5616C33.8254 33.0734 31.5909 30.0526 32.0801 26.8243L32.0804 26.8224C32.2776 25.4855 32.9355 24.339 33.8413 23.4627ZM41.0173 28.1686C41.2653 26.5367 40.187 25.0007 38.5844 24.6692L38.5645 24.6495L38.4027 24.625C36.7092 24.3693 35.1208 25.544 34.8643 27.232C34.607 28.9241 35.7887 30.5061 37.4788 30.7613C39.1683 31.0164 40.7601 29.8606 41.0173 28.1686Z" fill="white" stroke="white"/>
</g>
<defs>
<filter id="filter0_f_74_58655" x="5.17659" y="0.920362" width="32.2767" height="32.1517" filterUnits="userSpaceOnUse" color-interpolation-filters="sRGB">
<feFlood flood-opacity="0" result="BackgroundImageFix"/>
<feBlend mode="normal" in="SourceGraphic" in2="BackgroundImageFix" result="shape"/>
<feGaussianBlur stdDeviation="2.35" result="effect1_foregroundBlur_74_58655"/>
</filter>
<linearGradient id="paint0_linear_74_58655" x1="11.5033" y1="12.487" x2="48.5198" y2="49.5035" gradientUnits="userSpaceOnUse">
<stop stop-color="white"/>
<stop offset="1" stop-color="#DD3D02"/>
</linearGradient>
<radialGradient id="paint1_radial_74_58655" cx="0" cy="0" r="1" gradientUnits="userSpaceOnUse" gradientTransform="translate(21.329 16.9859) scale(11.4173 11.4058)">
<stop stop-color="#ECECEC"/>
<stop offset="0.4693" stop-color="#F1F1F1"/>
<stop offset="1" stop-color="white"/>
</radialGradient>
<linearGradient id="paint2_linear_74_58655" x1="27.9058" y1="20.9492" x2="36.4364" y2="56.5319" gradientUnits="userSpaceOnUse">
<stop offset="0.2422" stop-color="white"/>
<stop offset="0.3795" stop-color="#FFFFFC"/>
<stop offset="0.4828" stop-color="#FFFEF2"/>
<stop offset="0.5749" stop-color="#FFFDE2"/>
<stop offset="0.6607" stop-color="#FFFBCB"/>
<stop offset="0.7419" stop-color="#FFF8AE"/>
<stop offset="0.8198" stop-color="#FFF589"/>
<stop offset="0.8949" stop-color="#FFF25E"/>
<stop offset="0.9662" stop-color="#FFEE2E"/>
<stop offset="1" stop-color="#FFEC14"/>
</linearGradient>
<linearGradient id="paint3_linear_74_58655" x1="21.7533" y1="25.2412" x2="51.9166" y2="46.005" gradientUnits="userSpaceOnUse">
<stop offset="0.2422" stop-color="white"/>
<stop offset="0.4698" stop-color="#FFFFFD"/>
<stop offset="0.5763" stop-color="#FFFEF5"/>
<stop offset="0.6576" stop-color="#FFFDE9"/>
<stop offset="0.7261" stop-color="#FFFCD6"/>
<stop offset="0.7866" stop-color="#FFFABE"/>
<stop offset="0.8414" stop-color="#FFF7A1"/>
<stop offset="0.8919" stop-color="#FFF57E"/>
<stop offset="0.9391" stop-color="#FFF156"/>
<stop offset="0.982" stop-color="#FFEE29"/>
<stop offset="1" stop-color="#FFEC14"/>
</linearGradient>
<clipPath id="clip0_74_58655">
<rect width="37" height="41" fill="white" transform="translate(11 11)"/>
</clipPath>
</defs>
</svg>
