<svg width="326" height="326" viewBox="0 0 326 326" fill="none" xmlns="http://www.w3.org/2000/svg">
<rect x="0.5" y="25.5" width="25" height="25" fill="white" stroke="#DFDFDF"/>
<path d="M13.0068 4.2627C13.8916 4.2627 14.7295 4.42383 15.5205 4.74609C16.3115 5.0625 17.0117 5.49609 17.6211 6.04688C18.3066 6.67969 18.8516 7.43848 19.2559 8.32324C19.666 9.20215 19.8711 10.1367 19.8711 11.127C19.8711 12.1348 19.666 13.0752 19.2559 13.9482C18.8516 14.8213 18.3066 15.5742 17.6211 16.207C17.0059 16.7578 16.3027 17.1943 15.5117 17.5166C14.7207 17.8389 13.8857 18 13.0068 18C12.0576 18 11.167 17.8213 10.335 17.4639C9.50293 17.1064 8.77344 16.6172 8.14648 15.9961C7.52539 15.3691 7.03613 14.6396 6.67871 13.8076C6.50879 13.4033 6.37695 12.9727 6.2832 12.5156C6.18945 12.0586 6.14258 11.5957 6.14258 11.127C6.14258 10.1836 6.30078 9.32227 6.61719 8.54297C6.91602 7.81641 7.35254 7.13965 7.92676 6.5127C8.55371 5.82715 9.30664 5.28223 10.1855 4.87793C11.0703 4.46777 12.0107 4.2627 13.0068 4.2627ZM13.0068 5.77441C11.5303 5.77441 10.2676 6.29883 9.21875 7.34766C8.17578 8.39062 7.6543 9.65039 7.6543 11.127C7.6543 12.6035 8.17871 13.8662 9.22754 14.915C10.2764 15.958 11.5361 16.4795 13.0068 16.4795C14.4834 16.4795 15.7432 15.958 16.7861 14.915C17.835 13.8662 18.3594 12.6035 18.3594 11.127C18.3594 10.3008 18.1807 9.52734 17.8232 8.80664C17.4658 8.08594 16.9941 7.48242 16.4082 6.99609C15.418 6.18164 14.2842 5.77441 13.0068 5.77441ZM13.0068 9.60645C13.4229 9.60645 13.7803 9.75586 14.0791 10.0547C14.3779 10.3535 14.5273 10.7109 14.5273 11.127C14.5273 11.5078 14.3955 11.8477 14.1318 12.1465C13.8213 12.4805 13.4463 12.6475 13.0068 12.6475C12.5732 12.6475 12.21 12.498 11.917 12.1992C11.6299 11.9004 11.4863 11.543 11.4863 11.127C11.4863 10.7109 11.6299 10.3535 11.917 10.0547C12.21 9.75586 12.5732 9.60645 13.0068 9.60645Z" fill="black"/>
<path d="M36.8906 29.2539C37.6934 29.2539 38.4463 29.4062 39.1494 29.7109C39.8525 30.0156 40.4971 30.4609 41.083 31.0469C41.6982 31.6738 42.1934 32.4355 42.5684 33.332C42.9434 34.2227 43.1309 35.1543 43.1309 36.127C43.1309 37.1113 42.9668 38.0137 42.6387 38.834C42.3105 39.6543 41.8623 40.375 41.2939 40.9961C40.7314 41.6172 40.0664 42.1064 39.2988 42.4639C38.5371 42.8213 37.7344 43 36.8906 43C35.9648 43 35.0654 42.7627 34.1924 42.2881C33.8467 42.1006 33.4102 41.8076 32.8828 41.4092C33.0586 41.4268 33.2314 41.4355 33.4014 41.4355C33.6709 41.4355 33.9346 41.4092 34.1924 41.3564C35.3291 41.0928 36.2373 40.4277 36.917 39.3613C37.5381 38.3945 37.8486 37.3164 37.8486 36.127C37.8486 34.832 37.4854 33.6807 36.7588 32.6729C36.249 31.9463 35.6016 31.4189 34.8164 31.0908C34.3594 30.9092 33.8848 30.8184 33.3926 30.8184C33.3105 30.8184 33.2402 30.8184 33.1816 30.8184C33.1289 30.8184 33.0322 30.8301 32.8916 30.8535C33.3369 30.4551 33.7793 30.1445 34.2188 29.9219C34.6582 29.6992 35.0977 29.5322 35.5371 29.4209C35.9766 29.3096 36.4277 29.2539 36.8906 29.2539ZM35.3965 30.4844C35.9648 30.6367 36.5215 30.9414 37.0664 31.3984C37.4824 31.7676 37.8428 32.1777 38.1475 32.6289C38.8623 33.6895 39.2197 34.8555 39.2197 36.127C39.2197 37.3398 38.8975 38.4736 38.2529 39.5283C37.9072 40.0967 37.5352 40.5537 37.1367 40.8994C36.627 41.3506 36.0586 41.6494 35.4316 41.7959C35.6133 41.8545 35.8242 41.8955 36.0645 41.9189C36.3105 41.9365 36.5889 41.9453 36.8994 41.9453C37.4795 41.8926 38.0215 41.7373 38.5254 41.4795C39.4512 41.0107 40.2041 40.2725 40.7842 39.2646C41.3291 38.2979 41.6016 37.252 41.6016 36.127C41.6016 34.9375 41.2734 33.8535 40.6172 32.875C39.9902 31.9434 39.1787 31.249 38.1826 30.792C37.749 30.6104 37.2949 30.4844 36.8203 30.4141C36.7441 30.4023 36.6504 30.3936 36.5391 30.3877C36.4277 30.3818 36.3281 30.3789 36.2402 30.3789C35.9355 30.3789 35.6543 30.4141 35.3965 30.4844Z" fill="black"/>
<path d="M59.9658 65.6885H62.2773V63.667C61.375 63.4912 60.6367 63.0547 60.0625 62.3574C59.7637 62 59.5439 61.6426 59.4033 61.2852C59.2451 60.8809 59.166 60.4238 59.166 59.9141C59.166 58.7773 59.5996 57.8223 60.4668 57.0488C60.0625 56.709 59.752 56.2988 59.5352 55.8184C59.2891 55.3086 59.166 54.79 59.166 54.2627H60.6162C60.6162 54.6611 60.707 55.0332 60.8887 55.3789C61.0586 55.7715 61.3164 56.0879 61.6621 56.3281C62.084 56.1699 62.5352 56.0908 63.0156 56.0908C63.4902 56.0908 63.9385 56.1699 64.3604 56.3281C64.6709 56.1055 64.9287 55.7891 65.1338 55.3789C65.2217 55.2031 65.2861 55.0273 65.3271 54.8516C65.374 54.6699 65.3975 54.4736 65.3975 54.2627H66.8477C66.8477 54.79 66.7305 55.2998 66.4961 55.792C66.2617 56.2783 65.9482 56.6973 65.5557 57.0488C66.417 57.8164 66.8477 58.7715 66.8477 59.9141C66.8477 60.9512 66.4785 61.8447 65.7402 62.5947C65.1895 63.1514 64.5244 63.5088 63.7451 63.667V65.6885H66.0479V66.9629H63.7451V68.9053H62.2773V66.9629H59.9658V65.6885ZM63.0068 57.5234C62.3213 57.5234 61.7412 57.7725 61.2666 58.2705C60.8213 58.7451 60.5986 59.2959 60.5986 59.9229C60.5986 60.5322 60.8096 61.0713 61.2314 61.54C61.7002 62.0615 62.292 62.3223 63.0068 62.3223C63.7158 62.3223 64.3047 62.0615 64.7734 61.54C65.1895 61.0889 65.3975 60.5498 65.3975 59.9229C65.3975 59.29 65.1895 58.7539 64.7734 58.3145C64.2988 57.7871 63.71 57.5234 63.0068 57.5234Z" fill="black"/>
<path d="M88.0068 80.6865C87.1455 80.6865 86.4248 81.0059 85.8447 81.6445C85.335 82.207 85.0801 82.8633 85.0801 83.6133C85.0801 84.3574 85.335 85.0107 85.8447 85.5732C86.4248 86.2178 87.1455 86.54 88.0068 86.54C88.8037 86.54 89.4893 86.2529 90.0635 85.6787C90.6377 85.0986 90.9248 84.4102 90.9248 83.6133C90.9248 82.8047 90.6377 82.1162 90.0635 81.5479C89.4951 80.9736 88.8096 80.6865 88.0068 80.6865ZM85.0273 89.5986H87.2861V87.9199C86.2549 87.7441 85.3877 87.249 84.6846 86.4346C83.9873 85.6143 83.6387 84.6738 83.6387 83.6133C83.6387 82.418 84.0664 81.3926 84.9219 80.5371C85.7773 79.6816 86.8057 79.2539 88.0068 79.2539C89.208 79.2539 90.2334 79.6816 91.083 80.5371C91.9385 81.3867 92.3662 82.4121 92.3662 83.6133C92.3662 84.6914 92.0176 85.6348 91.3203 86.4434C90.623 87.2461 89.7588 87.7354 88.7275 87.9111V89.5986H90.9775V90.8467H88.7275V93H87.2861V90.8467H85.0273V89.5986Z" fill="black"/>
<path d="M114.905 113.614C114.905 114.821 114.475 115.855 113.613 116.717C112.752 117.572 111.721 118 110.52 118C109.143 118 108.018 117.467 107.145 116.4C106.477 115.592 106.143 114.663 106.143 113.614C106.143 112.46 106.547 111.455 107.355 110.6C108.217 109.691 109.271 109.237 110.52 109.237C111.416 109.237 112.269 109.507 113.077 110.046L116.048 107.075C115.708 106.812 115.345 106.604 114.958 106.451C114.577 106.293 114.17 106.188 113.736 106.135L119.862 104.236L118.008 110.406C117.961 109.949 117.841 109.504 117.647 109.07C117.501 108.736 117.308 108.411 117.067 108.095L114.097 111.065C114.636 111.897 114.905 112.747 114.905 113.614ZM113.464 113.614C113.464 112.823 113.174 112.138 112.594 111.558C112.014 110.972 111.322 110.679 110.52 110.679C109.717 110.679 109.025 110.969 108.445 111.549C107.871 112.129 107.584 112.817 107.584 113.614C107.584 114.37 107.839 115.029 108.349 115.592C108.923 116.236 109.646 116.559 110.52 116.559C111.328 116.559 112.02 116.269 112.594 115.688C113.174 115.108 113.464 114.417 113.464 113.614Z" fill="black"/>
<path d="M135.704 137.955H138.956V135.714L140.433 134.229V137.955H143.605V139.203H140.433V143H138.956V139.203H132.399C132.517 139.098 132.719 138.913 133.006 138.649C133.416 138.274 133.724 137.973 133.929 137.744C134.403 137.223 134.79 136.651 135.089 136.03C135.587 134.999 135.836 133.997 135.836 133.024C135.836 132.644 135.783 132.257 135.678 131.864C135.578 131.472 135.391 131.123 135.115 130.818C134.898 130.584 134.623 130.388 134.289 130.229C133.955 130.089 133.624 130.019 133.296 130.019C133.132 130.019 132.985 130.03 132.856 130.054C132.728 130.077 132.575 130.124 132.399 130.194C132.54 130.054 132.763 129.91 133.067 129.764C133.231 129.688 133.375 129.626 133.498 129.579C133.621 129.526 133.735 129.482 133.841 129.447C134.028 129.389 134.216 129.342 134.403 129.307C134.591 129.271 134.761 129.254 134.913 129.254C135.212 129.254 135.499 129.31 135.774 129.421C136.103 129.567 136.378 129.761 136.601 130.001C136.87 130.282 137.078 130.619 137.225 131.012C137.412 131.504 137.506 132.069 137.506 132.708C137.506 133.206 137.447 133.722 137.33 134.255C137.248 134.63 137.143 135.005 137.014 135.38C136.885 135.755 136.721 136.145 136.521 136.549C136.281 137.029 136.009 137.498 135.704 137.955Z" fill="black"/>
<path d="M169.291 169.995C169.016 170.517 168.603 170.944 168.052 171.278C167.835 171.401 167.618 171.495 167.401 171.56C167.19 171.624 166.974 171.656 166.751 171.656C166.188 171.656 165.682 171.451 165.23 171.041C164.879 170.725 164.647 170.358 164.536 169.942C164.46 169.69 164.425 169.412 164.431 169.107C164.431 169.002 164.431 168.929 164.431 168.888C164.437 168.853 164.442 168.809 164.448 168.756C164.489 168.357 164.56 167.962 164.659 167.569L164.976 166.269C165.093 165.812 165.151 165.363 165.151 164.924C165.151 164.602 165.104 164.238 165.011 163.834C164.917 163.424 164.768 163.052 164.562 162.718C164.357 162.384 164.091 162.097 163.763 161.856C163.435 161.616 163.03 161.496 162.55 161.496C161.39 161.496 160.64 161.889 160.3 162.674V168H158.946V157.893H156.714V156.636H158.946V154.254H160.3V156.636H162.532V157.893H160.3V160.846C160.874 160.377 161.592 160.143 162.453 160.143C163.209 160.143 163.842 160.301 164.352 160.617C164.861 160.928 165.269 161.303 165.573 161.742C165.907 162.24 166.147 162.782 166.294 163.368C166.44 163.948 166.514 164.443 166.514 164.854C166.514 165.41 166.432 165.961 166.268 166.506C166.109 167.045 165.986 167.584 165.898 168.123C165.846 168.439 165.819 168.724 165.819 168.976C165.819 169.175 165.837 169.359 165.872 169.529C166.007 170.145 166.358 170.452 166.927 170.452C167.442 170.452 167.932 170.133 168.395 169.494C168.857 168.855 169.156 168.349 169.291 167.974V169.995Z" fill="black"/>
<path d="M185.247 182.049H187.286V180.361H188.728V182.049H190.767C190.767 181.791 190.781 181.548 190.811 181.319C190.84 181.085 190.907 180.739 191.013 180.282C191.118 179.825 191.282 179.333 191.505 178.806H193.192C193.028 179.146 192.891 179.462 192.779 179.755C192.668 180.042 192.574 180.347 192.498 180.669C192.422 180.991 192.366 181.325 192.331 181.671C192.296 182.011 192.278 182.356 192.278 182.708C192.278 183.394 192.352 184.062 192.498 184.712C192.65 185.362 192.882 185.992 193.192 186.602H191.496C191.379 186.314 191.282 186.062 191.206 185.846C191.13 185.623 191.06 185.365 190.995 185.072C190.931 184.779 190.875 184.489 190.828 184.202C190.787 183.909 190.767 183.628 190.767 183.358H188.728V186.962C189.401 187.108 189.987 187.428 190.485 187.92C191.171 188.605 191.514 189.432 191.514 190.398C191.514 191.336 191.191 192.145 190.547 192.824C189.838 193.545 188.991 193.905 188.007 193.905C186.952 193.905 186.067 193.504 185.353 192.701C184.784 192.045 184.5 191.277 184.5 190.398C184.5 189.432 184.843 188.605 185.528 187.92C186.009 187.439 186.595 187.12 187.286 186.962V183.358H185.247C185.247 183.634 185.224 183.912 185.177 184.193C185.13 184.475 185.065 184.779 184.983 185.107C184.907 185.43 184.837 185.69 184.772 185.89C184.714 186.089 184.629 186.326 184.518 186.602H182.821C182.956 186.326 183.079 186.033 183.19 185.723C183.308 185.406 183.404 185.09 183.48 184.773C183.65 184.111 183.735 183.423 183.735 182.708C183.735 182.292 183.721 181.935 183.691 181.636C183.662 181.331 183.601 180.997 183.507 180.634C183.36 180.03 183.132 179.421 182.821 178.806H184.509C184.597 179.022 184.685 179.263 184.772 179.526C184.86 179.79 184.931 180.036 184.983 180.265C185.071 180.628 185.136 180.947 185.177 181.223C185.224 181.492 185.247 181.768 185.247 182.049ZM188.007 188.333C187.433 188.333 186.943 188.535 186.539 188.939C186.141 189.344 185.941 189.83 185.941 190.398C185.941 190.92 186.108 191.371 186.442 191.752C186.853 192.232 187.374 192.473 188.007 192.473C188.581 192.473 189.079 192.259 189.501 191.831C189.882 191.433 190.072 190.955 190.072 190.398C190.072 189.842 189.87 189.358 189.466 188.948C189.067 188.538 188.581 188.333 188.007 188.333Z" fill="black"/>
<path d="M207.936 203.981L209.772 207.453C209.644 207.301 209.488 207.154 209.307 207.014C209.125 206.891 208.914 206.785 208.674 206.697V207.937C208.674 208.78 208.891 209.51 209.324 210.125C209.816 210.84 210.426 211.197 211.152 211.197H212.321V206.68C212.075 206.75 211.853 206.853 211.653 206.987C211.46 207.116 211.296 207.271 211.161 207.453L212.998 203.981L214.826 207.453C214.709 207.307 214.557 207.16 214.369 207.014C214.193 206.891 213.988 206.788 213.754 206.706V211.197H214.853C215.526 211.197 216.106 210.881 216.593 210.248C217.079 209.609 217.322 208.839 217.322 207.937V206.697C217.1 206.773 216.903 206.867 216.733 206.979C216.528 207.113 216.358 207.271 216.224 207.453L218.061 203.981L219.897 207.453C219.769 207.301 219.613 207.154 219.432 207.014C219.256 206.891 219.051 206.788 218.816 206.706V207.875C218.816 209.158 218.45 210.266 217.718 211.197C216.927 212.193 215.966 212.691 214.835 212.691H213.754V214.687H215.898V215.908H213.754V218H212.321V215.908H210.098V214.687H212.321V212.691H211.161C210.071 212.691 209.137 212.223 208.357 211.285C207.578 210.342 207.188 209.205 207.188 207.875V206.697C206.966 206.773 206.772 206.867 206.608 206.979C206.397 207.119 206.23 207.277 206.107 207.453L207.936 203.981Z" fill="black"/>
<path d="M235.036 240.293H237.286V238.043C235.763 237.885 234.43 237.267 233.287 236.188C232.643 235.591 232.136 234.926 231.767 234.193C231.356 233.379 231.151 232.55 231.151 231.706L232.61 230.766L232.593 231.223C232.593 231.967 232.728 232.655 232.997 233.288C233.272 233.921 233.683 234.51 234.228 235.055C234.755 235.582 235.332 235.98 235.959 236.25C236.586 236.514 237.274 236.646 238.024 236.646C238.722 236.646 239.384 236.52 240.011 236.268C240.644 236.016 241.224 235.649 241.751 235.169C242.302 234.671 242.721 234.088 243.008 233.42C243.301 232.752 243.447 232.02 243.447 231.223L243.43 230.766L244.854 231.68C244.848 232.635 244.654 233.458 244.273 234.149C243.916 234.882 243.403 235.562 242.735 236.188C241.604 237.255 240.269 237.873 238.728 238.043V240.293H240.986V241.541H238.728V243.905H237.286V241.541H235.036V240.293ZM238.016 228.34C238.807 228.34 239.486 228.624 240.055 229.192C240.629 229.761 240.916 230.446 240.916 231.249C240.916 232.028 240.649 232.696 240.116 233.253C239.53 233.856 238.83 234.158 238.016 234.158C237.207 234.158 236.519 233.874 235.95 233.306C235.382 232.731 235.098 232.046 235.098 231.249C235.098 230.47 235.367 229.802 235.906 229.245C236.48 228.642 237.184 228.34 238.016 228.34ZM238.016 229.597C237.541 229.597 237.146 229.764 236.829 230.098C236.519 230.432 236.363 230.815 236.363 231.249C236.363 231.706 236.524 232.096 236.847 232.418C237.169 232.74 237.559 232.901 238.016 232.901C238.484 232.901 238.88 232.729 239.202 232.383C239.507 232.066 239.659 231.688 239.659 231.249C239.659 230.798 239.495 230.411 239.167 230.089C238.845 229.761 238.461 229.597 238.016 229.597Z" fill="black"/>
<path d="M260.95 262.735H262.286V253.34H263.728V256.284L266.672 253.34L267.683 254.359L265.046 256.996L267.691 259.642L266.672 260.661L263.728 257.717V262.735H265.055C265.805 262.735 266.452 263.087 266.997 263.79C267.454 264.388 267.683 265.062 267.683 265.812C267.683 266.585 267.478 267.265 267.067 267.851C266.575 268.554 265.904 268.905 265.055 268.905H260.95C260.071 268.905 259.377 268.516 258.867 267.736C258.504 267.168 258.322 266.526 258.322 265.812C258.322 265.179 258.498 264.581 258.85 264.019C259.377 263.163 260.077 262.735 260.95 262.735ZM261.231 264.177C260.833 264.177 260.487 264.309 260.194 264.572C259.907 264.836 259.764 265.146 259.764 265.504V266.146C259.764 266.503 259.907 266.813 260.194 267.077C260.487 267.341 260.833 267.473 261.231 267.473H264.773C265.184 267.473 265.529 267.341 265.811 267.077C266.098 266.813 266.241 266.503 266.241 266.146V265.504C266.241 265.158 266.098 264.845 265.811 264.563C265.523 264.306 265.178 264.177 264.773 264.177H261.231Z" fill="black"/>
<path d="M290.688 292.024H288.701V293.905H287.295V292.024H285.309V290.768H287.295V286.188L284.667 288.808L283.779 287.92L286.478 285.222H282.663V283.956H286.478L283.779 281.258L284.667 280.37L287.365 283.068V279.254H288.631V283.068L291.329 280.37L292.217 281.258L289.519 283.956H293.342V285.222H289.519L292.217 287.92L291.329 288.808L288.701 286.188V290.768H290.688V292.024Z" fill="black"/>
<path d="M315.96 311.698H313.728V318H312.251V311.698H310.019V310.459H312.251V307.734H313.728V310.459H315.96V311.698ZM311.003 304.254H314.976C315.884 304.254 316.648 304.43 317.27 304.781C317.891 305.127 318.392 305.581 318.772 306.144C319.159 306.7 319.438 307.321 319.607 308.007C319.777 308.687 319.862 309.472 319.862 310.362H318.324C318.324 309.706 318.266 309.117 318.148 308.596C318.084 308.303 318.008 308.042 317.92 307.813C317.832 307.579 317.715 307.356 317.568 307.146C316.953 306.237 315.966 305.783 314.606 305.783H311.381C309.963 305.783 308.946 306.331 308.331 307.427C308.103 307.843 307.941 308.291 307.848 308.771C307.754 309.246 307.707 309.776 307.707 310.362H306.143C306.143 309.542 306.225 308.801 306.389 308.139C306.471 307.805 306.579 307.485 306.714 307.181C306.849 306.87 307.004 306.577 307.18 306.302C307.578 305.692 308.097 305.2 308.735 304.825C309.38 304.444 310.136 304.254 311.003 304.254Z" fill="black"/>
<rect x="0.5" y="50.5" width="25" height="25" fill="white" stroke="#DFDFDF"/>
<rect x="25.5" y="50.5" width="25" height="25" fill="white" stroke="#DFDFDF"/>
<rect x="0.5" y="75.5" width="25" height="25" fill="white" stroke="#DFDFDF"/>
<rect x="0.5" y="100.5" width="25" height="25" fill="white" stroke="#DFDFDF"/>
<rect x="0.5" y="125.5" width="25" height="25" fill="white" stroke="#DFDFDF"/>
<path d="M8.19922 132.959H18.1309V142.891H8.19922V132.959ZM9.53516 134.26V141.546H16.8213V134.26H9.53516Z" fill="#D404FA"/>
<rect x="0.5" y="150.5" width="25" height="25" fill="white" stroke="#DFDFDF"/>
<path d="M17.2432 166.458L13.7715 164.454V168.462H12.2422V164.454L8.77051 166.458L8.00586 165.131L11.4775 163.127L8.00586 161.123L8.77051 159.805L12.2422 161.809V157.801H13.7715V161.809L17.2432 159.805L18.0078 161.123L14.5361 163.127L18.0078 165.131L17.2432 166.458Z" fill="#356715"/>
<rect x="0.5" y="175.5" width="25" height="25" fill="white" stroke="#DFDFDF"/>
<rect x="0.5" y="200.5" width="25" height="25" fill="white" stroke="#DFDFDF"/>
<path d="M7.08301 211.859V210.33H18.9219V211.859H14.3252L18.7725 216.922L17.6211 217.933L13.0068 212.659L8.375 217.933L7.23242 216.922L11.6709 211.859H7.08301Z" fill="#73E02C"/>
<rect x="0.5" y="225.5" width="25" height="25" fill="white" stroke="#DFDFDF"/>
<path d="M7.08301 236.859V235.33H18.9219V236.859H14.3252L18.7725 241.922L17.6211 242.933L13.0068 237.659L8.375 242.933L7.23242 241.922L11.6709 236.859H7.08301Z" fill="#73E02C"/>
<rect x="0.5" y="250.5" width="25" height="25" fill="white" stroke="#DFDFDF"/>
<rect x="0.5" y="275.5" width="25" height="25" fill="white" stroke="#DFDFDF"/>
<rect x="0.5" y="300.5" width="25" height="25" fill="white" stroke="#DFDFDF"/>
<path d="M17.2432 316.458L13.7715 314.454V318.462H12.2422V314.454L8.77051 316.458L8.00586 315.131L11.4775 313.127L8.00586 311.123L8.77051 309.805L12.2422 311.809V307.801H13.7715V311.809L17.2432 309.805L18.0078 311.123L14.5361 313.127L18.0078 315.131L17.2432 316.458Z" fill="#356715"/>
<rect x="25.5" y="75.5" width="25" height="25" fill="white" stroke="#DFDFDF"/>
<path d="M37.8047 88.3291C37.4941 88.0303 37.1133 87.8809 36.6621 87.8809C36.6152 87.8809 36.5742 87.8838 36.5391 87.8896C36.5039 87.8896 36.4629 87.8926 36.416 87.8984C35.9238 87.9688 35.4902 88.1914 35.1152 88.5664C34.7402 88.9414 34.5176 89.375 34.4473 89.8672C34.4414 89.9141 34.4355 89.9668 34.4297 90.0254C34.4297 90.0781 34.4297 90.1162 34.4297 90.1396C34.4297 90.5732 34.5762 90.9424 34.8691 91.2471C35.168 91.5518 35.5371 91.7041 35.9766 91.7041H36.082C36.123 91.7041 36.1846 91.6982 36.2666 91.6865C36.7529 91.6279 37.1865 91.4053 37.5674 91.0186C37.9541 90.626 38.1797 90.1631 38.2441 89.6299C38.25 89.5889 38.2529 89.5244 38.2529 89.4365C38.2529 89.0088 38.1035 88.6396 37.8047 88.3291ZM42.9111 84.3037L39.1055 88.1094C39.4219 88.6309 39.5801 89.1934 39.5801 89.7969C39.5801 90.6875 39.2637 91.4492 38.6309 92.082C37.998 92.7148 37.2363 93.0312 36.3457 93.0312C35.4492 93.0312 34.6846 92.7207 34.0518 92.0996C33.4189 91.4727 33.1025 90.7051 33.1025 89.7969C33.1025 88.9004 33.4189 88.1357 34.0518 87.5029C34.6846 86.8701 35.4492 86.5537 36.3457 86.5537C36.9434 86.5537 37.5059 86.7119 38.0332 87.0283L41.8301 83.2227L42.9111 84.3037Z" fill="#0E0FFA"/>
<rect x="25.5" y="100.5" width="25" height="25" fill="white" stroke="#DFDFDF"/>
<rect x="25.5" y="125.5" width="25" height="25" fill="white" stroke="#DFDFDF"/>
<path d="M42.2432 141.458L38.7715 139.454V143.462H37.2422V139.454L33.7705 141.458L33.0059 140.131L36.4775 138.127L33.0059 136.123L33.7705 134.805L37.2422 136.809V132.801H38.7715V136.809L42.2432 134.805L43.0078 136.123L39.5361 138.127L43.0078 140.131L42.2432 141.458Z" fill="#356715"/>
<rect x="25.5" y="150.5" width="25" height="25" fill="white" stroke="#DFDFDF"/>
<rect x="25.5" y="175.5" width="25" height="25" fill="white" stroke="#DFDFDF"/>
<rect x="25.5" y="200.5" width="25" height="25" fill="white" stroke="#DFDFDF"/>
<path d="M37.998 210.306L33.7529 217.557H42.2344L37.998 210.306ZM38.0068 207.203L44.8623 219.051H31.1514L38.0068 207.203Z" fill="#73E02C"/>
<rect x="25.5" y="225.5" width="25" height="25" fill="white" stroke="#DFDFDF"/>
<path d="M43.1045 234.029C42.7998 233.736 42.4189 233.59 41.9619 233.59C41.9502 233.59 41.915 233.593 41.8564 233.599C41.8037 233.599 41.7568 233.602 41.7158 233.607C41.2295 233.678 40.7959 233.897 40.415 234.267C39.958 234.712 39.7295 235.225 39.7295 235.805C39.7295 236.273 39.873 236.657 40.1602 236.956C40.4531 237.255 40.834 237.404 41.3027 237.404H41.4434C41.4785 237.398 41.5049 237.396 41.5225 237.396C42.0264 237.343 42.4746 237.12 42.8672 236.728C43.2363 236.358 43.459 235.922 43.5352 235.418C43.541 235.359 43.5439 235.307 43.5439 235.26C43.5498 235.213 43.5527 235.175 43.5527 235.146C43.5527 234.718 43.4033 234.346 43.1045 234.029ZM35.8447 241.298C35.6865 241.146 35.5078 241.034 35.3086 240.964C35.1094 240.888 34.8838 240.85 34.6318 240.85C34.0986 240.85 33.6035 241.078 33.1465 241.535C32.6953 241.986 32.4697 242.496 32.4697 243.064C32.4697 243.551 32.6162 243.94 32.9092 244.233C33.2021 244.526 33.5801 244.673 34.043 244.673C34.1367 244.673 34.207 244.67 34.2539 244.664C34.7695 244.6 35.2207 244.374 35.6074 243.987C35.8184 243.776 35.9824 243.557 36.0996 243.328C36.2168 243.1 36.2754 242.856 36.2754 242.599C36.2754 242.312 36.2432 242.065 36.1787 241.86C36.1201 241.649 36.0088 241.462 35.8447 241.298ZM39.9492 238.266L37.1455 241.078C37.4561 241.594 37.6113 242.156 37.6113 242.766C37.6113 243.656 37.2949 244.418 36.6621 245.051C36.0352 245.684 35.2734 246 34.377 246C33.4805 246 32.7158 245.687 32.083 245.06C31.4561 244.427 31.1426 243.662 31.1426 242.766C31.1426 241.863 31.4561 241.099 32.083 240.472C32.7158 239.839 33.4834 239.522 34.3857 239.522C34.9775 239.522 35.5371 239.681 36.0645 239.997L38.8682 237.185C38.5576 236.663 38.4023 236.101 38.4023 235.497C38.4023 234.601 38.7188 233.836 39.3516 233.203C39.9844 232.57 40.749 232.254 41.6455 232.254C42.5186 232.254 43.2744 232.57 43.9131 233.203C44.5518 233.83 44.8711 234.595 44.8711 235.497C44.8711 236.399 44.5547 237.164 43.9219 237.791C43.2949 238.418 42.5361 238.731 41.6455 238.731C41.3408 238.731 41.0479 238.693 40.7666 238.617C40.4854 238.541 40.2129 238.424 39.9492 238.266Z" fill="#D30907"/>
<rect x="25.5" y="250.5" width="25" height="25" fill="white" stroke="#DFDFDF"/>
<rect x="25.5" y="275.5" width="25" height="25" fill="white" stroke="#DFDFDF"/>
<rect x="25.5" y="300.5" width="25" height="25" fill="white" stroke="#DFDFDF"/>
<path d="M33.1992 307.959H43.1309V317.891H33.1992V307.959ZM34.5352 309.26V316.546H41.8213V309.26H34.5352Z" fill="#D404FA"/>
<rect x="50.5" y="75.5" width="25" height="25" fill="white" stroke="#DFDFDF"/>
<rect x="50.5" y="100.5" width="25" height="25" fill="white" stroke="#DFDFDF"/>
<rect x="50.5" y="125.5" width="25" height="25" fill="white" stroke="#DFDFDF"/>
<rect x="50.5" y="150.5" width="25" height="25" fill="white" stroke="#DFDFDF"/>
<rect x="50.5" y="175.5" width="25" height="25" fill="white" stroke="#DFDFDF"/>
<path d="M57.083 185.859V184.33H68.9219V185.859H64.3252L68.7725 190.922L67.6211 191.933L63.0068 186.659L58.375 191.933L57.2324 190.922L61.6709 185.859H57.083Z" fill="#73E02C"/>
<rect x="50.5" y="200.5" width="25" height="25" fill="white" stroke="#DFDFDF"/>
<rect x="50.5" y="225.5" width="25" height="25" fill="white" stroke="#DFDFDF"/>
<rect x="50.5" y="250.5" width="25" height="25" fill="white" stroke="#DFDFDF"/>
<path d="M62.998 260.306L58.7529 267.557H67.2344L62.998 260.306ZM63.0068 257.203L69.8623 269.051H56.1514L63.0068 257.203Z" fill="#73E02C"/>
<rect x="50.5" y="275.5" width="25" height="25" fill="white" stroke="#DFDFDF"/>
<rect x="50.5" y="300.5" width="25" height="25" fill="white" stroke="#DFDFDF"/>
<rect x="175.5" y="300.5" width="25" height="25" fill="white" stroke="#DFDFDF"/>
<rect x="75.5" y="100.5" width="25" height="25" fill="white" stroke="#DFDFDF"/>
<rect x="75.5" y="125.5" width="25" height="25" fill="white" stroke="#DFDFDF"/>
<path d="M92.2432 141.458L88.7715 139.454V143.462H87.2422V139.454L83.7705 141.458L83.0059 140.131L86.4775 138.127L83.0059 136.123L83.7705 134.805L87.2422 136.809V132.801H88.7715V136.809L92.2432 134.805L93.0078 136.123L89.5361 138.127L93.0078 140.131L92.2432 141.458Z" fill="#356715"/>
<rect x="75.5" y="150.5" width="25" height="25" fill="white" stroke="#DFDFDF"/>
<rect x="75.5" y="175.5" width="25" height="25" fill="white" stroke="#DFDFDF"/>
<rect x="75.5" y="200.5" width="25" height="25" fill="white" stroke="#DFDFDF"/>
<path d="M87.998 210.306L83.7529 217.557H92.2344L87.998 210.306ZM88.0068 207.203L94.8623 219.051H81.1514L88.0068 207.203Z" fill="#73E02C"/>
<rect x="75.5" y="225.5" width="25" height="25" fill="white" stroke="#DFDFDF"/>
<rect x="75.5" y="250.5" width="25" height="25" fill="white" stroke="#DFDFDF"/>
<rect x="75.5" y="275.5" width="25" height="25" fill="white" stroke="#DFDFDF"/>
<rect x="175.5" y="275.5" width="25" height="25" fill="white" stroke="#DFDFDF"/>
<rect x="75.5" y="300.5" width="25" height="25" fill="white" stroke="#DFDFDF"/>
<rect x="200.5" y="300.5" width="25" height="25" fill="white" stroke="#DFDFDF"/>
<path d="M207.083 311.859V310.33H218.922V311.859H214.325L218.772 316.922L217.621 317.933L213.007 312.659L208.375 317.933L207.232 316.922L211.671 311.859H207.083Z" fill="#73E02C"/>
<rect x="100.5" y="125.5" width="25" height="25" fill="white" stroke="#DFDFDF"/>
<rect x="100.5" y="150.5" width="25" height="25" fill="white" stroke="#DFDFDF"/>
<rect x="100.5" y="175.5" width="25" height="25" fill="white" stroke="#DFDFDF"/>
<rect x="100.5" y="200.5" width="25" height="25" fill="white" stroke="#DFDFDF"/>
<rect x="100.5" y="225.5" width="25" height="25" fill="white" stroke="#DFDFDF"/>
<rect x="100.5" y="250.5" width="25" height="25" fill="white" stroke="#DFDFDF"/>
<rect x="175.5" y="250.5" width="25" height="25" fill="white" stroke="#DFDFDF"/>
<path d="M183.199 257.959H193.131V267.891H183.199V257.959ZM184.535 259.26V266.546H191.821V259.26H184.535Z" fill="#D404FA"/>
<rect x="100.5" y="275.5" width="25" height="25" fill="white" stroke="#DFDFDF"/>
<path d="M112.998 285.306L108.753 292.557H117.234L112.998 285.306ZM113.007 282.203L119.862 294.051H106.151L113.007 282.203Z" fill="#73E02C"/>
<rect x="200.5" y="275.5" width="25" height="25" fill="white" stroke="#DFDFDF"/>
<rect x="100.5" y="300.5" width="25" height="25" fill="white" stroke="#DFDFDF"/>
<rect x="225.5" y="300.5" width="25" height="25" fill="white" stroke="#DFDFDF"/>
<path d="M233.199 307.959H243.131V317.891H233.199V307.959ZM234.535 309.26V316.546H241.821V309.26H234.535Z" fill="#D404FA"/>
<rect x="125.5" y="150.5" width="25" height="25" fill="white" stroke="#DFDFDF"/>
<rect x="125.5" y="175.5" width="25" height="25" fill="white" stroke="#DFDFDF"/>
<rect x="125.5" y="200.5" width="25" height="25" fill="white" stroke="#DFDFDF"/>
<path d="M142.243 216.458L138.771 214.454V218.462H137.242V214.454L133.771 216.458L133.006 215.131L136.478 213.127L133.006 211.123L133.771 209.805L137.242 211.809V207.801H138.771V211.809L142.243 209.805L143.008 211.123L139.536 213.127L143.008 215.131L142.243 216.458Z" fill="#356715"/>
<rect x="125.5" y="225.5" width="25" height="25" fill="white" stroke="#DFDFDF"/>
<rect x="175.5" y="225.5" width="25" height="25" fill="white" stroke="#DFDFDF"/>
<rect x="125.5" y="250.5" width="25" height="25" fill="white" stroke="#DFDFDF"/>
<rect x="200.5" y="250.5" width="25" height="25" fill="white" stroke="#DFDFDF"/>
<rect x="125.5" y="275.5" width="25" height="25" fill="white" stroke="#DFDFDF"/>
<path d="M132.083 285.859V284.33H143.922V285.859H139.325L143.772 290.922L142.621 291.933L138.007 286.659L133.375 291.933L132.232 290.922L136.671 285.859H132.083Z" fill="#73E02C"/>
<rect x="225.5" y="275.5" width="25" height="25" fill="white" stroke="#DFDFDF"/>
<rect x="125.5" y="300.5" width="25" height="25" fill="white" stroke="#DFDFDF"/>
<rect x="250.5" y="300.5" width="25" height="25" fill="white" stroke="#DFDFDF"/>
<rect x="150.5" y="175.5" width="25" height="25" fill="white" stroke="#DFDFDF"/>
<rect x="150.5" y="200.5" width="25" height="25" fill="white" stroke="#DFDFDF"/>
<path d="M158.199 207.959H168.131V217.891H158.199V207.959ZM159.535 209.26V216.546H166.821V209.26H159.535Z" fill="#D404FA"/>
<rect x="175.5" y="200.5" width="25" height="25" fill="white" stroke="#DFDFDF"/>
<rect x="150.5" y="225.5" width="25" height="25" fill="white" stroke="#DFDFDF"/>
<path d="M157.083 236.859V235.33H168.922V236.859H164.325L168.772 241.922L167.621 242.933L163.007 237.659L158.375 242.933L157.232 241.922L161.671 236.859H157.083Z" fill="#73E02C"/>
<rect x="200.5" y="225.5" width="25" height="25" fill="white" stroke="#DFDFDF"/>
<path d="M217.243 241.458L213.771 239.454V243.462H212.242V239.454L208.771 241.458L208.006 240.131L211.478 238.127L208.006 236.123L208.771 234.805L212.242 236.809V232.801H213.771V236.809L217.243 234.805L218.008 236.123L214.536 238.127L218.008 240.131L217.243 241.458Z" fill="#356715"/>
<rect x="150.5" y="250.5" width="25" height="25" fill="white" stroke="#DFDFDF"/>
<rect x="225.5" y="250.5" width="25" height="25" fill="white" stroke="#DFDFDF"/>
<rect x="150.5" y="275.5" width="25" height="25" fill="white" stroke="#DFDFDF"/>
<rect x="250.5" y="275.5" width="25" height="25" fill="white" stroke="#DFDFDF"/>
<rect x="150.5" y="300.5" width="25" height="25" fill="white" stroke="#DFDFDF"/>
<path d="M162.998 310.306L158.753 317.557H167.234L162.998 310.306ZM163.007 307.203L169.862 319.051H156.151L163.007 307.203Z" fill="#73E02C"/>
<rect x="275.5" y="300.5" width="25" height="25" fill="white" stroke="#DFDFDF"/>
</svg>
