<svg width="52" height="58" viewBox="0 0 52 58" fill="none" xmlns="http://www.w3.org/2000/svg">
<g clip-path="url(#clip0_42_1447)">
<path d="M47.6262 32.3512L47.8326 32.3502C48.7725 32.4626 49.5072 33.2674 49.5083 34.2361L49.5082 34.2361L49.5083 34.2416C49.5207 35.2643 48.6741 36.1188 47.6385 36.1291L47.554 36.1299L47.4745 36.1585C47.2846 36.2266 47.1023 36.3745 46.9651 36.4972C46.8114 36.6348 46.6457 36.8051 46.4829 36.9826C46.1567 37.3386 45.8153 37.7538 45.5645 38.0621L45.5636 38.0631C44.0853 39.8902 42.2033 42.1356 39.0693 42.1458C35.95 42.1418 34.5002 39.702 33.3279 37.6822C32.7788 36.735 32.3506 36.0478 31.9394 35.6005C31.5031 35.1261 31.0455 34.8783 30.4585 34.8764C30.2133 34.8721 29.9667 34.9032 29.7205 35.0104C29.4742 35.1177 29.263 35.286 29.0656 35.505C28.6879 35.9241 28.2988 36.6028 27.7746 37.6103C26.8042 39.4657 25.5271 41.8735 22.6125 41.8839C19.6575 41.8803 18.0415 39.4054 16.7315 37.3321L16.7298 37.3295C16.714 37.3049 16.6976 37.2793 16.6806 37.2527C16.4529 36.8968 16.1207 36.3778 15.7917 35.9251C15.6154 35.6825 15.4314 35.4468 15.2575 35.2608C15.1708 35.168 15.0784 35.0786 14.9836 35.005C14.8966 34.9374 14.77 34.8529 14.6162 34.8156L14.5584 34.8016L14.499 34.8016C14.1315 34.8012 13.7608 35.0081 13.4643 35.2128C13.1428 35.4349 12.7998 35.7335 12.4665 36.052C11.823 36.6671 11.1678 37.4033 10.7072 37.921L10.6561 37.9784L10.6546 37.9801C9.78783 38.9627 8.98037 39.8713 8.12233 40.5414C7.27329 41.2044 6.41424 41.6014 5.45121 41.6069C4.40769 41.6049 3.55479 40.7514 3.55365 39.7077L3.55368 39.7077L3.55361 39.7019C3.54133 38.7261 4.3062 37.9031 5.29204 37.8124L5.40325 37.8022L5.49954 37.7456C5.81267 37.5617 6.23931 37.1502 6.63438 36.7411C7.04721 36.3137 7.48327 35.8265 7.82718 35.4395L7.86029 35.4024C8.81693 34.3312 9.79623 33.2347 10.888 32.3955C11.9854 31.5519 13.1569 31.0004 14.4794 30.995C15.8117 30.9968 16.8397 31.5523 17.7066 32.3693C18.5821 33.1944 19.2691 34.262 19.919 35.2721L19.9301 35.2892C20.2646 35.8224 20.6805 36.4836 21.0962 37.0119C21.304 37.2759 21.526 37.5255 21.7518 37.7134C21.9619 37.8883 22.2539 38.077 22.5926 38.0774L22.5931 37.5774L22.5926 38.0774C22.9069 38.0777 23.1407 37.8681 23.2629 37.743C23.4107 37.5917 23.5525 37.3954 23.682 37.1938C23.9426 36.7882 24.207 36.2761 24.4274 35.8418C25.4752 33.8305 26.9258 31.0934 30.4495 31.0842L30.4495 31.0842C33.8709 31.0748 35.4643 33.7747 36.6355 35.7924L36.6355 35.7925C37.1276 36.6401 37.5074 37.2592 37.8444 37.6635C38.1826 38.0691 38.5651 38.3647 39.0738 38.3535C39.7703 38.3442 40.3588 38.0328 40.9125 37.5617C41.458 37.0977 42.0156 36.4384 42.649 35.6624C43.9535 34.064 45.3869 32.3615 47.6262 32.3512Z" fill="#7533B6" stroke="white"/>
<path d="M5.37553 26.1112L5.29599 26.1116L5.25912 26.1239C4.25 26.0823 3.43757 25.2449 3.43646 24.2262C3.43536 23.2187 4.19985 22.3981 5.16334 22.3319L5.2718 22.3245L5.36737 22.2726C5.54716 22.1752 5.74087 22.0184 5.92363 21.8538C6.11317 21.683 6.31836 21.4784 6.5241 21.2635C6.89484 20.8762 7.28398 20.4379 7.60707 20.0739C7.6422 20.0344 7.67654 19.9957 7.71 19.958L7.74311 19.921C8.69975 18.8498 9.67905 17.7532 10.7708 16.9141C11.8686 16.0702 13.0406 15.5186 14.3636 15.5136C15.7035 15.5086 16.7343 16.0611 17.6002 16.8771C18.48 17.7063 19.1666 18.785 19.8119 19.8062C20.1466 20.3397 20.563 21.0017 20.9791 21.5305C21.1868 21.7945 21.4088 22.044 21.6346 22.2319C21.8447 22.4068 22.1367 22.5955 22.4754 22.5959C22.7897 22.5963 23.0235 22.3867 23.1457 22.2616C23.2936 22.1102 23.4353 21.914 23.5649 21.7123C23.8253 21.307 24.0896 20.7952 24.3099 20.3611C25.3729 18.3339 26.8231 15.5977 30.3466 15.5884L30.3486 15.5884C33.7538 15.5659 35.3607 18.2776 36.5326 20.2966L36.5327 20.2967C37.0247 21.1443 37.4045 21.7635 37.7416 22.1677C38.0797 22.5734 38.4623 22.869 38.971 22.8577C39.6675 22.8484 40.2559 22.537 40.8097 22.066C41.3551 21.6019 41.9128 20.9426 42.5461 20.1666C43.8504 18.5685 45.2834 16.8665 47.5219 16.8554C48.5656 16.8573 49.4186 17.7108 49.4198 18.7547L49.9165 18.7541L49.4198 18.7547C49.4209 19.799 48.5825 20.6374 47.5501 20.6476L47.4656 20.6485L47.386 20.677C47.1962 20.7452 47.0138 20.8931 46.8767 21.0158C46.7229 21.1533 46.5572 21.3236 46.3944 21.5012C46.0682 21.8572 45.7268 22.2724 45.476 22.5807L45.4749 22.5821C44.0115 24.3941 42.1292 26.6398 38.9952 26.65C35.8759 26.646 34.4409 24.2211 33.2533 22.1858C32.7045 21.239 32.2763 20.5519 31.8652 20.1048C31.429 19.6303 30.9714 19.3826 30.3844 19.3806C30.1392 19.3763 29.8925 19.4074 29.6463 19.5147C29.4001 19.6219 29.1889 19.7902 28.9914 20.0093C28.6137 20.4283 28.2247 21.107 27.7005 22.1145C26.73 23.9699 25.4529 26.3779 22.5381 26.3882C19.5833 26.3844 17.9673 23.9095 16.6573 21.8364L16.6556 21.8337C16.6399 21.8091 16.6235 21.7835 16.6065 21.757C16.3788 21.4011 16.0466 20.8821 15.7175 20.4293C15.5413 20.1868 15.3572 19.9511 15.1834 19.7651C15.0966 19.6722 15.0042 19.5828 14.9095 19.5092C14.8224 19.4416 14.6958 19.3572 14.5421 19.3199L14.4843 19.3059L14.4248 19.3058C14.058 19.3054 13.6885 19.5108 13.3925 19.7148C13.072 19.9358 12.7302 20.2332 12.3978 20.5509C11.7624 21.1581 11.1139 21.8857 10.6482 22.4083C10.6258 22.4335 10.6038 22.4582 10.5822 22.4823L10.5804 22.4843C9.71368 23.4669 8.90622 24.3756 8.04817 25.0456C7.19869 25.709 6.33918 26.106 5.37553 26.1112Z" fill="#7533B6" stroke="white"/>
</g>
<defs>
<clipPath id="clip0_42_1447">
<rect width="51.3949" height="57.263" fill="white" transform="translate(0 0.515869)"/>
</clipPath>
</defs>
</svg>
