<svg width="52" height="58" viewBox="0 0 52 58" fill="none" xmlns="http://www.w3.org/2000/svg">
<g clip-path="url(#clip0_42_1377)">
<path d="M41.9177 34.5627C43.6759 34.1365 46.0964 31.2866 47.1747 28.3201L45.0461 17.3558C45.0376 17.3443 45.0292 17.3329 45.0207 17.3215C44.8122 17.041 44.5929 16.7706 44.3637 16.5108M41.9177 34.5627L41.8039 34.0758C41.8032 34.076 41.8025 34.0762 41.8018 34.0763M41.9177 34.5627L41.8 34.0768C41.8006 34.0766 41.8012 34.0765 41.8018 34.0763M41.9177 34.5627C40.5283 34.8876 39.1058 34.0291 38.7772 32.6231C38.4916 31.4129 39.104 30.1703 40.2064 29.6619C40.6567 29.2758 42.2274 27.618 42.6191 25.2741C42.8912 23.5106 42.4436 21.8433 41.1876 20.1477C39.1679 17.4083 35.3973 16.161 32.2072 17.1883L19.8216 12.8657M41.8018 34.0763C42.5215 33.901 43.4787 33.1852 44.4192 32.0714C45.3436 30.9766 46.1872 29.5732 46.7048 28.1493L46.7054 28.1477C47.6557 25.5607 48.1341 21.6155 44.983 17.3493L44.3637 16.5108M41.8018 34.0763C40.6767 34.3382 39.5285 33.6405 39.2641 32.5093L39.2639 32.5082C39.0326 31.5283 39.5304 30.5242 40.4158 30.1159L40.479 30.0868L40.5318 30.0415C41.0307 29.6138 42.694 27.8596 43.1123 25.3565L43.1123 25.3565L43.1133 25.3503C43.4086 23.436 42.9127 21.6365 41.5895 19.8503C39.4455 16.9429 35.4535 15.6176 32.054 16.7123L32.0516 16.7131C28.9541 17.7274 27.2813 20.4841 27.2384 24.2991C27.2384 24.2992 27.2384 24.2994 27.2384 24.2995L26.9602 46.0373L26.9602 46.0389C26.9492 47.1963 25.9918 48.1247 24.8183 48.1146C23.6569 48.1046 22.7298 47.1497 22.7404 45.9817C22.7404 45.9814 22.7404 45.9811 22.7404 45.9808L23.024 24.5524C23.024 24.552 23.0241 24.5516 23.0241 24.5512C23.0869 20.7317 21.4789 17.9353 18.4146 16.8593L18.4139 16.8591C15.0646 15.6886 11.0386 16.9024 8.80653 19.7653L8.80652 19.7653L8.80366 19.769C7.47778 21.5029 6.8983 23.2872 7.16419 25.2191C7.49643 27.7379 9.13401 29.5315 9.61389 29.9678L9.66303 30.0124L9.72213 30.0427C10.588 30.4866 11.0667 31.4764 10.8018 32.4599L10.8018 32.4599L10.8 32.4668C10.5186 33.5744 9.35559 34.2419 8.21419 33.9552C7.50159 33.7668 6.56458 33.0305 5.65296 31.8948C4.75695 30.7786 3.94946 29.3558 3.46794 27.9241L3.46735 27.9224C2.58394 25.3272 2.21953 21.3664 5.45896 17.1803C8.83252 12.8636 14.7289 11.1009 19.8216 12.8657M44.3637 16.5108C41.027 12.7273 35.5927 11.1606 30.7962 12.6903L30.7957 12.6904C28.6104 13.3847 26.8543 14.6891 25.5378 16.4123L25.1432 16.9289L24.7452 16.4149C23.5104 14.8202 21.8631 13.5751 19.8216 12.8657M44.3637 16.5108L19.8216 12.8657" fill="#7533B6" stroke="white"/>
</g>
<defs>
<clipPath id="clip0_42_1377">
<rect width="51.3949" height="57.263" fill="white" transform="translate(0 0.515869)"/>
</clipPath>
</defs>
</svg>
