<svg width="128" height="115" viewBox="0 0 128 115" fill="none" xmlns="http://www.w3.org/2000/svg">
<path d="M74.895 17.6356C87.3667 13.6584 101.546 18.0599 109.755 28.3597L109.629 28.3464L110.304 29.2603C118.171 39.9115 116.982 49.8051 114.603 56.2811L114.602 56.2827C113.308 59.842 111.206 63.3387 108.899 66.0699C106.577 68.8199 104.116 70.7147 102.131 71.1969C99.0056 71.9269 95.8093 69.9932 95.0718 66.8376L95.0716 66.8365C94.429 64.1144 95.8084 61.3212 98.281 60.181L98.3442 60.1518L98.3971 60.1065C99.5443 59.1231 103.469 54.982 104.451 49.1045L104.452 49.0983C105.139 44.6451 103.999 40.4451 100.867 36.2178C95.8155 29.3666 86.395 26.2456 78.4029 28.8193L78.4005 28.82C71.2127 31.1737 67.2555 37.5638 67.1536 46.6525L66.4749 99.6871L66.4749 99.6887C66.4441 102.919 63.774 105.494 60.5233 105.466C57.2849 105.438 54.7101 102.775 54.7402 99.5345C54.7402 99.534 54.7402 99.5336 54.7402 99.5331L55.4323 47.2496C55.5829 38.1497 51.7755 31.6674 44.6679 29.1718L44.6672 29.1716C36.7955 26.4206 27.2945 29.2771 22.0334 36.0249L22.0334 36.0249L22.0305 36.0286C18.8858 40.1412 17.5544 44.3067 18.1723 48.7918C18.9509 54.7003 22.811 58.9328 23.9196 59.9406L23.9688 59.9852L24.0279 60.0155C26.4286 61.2463 27.7672 63.9982 27.0287 66.7405L27.0286 66.7405L27.0269 66.7474C26.2364 69.858 22.9889 71.6914 19.8409 70.8985C17.8714 70.3796 15.4615 68.4292 13.2106 65.6252C10.9754 62.8407 8.96251 59.2955 7.75891 55.7168L7.75832 55.715C5.54547 49.2145 4.64325 39.2833 12.7304 28.8338C21.1471 18.0629 35.8546 13.6607 48.5758 18.0695C53.6948 19.8485 57.8268 22.9726 60.9202 26.9676L61.3182 27.4816L61.7129 26.9651C65.009 22.6508 69.4139 19.3771 74.8945 17.6358L74.895 17.6356Z" fill="#7533B6" stroke="white"/>
</svg>
