<svg width="52" height="58" viewBox="0 0 52 58" fill="none" xmlns="http://www.w3.org/2000/svg">
<g clip-path="url(#clip0_42_1409)">
<path d="M40.0311 35.9087L40.0722 35.8813L40.091 35.8625C41.0679 35.2344 42.3839 35.5098 43.0421 36.5067C43.6895 37.4975 43.4289 38.8431 42.4287 39.5079C42.4279 39.5084 42.4271 39.509 42.4263 39.5095L42.4161 39.516C42.0723 39.738 39.3508 41.4946 35.3546 43.0058C31.2847 44.5449 25.9316 45.8146 20.4396 44.9836L20.4394 44.9836C17.5967 44.5543 14.6966 43.5401 11.9312 41.725L11.8772 41.6896L11.816 41.669C7.99606 40.3866 5.53284 36.5207 6.15338 32.4124L6.15341 32.4122C6.84969 27.7916 11.1589 24.606 15.7667 25.3034C20.3749 26.0008 23.5556 30.3186 22.8594 34.9392L22.8591 34.9411C22.5779 36.8571 21.6404 38.4972 20.3549 39.7476L19.6528 40.4306L20.6178 40.5986C25.446 41.4393 30.2763 40.274 33.8872 38.9113C37.5037 37.5465 39.9489 35.9636 40.0311 35.9087ZM10.4252 33.0817C10.0849 35.3326 11.6486 37.4438 13.8933 37.7846C16.1421 38.1261 18.2478 36.5569 18.5875 34.3096C18.9278 32.0587 17.3641 29.9476 15.1195 29.6067C12.8707 29.2653 10.765 30.8344 10.4252 33.0817Z" fill="#7533B6" stroke="white"/>
<path d="M31.5933 17.7782L32.2952 17.0955L31.3306 16.9272C26.5122 16.0865 21.6817 17.2518 18.0687 18.6144C14.8885 19.8138 12.6107 21.1815 12.0493 21.5328H12.0223L11.8956 21.6181C10.9152 22.2785 9.57332 22.0092 8.9064 20.9994C8.25874 20.0085 8.51921 18.6628 9.51941 17.9979C9.5232 17.9955 9.52742 17.9928 9.53209 17.9898C9.87593 17.7678 12.5974 16.0112 16.5937 14.5C20.6636 12.9609 26.0166 11.6912 31.5086 12.5222L31.5088 12.5222C34.3506 12.9513 37.2315 13.9653 40.0183 15.7817L40.0705 15.8157L40.1294 15.8359C43.9337 17.1382 46.4152 21.0069 45.7949 25.1134L45.7949 25.1136C45.0986 29.7342 40.7893 32.9199 36.1816 32.2225C31.5733 31.525 28.3926 27.2072 29.0889 22.5866L29.0892 22.5847C29.3703 20.6687 30.3078 19.0286 31.5933 17.7782ZM41.5031 24.464C41.8344 22.273 40.379 20.2078 38.2213 19.7899L38.1973 19.7658L38.035 19.7412C35.7863 19.3997 33.6805 20.9689 33.3408 23.2162C33.0005 25.4671 34.5642 27.5783 36.8089 27.9191C39.0536 28.26 41.1627 26.7154 41.5031 24.464Z" fill="#7533B6" stroke="white"/>
</g>
<defs>
<clipPath id="clip0_42_1409">
<rect width="51.3949" height="57.263" fill="white" transform="translate(0 0.515869)"/>
</clipPath>
</defs>
</svg>
