<svg width="52" height="58" viewBox="0 0 52 58" fill="none" xmlns="http://www.w3.org/2000/svg">
<g clip-path="url(#clip0_42_1403)">
<path d="M40.1756 24.2901L40.0862 24.2895C36.7756 24.2688 33.8559 25.8665 32.0142 28.3183L31.5102 28.9893L31.16 28.2267C30.1806 26.0933 29.2266 23.1811 29.2587 19.9194C29.267 18.1293 28.5577 16.644 27.3159 15.5931C26.0662 14.5356 24.2448 13.8925 22.0037 13.8731L22.003 13.8731C19.6874 13.8495 17.3273 14.5417 15.74 15.8205L15.4313 16.0693L15.1187 15.8254C13.1495 14.2887 10.2459 13.3961 7.87892 13.374L7.87756 13.374C6.0096 13.3515 4.42574 13.8426 3.26658 14.7466L3.26438 14.7483C2.27317 15.5124 1.06559 17.0045 1.03887 19.666C1.03805 20.6728 1.84668 21.4992 2.8584 21.5185C3.8635 21.5199 4.68138 20.711 4.68351 19.7095C4.6839 19.1148 4.76981 18.4983 5.14464 17.9979C5.52974 17.4839 6.14614 17.1867 6.99591 17.0689M40.1756 24.2901L7.06521 17.564M40.1756 24.2901L40.192 24.2841M40.1756 24.2901L40.192 24.2841M6.99591 17.0689C6.99615 17.0688 6.99639 17.0688 6.99662 17.0688L7.06521 17.564M6.99591 17.0689C6.99571 17.0689 6.99553 17.0689 6.99533 17.069L7.06521 17.564M6.99591 17.0689C8.4994 16.8568 10.0712 17.2499 11.2807 17.777C11.8895 18.0423 12.4241 18.3492 12.8298 18.6486C13.0323 18.798 13.2107 18.9515 13.3518 19.1036C13.485 19.2472 13.6192 19.4257 13.6817 19.6275L13.7045 19.7013L13.704 19.7785L13.5829 38.7778L13.0829 38.7769M7.06521 17.564C9.82649 17.1743 12.9664 19.007 13.204 19.7753L13.0829 38.7769M13.0829 38.7769C13.0805 40.0593 14.1105 41.1101 15.3972 41.1323L13.0829 38.7769ZM40.192 24.2841C45.6957 24.3772 50.1245 28.9192 50.087 34.4469C50.0494 40.0018 45.503 44.4772 39.9581 44.4328C37.6465 44.3982 35.5316 43.5761 33.8498 42.2455L33.4534 41.9319L33.1441 42.3316C30.7809 45.3853 25.9148 50.0675 18.209 50.1488L18.124 50.1497L18.0979 50.1591C17.1423 50.1078 16.3774 49.3314 16.3656 48.3607L16.3656 48.3583C16.3484 47.3451 17.1464 46.5275 18.165 46.5108C25.33 46.4252 29.4897 41.3503 30.947 39.1415L31.1029 38.9052L30.9806 38.65C30.3452 37.3242 29.9624 35.8366 29.9725 34.2697C29.973 34.2265 29.9792 34.1786 29.9913 34.0935L29.9926 34.0841C30.0033 34.0092 30.0189 33.9007 30.0201 33.7857L30.0217 33.6285L29.9332 33.4987C28.7424 31.7519 25.5749 26.4557 25.614 19.8791L25.6141 19.8791L25.614 19.8736C25.6123 19.5339 25.5541 19.2172 25.4015 18.9282C25.2486 18.6388 25.0216 18.4164 24.7451 18.2317C24.0653 17.7699 23.0428 17.5431 21.9759 17.5256L21.9759 17.5255L21.9701 17.5255C20.7919 17.5196 19.6913 17.779 18.87 18.1598C18.4604 18.3497 18.1012 18.5786 17.8356 18.837C17.579 19.0866 17.3529 19.4211 17.3487 19.8169L17.3487 19.8191L17.2275 38.8207L17.2275 38.8229C17.2256 39.8247 16.4076 40.6338 15.4023 40.6323C14.3903 40.6129 13.5816 39.7861 13.5829 38.779L40.192 24.2841ZM33.5992 34.3163C33.5811 37.8505 36.4382 40.7637 39.9714 40.7868C43.5023 40.8099 46.4063 37.9501 46.4245 34.4124C46.4426 30.8782 43.5855 27.965 40.0522 27.9419C36.5213 27.9188 33.6173 30.7786 33.5992 34.3163Z" fill="#7533B6" stroke="white"/>
</g>
<defs>
<clipPath id="clip0_42_1403">
<rect width="51.3949" height="57.263" fill="white" transform="translate(0 0.515869)"/>
</clipPath>
</defs>
</svg>
