<svg width="52" height="58" viewBox="0 0 52 58" fill="none" xmlns="http://www.w3.org/2000/svg">
<g clip-path="url(#clip0_42_1397)">
<path d="M44.683 29.6017L44.6839 29.603C45.622 30.97 45.793 32.5791 45.4966 34.1783C45.1994 35.7817 44.4365 37.3412 43.5601 38.5465C43.0358 39.2615 41.9149 40.2552 40.5132 41.004C39.1216 41.7474 37.5249 42.2113 36.0271 41.982C33.1666 41.1245 31.1546 39.6227 30.0297 37.6818C28.9017 35.7356 28.6275 33.2824 29.3729 30.4543C30.408 26.5295 30.9279 22.8378 30.9195 19.7687C30.9112 16.7266 30.3841 14.202 29.2287 12.6993C28.9593 12.3431 28.5641 11.9086 27.9377 11.5647C27.3102 11.2202 26.4811 10.9834 25.3656 10.9751V10.975L25.3536 10.9752C22.3307 11.0254 20.0909 11.8254 18.9693 13.5467L18.9673 13.5499C17.9782 15.0933 17.9034 17.1889 18.1444 19.0848C18.3878 21.0007 18.9683 22.8234 19.4084 23.9111L19.5084 24.1582L19.7692 24.2129C22.5748 24.8019 25.0515 26.6852 26.2479 29.4959L26.2481 29.4964C28.1937 34.0515 26.0592 39.3236 21.5221 41.2463C16.9859 43.1686 11.7195 41.0372 9.7727 36.4795C7.85031 31.9615 9.93927 26.7329 14.4415 24.7729C14.5184 24.7553 14.5734 24.7244 14.598 24.7097C14.6333 24.6886 14.6596 24.6676 14.6744 24.655C14.6827 24.648 14.6897 24.6417 14.6954 24.6365L14.7032 24.6291L14.7065 24.6259L14.708 24.6244L14.7087 24.6236L14.7091 24.6233L14.7092 24.6231C14.7093 24.623 14.7094 24.6229 14.356 24.2692L14.7094 24.6229L14.9284 24.4042L14.8302 24.1107C14.3254 22.6004 13.7621 20.4123 13.6668 18.0743C13.5714 15.7348 13.9459 13.284 15.2748 11.2078L15.275 11.2077C17.1603 8.25954 20.5006 6.68915 25.345 6.60309C28.5138 6.63335 31.0273 7.84994 32.7249 10.0661C34.891 12.9067 35.447 17.0989 35.2771 21.2397C35.1081 25.3599 34.2258 29.3223 33.6219 31.6104C33.2987 32.8261 33.6112 34.342 34.2738 35.5443C34.9318 36.7382 36.0338 37.7898 37.4222 37.8236L37.4252 37.8237C38.1813 37.8376 38.8043 37.4534 39.2845 36.956C39.7638 36.4595 40.1428 35.8099 40.4288 35.1784C40.7167 34.5429 40.9228 33.8979 41.0451 33.3876C41.106 33.1331 41.1484 32.9029 41.1684 32.7179C41.1783 32.6266 41.184 32.5344 41.181 32.4502C41.1794 32.4082 41.1754 32.358 41.165 32.3056C41.1559 32.26 41.135 32.1752 41.0787 32.0891L41.0788 32.0891L41.0732 32.0809C40.3836 31.0688 40.6329 29.7139 41.6334 29.0333L41.6334 29.0333L41.6375 29.0305C42.6168 28.3498 43.9976 28.5958 44.683 29.6017ZM13.8018 34.7877C14.7787 37.1186 17.4898 38.2112 19.8045 37.2266C22.1388 36.2524 23.206 33.5538 22.2329 31.2294C21.2566 28.8972 18.5446 27.8038 16.2294 28.7886C13.8983 29.7615 12.8127 32.4721 13.8018 34.7877Z" fill="#7533B6" stroke="white"/>
</g>
<defs>
<clipPath id="clip0_42_1397">
<rect width="51.3949" height="57.263" fill="white" transform="translate(0 0.515869)"/>
</clipPath>
</defs>
</svg>
