<svg width="203" height="227" viewBox="0 0 203 227" fill="none" xmlns="http://www.w3.org/2000/svg">
<path d="M130.848 154.363L130.316 154.972L131.099 155.175C141.143 157.787 149.098 162.005 154.757 167.742L154.757 167.743C163.52 176.588 163.913 185.803 163.897 187.447L163.897 187.449C163.865 192.606 159.698 196.699 154.432 196.731C149.196 196.682 145.049 192.483 145.101 187.24L145.101 187.218L145.099 187.197C144.874 184.257 142.173 180.063 135.471 176.636C128.748 173.199 117.928 170.488 101.252 170.533L101.251 170.533C84.176 170.604 72.8155 173.563 65.5699 177.308C58.3395 181.044 55.1564 185.595 54.5821 188.868C53.6813 193.912 49.0532 197.467 44.0717 196.827C39.0647 196.183 35.4476 191.873 35.9366 186.843C36.0005 186.28 36.6611 180.651 41.2822 174.066C45.9087 167.472 54.5321 159.88 70.6012 155.464L70.9695 155.363L70.9688 154.981L70.7968 70.3344L70.7961 69.969L70.4477 69.8588C55.998 65.2854 48.2118 57.9845 44.0157 51.7287C39.9225 45.6263 39.2234 40.4855 39.1246 39.7591C39.1229 39.7464 39.1213 39.7351 39.1199 39.7251C38.6776 34.5086 42.4225 29.9094 47.6093 29.4558L47.6191 29.4547C52.7537 28.9038 57.2034 32.5981 57.8668 37.6262L57.8685 37.6395L57.871 37.6526C58.4874 40.9538 61.698 45.4667 68.936 49.1305C76.1877 52.8013 87.5311 55.6505 104.555 55.6087L104.555 55.6087C121.231 55.5639 132.051 52.7895 138.769 49.2606C145.47 45.741 148.154 41.4281 148.363 38.294C148.783 33.2043 153.055 29.1453 158.075 29.3053C163.13 29.4663 167.115 33.3 167.203 38.3138C167.186 39.9939 166.914 49.1862 158.15 58.0602L158.15 58.0605C151.788 64.5142 142.761 69.0271 131.084 71.6696L130.693 71.758L130.694 72.1582L130.848 154.363ZM89.7608 151.566L89.7615 151.952L90.1349 152.049L90.2159 152.07L90.3003 152.092L90.3871 152.084C93.8138 151.771 97.4454 151.682 101.333 151.656L101.334 151.656C104.867 151.627 108.276 151.738 111.562 151.99L112.102 152.031L112.1 151.49L111.891 74.6189L111.89 74.0916L111.364 74.1211C109.177 74.2435 106.917 74.3446 104.601 74.3441C99.2679 74.3371 94.6068 74.073 90.1707 73.6087L89.6177 73.5509L89.6187 74.1069L89.7608 151.566Z" fill="#7533B6" stroke="white"/>
</svg>
