<svg width="52" height="58" viewBox="0 0 52 58" fill="none" xmlns="http://www.w3.org/2000/svg">
<path d="M39.0983 50.4501C40.499 50.442 41.6129 49.3519 41.6215 47.9744C41.6258 47.5375 41.5211 45.1668 39.2709 42.8953L39.0991 49.9501M39.0983 50.4501L39.1028 49.9501C39.1015 49.9501 39.1003 49.9501 39.0991 49.9501M39.0983 50.4501C37.7029 50.4377 36.5956 49.3175 36.6095 47.9194L39.0983 50.4501ZM39.0991 49.9501C40.2334 49.9417 41.1147 49.0648 41.1215 47.9713L41.1215 47.9694C41.125 47.6138 41.0407 45.3923 38.9157 43.2472L38.9149 43.2464C37.5416 41.854 35.5938 40.8131 33.0973 40.164L32.3145 39.9604L32.7539 39.4572L32.7153 18.7853L32.7146 18.385L33.105 18.2967C36.0145 17.6383 38.2276 16.5218 39.7739 14.9532L39.7742 14.9529C41.8869 12.8137 41.9541 10.6105 41.9584 10.2175C41.9373 9.16172 41.1006 8.34323 40.009 8.30844C38.9533 8.27481 38.027 9.13416 37.9345 10.239C37.8679 11.2131 37.0614 12.3964 35.3067 13.318C33.5346 14.2489 30.7298 14.9566 26.4719 14.9681L26.4717 14.9681C22.1233 14.9787 19.1885 14.2515 17.2844 13.2877C15.394 12.3308 14.4698 11.1096 14.2845 10.1171L14.2821 10.104L14.2803 10.0907C14.1377 9.00963 13.1853 8.22745 12.0959 8.34434L12.0861 8.34539L12.0861 8.34529C10.9886 8.44131 10.1852 9.41325 10.2756 10.533C10.2996 10.7109 10.4716 11.9399 11.4539 13.4043C12.4679 14.9161 14.3687 16.7134 17.9484 17.8464L18.2968 17.9567L18.2975 18.3221L18.3411 39.7527L18.3418 40.1347L17.9735 40.2359C13.9841 41.332 11.876 43.2055 10.7574 44.7997C9.64637 46.383 9.48442 47.73 9.46971 47.859C9.36805 48.9201 10.1283 49.839 11.2055 49.9775C12.2573 50.1127 13.2558 49.3603 13.4512 48.2679C13.6247 47.2808 14.5425 46.0494 16.4293 45.0743C18.3317 44.0912 21.2709 43.3357 25.6329 43.3173L25.6337 43.3173C29.8919 43.3058 32.6957 43.9974 34.468 44.9035C36.2204 45.7994 37.0368 46.9516 37.1081 47.8812L37.1097 47.9028L37.1095 47.9244C37.0984 49.0431 37.98 49.9382 39.0991 49.9501ZM22.3519 38.8895L22.3526 39.2753L22.7261 39.3725L22.7466 39.3778L22.831 39.3997L22.9178 39.3918C23.7694 39.3142 24.6762 39.2916 25.6576 39.285L25.6584 39.285C26.5432 39.2777 27.3958 39.3056 28.2164 39.3684L28.756 39.4097L28.7546 38.8685L28.7017 19.4066L28.7003 18.8792L28.1738 18.9087C27.6228 18.9396 27.059 18.9647 26.4831 18.9646C25.1455 18.9628 23.9782 18.8966 22.868 18.7805L22.3149 18.7226L22.316 19.2787L22.3519 38.8895Z" fill="#7533B6" stroke="white"/>
</svg>
