<svg width="52" height="58" viewBox="0 0 52 58" fill="none" xmlns="http://www.w3.org/2000/svg">
<g clip-path="url(#clip0_42_1441)">
<path d="M49.2389 30.3584L49.239 30.3579C50.0676 26.0862 48.5948 22.0299 45.2961 19.4606L45.2958 19.4604C43.5691 18.1133 41.5691 17.4092 39.8053 17.3787L39.3027 17.3699L39.3141 16.8674L39.3655 14.6032L39.3655 14.6024C39.4344 11.7725 38.3167 10.1556 36.8604 9.20985C35.3661 8.23951 33.4586 7.94142 31.9338 7.90326C29.9545 7.85548 28.1213 8.53685 26.7344 9.84876L26.3789 10.185L26.0351 9.83688C24.6423 8.42663 22.7422 7.66569 20.8845 7.61069C18.9308 7.56385 17.1195 8.22744 15.7395 9.50663C15.7162 9.53925 15.6821 9.57944 15.6345 9.61673C15.5413 9.68976 15.3783 9.76121 15.184 9.70915L15.0714 9.67898L14.9837 9.6021C13.6204 8.4064 11.9073 7.73751 10.211 7.68533C8.23255 7.63794 6.39965 8.31915 5.01802 9.612C3.96784 10.6082 2.67367 12.4402 2.59614 15.5066L2.59609 15.5086C2.56105 16.6979 3.51186 17.7017 4.70563 17.7224L4.71217 17.7226L4.71217 17.7226C5.90577 17.7589 6.90841 16.8101 6.9278 15.6215L6.92787 15.6166C6.96977 14.0076 7.53691 13.0547 8.27276 12.5285C8.98025 12.0227 9.75512 11.9762 10.1144 11.9878C10.8532 12.0067 11.6671 12.2746 12.2885 12.9013C12.9181 13.5363 13.3006 14.4894 13.259 15.7794C13.2589 15.7801 13.2589 15.7809 13.2589 15.7816L12.6941 38.3027L12.6941 38.3049C12.659 39.4942 13.6098 40.498 14.8036 40.5187L14.8101 40.5188L14.8101 40.5188C16.0037 40.5552 17.0064 39.6064 17.0258 38.4177L17.0259 38.4133L17.6012 15.5424L17.6012 15.542C17.644 13.9002 18.3222 12.9539 19.1497 12.4474C19.9394 11.964 20.7927 11.9255 21.1442 11.9289C21.5065 11.9325 22.3445 11.9991 23.087 12.5919C23.8539 13.2042 24.4162 14.2929 24.3735 16.1283L24.3735 16.1293C24.3189 18.2909 24.1611 23.9084 24.0169 28.9844C23.9447 31.5226 23.8761 33.9257 23.8254 35.6943L23.7647 37.8089L23.7479 38.3922L23.7436 38.5448L23.7424 38.5839L23.7422 38.5937L23.7421 38.5962L23.7421 38.5968C23.7421 38.597 23.7421 38.597 23.2423 38.5826L23.7421 38.597L23.742 38.5974C23.707 39.7866 24.6578 40.7905 25.8516 40.8112L25.8581 40.8113L25.8581 40.8113C27.0517 40.8476 28.0544 39.8989 28.0738 38.7102L28.0738 38.7058L28.0739 38.7058L28.6492 15.8349L28.6492 15.8344C28.6911 14.2255 29.2582 13.2725 29.9941 12.7464C30.7017 12.2404 31.4767 12.194 31.8359 12.2057C32.575 12.2246 33.3883 12.4926 34.0116 13.1192C34.6431 13.7539 35.031 14.7073 34.9995 15.9998L49.2389 30.3584ZM49.2389 30.3584C48.3142 35.1507 45.3956 39.1183 41.8806 42.1795L41.2068 42.7663L42.0593 43.0337C43.4234 43.4615 45.0061 43.8651 46.553 44.1125C47.7175 44.3092 48.5206 45.4249 48.3217 46.6033L48.3215 46.604C48.1276 47.7614 46.9948 48.563 45.8267 48.3668L45.8247 48.3664C43.8632 48.0452 40.0594 47.2427 37.3203 45.7507L37.0743 45.6167L36.8316 45.7565C33.7887 47.5089 30.8484 48.5644 28.7738 48.9026C28.6077 48.9186 28.4728 48.9306 28.3469 48.9286C27.3206 48.9021 26.4369 48.1503 26.265 47.1028C26.081 45.9147 26.8862 44.799 28.0654 44.6173L28.0654 44.6173L28.0729 44.616C29.7356 44.3339 31.9264 43.549 34.1607 42.3117L34.412 42.1725L34.4184 41.8854L34.7223 28.3458L34.9137 19.8204L34.976 17.0465L34.9934 16.2727L34.998 16.0692L34.9991 16.0171L34.9994 16.0039L34.9995 16.0006L34.9995 16.0005L49.2389 30.3584ZM38.864 37.9651L38.8544 38.3584L39.2345 38.4602L39.2537 38.4654L39.523 38.5376L39.7259 38.3464C42.2481 35.9702 44.3367 32.9738 45 29.5388L45.0002 29.5378C45.6547 26.1085 44.0115 24.0336 42.9309 23.1156C41.7676 22.1238 40.5643 21.7405 39.8416 21.6935L39.324 21.66L39.3094 22.1784C39.265 23.7524 39.2016 25.9428 39.1329 28.3162C39.078 30.2116 39.0198 32.2238 38.9651 34.132L38.965 34.1346C38.9476 34.8776 38.9276 35.6002 38.9084 36.2986C38.8925 36.8711 38.8772 37.4274 38.864 37.9651Z" fill="#7533B6" stroke="white"/>
</g>
<defs>
<clipPath id="clip0_42_1441">
<rect width="51.3949" height="57.263" fill="white" transform="translate(0 0.515869)"/>
</clipPath>
</defs>
</svg>
